<svg width="222" height="181" viewBox="0 0 222 181" fill="none" xmlns="http://www.w3.org/2000/svg">
<g clip-path="url(#clip0)">
<path opacity="0.1" d="M216.602 104.925C216.602 105.063 216.602 105.2 216.602 105.335C216.578 107.707 216.437 110.072 216.179 112.431C216.181 112.445 216.181 112.459 216.179 112.474C216.159 112.67 216.137 112.864 216.114 113.06C216.076 113.391 216.035 113.72 215.99 114.051C215.463 118.085 214.592 122.065 213.385 125.95C211.769 131.2 209.484 136.221 206.587 140.889C205.696 142.317 204.746 143.699 203.739 145.034C203.201 145.742 202.652 146.434 202.085 147.115C201.688 147.591 201.283 148.06 200.87 148.521L200.613 148.805C198.442 151.184 196.102 153.403 193.611 155.446C189.545 158.808 185.168 161.734 180.721 164.448C180.468 164.603 180.213 164.757 179.958 164.899C179.94 164.912 179.921 164.923 179.901 164.932C173.857 168.579 167.589 171.87 161.132 174.505C154.062 177.397 146.762 179.5 139.273 180.419C128.833 181.7 118.267 180.658 107.891 178.869C99.2612 177.389 90.736 175.356 82.3682 172.783L80.9904 172.353C80.2767 172.126 79.5637 171.894 78.8515 171.658C74.5495 170.238 70.2958 168.661 66.0902 166.925C55.5276 162.584 45.437 157.177 35.9756 150.789C34.771 149.98 33.5837 149.154 32.4137 148.309C30.7785 147.134 29.1628 145.925 27.5667 144.681L26.5819 143.919C22.4049 140.655 18.4914 137.068 14.8776 133.192C10.017 127.913 5.86336 121.958 3.13266 115.16C2.70201 114.092 2.3075 113.003 1.94913 111.894L1.91525 111.784C1.73456 111.221 1.56742 110.657 1.41383 110.071C1.18797 109.233 0.989959 108.384 0.819808 107.524C0.78367 107.359 0.752049 107.195 0.722686 107.028C0.182844 104.136 -0.0555838 101.195 0.0112126 98.2534C0.0677025 95.6761 0.370223 93.11 0.914671 90.59C1.47193 87.9776 2.33067 85.4385 3.47372 83.0234C4.50669 80.8518 5.82283 78.8259 7.38795 76.9986C8.48774 75.721 9.72459 74.5676 11.0763 73.559C13.5269 71.7378 16.2441 70.4688 19.0606 69.4658C20.3842 68.9925 21.7258 68.5778 23.0742 68.1923C24.0297 67.9174 24.9896 67.6559 25.945 67.3989L28.7638 66.6394C30.5707 66.148 32.3776 65.6431 34.1574 65.0976C39.009 63.619 43.7634 61.8294 48.161 59.1607C48.8567 58.7392 49.5659 58.2772 50.2751 57.7813C51.1786 57.1547 52.0685 56.474 52.9494 55.7392C53.8393 54.9954 54.7111 54.1997 55.5423 53.3567C55.671 53.226 55.7975 53.0953 55.924 52.9623C56.6016 52.2501 57.2589 51.504 57.8687 50.7286C58.1668 50.35 58.4559 49.9645 58.7315 49.5723C59.1132 49.0291 59.4746 48.4769 59.8089 47.9089C61.4848 45.0689 62.5192 41.9359 62.3973 38.6339C62.3794 38.0898 62.3304 37.5472 62.2505 37.0088C61.9568 35.0185 61.6745 33.0756 61.4667 31.1755C60.5949 23.3159 60.963 16.1889 66.8739 9.49237C74.2235 1.16848 85.7584 -0.528755 96.2589 0.136165C126.617 2.05203 154.254 19.3489 178.541 39.9412C180.642 41.7203 182.717 43.5235 184.766 45.3507C185.283 45.8105 185.8 46.2733 186.318 46.7391C190.158 50.1899 193.939 53.7692 197.46 57.6032C197.744 57.9143 198.029 58.2253 198.309 58.5386C198.481 58.7325 198.655 58.924 198.824 59.1201C199.922 60.3598 200.987 61.6296 202.02 62.9293C204.787 66.38 207.231 70.077 209.32 73.9738C212.519 80.0892 214.685 86.6896 215.73 93.5089C216.123 95.9853 216.382 98.481 216.505 100.985C216.543 101.722 216.568 102.462 216.581 103.199C216.581 103.435 216.581 103.67 216.581 103.906C216.604 104.249 216.604 104.583 216.602 104.925Z" fill="#1769AA"/>
<path d="M88.9861 101.145L85.3723 165.335L88.9861 165.383L91.9224 100.243L88.9861 101.145Z" fill="#3F3D56"/>
<path d="M75.6601 133.667H30.939V143.359H75.6601V133.667Z" fill="#1769AA"/>
<path d="M78.5963 142.229V148.315H32.4003C30.765 147.14 29.1493 145.93 27.5532 144.686V142.229H78.5963Z" fill="#3F3D56"/>
<path d="M87.8204 128.379C87.6939 128.963 87.529 129.54 87.3551 130.114C86.8424 131.776 86.2258 133.414 86.1061 135.141C85.9457 137.422 86.5578 140.075 84.9768 141.731C84.5702 142.16 84.0394 142.48 83.6758 142.937C83.6198 143.009 83.5685 143.084 83.5222 143.163C83.1969 143.699 83.1585 144.353 83.154 144.966C83.1578 146.273 83.2431 147.579 83.4093 148.876C83.9446 153.339 85.0016 157.811 83.6125 162.024C83.3608 162.754 83.0675 163.47 82.7339 164.167C82.0563 165.655 81.3178 167.122 81.0964 168.734C80.9338 169.928 80.9835 171.159 80.9744 172.374C80.2607 172.147 79.5477 171.916 78.8355 171.68C74.5335 170.26 70.2798 168.682 66.0742 166.946C66.0854 166.886 66.0967 166.822 66.1058 166.762C66.4288 164.756 65.9861 162.704 65.4485 160.748C64.3192 156.603 62.7201 152.499 61.7737 148.324C61.3926 146.694 61.1426 145.036 61.0261 143.365C60.999 142.991 60.9832 142.615 60.9809 142.238C60.9696 141.747 60.9809 141.256 61.0012 140.76C61.0487 139.77 61.0916 138.596 60.2988 137.994C59.8629 137.667 59.2869 137.611 58.7787 137.413C57.7985 137.032 57.1277 136.148 56.3507 135.441C55.9801 135.082 55.5275 134.818 55.0321 134.673C54.5367 134.528 54.0133 134.505 53.5071 134.607C48.4296 135.767 44.6983 140.066 39.9733 142.238C39.7903 142.324 39.6073 142.405 39.4221 142.482C38.8109 142.705 38.2292 143.002 37.6898 143.365C37.3107 143.628 37.0358 144.015 36.9128 144.459C36.7931 144.936 36.897 145.437 36.9557 145.928C37.0508 146.727 37.0164 147.536 36.8541 148.324C36.7928 148.63 36.7121 148.931 36.6124 149.226C36.4317 149.76 36.19 150.283 35.9596 150.804C34.755 149.995 33.5677 149.169 32.3978 148.324C30.7625 147.149 29.1468 145.939 27.5507 144.695L26.5817 143.918C22.4047 140.654 18.4912 137.067 14.8774 133.191C15.3585 131.839 16.0542 130.581 16.3885 129.195C16.5782 128.399 16.6482 127.572 16.9102 126.799C17.2124 125.997 17.6326 125.245 18.157 124.567C20.0776 121.895 22.4229 119.553 25.1001 117.634C27.8985 115.633 31.1307 114.028 33.649 111.756C34.6711 110.863 35.5521 109.821 36.2623 108.666C36.3052 108.596 36.3459 108.521 36.382 108.44C36.5786 108.032 36.7148 107.598 36.7863 107.151C36.967 106.141 36.9399 105.032 37.0302 104.063C40.0981 104.593 43.2257 104.687 46.32 104.343C49.9226 103.939 53.4461 102.941 57.0486 102.553C57.3196 102.521 57.5929 102.497 57.8662 102.474C59.0204 102.382 60.1768 102.361 61.3355 102.375C62.3045 102.375 63.2734 102.418 64.2424 102.449L74.91 102.81C76.0912 102.85 77.2974 102.896 78.3973 103.326C79.7028 103.838 80.7486 104.856 81.5865 105.977C81.6927 106.121 81.7988 106.265 81.8982 106.414C82.5877 107.418 83.1407 108.508 83.5425 109.657C83.5854 109.775 83.6261 109.883 83.6645 110.011C83.7661 110.325 83.8542 110.64 83.9333 110.96C83.9942 111.21 84.0485 111.461 84.0982 111.713C84.3466 112.962 84.4934 114.237 84.8864 115.443C84.9135 115.531 84.9429 115.619 84.9745 115.705C85.4466 117.026 86.2303 118.209 86.8221 119.478C87.2487 120.397 87.5744 121.359 87.7933 122.347C88.2357 124.333 88.2449 126.39 87.8204 128.379Z" fill="#35323E"/>
<path d="M55.3957 47.716C54.4426 46.9586 53.0603 47.5131 51.9445 48.0022C51.009 48.4145 50.046 48.7617 49.0625 49.0413C48.8612 49.1186 48.6429 49.1412 48.4301 49.1067C47.9783 48.9985 47.7886 48.4643 47.4521 48.1397C46.8671 47.5785 45.9094 47.7115 45.155 48.0157C44.4006 48.32 43.6553 48.7595 42.8467 48.6919C41.9839 48.6243 41.234 47.9887 40.3622 47.9684C38.8263 47.9323 37.5366 49.8212 36.0843 49.3208C35.1989 49.0165 34.5032 47.867 33.6314 48.1938C32.9538 48.4508 32.8928 49.3861 32.484 49.997C32.0029 50.7092 31.0656 50.9098 30.2638 51.2254C27.7363 52.2216 26.0627 55.0323 26.3924 57.7236C26.5754 59.2089 27.2959 60.5703 27.7725 61.9881C29.1864 66.1106 28.7008 70.7605 30.4829 74.7365C30.7087 74.5246 30.8352 74.4457 31.0543 74.2361C30.4908 75.4023 30.3821 76.7359 30.7494 77.9777C30.9368 78.602 31.2418 79.1835 31.4721 79.7944C31.7115 80.4795 31.9046 81.1797 32.0504 81.8906L34.0154 90.5413C34.7833 93.9222 35.5535 97.3032 35.6868 100.765C35.7697 103.016 35.597 105.27 35.1718 107.482C38.7314 106.894 41.9884 105.318 45.5955 105.339C46.919 105.339 48.2313 105.564 49.5436 105.744C53.3695 106.279 57.2288 106.54 61.092 106.526C61.6929 106.56 62.2946 106.476 62.8628 106.278C63.3597 106.067 63.7663 105.69 64.2361 105.417C65.1553 104.876 66.2688 104.741 67.3281 104.741C72.1594 104.653 76.8145 106.418 81.6141 107.04C83.5091 103.071 83.622 98.3152 82.1674 94.1656C81.736 92.9327 81.1556 91.7314 80.9839 90.4353C80.915 89.6386 80.8969 88.8384 80.9297 88.0394C80.9222 85.9939 80.5529 83.9657 79.8388 82.0483C79.5587 81.2978 79.2222 80.5337 79.2515 79.7335C79.2809 78.9334 79.6762 78.1873 80.0646 77.4795C80.8529 76.037 81.6457 74.581 82.7592 73.3638C83.8998 72.1061 85.3273 71.1482 86.7389 70.2083L90.224 67.8732C89.7475 64.8686 89.1331 61.7041 87.857 58.9407C86.5808 56.1773 84.6723 53.6371 82.0906 52.021C81.2202 51.4985 80.3094 51.0463 79.3667 50.6687C78.0477 50.1142 76.6744 49.6251 75.2447 49.5417C73.6185 49.4493 72.0171 49.8843 70.4112 50.1548C65.3563 51.0045 59.4071 50.9008 55.3957 47.716Z" fill="#1769AA"/>
<path d="M93.5033 99.8555L91.8454 101.945L88.7195 105.883L85.1057 110.433L84.096 111.705H82.1378L33.6469 111.761L3.27944 111.795H1.92425C1.74356 111.231 1.57642 110.668 1.42283 110.082C1.19697 109.243 0.998963 108.394 0.828811 107.535C0.792673 107.37 0.761052 107.206 0.731689 107.039L11.7494 99.851L15.8917 99.8284L28.5627 99.7563L35.6391 99.7157H36.931H37.7419L42.4579 99.6909L78.402 99.4858L80.2405 99.4746H81.0378L83.1497 99.4633L91.0075 99.4182L92.5163 98.8457L92.6269 98.9629L93.5033 99.8555Z" fill="#3F3D56"/>
<path d="M92.8257 98.7282L92.6383 98.9536L91.405 100.403L88.8663 103.394L83.5427 109.658L36.3822 108.456L0.819808 107.555C0.78367 107.39 0.752049 107.226 0.722686 107.059C0.182844 104.166 -0.0555838 101.226 0.0112126 98.2842L3.95481 96.2692L4.85827 95.8049L11.8894 92.1985L18.06 89.043L34.1552 91.1301L37.7193 91.5922L39.332 91.7996L41.6923 92.1061L41.891 92.1332L78.9035 96.9228L82.9939 97.4525L85.3948 97.7636L92.7941 98.7237L92.8257 98.7282Z" fill="#504F60"/>
<path d="M85.1464 109.547L85.108 110.433L84.8822 115.434L83.667 142.933L83.4095 148.876L82.7319 164.167L82.3502 172.804L80.9724 172.374C80.2587 172.147 79.5457 171.916 78.8335 171.68L82.1379 111.724L82.2079 110.466L83.6625 110.016L85.1464 109.547Z" fill="#3F3D56"/>
<path d="M3.38336 109.481L3.28172 111.796L3.13265 115.177C2.702 114.109 2.30749 113.02 1.94912 111.911L1.91524 111.801C1.73455 111.237 1.56741 110.674 1.41382 110.088L3.38336 109.481Z" fill="#3F3D56"/>
<path d="M62.4469 75.4023C68.185 75.4023 72.8367 69.1456 72.8367 61.4277C72.8367 53.7098 68.185 47.4531 62.4469 47.4531C56.7088 47.4531 52.0571 53.7098 52.0571 61.4277C52.0571 69.1456 56.7088 75.4023 62.4469 75.4023Z" fill="#A1616A"/>
<path opacity="0.1" d="M62.4469 75.4023C68.185 75.4023 72.8367 69.1456 72.8367 61.4277C72.8367 53.7098 68.185 47.4531 62.4469 47.4531C56.7088 47.4531 52.0571 53.7098 52.0571 61.4277C52.0571 69.1456 56.7088 75.4023 62.4469 75.4023Z" fill="black"/>
<path d="M63.915 67.4005C71.8985 67.4005 78.3704 60.9421 78.3704 52.9752C78.3704 45.0083 71.8985 38.5498 63.915 38.5498C55.9316 38.5498 49.4597 45.0083 49.4597 52.9752C49.4597 60.9421 55.9316 67.4005 63.915 67.4005Z" fill="#A1616A"/>
<path d="M64.202 30.7419C63.3194 30.8121 62.4431 30.9455 61.5797 31.1409C59.2939 31.6954 57.3176 32.926 55.3932 34.1341C54.5304 34.6773 53.6428 35.2431 53.1075 36.041C52.1453 37.4723 52.518 39.2935 51.9782 40.8825C51.6981 41.6984 51.1831 42.431 50.7472 43.1906C49.5479 45.2732 48.92 47.561 48.3034 49.8262C48.1769 50.2951 48.1407 50.9307 48.6535 51.111C48.9487 51.1722 49.2558 51.1374 49.5298 51.0118C51.1493 50.4776 53.2069 50.3244 54.4085 51.4085C55.6101 52.4927 55.5084 54.4153 56.9382 55.2403C58.5757 56.1937 61.1325 55.0419 62.6187 56.1666C63.2556 56.649 63.486 57.4221 64.0077 58.0036C65.2229 59.356 67.5606 59.2906 69.5053 59.0179C70.621 58.8601 71.9898 58.7542 72.6674 59.5363C72.9926 59.906 73.0852 60.4131 73.4624 60.7467C74.14 61.3507 75.38 61.0442 76.0418 60.4244C76.7036 59.8045 77.0198 58.9661 77.5709 58.2696C78.6437 56.9172 80.5297 56.1802 81.6364 54.8436C82.5625 53.7166 82.8426 52.3056 83.0955 50.9442L84.0374 45.8976C84.4191 43.851 84.7669 41.615 83.6128 39.8119C83.2017 39.1627 82.6122 38.6037 82.2576 37.9321C82.0204 37.4813 81.8872 37.0057 81.6116 36.5797C81.2848 36.1359 80.8944 35.7425 80.4529 35.4121L78.2236 33.5706C77.4614 32.9049 76.6464 32.3018 75.7866 31.7675C72.6041 29.917 67.8384 30.4038 64.202 30.7419Z" fill="#464353"/>
<path d="M16.5897 67.9011C16.0544 68.4691 15.5597 69.0822 14.986 69.6141C14.4814 70.062 13.9536 70.4833 13.405 70.8763C12.5196 71.5375 11.6538 72.222 10.8075 72.9297C9.92467 73.6263 9.12579 74.4228 8.42692 75.3031C7.2208 76.9192 6.64937 78.9298 5.52005 80.5999C4.52172 82.0808 3.11459 83.2506 2.10046 84.7202C1.65555 85.3381 1.3251 86.0304 1.12472 86.7645C0.975154 87.475 0.907707 88.2003 0.923701 88.9261C0.903373 90.1162 0.885305 91.3198 1.12924 92.4851C1.37317 93.6504 1.90847 94.7954 2.82548 95.5595C3.67699 96.2695 4.77695 96.5963 5.85432 96.8668C6.40995 97.0043 7.01075 97.1328 7.53927 96.9141C7.92602 96.7192 8.26171 96.4367 8.51953 96.0892L11.2683 92.9336C13.1068 90.8149 15.0177 88.6511 17.5406 87.4114C18.3311 87.026 19.1645 86.7352 19.9573 86.3611C23.3182 84.745 25.6943 81.4362 26.6158 77.8298C26.8417 76.9485 26.9862 76.0492 27.133 75.1499L27.5305 72.684C27.5611 72.5604 27.5611 72.4312 27.5305 72.3076C27.4683 72.1686 27.3681 72.0499 27.2414 71.965C25.3268 70.422 23.5342 68.734 21.8794 66.9161C21.4864 66.4834 21.1182 65.8906 20.6643 65.5277C20.0951 65.0769 20.138 65.1107 19.4536 65.5277C18.4009 66.1929 17.4383 66.9906 16.5897 67.9011Z" fill="#A1616A"/>
<path d="M35.3929 84.3092C35.37 84.2568 35.3368 84.2096 35.2952 84.1704C35.2536 84.1312 35.2045 84.1008 35.1508 84.081C35.0971 84.0612 35.04 84.0524 34.9828 84.0552C34.9257 84.058 34.8697 84.0723 34.8182 84.0972C34.7667 84.1221 34.7208 84.1572 34.6833 84.2003C34.6457 84.2433 34.6172 84.2935 34.5996 84.3479C34.582 84.4022 34.5755 84.4595 34.5806 84.5164C34.5858 84.5733 34.6024 84.6285 34.6294 84.6788L34.4036 84.7893L41.1388 98.5655L42.3563 97.9727L35.621 84.1875L35.3929 84.3092Z" fill="#3F3D56"/>
<path opacity="0.04" d="M16.5897 67.9011C16.0544 68.4691 15.5597 69.0822 14.986 69.6141C14.4814 70.062 13.9536 70.4833 13.405 70.8763C12.5196 71.5375 11.6538 72.222 10.8075 72.9297C9.92467 73.6263 9.12579 74.4228 8.42692 75.3031C7.2208 76.9192 6.64937 78.9298 5.52005 80.5999C4.52172 82.0808 3.11459 83.2506 2.10046 84.7202C1.65555 85.3381 1.3251 86.0304 1.12472 86.7645C0.975154 87.475 0.907707 88.2003 0.923701 88.9261C0.903373 90.1162 0.885305 91.3198 1.12924 92.4851C1.37317 93.6504 1.90847 94.7954 2.82548 95.5595C3.67699 96.2695 4.77695 96.5963 5.85432 96.8668C6.40995 97.0043 7.01075 97.1328 7.53927 96.9141C7.92602 96.7192 8.26171 96.4367 8.51953 96.0892L11.2683 92.9336C13.1068 90.8149 15.0177 88.6511 17.5406 87.4114C18.3311 87.026 19.1645 86.7352 19.9573 86.3611C23.3182 84.745 25.6943 81.4362 26.6158 77.8298C26.8417 76.9485 26.9862 76.0492 27.133 75.1499L27.5305 72.684C27.5611 72.5604 27.5611 72.4312 27.5305 72.3076C27.4683 72.1686 27.3681 72.0499 27.2414 71.965C25.3268 70.422 23.5342 68.734 21.8794 66.9161C21.4864 66.4834 21.1182 65.8906 20.6643 65.5277C20.0951 65.0769 20.138 65.1107 19.4536 65.5277C18.4009 66.1929 17.4383 66.9906 16.5897 67.9011Z" fill="black"/>
<path d="M94.4543 93.2894C94.4317 94.7274 94.3752 96.2082 93.7767 97.52C93.5192 98.088 93.1194 98.647 92.5209 98.8341C92.1587 98.9176 91.7838 98.9314 91.4164 98.8747C86.9852 98.486 82.52 98.8395 78.2056 99.9205C79.3575 97.6215 78.6957 94.8649 79.0142 92.3134C79.1023 91.6169 79.2626 90.9317 79.3236 90.233C79.5495 87.7536 78.4857 85.3464 77.9978 82.8986C77.5743 80.7797 77.5743 78.5982 77.9978 76.4793C78.0809 75.9339 78.2688 75.4096 78.5512 74.9353C78.882 74.4739 79.3168 74.0963 79.8205 73.8332C81.65 72.7941 83.807 72.6746 85.8624 72.8121C87.247 72.9045 90.0228 72.7738 91.177 73.6235C92.4396 74.5544 92.8394 77.6807 93.1804 79.1255C93.6911 81.3413 94.0383 83.5915 94.2194 85.858C94.4407 88.3284 94.4882 90.81 94.4543 93.2894Z" fill="#A1616A"/>
<path d="M13.5474 98.2793L21.6785 103.689L58.2685 102.336L34.101 98.2793H13.5474Z" fill="white"/>
<path d="M24.2691 55.2984C22.9343 56.4727 21.8027 57.8567 20.5379 59.1076C18.8032 60.8251 16.8314 62.2857 14.8687 63.7395C15.5724 63.9358 16.213 64.3111 16.7277 64.8287C17.2424 65.3463 17.6136 65.9884 17.8049 66.6922C17.8907 67.0235 17.9336 67.3684 18.0308 67.693C18.2566 68.4616 18.7535 69.1242 19.2866 69.7215C21.5768 72.2978 24.7818 74.2047 26.1325 77.385C26.1766 77.5398 26.2722 77.6749 26.4036 77.7682C26.5135 77.8167 26.6355 77.8309 26.7536 77.8087C27.9756 77.6803 28.9107 76.6975 29.6899 75.7419C31.3161 73.7133 32.7278 71.4729 33.5296 68.998C34.3314 66.5232 34.4601 63.7868 33.586 61.3345C33.1501 60.1129 32.4771 58.9904 31.8085 57.8792C31.2228 56.907 30.6385 55.9363 30.0558 54.9671C29.7509 54.4554 29.3624 53.4164 28.7638 53.1639C27.4719 52.6094 25.0981 54.4712 24.2691 55.2984Z" fill="#1769AA"/>
<path d="M90.7952 69.8658L92.7173 74.3737C90.6249 73.6441 88.3885 73.422 86.1931 73.7258C83.9976 74.0295 81.9061 74.8504 80.0915 76.1206C78.9961 76.9027 77.991 77.8854 77.4963 79.1341C77.2522 79.1804 76.9999 79.157 76.7685 79.0664C76.5372 78.9759 76.3361 78.822 76.1886 78.6225C75.8995 78.2178 75.7318 77.7393 75.7052 77.243C75.5268 75.512 76.1841 73.8148 76.8345 72.1964C77.1372 71.4391 77.4489 70.666 77.9865 70.0506C78.524 69.4353 79.2377 69.0296 79.9515 68.6464C82.2285 67.3897 84.6133 66.3382 87.0775 65.5044C88.1165 65.1686 89.2051 65.1753 89.7879 66.1445C90.4632 67.3008 90.2667 68.6352 90.7952 69.8658Z" fill="#1769AA"/>
<path d="M13.5946 83.392C14.0757 83.7752 14.4981 84.2282 14.9927 84.5933C15.5158 84.9558 16.0725 85.2675 16.6551 85.5242L18.8821 86.5926C19.5722 86.9506 20.2944 87.2433 21.0391 87.4671C21.9923 87.7218 22.9928 87.7466 23.9505 87.9833C25.1589 88.2808 26.2634 88.9007 27.4537 89.259C28.644 89.6174 30.0376 89.676 31.0314 88.93C31.6525 88.4634 32.1223 87.6925 32.8925 87.5776C33.3894 87.5122 33.8682 87.7511 34.3109 87.9833L40.1066 91.0239C40.8881 91.4341 41.7148 91.8894 42.1236 92.6715C42.5324 93.4537 42.2568 94.6415 41.3963 94.8444C41.0964 94.8787 40.7947 94.8961 40.4928 94.8962C40.1947 94.9323 39.8694 95.1081 39.8288 95.4078C39.8273 95.594 39.8764 95.7771 39.9711 95.9375C40.2308 96.5326 40.3076 97.2448 40.005 97.8218C39.7023 98.3988 38.9592 98.7572 38.3652 98.498C38.4668 99.3703 37.5159 99.9811 36.6689 100.213C34.5323 100.797 32.2668 100.439 30.0827 100.069C29.2244 99.9248 28.3526 99.776 27.5711 99.3928C27.1962 99.2103 26.8484 98.9759 26.4689 98.8068C25.4277 98.3448 24.2441 98.4056 23.1058 98.4259C17.8409 98.5183 12.6211 97.5446 7.44433 96.5754C6.48441 96.3951 5.49738 96.2035 4.67749 95.6738C3.09644 94.646 2.50919 92.5363 2.76894 90.67C3.02868 88.8037 3.97731 87.1133 4.91013 85.4724L6.11851 83.3469C6.27647 83.0213 6.49757 82.7302 6.769 82.4904C8.54655 81.1358 12.0723 82.1703 13.5946 83.392Z" fill="#A1616A"/>
<path opacity="0.04" d="M13.5946 83.392C14.0757 83.7752 14.4981 84.2282 14.9927 84.5933C15.5158 84.9558 16.0725 85.2675 16.6551 85.5242L18.8821 86.5926C19.5722 86.9506 20.2944 87.2433 21.0391 87.4671C21.9923 87.7218 22.9928 87.7466 23.9505 87.9833C25.1589 88.2808 26.2634 88.9007 27.4537 89.259C28.644 89.6174 30.0376 89.676 31.0314 88.93C31.6525 88.4634 32.1223 87.6925 32.8925 87.5776C33.3894 87.5122 33.8682 87.7511 34.3109 87.9833L40.1066 91.0239C40.8881 91.4341 41.7148 91.8894 42.1236 92.6715C42.5324 93.4537 42.2568 94.6415 41.3963 94.8444C41.0964 94.8787 40.7947 94.8961 40.4928 94.8962C40.1947 94.9323 39.8694 95.1081 39.8288 95.4078C39.8273 95.594 39.8764 95.7771 39.9711 95.9375C40.2308 96.5326 40.3076 97.2448 40.005 97.8218C39.7023 98.3988 38.9592 98.7572 38.3652 98.498C38.4668 99.3703 37.5159 99.9811 36.6689 100.213C34.5323 100.797 32.2668 100.439 30.0827 100.069C29.2244 99.9248 28.3526 99.776 27.5711 99.3928C27.1962 99.2103 26.8484 98.9759 26.4689 98.8068C25.4277 98.3448 24.2441 98.4056 23.1058 98.4259C17.8409 98.5183 12.6211 97.5446 7.44433 96.5754C6.48441 96.3951 5.49738 96.2035 4.67749 95.6738C3.09644 94.646 2.50919 92.5363 2.76894 90.67C3.02868 88.8037 3.97731 87.1133 4.91013 85.4724L6.11851 83.3469C6.27647 83.0213 6.49757 82.7302 6.769 82.4904C8.54655 81.1358 12.0723 82.1703 13.5946 83.392Z" fill="black"/>
<path d="M82.5422 87.2868C81.3654 87.8413 80.0148 87.8954 78.786 88.3214C77.5573 88.7474 76.5139 89.5137 75.3868 90.1381C72.4506 91.7745 69.0626 92.3921 65.7356 92.9803C63.7186 93.341 61.67 93.7016 59.6373 93.616C56.8862 93.4987 54.2436 92.5836 51.5784 91.8939C48.9132 91.2042 46.0696 90.7399 43.4292 91.5153C42.0504 91.9342 40.79 92.6715 39.7501 93.6674C38.7102 94.6632 37.92 95.8896 37.4438 97.2471C36.8904 98.8677 36.8136 100.615 36.9198 102.323C37.4754 102.731 38.2524 102.165 38.5551 101.545C38.8577 100.926 39.0226 100.166 39.6098 99.8054C40.6285 100.15 40.8769 101.505 41.7172 102.174C42.2412 102.594 42.9413 102.704 43.6076 102.799L47.0408 103.285C47.8675 103.403 48.8274 103.482 49.4259 102.9C49.7173 102.618 49.8776 102.224 50.1442 101.922C50.6908 101.318 51.6032 101.214 52.4164 101.295C54.9551 101.548 57.3357 103.191 59.8563 102.801C60.7237 102.668 61.53 102.298 62.3567 102.007C67.2557 100.281 72.699 101.331 77.7968 100.342C79.7415 99.9654 81.6139 99.2982 83.4637 98.595C84.4688 98.2141 85.4852 97.8151 86.3435 97.1705C87.1566 96.5465 87.7978 95.7269 88.2071 94.7883C88.6163 93.8497 88.7802 92.8228 88.6834 91.8038C88.4944 90.2507 87.7179 88.8285 86.5129 87.8278C86.1154 87.4897 85.5936 86.8428 85.117 86.6309C84.2068 86.232 83.3146 86.9239 82.5422 87.2868Z" fill="#A1616A"/>
<g opacity="0.1">
<path opacity="0.1" d="M75.9425 58.4921C75.5653 58.1585 75.4727 57.6514 75.1474 57.2818C74.4698 56.4996 73.1011 56.6056 71.9853 56.7633C70.0406 57.0361 67.6939 57.0992 66.4878 55.7491C65.966 55.1675 65.7356 54.3967 65.0987 53.9121C63.6125 52.7851 61.0557 53.9391 59.4182 52.9857C57.9885 52.154 58.0811 50.2246 56.8885 49.154C55.696 48.0833 53.6293 48.2231 52.0099 48.7573C51.7358 48.8829 51.4287 48.9176 51.1335 48.8564C50.6208 48.6761 50.6569 48.0405 50.7834 47.5717C51.4 45.3064 52.0279 43.0187 53.2273 40.936C53.6632 40.1764 54.1782 39.4439 54.4582 38.628C54.9484 37.1989 54.6976 35.5828 55.3414 34.2305C54.6502 34.6813 53.9862 35.1726 53.5593 35.8082C52.5971 37.2395 52.9698 39.0607 52.43 40.6498C52.1499 41.4657 51.6349 42.1982 51.199 42.9578C49.9997 45.0405 49.3718 47.3282 48.7551 49.5935C48.6287 50.0623 48.5925 50.6979 49.1052 50.8782C49.4005 50.9394 49.7076 50.9047 49.9816 50.7791C51.601 50.2449 53.6587 50.0916 54.8603 51.1758C56.0619 52.2599 55.9602 54.1826 57.3899 55.0075C59.0275 55.9609 61.5843 54.8092 63.0704 55.9339C63.7074 56.4162 63.9378 57.1893 64.4595 57.7709C65.6747 59.1232 68.0124 59.0579 69.957 58.7851C71.0728 58.6274 72.4416 58.5214 73.1191 59.3036C73.4444 59.6732 73.537 60.1803 73.9142 60.5139C74.5918 61.118 75.8318 60.8115 76.4936 60.1916C76.9179 59.7507 77.281 59.2549 77.5732 58.7175C76.9859 58.8956 76.3603 58.8685 75.9425 58.4921Z" fill="black"/>
<path opacity="0.1" d="M80.0579 56.0124C79.9124 56.1994 79.7774 56.3943 79.6536 56.5962C80.5209 55.9786 81.4402 55.4016 82.0884 54.615C82.2566 54.4114 82.4077 54.1943 82.5401 53.9658C81.6389 54.6105 80.6993 55.2032 80.0579 56.0124Z" fill="black"/>
</g>
<path d="M125.689 100.646L126.367 165.335L129.529 164.884L128.851 100.646H125.689Z" fill="#3F3D56"/>
<path d="M144.662 112.367L145.339 177.056L148.501 176.605L147.824 112.367H144.662Z" fill="#3F3D56"/>
<path d="M203.732 145.045L203.719 143.803V143.064L203.599 131.686L203.411 113.897L203.38 112.362H200.218L200.233 113.841L200.333 123.368L200.376 127.493L200.412 130.834L200.471 136.608L200.507 140.014V140.375L200.554 144.851L200.595 148.798L200.852 148.514C201.266 148.052 201.671 147.583 202.067 147.107L203.732 145.045Z" fill="#3F3D56"/>
<path d="M141.161 122.848L139.354 125.543L141.161 137.825L156.519 142.02H181.365L196.272 142.919L203.373 138.069L202.144 129.738L196.723 122.848H141.161Z" fill="#1769AA"/>
<path d="M139.354 125.544L138.45 133.032C138.45 133.032 133.707 147.712 171.878 146.812C210.049 145.913 203.499 142.918 203.499 142.918L203.273 134.231C203.273 134.231 204.604 138.342 185.204 137.785C165.805 137.228 147.711 135.43 147.711 135.43C147.711 135.43 140.935 136.627 139.354 125.544Z" fill="#3F3D56"/>
<path d="M171.156 58.4294C168.978 59.4189 167.329 61.337 166.225 63.458C165.12 65.579 164.499 67.9073 163.887 70.2199C163.241 72.6587 162.593 75.1042 162.259 77.6039C161.662 82.0487 162.11 86.7212 164.156 90.7129C166.202 94.7047 169.983 97.9256 174.41 98.6942C176.12 98.994 177.877 98.9332 179.605 98.7551C182.728 98.425 185.805 97.7484 188.778 96.7378C191.883 95.6897 195.115 94.0759 196.498 91.1029C197.299 89.3786 197.367 87.4131 197.329 85.5153C197.222 80.3427 196.439 75.2061 195 70.2357C194.582 68.7931 194.097 67.3393 193.211 66.1244C192.326 64.9096 191.115 64.0192 189.88 63.1943C184.597 59.6443 177.654 55.4812 171.156 58.4294Z" fill="#FBBEBE"/>
<path opacity="0.05" d="M171.156 58.4294C168.978 59.4189 167.329 61.337 166.225 63.458C165.12 65.579 164.499 67.9073 163.887 70.2199C163.241 72.6587 162.593 75.1042 162.259 77.6039C161.662 82.0487 162.11 86.7212 164.156 90.7129C166.202 94.7047 169.983 97.9256 174.41 98.6942C176.12 98.994 177.877 98.9332 179.605 98.7551C182.728 98.425 185.805 97.7484 188.778 96.7378C191.883 95.6897 195.115 94.0759 196.498 91.1029C197.299 89.3786 197.367 87.4131 197.329 85.5153C197.222 80.3427 196.439 75.2061 195 70.2357C194.582 68.7931 194.097 67.3393 193.211 66.1244C192.326 64.9096 191.115 64.0192 189.88 63.1943C184.597 59.6443 177.654 55.4812 171.156 58.4294Z" fill="black"/>
<path d="M168.71 86.7996C169.34 87.6641 170.102 88.4247 170.968 89.0536C173.118 90.5367 175.879 90.7373 178.49 90.8185C180.586 90.8816 182.989 90.7621 184.303 89.1302C184.895 88.3954 185.162 87.4578 185.401 86.5449C186.878 80.9395 187.928 75.2304 188.541 69.4667L194.521 69.4869C197.11 80.5471 196.898 92.0446 196.672 103.402L196.344 119.964L192.491 119.556C183.341 118.59 174.178 117.623 164.978 117.456C159.588 117.357 154.196 117.534 148.824 117.988L157.215 93.0904C158.304 89.8538 159.404 86.5742 159.659 83.173C160.027 78.2391 158.641 73.0302 160.563 68.4659C160.716 68.0985 160.91 67.7176 161.261 67.526C161.611 67.3344 162.053 67.3817 162.455 67.4336C163.214 67.535 165.534 67.4336 166.085 67.9182C166.898 68.6214 166.361 68.7274 166.074 69.8611C165.561 71.8897 165.075 73.7672 165.082 75.8814C165.089 79.7199 166.282 83.7726 168.71 86.7996Z" fill="#1769AA"/>
<path d="M203.732 145.045C204.739 143.711 205.689 142.329 206.58 140.9C206.128 139.935 205.631 138.993 205.236 138.008C204.631 136.498 204.283 134.898 203.94 133.309C203.822 132.768 203.706 132.227 203.59 131.686C202.325 125.801 201.137 119.832 200.891 113.866C200.868 113.37 200.854 112.874 200.848 112.378C200.848 112.306 200.848 112.236 200.848 112.153C200.848 111.61 200.848 111.066 200.848 110.526C200.875 109.173 200.961 107.81 201.116 106.453C201.146 106.187 201.18 105.921 201.216 105.655C201.216 105.596 201.229 105.54 201.238 105.481L216.597 104.922L217.889 104.875C218.777 104.843 219.716 104.794 220.448 104.291C221.679 103.448 221.824 101.719 221.803 100.234C221.729 96.4797 221.302 92.7406 220.53 89.0656C219.947 86.3022 219.116 83.478 217.25 81.3548C215.719 79.6102 213.501 78.3412 212.703 76.1706C212.407 75.3637 212.333 74.4779 211.949 73.7071C211.565 72.9362 210.93 72.3705 210.332 71.7754C208.225 69.6924 206.478 67.2768 205.159 64.6258C204.245 62.7866 203.253 60.758 202.058 59.4868C202 59.4214 201.941 59.3606 201.88 59.302C200.863 58.299 199.7 57.8594 198.323 58.5424C198.075 58.6665 197.839 58.8128 197.618 58.9797C197.127 59.3541 196.678 59.7803 196.278 60.2509C194.887 61.8478 193.666 63.5852 192.635 65.435C191.911 66.7373 191.288 68.0938 190.774 69.4921C190.368 70.5969 190.032 71.7261 189.769 72.8731C189.575 73.7228 189.421 74.5816 189.299 75.4426C188.847 78.6793 188.847 81.9791 188.911 85.2564C188.978 88.2677 189.112 91.2857 189.385 94.2857C189.453 95.0115 189.528 95.7365 189.611 96.4608C189.777 97.8928 189.981 99.3203 190.225 100.743C190.322 101.287 190.422 101.83 190.532 102.371C190.56 102.515 190.589 102.659 190.618 102.801L190.632 102.862C190.93 104.119 191.162 105.392 191.325 106.674C191.343 106.834 191.357 106.994 191.366 107.154C191.404 107.89 191.398 108.629 191.348 109.365C191.296 110.235 191.215 111.103 191.174 111.973C191.174 112.126 191.174 112.277 191.158 112.423C191.147 112.863 191.158 113.302 191.158 113.742C191.204 114.793 191.329 115.84 191.533 116.873C191.914 118.794 192.572 120.649 193.487 122.381C193.573 122.544 193.661 122.704 193.749 122.861C194.894 124.904 196.339 126.777 197.399 128.866C198.312 130.746 198.995 132.73 199.432 134.774C199.582 135.448 199.725 136.125 199.861 136.802C200.071 137.884 200.258 138.975 200.45 140.066C200.468 140.174 200.489 140.291 200.509 140.391C200.764 141.838 201.033 143.278 201.378 144.691C201.579 145.514 201.805 146.325 202.07 147.123L203.732 145.045Z" fill="#464353"/>
<path d="M200.714 127.279C200.714 127.482 200.701 127.685 200.692 127.89C200.652 128.879 200.56 129.865 200.419 130.845C200.231 132.182 199.904 133.496 199.441 134.764C199.134 135.598 198.743 136.4 198.275 137.156C197.86 137.827 197.374 138.452 196.825 139.02C195.47 140.426 193.518 140.875 191.63 141.467C190.761 141.718 189.922 142.061 189.125 142.489C188.983 142.567 188.843 142.653 188.707 142.743L186.345 144.305C185.609 144.79 184.857 145.292 184.351 146.011C184.268 146.134 184.192 146.261 184.125 146.392C183.805 147.054 183.571 147.754 183.429 148.475C182.2 153.583 180.969 158.695 180.127 163.879C180.07 164.221 180.016 164.566 179.958 164.911L179.937 165.019C179.927 164.993 179.915 164.969 179.901 164.945C173.857 168.592 167.589 171.882 161.132 174.517L159.729 162.797C159.583 161.844 159.534 160.879 159.585 159.916C159.718 158.399 160.337 156.961 160.504 155.449C160.662 153.968 160.382 152.474 159.697 151.151C159.431 150.637 159.097 150.132 159.036 149.557C158.975 148.982 159.307 148.457 159.885 148.398C160.337 147.898 160.373 147.215 160.24 146.539C160.169 146.186 160.063 145.841 159.923 145.509C159.539 144.567 159.054 143.541 159.384 142.579C159.471 142.404 159.51 142.21 159.496 142.015C159.499 142.003 159.499 141.991 159.496 141.979C159.42 141.727 159.119 141.616 158.963 141.402C158.67 141.003 158.963 140.46 159.144 140C159.32 139.506 159.422 138.989 159.447 138.465C159.472 138.174 159.49 137.881 159.521 137.593C159.565 137.202 159.635 136.815 159.731 136.434C160.28 134.275 161.6 132.39 163.442 131.133C164.321 130.543 165.299 130.112 166.196 129.555C167.114 128.937 167.991 128.26 168.82 127.527C170.809 125.874 172.877 124.316 175.025 122.852C177.333 121.278 179.725 119.829 182.189 118.511C182.716 118.227 183.243 117.95 183.77 117.681C184.344 117.381 184.921 117.096 185.502 116.827C187.364 115.941 189.475 116.273 191.533 116.863C192.396 117.109 193.247 117.402 194.07 117.668C194.872 117.928 195.645 118.274 196.373 118.7C198.196 119.769 199.703 121.346 200.328 123.339C200.329 123.352 200.329 123.364 200.328 123.377C200.726 124.626 200.751 125.965 200.714 127.279Z" fill="#F86D70"/>
<path opacity="0.1" d="M200.714 127.279C200.714 127.482 200.701 127.685 200.692 127.89C200.652 128.879 200.56 129.865 200.419 130.845C200.231 132.182 199.904 133.496 199.441 134.764C199.134 135.598 198.743 136.4 198.275 137.156C197.86 137.827 197.374 138.452 196.825 139.02C195.47 140.426 193.518 140.875 191.63 141.467C190.761 141.718 189.922 142.061 189.125 142.489C188.983 142.567 188.843 142.653 188.707 142.743L186.345 144.305C185.609 144.79 184.857 145.292 184.351 146.011C184.268 146.134 184.192 146.261 184.125 146.392C183.805 147.054 183.571 147.754 183.429 148.475C182.2 153.583 180.969 158.695 180.127 163.879C180.07 164.221 180.016 164.566 179.958 164.911L179.937 165.019C179.927 164.993 179.915 164.969 179.901 164.945C173.857 168.592 167.589 171.882 161.132 174.517L159.729 162.797C159.583 161.844 159.534 160.879 159.585 159.916C159.718 158.399 160.337 156.961 160.504 155.449C160.662 153.968 160.382 152.474 159.697 151.151C159.431 150.637 159.097 150.132 159.036 149.557C158.975 148.982 159.307 148.457 159.885 148.398C160.337 147.898 160.373 147.215 160.24 146.539C160.169 146.186 160.063 145.841 159.923 145.509C159.539 144.567 159.054 143.541 159.384 142.579C159.471 142.404 159.51 142.21 159.496 142.015C159.499 142.003 159.499 141.991 159.496 141.979C159.42 141.727 159.119 141.616 158.963 141.402C158.67 141.003 158.963 140.46 159.144 140C159.32 139.506 159.422 138.989 159.447 138.465C159.472 138.174 159.49 137.881 159.521 137.593C159.565 137.202 159.635 136.815 159.731 136.434C160.28 134.275 161.6 132.39 163.442 131.133C164.321 130.543 165.299 130.112 166.196 129.555C167.114 128.937 167.991 128.26 168.82 127.527C170.809 125.874 172.877 124.316 175.025 122.852C177.333 121.278 179.725 119.829 182.189 118.511C182.716 118.227 183.243 117.95 183.77 117.681C184.344 117.381 184.921 117.096 185.502 116.827C187.364 115.941 189.475 116.273 191.533 116.863C192.396 117.109 193.247 117.402 194.07 117.668C194.872 117.928 195.645 118.274 196.373 118.7C198.196 119.769 199.703 121.346 200.328 123.339C200.329 123.352 200.329 123.364 200.328 123.377C200.726 124.626 200.751 125.965 200.714 127.279Z" fill="black"/>
<path d="M179.269 89.9439C179.246 89.8916 179.213 89.8444 179.171 89.8052C179.129 89.766 179.08 89.7355 179.027 89.7157C178.973 89.6959 178.916 89.6872 178.859 89.69C178.802 89.6927 178.746 89.707 178.694 89.732C178.643 89.7569 178.597 89.7919 178.559 89.835C178.522 89.8781 178.493 89.9283 178.475 89.9826C178.458 90.037 178.451 90.0943 178.457 90.1512C178.462 90.208 178.478 90.2633 178.505 90.3136L178.279 90.424L185.015 104.2L186.232 103.607L179.497 89.8222L179.269 89.9439Z" fill="#3F3D56"/>
<path d="M187.689 75.5148C195.672 75.5148 202.144 69.0563 202.144 61.0894C202.144 53.1225 195.672 46.6641 187.689 46.6641C179.705 46.6641 173.234 53.1225 173.234 61.0894C173.234 69.0563 179.705 75.5148 187.689 75.5148Z" fill="#FBBEBE"/>
<path d="M206.768 52.1588C206.7 51.0121 206.529 49.8738 206.257 48.7576C205.408 45.1129 203.856 41.5246 201.184 38.9078C201.02 38.268 200.823 37.6368 200.595 37.0167C200.59 37.0013 200.585 36.9863 200.579 36.9716C199.782 34.7871 198.63 32.7485 197.168 30.9378C196.321 29.8874 195.224 28.8506 193.873 28.81C193.494 28.7965 193.092 28.8619 192.744 28.6883C192.488 28.5233 192.273 28.3029 192.114 28.0437C191.445 27.2002 190.558 26.5551 189.548 26.1781C188.539 25.8012 187.445 25.7066 186.386 25.9047L186.246 25.934C186.167 25.9497 186.087 25.9678 186.02 25.9881C185.952 26.0083 185.83 26.0421 185.735 26.0715C185.839 26.2428 185.941 26.4163 186.04 26.5921C186.308 27.0685 186.557 27.5553 186.785 28.0527C186.975 28.4674 187.151 28.8889 187.312 29.3172C184.999 29.5809 183.115 31.2195 181.394 32.7792L177.342 36.4487C177.335 36.4549 177.328 36.4617 177.322 36.469L177.204 36.5817C177.175 36.611 177.145 36.6403 177.118 36.6718C177.107 36.6812 177.098 36.6918 177.089 36.7034C177.055 36.7395 177.024 36.7778 176.992 36.8161C176.936 36.8871 176.885 36.9625 176.841 37.0415C176.818 37.0753 176.799 37.1107 176.782 37.1474C176.776 37.1582 176.77 37.1695 176.766 37.1812C176.751 37.212 176.738 37.2436 176.728 37.2759C176.727 37.2804 176.727 37.285 176.728 37.2894C176.721 37.3079 176.716 37.3267 176.712 37.3458C176.666 37.5044 176.679 37.6744 176.75 37.8236L179.422 37.8529H179.736C179.75 38.209 179.761 38.5674 179.775 38.9235C179.351 39.2402 178.943 39.5788 178.555 39.9378C178.131 40.3292 177.734 40.7479 177.365 41.191C174.955 44.0964 173.697 47.8492 173.57 51.6269C173.57 51.7441 173.57 51.8523 173.57 51.974C173.57 52.3188 173.57 52.6637 173.57 53.0063C173.57 53.2317 173.59 53.4571 173.608 53.6825C173.61 53.9761 173.687 54.2643 173.834 54.5187C173.854 54.5471 173.875 54.5742 173.898 54.5999C174.033 54.7466 174.196 54.866 174.376 54.9515L174.571 55.0461C174.668 55.0935 174.76 55.1386 174.851 55.1904C175.702 55.6705 176.206 56.5969 176.981 57.1919C177.026 57.2257 177.071 57.2595 177.116 57.2888L177.218 57.3565L177.281 57.397L177.367 57.4466C177.423 57.4805 177.481 57.5113 177.541 57.539L177.649 57.5931H177.667C177.758 57.6337 177.848 57.672 177.941 57.7058L178.069 57.7509L178.108 57.7644C178.144 57.7757 178.182 57.7892 178.221 57.7982C178.297 57.8208 178.373 57.8411 178.446 57.8591L178.672 57.9087C178.76 57.9245 178.851 57.9402 178.941 57.9515L179.074 57.9695L179.21 57.9831C179.425 58.0026 179.642 58.0139 179.86 58.0169C180.546 58.0127 181.23 57.9652 181.909 57.8749L187.673 57.1987C188.981 57.0477 190.316 56.8967 191.605 57.1626C192.699 57.388 193.706 57.9064 194.767 58.2738C195.007 58.3572 195.246 58.4339 195.488 58.4992C195.576 58.524 195.666 58.5511 195.757 58.5736L195.881 58.6052L196.17 58.675C196.274 58.6998 196.378 58.7246 196.482 58.7449C196.629 58.7765 196.773 58.8035 196.92 58.8306C197.019 58.8508 197.121 58.8666 197.223 58.8846H197.243L197.532 58.9297H197.602L197.817 58.959C197.92 58.9748 198.024 58.9883 198.131 58.9996C198.361 59.0281 198.591 59.0529 198.822 59.074C199.194 59.11 199.569 59.1371 199.951 59.1596L200.326 59.1822L200.701 59.2002L201.83 59.2498H201.88H202.038C202.507 59.2824 202.979 59.2582 203.443 59.1777C203.524 59.1619 203.603 59.1439 203.682 59.1213C203.761 59.0988 203.827 59.0762 203.908 59.0492C204.755 58.7246 205.374 57.9786 205.803 57.1806C205.894 57.0116 205.977 56.8426 206.054 56.669C206.131 56.4954 206.201 56.3196 206.264 56.1438C206.343 55.9184 206.411 55.7043 206.469 55.4789C206.488 55.4181 206.503 55.3572 206.517 55.2941C206.53 55.231 206.562 55.107 206.58 55.0123C206.637 54.7531 206.68 54.4917 206.711 54.228C206.711 54.1446 206.731 54.0589 206.74 53.9755C206.761 53.7501 206.777 53.5405 206.786 53.3196C206.786 53.1528 206.786 52.9838 206.786 52.8147C206.783 52.6322 206.768 52.391 206.768 52.1588ZM200.976 38.7027C200.793 38.5314 200.606 38.3668 200.416 38.2113C200.627 38.3442 200.816 38.5101 200.974 38.7027H200.976Z" fill="#464353"/>
<path d="M159.946 60.2957C158.245 60.0861 156.558 59.3423 154.88 59.7075C153.83 59.9329 152.926 60.5842 152.086 61.2537C148.959 63.7546 146.3 66.7878 144.233 70.2132C143.882 70.7253 143.636 71.3012 143.507 71.9082C143.399 72.6114 143.591 73.3259 143.819 73.9998C145.364 78.5551 148.668 82.3598 150.173 86.9286C151.754 91.734 151.205 96.9858 150.04 101.908C148.595 107.986 146.247 113.813 143.074 119.196C142.643 119.997 142.103 120.734 141.47 121.387C140.648 122.176 139.544 122.74 139.056 123.772C138.83 124.223 138.764 124.737 138.604 125.219C138.152 126.571 137.059 127.73 136.953 129.157C136.874 130.245 137.391 131.275 137.705 132.312C138.234 134.093 138.178 135.997 137.545 137.744C136.4 140.877 133.405 143.726 134.274 146.947C136.214 146.39 138.365 145.667 139.279 143.87C139.602 143.235 139.763 142.477 140.307 142.013C141.393 141.091 143.243 141.925 144.397 141.078C145.269 140.433 145.301 139.112 144.912 138.098C144.524 137.084 143.855 136.191 143.557 135.148C143.038 133.266 143.869 131.275 143.715 129.33C143.643 128.429 143.365 127.565 143.345 126.668C143.306 124.926 144.273 123.287 145.558 122.104C146.844 120.921 148.431 120.136 149.994 119.363L155.903 116.433C158.046 115.374 160.395 114.082 161.098 111.801C161.364 110.947 161.367 110.036 161.38 109.144C161.581 95.5049 165.005 82.1411 168.409 68.9307C168.938 66.8841 169.475 64.8285 170.261 62.863C171.047 60.8975 172.585 59.3198 173.369 57.4941C168.822 56.9621 164.669 60.8863 159.946 60.2957Z" fill="#464353"/>
<path d="M192.518 145.858C193.04 149.014 193.358 152.237 193.607 155.444C189.541 158.807 185.164 161.733 180.717 164.447C180.464 164.602 180.208 164.756 179.953 164.898L179.933 165.006C179.923 164.98 179.91 164.955 179.897 164.931C179.552 164.187 178.948 163.593 178.198 163.259C176.531 159.765 174.866 156.272 173.202 152.778C172.299 150.891 171.395 148.987 170.943 146.952C170.943 146.909 170.923 146.864 170.916 146.821C170.573 145.243 170.494 143.604 170.266 142.006C170.15 141.091 169.944 140.19 169.649 139.315C169.378 138.538 169.005 137.782 168.676 137.023C168.269 136.085 167.928 135.136 167.912 134.124C167.912 133.802 167.933 133.448 167.774 133.178C167.605 132.945 167.397 132.743 167.158 132.583C166.86 132.319 166.634 131.984 166.501 131.609C166.368 131.234 166.333 130.831 166.399 130.439C165.044 130.509 164.28 131.963 163.736 133.196C163.241 134.401 162.591 135.538 161.803 136.577C161.228 137.318 160.497 137.926 159.661 138.355C159.587 138.391 159.512 138.427 159.436 138.459C157.55 139.288 155.347 138.995 153.303 138.621C151.517 138.294 149.669 137.888 148.233 136.779L148.079 136.658C147.654 136.305 147.274 135.901 146.95 135.454C145.746 133.813 145.213 131.652 144.917 129.594C144.89 129.4 144.863 129.206 144.838 129.012C144.633 127.558 144.576 126.087 144.669 124.622C144.696 124.261 144.734 123.9 144.781 123.542C144.813 123.317 144.847 123.073 144.885 122.839C144.884 122.832 144.884 122.825 144.885 122.818C144.944 122.446 145.007 122.072 145.071 121.691C145.296 120.413 145.522 119.102 146.2 118.002C146.646 117.317 147.208 116.716 147.862 116.226C148.106 116.034 148.357 115.851 148.61 115.676C149.021 115.392 149.443 115.121 149.872 114.866C150.952 114.221 152.086 113.671 153.26 113.221C153.54 113.113 153.825 113.011 154.11 112.914C155.216 112.522 156.406 112.428 157.561 112.642C158.584 112.789 159.617 112.85 160.651 112.822C163.3 112.77 165.961 112.265 168.606 111.939C172.278 111.488 176.224 111.434 179.427 113.291C179.58 113.379 179.729 113.471 179.879 113.568C181.46 114.6 182.733 116.047 183.761 117.664C183.987 118.004 184.184 118.353 184.378 118.707C184.826 119.519 185.23 120.355 185.591 121.209C185.804 121.629 185.919 122.091 185.927 122.561C185.922 122.651 185.91 122.74 185.891 122.827C185.83 123.147 185.708 123.459 185.665 123.783C185.523 125.011 186.569 126.037 186.959 127.207C187.212 127.969 187.185 128.785 187.328 129.587C187.533 130.714 188.086 131.728 188.583 132.743C189.369 134.375 190.04 136.06 190.594 137.785C190.987 138.986 191.323 140.205 191.619 141.436C191.715 141.831 191.806 142.227 191.892 142.624C192.138 143.715 192.339 144.783 192.518 145.858Z" fill="#F86D70"/>
<path d="M216.6 112.48V114.058L216.308 114.053L215.983 114.049L212.351 114.003L203.402 113.886L200.891 113.855L200.24 113.846L196.471 113.798L191.158 113.729L179.888 113.582L160.33 113.33L153.272 113.239L150.439 113.203L147.833 113.17L146.209 113.147L144.671 113.127L133.267 112.98L130.105 112.94L129.416 112.931L128.969 111.779L125.719 103.414L125.125 101.886L125.576 100.083L127.609 101.435L128.86 101.591L149.461 104.147L153.328 104.627L161.527 105.646L169.559 106.642L172.707 107.032L191.339 109.345L196.545 109.991L200.855 110.526L216.177 112.428L216.6 112.48Z" fill="#3F3D56"/>
<path d="M125.576 100.083L129.642 110.677L216.6 112.48V100.985L125.576 100.083Z" fill="#504F60"/>
<path d="M130.093 111.804L130.771 176.492L133.933 176.042L133.255 111.804H130.093Z" fill="#3F3D56"/>
<path d="M216.308 114.05H215.983C215.456 118.084 214.585 122.064 213.379 125.949L212.351 114.003L212.308 113.494L216.107 113.056L216.234 113.043L216.308 114.05Z" fill="#3F3D56"/>
<path d="M203.951 106.394L170.862 107.07L160.585 103.689L188.141 102.111L203.951 106.394Z" fill="white"/>
<path d="M162.444 93.2486C162.093 93.3829 161.782 93.6039 161.541 93.8909C161.352 94.2019 161.236 94.5519 161.204 94.9142L160.648 98.2208C160.564 98.5233 160.579 98.8449 160.691 99.1382C160.836 99.4154 161.256 99.5597 161.466 99.3297C161.439 99.9766 161.495 100.666 161.873 101.194C162.25 101.721 163.04 101.998 163.573 101.631C163.657 101.767 163.769 101.883 163.902 101.971C164.035 102.06 164.186 102.118 164.344 102.143C164.502 102.167 164.663 102.157 164.817 102.113C164.97 102.069 165.113 101.992 165.233 101.888C164.913 101.996 164.89 102.485 165.118 102.733C165.374 102.958 165.699 103.088 166.04 103.101C170.009 103.659 174.055 103.151 177.762 101.629C178.112 101.485 177.191 97.1772 177.098 96.7354C176.872 95.6964 176.759 94.4274 175.881 93.7286C173.78 92.0562 170.049 91.7271 167.49 91.9255C165.741 92.0575 164.032 92.5058 162.444 93.2486Z" fill="#FBBEBE"/>
<path opacity="0.1" d="M196.111 93.7495C187.942 93.905 179.603 94.038 171.806 91.5969C172.551 94.4771 172.499 97.5048 171.657 100.358L209.855 103.514C211.475 103.647 218.19 104.404 219.768 104.023C221.347 103.642 206.521 98.7691 207.12 97.2612C208.767 93.1071 214.282 90.6728 210.309 90.5173C205.295 90.3189 201.164 93.6548 196.111 93.7495Z" fill="black"/>
<path d="M196.337 94.1997C188.168 94.3552 179.829 94.4882 172.032 92.0471C172.777 94.9273 172.725 97.9551 171.883 100.808L210.081 103.964C211.7 104.097 218.415 104.865 219.994 104.473C221.573 104.081 221.203 102.149 221.801 100.642C223.448 96.4875 214.508 91.123 210.535 90.9675C205.521 90.7691 201.39 94.105 196.337 94.1997Z" fill="#464353"/>
<path d="M183.348 94.8267C183.699 94.9607 184.01 95.1818 184.251 95.4691C184.44 95.7803 184.556 96.1301 184.59 96.4924L185.146 99.7989C185.229 100.102 185.214 100.423 185.103 100.716C184.958 100.994 184.536 101.138 184.328 100.908C184.353 101.555 184.299 102.244 183.921 102.772C183.544 103.299 182.754 103.577 182.218 103.209C182.135 103.345 182.023 103.461 181.889 103.55C181.756 103.638 181.606 103.696 181.448 103.721C181.29 103.745 181.129 103.735 180.975 103.691C180.821 103.647 180.679 103.57 180.558 103.466C180.879 103.574 180.904 104.063 180.676 104.311C180.419 104.536 180.093 104.666 179.752 104.679C175.784 105.237 171.738 104.729 168.032 103.207C167.682 103.063 168.601 98.7553 168.696 98.3136C168.922 97.2745 169.035 96.0055 169.913 95.3068C172.012 93.6343 175.745 93.3052 178.304 93.5036C180.052 93.6358 181.761 94.0842 183.348 94.8267Z" fill="#FBBEBE"/>
<path d="M129.366 87.6476C128.616 88.6123 127.864 89.5973 127.381 90.722C126.457 92.8678 126.593 95.2975 126.746 97.6281C126.789 98.3043 126.843 98.994 127.198 99.5553C127.504 99.9793 127.909 100.323 128.377 100.558C130.333 101.667 132.623 101.999 134.859 102.247C138.283 102.625 141.72 102.856 145.168 102.938C153.71 103.146 162.383 102.449 170.704 104.381C169.674 102.819 169.676 100.752 170.252 98.9715C170.828 97.1909 171.937 95.6401 173.024 94.1142C169.215 92.9106 165.132 94.7904 161.143 94.6033C157.048 94.4117 153.258 92.0496 149.159 92.0518C148.278 92.0518 147.381 92.1623 146.525 91.9504C145.669 91.7385 144.84 91.0939 144.761 90.2171C145.854 90.4628 146.891 89.5296 147.343 88.5063C147.795 87.483 147.876 86.3268 148.314 85.2967C149.405 82.734 152.352 81.5461 154.186 79.4364C154.476 79.1028 154.749 78.7084 154.74 78.2666C154.697 77.8924 154.539 77.5405 154.288 77.2591C152.764 75.2305 150.466 74.1035 148.558 72.5258C147.894 71.9758 146.555 69.9021 145.809 69.7105C144.427 69.3567 143.255 71.3492 142.356 72.3206C137.817 77.2418 133.487 82.3508 129.366 87.6476Z" fill="#464353"/>
<path opacity="0.07" d="M174.783 87.0752C175.355 87.4989 175.864 88.0021 176.294 88.5696C176.508 88.8546 176.661 89.1808 176.742 89.5277C176.823 89.8745 176.831 90.2344 176.766 90.5846C176.696 89.9313 176.842 89.2731 177.182 88.7103C177.521 88.1475 178.036 87.711 178.648 87.4674L174.783 87.0752Z" fill="black"/>
<g opacity="0.1">
<path opacity="0.1" d="M187.309 27.9677C187.044 27.2632 186.737 26.5746 186.392 25.9053C186.169 25.9481 185.949 26.0045 185.733 26.0743C186.12 26.7166 186.469 27.3812 186.779 28.0646C186.952 28.0195 187.129 27.9879 187.309 27.9677Z" fill="black"/>
<path opacity="0.1" d="M200.414 36.8555C200.475 36.9053 200.534 36.9619 200.593 37.0139C200.589 36.9992 200.583 36.9849 200.577 36.9709C200.526 36.9332 200.471 36.8947 200.414 36.8555Z" fill="black"/>
<path opacity="0.1" d="M179.417 37.8466C179.535 37.7542 179.643 37.6573 179.77 37.5671L179.734 36.4965L177.321 36.4717C176.931 36.8301 176.515 37.344 176.746 37.8241L179.417 37.8466Z" fill="black"/>
<path opacity="0.1" d="M205.79 55.8699C205.36 56.6678 204.742 57.4161 203.895 57.7384C203.242 57.9864 202.524 57.9638 201.826 57.9323C199.445 57.8353 197.024 57.7294 194.774 56.9428C193.722 56.5731 192.714 56.057 191.612 55.8293C190.322 55.5633 188.988 55.7144 187.68 55.8676L181.916 56.5438C180.215 56.7422 178.32 56.8909 176.962 55.8496C176.185 55.2546 175.684 54.3282 174.833 53.8503C174.473 53.6475 174.047 53.5167 173.814 53.1741C173.667 52.9197 173.589 52.6315 173.588 52.3379C173.57 52.1013 173.559 51.8646 173.55 51.6279C173.525 52.3156 173.538 53.004 173.588 53.6903C173.589 53.9839 173.667 54.2721 173.814 54.5265C174.04 54.8669 174.473 54.9976 174.833 55.2027C175.684 55.6806 176.188 56.6069 176.962 57.202C178.318 58.2433 180.215 58.1036 181.916 57.8962L187.68 57.22C188.988 57.0667 190.322 56.9157 191.612 57.1817C192.705 57.4071 193.713 57.9255 194.774 58.2951C197.033 59.0818 199.445 59.1967 201.826 59.2846C202.524 59.3139 203.242 59.3387 203.895 59.0908C204.742 58.7685 205.36 58.0202 205.79 57.2223C206.621 55.6783 206.853 53.927 206.765 52.1621C206.717 53.4546 206.384 54.7205 205.79 55.8699Z" fill="black"/>
</g>
<path opacity="0.1" d="M187.244 29.416L190.406 32.3462C190.406 32.3462 187.696 31.2192 187.244 29.416Z" fill="black"/>
</g>
<defs>
<clipPath id="clip0">
<rect width="222" height="181" fill="white"/>
</clipPath>
</defs>
</svg>
