<svg width="222" height="179" viewBox="0 0 222 179" fill="none" xmlns="http://www.w3.org/2000/svg">
<g clip-path="url(#clip0)">
<path d="M146.076 100.219C141.393 103.024 133.049 106.538 124.522 102.926L119.011 100.592L130.056 88.2282C121.242 78.524 116.366 65.8883 116.379 52.7875C116.392 39.6866 121.295 27.0609 130.128 17.3748C138.962 7.68864 151.094 1.63727 164.155 0.401839C177.216 -0.833591 190.27 2.83559 200.768 10.6932C211.266 18.5508 218.455 30.0329 220.931 42.8982C223.408 55.7635 220.994 69.0887 214.162 80.2728C207.329 91.4569 196.568 99.6973 183.979 103.385C171.39 107.073 157.876 105.945 146.076 100.219V100.219ZM124.913 52.7579C124.889 58.7971 126.116 64.7761 128.518 70.3186C130.92 75.8612 134.445 80.8475 138.87 84.9638L141.917 87.8227L134.967 95.6025C138.587 94.8691 141.74 92.9134 143.339 91.7775L145.533 90.2188L147.892 91.5134C154.414 95.0792 161.731 96.9479 169.166 96.9471C193.567 96.9471 213.419 77.124 213.419 52.758C213.419 28.392 193.567 8.56878 169.166 8.56878C144.765 8.56878 124.913 28.392 124.913 52.758V52.7579Z" fill="#3F3D56"/>
<path d="M120.623 52.7576C120.623 25.9865 142.356 4.28418 169.166 4.28418C195.976 4.28418 217.709 25.9865 217.709 52.7576C217.709 79.5288 195.976 101.231 169.166 101.231C161.007 101.243 152.977 99.1916 145.826 95.2681C142.47 97.6522 134.284 102.407 126.197 98.9821L135.932 88.0857C131.093 83.5583 127.237 78.0862 124.604 72.0091C121.97 65.932 120.615 59.3793 120.623 52.7576Z" fill="#1769AA"/>
<path opacity="0.1" d="M209.44 52.8631C209.44 27.536 189.987 6.74947 165.187 4.58025C166.601 4.45657 168.031 4.38965 169.477 4.38965C196.287 4.38965 218.021 26.0919 218.021 52.8631C218.021 79.6342 196.287 101.337 169.477 101.337C168.034 101.337 166.606 101.269 165.194 101.145C189.99 98.9729 209.44 78.1878 209.44 52.8631Z" fill="black"/>
<path d="M57.3034 167.558C45.174 167.564 33.4111 163.407 23.9862 155.782C14.5612 148.158 8.04692 137.531 5.53504 125.682C3.02316 113.832 4.66633 101.481 10.1892 90.6972C15.712 79.9135 24.7788 71.3531 35.8703 66.4506C46.9617 61.548 59.4036 60.6012 71.1109 63.7689C82.8182 66.9365 93.0794 74.0261 100.175 83.8495C107.27 93.673 110.769 105.633 110.084 117.726C109.399 129.819 104.573 141.309 96.414 150.271L107.459 162.635L101.947 164.969C93.4209 168.581 85.077 165.067 80.3938 162.262C73.1963 165.746 65.302 167.557 57.3034 167.558ZM57.3034 70.6115C32.9023 70.6115 13.0505 90.4348 13.0505 114.801C13.0505 139.167 32.9023 158.99 57.3034 158.99C64.7391 158.991 72.0553 157.122 78.5774 153.556L80.9369 152.262L83.1307 153.82C84.7296 154.956 87.8828 156.912 91.5031 157.645L84.5528 149.865L87.5994 147.007C92.0248 142.89 95.5494 137.904 97.9513 132.361C100.353 126.819 101.581 120.84 101.556 114.801C101.556 90.4348 81.7045 70.6115 57.3034 70.6115Z" fill="#3F3D56"/>
<path d="M105.847 114.801C105.847 88.0294 84.1133 66.3271 57.3036 66.3271C30.4938 66.3271 8.76025 88.0294 8.76025 114.801C8.76025 141.572 30.4939 163.274 57.3036 163.274C65.463 163.286 73.4926 161.235 80.6436 157.311C83.9993 159.695 92.1853 164.45 100.272 161.025L90.5377 150.129C95.3768 145.601 99.2326 140.129 101.866 134.052C104.5 127.975 105.855 121.422 105.847 114.801Z" fill="#1769AA"/>
<path opacity="0.1" d="M17.3409 114.556C17.3409 89.2294 36.7941 68.4428 61.5938 66.2736C60.1798 66.1499 58.7495 66.083 57.3034 66.083C30.4936 66.083 8.76001 87.7853 8.76001 114.556C8.76001 141.328 30.4936 163.03 57.3034 163.03C58.7473 163.03 60.1751 162.962 61.587 162.839C36.7906 160.666 17.3409 139.881 17.3409 114.556Z" fill="black"/>
<path d="M180.562 37.3574C177.386 31.9985 171.102 31.7487 171.102 31.7487C171.102 31.7487 164.979 30.9668 161.051 39.1285C157.39 46.7359 152.337 54.081 160.238 55.8618L161.665 51.4266L162.549 56.192C163.674 56.2728 164.802 56.2921 165.929 56.2497C174.39 55.9769 182.448 56.3295 182.188 53.2978C181.843 49.2675 183.618 42.5137 180.562 37.3574Z" fill="#2F2E41"/>
<path d="M159.787 84.2882C159.694 84.8777 159.558 85.4597 159.382 86.0298C159.183 86.5879 158.876 87.104 158.694 87.6678C158.115 89.465 158.918 91.4689 160.201 92.8561C161.313 94.0543 162.749 94.9056 164.334 95.3072C165.502 95.5567 166.693 95.6817 167.887 95.68C171.189 95.7918 174.575 95.8918 177.704 94.8323C178.692 94.4892 179.647 94.0561 180.556 93.5384C180.843 93.4019 181.096 93.2031 181.296 92.9565C181.506 92.5954 181.599 92.1787 181.563 91.7628C181.556 90.3651 181.272 88.9746 181.34 87.5785C181.377 86.8052 181.522 86.0326 181.451 85.2617C181.352 84.3861 180.985 83.5625 180.399 82.9034C179.814 82.2443 179.038 81.7821 178.179 81.5799C177.292 81.3896 176.371 81.4933 175.468 81.5801C173.122 81.8051 170.767 81.9103 168.411 81.8952C166.003 81.8798 163.611 81.5128 161.215 81.4745C160.507 81.4632 160.521 81.6813 160.296 82.3659C160.088 82.996 159.918 83.6379 159.787 84.2882Z" fill="#2F2E41"/>
<path d="M166.619 49.7764C166.503 50.3813 166.378 51.0083 166.014 51.5054C165.595 52.0773 164.912 52.4041 164.462 52.9514C163.784 53.7753 163.745 54.9346 163.742 56.0011C163.739 56.9836 163.759 58.0315 164.308 58.847C164.699 59.3536 165.183 59.7803 165.736 60.1037C167.793 61.4883 170.017 62.8978 172.497 62.9435C173.525 62.9624 174.627 62.6973 175.304 61.9242C175.596 61.561 175.825 61.152 175.983 60.7137C176.618 59.1523 177.002 57.501 177.123 55.8203C177.214 55.0302 177.14 54.2297 176.906 53.4696C176.604 52.6305 175.995 51.9402 175.592 51.1446C175.116 50.1987 174.942 49.1297 175.093 48.0818C175.113 48.008 175.107 47.9296 175.076 47.8598C175.043 47.8225 175.001 47.7933 174.955 47.7746C174.909 47.7559 174.859 47.7481 174.809 47.7519L169.89 47.3983C169.432 47.3755 168.976 47.3234 168.524 47.2422C168.259 47.1884 167.559 46.8123 167.306 46.9123C166.838 47.0975 166.715 49.2747 166.619 49.7764Z" fill="#A0616A"/>
<path opacity="0.1" d="M166.619 49.9297C166.503 50.5346 166.378 51.1616 166.014 51.6587C165.595 52.2306 164.912 52.5574 164.462 53.1047C163.784 53.9286 163.745 55.0879 163.742 56.1544C163.739 57.1369 163.759 58.1848 164.308 59.0003C164.699 59.5069 165.183 59.9336 165.735 60.257C167.793 61.6416 170.017 63.0511 172.497 63.0968C173.525 63.1157 174.627 62.8506 175.304 62.0775C175.596 61.7143 175.825 61.3053 175.983 60.867C176.618 59.3056 177.002 57.6543 177.123 55.9736C177.214 55.1835 177.14 54.383 176.906 53.6229C176.604 52.7839 175.995 52.0935 175.592 51.298C175.116 50.352 174.942 49.283 175.093 48.2351C175.113 48.1613 175.107 48.0829 175.076 48.0132C175.043 47.9758 175.001 47.9467 174.955 47.9279C174.909 47.9092 174.859 47.9014 174.809 47.9052L169.89 47.5516C169.432 47.5289 168.976 47.4767 168.524 47.3956C168.259 47.3417 167.559 46.9657 167.306 47.0657C166.838 47.2508 166.715 49.4281 166.619 49.9297Z" fill="black"/>
<path d="M171.323 50.4353C175.309 50.4353 178.54 47.2089 178.54 43.2289C178.54 39.2489 175.309 36.0225 171.323 36.0225C167.338 36.0225 164.106 39.2489 164.106 43.2289C164.106 47.2089 167.338 50.4353 171.323 50.4353Z" fill="#A0616A"/>
<path d="M167.631 59.3694C167.988 59.7817 168.417 60.1246 168.899 60.3808C169.401 60.5879 169.939 60.6904 170.482 60.6819C171.783 60.7185 173.194 60.4804 174.098 59.5465C175.265 58.3427 175.227 56.4009 176.141 54.9965C176.215 54.8691 176.315 54.7593 176.436 54.6747C176.589 54.5913 176.762 54.5515 176.937 54.5596C178.092 54.5488 179.098 55.2968 180.005 56.0095C180.433 56.3032 180.799 56.6762 181.086 57.1082C181.265 57.458 181.388 57.8339 181.45 58.2221C181.9 60.4182 182.046 62.6637 182.191 64.9008C182.271 66.1364 182.351 67.3733 182.345 68.6115C182.326 72.6908 181.376 76.702 180.432 80.6709C180.31 81.1823 180.144 81.754 179.678 81.9989C179.47 82.0921 179.247 82.1465 179.02 82.1593C176.315 82.4764 173.605 82.794 170.883 82.8358C169.82 82.8522 168.758 82.8265 167.696 82.7588C167.513 82.7564 167.332 82.7248 167.159 82.6654C166.925 82.5529 166.723 82.382 166.574 82.1691C165.102 80.3159 165.015 77.7538 165.024 75.3879C165.047 69.6036 165.254 63.8238 165.645 58.0487C165.677 57.5721 165.684 56.9932 165.34 56.6182C166.01 57.6093 166.777 58.531 167.631 59.3694Z" fill="white"/>
<path d="M166.102 51.0483C165.859 51.4889 164.062 52.583 163.715 52.9482C161.776 54.9884 158.239 54.9118 156.466 57.097C155.842 57.8659 155.518 58.8319 155.28 59.7923C154.943 61.1506 154.763 62.632 155.327 63.9128C155.871 65.1452 157.014 65.9972 157.791 67.0981C158.644 68.3068 159.027 69.7745 159.394 71.2067C159.666 72.2642 159.939 73.3479 159.834 74.4345C159.713 75.6699 159.115 76.8011 158.761 77.991C158.408 79.181 158.347 80.5982 159.164 81.5334C159.764 82.2204 160.706 82.4928 161.606 82.646C162.759 82.819 163.922 82.9201 165.088 82.9486C166.117 82.994 167.251 83.0028 168.042 82.3441C168.666 81.8243 168.938 80.9808 168.973 80.17C169.008 79.3592 168.839 78.5555 168.733 77.7508C168.623 76.9166 168.581 76.0752 168.546 75.2346C168.388 71.4629 168.366 67.6888 168.481 63.9123C168.539 63.1274 168.501 62.3384 168.366 61.5628C168.146 60.5526 167.599 59.6498 167.143 58.7216C166.231 56.9733 165.818 55.0084 165.949 53.0416C166.087 51.0204 166.97 49.4805 166.102 51.0483Z" fill="white"/>
<path d="M176.237 51.2016C176.608 51.5826 177.87 51.7082 178.342 51.9536C178.786 52.1585 179.25 52.3188 179.726 52.432C181.448 52.9283 183.087 53.6793 184.587 54.66C184.899 54.8421 185.174 55.0798 185.4 55.3612C185.638 55.7475 185.791 56.1797 185.85 56.6293C186.081 57.7731 186.313 58.9308 186.261 60.0966C186.206 61.334 185.833 62.5325 185.463 63.7147L184.079 68.132C183.046 71.4292 182.007 74.7588 181.716 78.2013C181.555 80.1093 181.627 82.0296 181.929 83.9204C181.957 84.0124 181.966 84.1093 181.954 84.2048C181.942 84.3003 181.91 84.3922 181.859 84.4743C181.768 84.5643 181.648 84.6194 181.52 84.63C180.853 84.7342 180.206 84.3942 179.601 84.0933C177.752 83.1743 175.778 82.5295 173.742 82.1791C174.538 81.0312 175.152 79.7678 175.562 78.4333C175.795 77.586 175.979 76.7258 176.112 75.8572L176.756 72.1397C177.017 70.781 177.202 69.4084 177.308 68.0288C177.356 67.5111 177.326 66.9889 177.218 66.4802C177.07 65.9961 176.873 65.5282 176.63 65.0837C175.569 62.8803 175.072 60.3658 175.489 57.9567C175.672 56.9025 176.027 55.8468 175.879 54.7871C175.736 53.7683 175.884 52.9765 175.623 51.9682C174.548 47.8284 175.538 50.4848 176.237 51.2016Z" fill="white"/>
<path d="M156.447 60.5805C155.964 61.5826 155.155 62.4363 154.88 63.5142C154.773 64.018 154.727 64.5329 154.743 65.0476C154.696 65.8234 154.773 66.6018 154.971 67.3533C155.125 67.8286 155.375 68.267 155.555 68.733C155.806 69.3841 155.917 70.0803 155.883 70.7771C155.834 71.7424 155.506 72.6794 155.48 73.6455C155.44 75.1649 156.144 76.5933 156.83 77.9497C157.003 77.5223 157.268 77.1377 157.605 76.823C157.942 76.5082 158.344 76.2708 158.783 76.1274C159.221 75.984 159.686 75.938 160.145 75.9927C160.603 76.0474 161.044 76.2014 161.436 76.444C161.594 76.2511 161.668 76.004 161.644 75.7565C161.695 73.9937 161.744 72.231 161.791 70.4682C161.865 67.7419 161.936 64.9791 161.308 62.3249C161.024 61.1265 160.583 59.9327 159.774 59.0032C159.348 58.5138 157.902 57.2246 157.203 57.7729C156.889 58.0195 156.962 58.6907 156.912 59.0306C156.837 59.5678 156.68 60.0905 156.447 60.5805Z" fill="white"/>
<path d="M186.403 57.6932C186.597 58.4158 186.681 59.1638 186.65 59.9114C186.659 61.4352 186.639 62.9588 186.589 64.4823C186.597 65.2636 186.497 66.0423 186.292 66.7964C186.136 67.2868 185.895 67.7467 185.733 68.2354C185.25 69.7002 185.514 71.2888 185.556 72.8305C185.585 73.3295 185.542 73.8301 185.429 74.317C185.174 75.2727 184.488 76.0449 184.01 76.911C183.555 77.7334 183.281 78.6554 182.738 79.4226C182.196 80.1899 181.256 80.7978 180.345 80.5623C179.655 80.3838 179.165 79.774 178.826 79.1479C178.086 77.7715 177.833 76.186 178.108 74.648C178.448 72.7769 179.549 71.1169 179.946 69.2569C180.491 66.7027 179.663 64.0669 179.687 61.4554C179.676 61.0461 179.732 60.6376 179.852 60.2461C180.06 59.6496 180.507 59.1732 180.92 58.6949C181.437 58.097 181.916 57.4685 182.356 56.8129C182.652 56.3724 183.054 55.2396 183.578 55.1454C184.749 54.9351 186.112 56.79 186.403 57.6932Z" fill="white"/>
<path d="M150.373 83.1521C149.725 82.9896 149.058 82.9188 148.391 82.9417C147.69 82.9804 147.006 83.1677 146.383 83.491C145.76 83.8144 145.213 84.2664 144.779 84.8171C144.345 85.3678 144.033 86.0046 143.864 86.685C143.695 87.3654 143.673 88.0739 143.8 88.7634C143.962 89.5103 144.226 90.2312 144.585 90.9059C145.111 91.9708 145.741 93.0333 146.714 93.7157C147.3 94.0909 147.931 94.3909 148.592 94.6086L153.716 96.536C154.47 96.8196 155.224 97.1032 155.985 97.3661C159.809 98.6861 163.796 99.4776 167.835 99.7186C169.064 99.8336 170.304 99.7709 171.515 99.5324C171.808 99.4943 172.076 99.3495 172.268 99.1259C172.366 98.956 172.424 98.7661 172.437 98.5706L172.752 96.3665C172.823 96.0596 172.813 95.7398 172.725 95.4374C172.581 95.067 172.219 94.834 171.874 94.636C168.505 92.7041 164.572 91.6383 161.737 88.9867C161.069 88.3625 160.511 87.3731 159.7 86.9491C158.78 86.4682 157.697 86.1938 156.746 85.7507C154.668 84.7821 152.625 83.669 150.373 83.1521Z" fill="#2F2E41"/>
<path opacity="0.1" d="M155.488 86.1237C157.299 86.6903 164.945 90.6162 166.256 91.9869C166.08 92.0501 160.12 88.7147 159.941 88.6611C158.302 88.2115 156.696 87.6465 155.137 86.9705C154.826 86.827 153.119 86.1528 153.196 85.7615C153.284 85.3199 155.167 86.0231 155.488 86.1237Z" fill="black"/>
<path d="M178.082 100.862C178.185 100.869 178.287 100.839 178.369 100.777C178.405 100.731 178.432 100.678 178.447 100.621C178.462 100.565 178.466 100.506 178.459 100.448L178.45 97.4448C177.586 97.0334 176.618 96.9016 175.669 96.7748L171.239 96.1836C171.341 96.1972 170.547 98.0888 170.668 98.3413C170.883 98.7864 172.524 99.1808 172.987 99.391C174.596 100.122 176.269 100.925 178.082 100.862Z" fill="#A0616A"/>
<path d="M164.184 97.4349C163.347 97.568 162.414 97.6855 161.872 98.3357C161.185 99.1601 161.478 100.389 161.805 101.41C161.825 101.542 161.872 101.669 161.941 101.782C162.011 101.896 162.103 101.995 162.212 102.072C162.32 102.15 162.443 102.205 162.574 102.234C162.704 102.263 162.839 102.266 162.97 102.242C163.733 102.291 164.545 102.328 165.211 101.955C165.513 101.756 165.804 101.54 166.082 101.309C166.573 100.982 167.113 100.735 167.682 100.578C168.728 100.249 169.804 100.028 170.895 99.9168C171.325 99.8973 171.75 99.8224 172.16 99.694C172.366 99.628 172.553 99.5158 172.707 99.3659C172.862 99.2161 172.98 99.0326 173.052 98.8299C173.206 98.2843 172.889 97.7279 172.584 97.2494C172.233 96.6226 171.777 96.0603 171.237 95.5867C170.411 94.9465 170.003 95.4379 169.172 95.8476C167.598 96.6232 165.917 97.1583 164.184 97.4349Z" fill="#A0616A"/>
<path d="M161.998 98.1871L156.688 96.6198C156.051 96.3983 155.385 96.2695 154.711 96.2373C154.374 96.2235 154.038 96.2818 153.725 96.4081C153.412 96.5345 153.129 96.7262 152.897 96.9703C152.485 97.4529 152.367 98.1125 152.264 98.7382L152.045 100.077C151.898 100.751 151.857 101.445 151.922 102.132C151.957 102.476 152.07 102.807 152.253 103.1C152.436 103.394 152.683 103.642 152.977 103.825C153.712 104.226 154.612 104.03 155.432 103.863C157.089 103.525 158.774 103.344 160.465 103.324C161.101 103.316 161.767 103.324 162.329 103.027C162.655 102.834 162.929 102.564 163.127 102.242C163.325 101.919 163.441 101.553 163.465 101.175C163.569 100.032 163.188 98.5382 161.998 98.1871Z" fill="#2F2E41"/>
<path d="M180.17 96.8216C180.858 96.7011 181.466 96.3104 182.125 96.0797C183.054 95.7551 184.06 95.7551 185.044 95.7587C185.406 95.7257 185.769 95.7984 186.09 95.968C186.524 96.2561 186.635 96.8326 186.708 97.3472L187.153 100.452C187.272 101.031 187.284 101.627 187.189 102.211C187.059 102.786 186.666 103.341 186.094 103.489C185.4 103.67 184.719 103.227 184.063 102.936C182.424 102.209 180.519 102.394 178.811 101.851C178.647 101.818 178.493 101.751 178.357 101.654C178.222 101.558 178.108 101.433 178.025 101.289C177.966 101.117 177.945 100.934 177.963 100.753C177.993 99.755 177.782 98.3922 178.083 97.4384C178.353 96.5806 179.401 96.8216 180.17 96.8216Z" fill="#2F2E41"/>
<path d="M191.408 81.9025C192.469 81.6368 193.569 81.5618 194.657 81.6809C195.525 81.7764 196.42 82.0177 197.054 82.618C197.826 83.3486 198.074 84.4785 198.095 85.5402C198.128 87.655 197.426 89.7158 196.107 91.3709C195.785 91.7895 195.402 92.1576 194.971 92.463C194.506 92.7535 194.01 92.9921 193.493 93.1743L182.019 97.6936C179 98.8826 175.971 100.075 172.822 100.859C172.736 100.9 172.642 100.924 172.547 100.929C172.451 100.934 172.356 100.92 172.266 100.887C172.176 100.855 172.094 100.804 172.024 100.74C171.953 100.675 171.897 100.597 171.857 100.51C170.852 99.0757 170.009 97.535 169.343 95.9159C169.311 95.8774 169.289 95.8319 169.279 95.7832C169.269 95.7346 169.271 95.6841 169.284 95.6363C169.297 95.5884 169.322 95.5445 169.356 95.5082C169.39 95.4719 169.433 95.4443 169.48 95.4278L177.596 90.7714C178.191 90.4614 178.745 90.0797 179.247 89.6348C179.598 89.2954 179.885 88.8961 180.096 88.4558C180.264 88.1049 180.279 87.2769 180.494 87.0176C180.705 86.7636 181.424 86.7434 181.757 86.6435C182.226 86.5001 182.685 86.3268 183.131 86.1247C184.947 85.3137 186.563 84.1353 188.304 83.1857C189.28 82.6284 190.323 82.1972 191.408 81.9025Z" fill="#2F2E41"/>
<path opacity="0.1" d="M186.807 85.3796C185.412 86.4254 183.607 87.3867 182.225 88.46C181.753 88.8263 173.891 93.2402 173.78 93.8265C175.069 94.0434 183.282 88.3062 184.457 87.7337C185.632 87.1612 186.674 86.3539 187.706 85.5525C187.969 85.3483 189.084 84.7344 188.329 84.5062C187.903 84.3777 187.121 85.1706 186.807 85.3796Z" fill="black"/>
<path d="M177.213 51.3027H164.973C164.476 51.3027 163.999 51.5 163.647 51.8511C163.295 52.2022 163.098 52.6785 163.098 53.175V53.8606H162.965V55.3939H163.098V56.4672H162.965V57.3872H163.098V68.7006C163.098 69.1972 163.295 69.6734 163.647 70.0245C163.999 70.3756 164.476 70.5729 164.973 70.5729H177.213C177.71 70.5729 178.187 70.3756 178.538 70.0245C178.89 69.6734 179.088 69.1972 179.088 68.7006V53.175C179.088 52.6784 178.89 52.2022 178.538 51.8511C178.187 51.5 177.71 51.3027 177.213 51.3027Z" fill="#D0CDE1"/>
<path d="M179.158 36.841L172.95 33.5938L164.377 34.9222L162.603 42.7448L167.019 42.575L168.252 39.7012V42.5279L170.289 42.4496L171.472 37.874L172.211 42.7448L179.454 42.5971L179.158 36.841Z" fill="#2F2E41"/>
<path d="M158.072 80.8899C158.352 81.3666 158.752 81.763 159.23 82.041C159.545 82.1843 159.887 82.254 160.233 82.2447C160.578 82.2355 160.916 82.1476 161.222 81.9877C161.834 81.6605 162.334 81.1596 162.66 80.5485C163.335 79.3588 163.474 77.9352 163.39 76.5706C163.306 75.206 163.014 73.8623 162.885 72.5012C162.791 71.5118 162.783 70.5165 162.776 69.5226C162.753 69.3136 162.797 69.1027 162.901 68.9203C163.082 68.7411 163.315 68.6248 163.567 68.5884C164.928 68.1844 165.832 66.9099 166.48 65.6477C166.913 64.8048 167.289 63.8835 167.206 62.94C167.122 61.9965 166.443 61.0461 165.5 60.9498C164.722 60.8705 164.003 61.3639 163.442 61.9077C162.027 63.2881 161.117 65.1037 160.859 67.0626C160.736 68.0219 160.771 69.0073 160.51 69.9386C159.952 71.9271 158.206 73.1462 157.336 74.9355C156.378 76.9071 156.907 79.1454 158.072 80.8899Z" fill="#A0616A"/>
<path d="M183.76 73.2932C183.561 73.7543 183.272 74.1711 182.909 74.5189C182.547 74.8667 182.118 75.1385 181.649 75.3181C181.066 75.5521 180.422 75.5915 179.814 75.4303C179.513 75.3469 179.235 75.1951 179.002 74.9869C178.769 74.7787 178.587 74.5197 178.47 74.2299C178.377 73.938 178.326 73.6345 178.319 73.3283C178.232 71.9873 178.265 70.6055 178.753 69.3531C178.941 68.8701 179.195 68.4119 179.344 67.9153C179.489 67.3417 179.564 66.7524 179.566 66.1606L179.726 62.5018C179.753 62.2362 179.734 61.968 179.672 61.7085C179.512 61.1791 179.016 60.8351 178.562 60.5193C177.464 59.7569 176.379 58.8672 175.847 57.6419C175.664 57.273 175.598 56.8572 175.659 56.4501C175.809 55.7235 176.543 55.2532 177.269 55.0947C177.744 54.991 178.235 54.9844 178.712 55.0753C179.19 55.1661 179.644 55.3525 180.047 55.6233C180.451 55.894 180.795 56.2436 181.06 56.6508C181.324 57.058 181.503 57.5144 181.586 57.9926C181.658 58.4055 181.657 58.8273 181.699 59.2443C181.788 60.1288 182.07 60.9814 182.246 61.8528C182.679 63.9993 182.454 66.2182 182.883 68.3644C183.241 70.1589 184.592 71.3298 183.76 73.2932Z" fill="#A0616A"/>
<path d="M171.257 59.5344C172.105 59.5344 172.792 58.8479 172.792 58.0011C172.792 57.1543 172.105 56.4678 171.257 56.4678C170.409 56.4678 169.721 57.1543 169.721 58.0011C169.721 58.8479 170.409 59.5344 171.257 59.5344Z" fill="#1769AA"/>
<path d="M4.53001 113.107C7.0316 113.107 9.05954 111.082 9.05954 108.585C9.05954 106.087 7.0316 104.062 4.53001 104.062C2.02842 104.062 0.000488281 106.087 0.000488281 108.585C0.000488281 111.082 2.02842 113.107 4.53001 113.107Z" fill="#2F2E41"/>
<path d="M20.9489 122.011L18.6674 119.797L14.0862 121.218L14.5262 126.515L23.9459 126.078L21.0521 122.152L20.9489 122.011Z" fill="#FBBEBE"/>
<path d="M15.959 121.966C20.0034 121.966 23.282 118.692 23.282 114.653C23.282 110.615 20.0034 107.341 15.959 107.341C11.9146 107.341 8.63599 110.615 8.63599 114.653C8.63599 118.692 11.9146 121.966 15.959 121.966Z" fill="#FBBEBE"/>
<path d="M61.4206 131.397C61.4206 131.397 70.417 146.836 72.5581 149.153C73.5763 150.294 74.6611 151.374 75.8068 152.387C75.8068 152.387 74.8 155.72 73.197 155.601C72.2833 155.546 71.3872 155.326 70.5526 154.951C70.5526 154.951 69.837 153.099 68.589 152.286C67.341 151.474 57.1445 141.457 57.3828 138.256C57.6211 135.054 61.4206 131.397 61.4206 131.397Z" fill="#2F2E41"/>
<path d="M29.3816 153.429C29.3816 153.429 38.9738 160.863 52.01 153.878L53.1334 153.052C53.1334 153.052 51.2375 157.311 51.0616 158.466C50.8577 159.804 45.9216 167.647 45.1162 168.023C44.3107 168.398 44.1332 168.745 44.1332 168.745L47.5514 172.502L48.8153 171.573C48.8153 171.573 53.7434 164.601 55.1848 163.326C56.6261 162.05 63.4935 148.897 63.4935 148.897C63.4935 148.897 66.1192 143.942 59.5664 143.569C53.0137 143.196 49.9985 144.98 49.9985 144.98L38.369 146.824L29.3816 153.429Z" fill="#2F2E41"/>
<path d="M75.9181 151.656L80.7699 155.008C80.7699 155.008 86.9596 156.945 83.1468 158.234C79.334 159.522 69.2863 159.988 69.0584 158.21C68.8304 156.432 69.4547 153.634 69.956 153.787C70.4572 153.94 73.9363 154.842 75.9181 151.656Z" fill="#2F2E41"/>
<path d="M49.2448 170.421L50.1428 175.346C50.1428 175.346 52.6962 180.222 49.6304 178.709C46.5645 177.196 40.2481 171.449 41.1808 170.244C42.1135 169.039 44.1722 167.732 44.3812 168.125C44.5903 168.517 46.1376 171.146 49.2448 170.421Z" fill="#2F2E41"/>
<path d="M39.9934 148.44C39.9934 148.44 33.4729 156.042 29.5141 154.195C25.5554 152.349 9.35946 130.96 11.2088 127.007C13.0581 123.054 13.6781 123.895 13.6781 123.895L22.0406 124.668L19.6345 120.815C19.6345 120.815 20.7579 119.99 21.8285 121.149C22.899 122.307 27.1969 125.202 28.6942 129.29C30.1915 133.377 34.5873 133.174 34.5873 133.174L39.9934 148.44Z" fill="white"/>
<path d="M66.3252 132.765L55.0221 144.746L44.8967 126.895L54.5226 115.281L66.3252 132.765Z" fill="#3F3D56"/>
<path d="M65.472 132.635L55.2632 143.163L46.0123 126.939L54.4962 116.273L65.472 132.635Z" fill="white"/>
<path d="M54.4685 144.288L55.0223 144.746L54.6672 145.439L38.862 150.136L38.7125 149.596L39.4316 148.853L54.4685 144.288Z" fill="#B3B3B3"/>
<path d="M55.1627 144.643L38.796 149.752L28.819 130.927L44.8969 126.895L55.1627 144.643Z" fill="#D0CDE1"/>
<path d="M53.9305 142.09L53.2283 142.605L45.4351 129.093L46.2405 128.718L53.9305 142.09Z" fill="#3F3D56"/>
<path d="M52.3193 142.841L45.3958 144.903L37.5363 131.007L44.3857 129.433L52.3193 142.841Z" fill="#3F3D56"/>
<path d="M32.8146 132.531L34.2481 132.126C34.2481 132.126 42.2421 131.223 42.3588 133.732C42.4756 136.24 33.1751 135.076 33.1751 135.076L31.9349 133.393L32.8146 132.531Z" fill="#FBBEBE"/>
<path d="M39.8262 143.807L41.8214 142.99C41.8214 142.99 47.844 140.293 46.1163 138.536C44.3886 136.78 39.0603 139.831 39.0603 139.831L38.0402 140.796L39.8262 143.807Z" fill="#FBBEBE"/>
<path d="M38.0482 139.926C38.0482 139.926 41.2969 143.159 40.5577 143.919C39.8184 144.678 27.6966 154.667 24.6917 151.471C21.6868 148.275 7.04645 132.228 12.7432 130.852C18.44 129.476 19.9452 132.693 19.9452 132.693L27.4656 145.541L38.0482 139.926Z" fill="white"/>
<path d="M28.3208 130.104L33.6573 131.911L33.5701 135.759L27.9263 135.15L28.3208 130.104Z" fill="white"/>
<path opacity="0.2" d="M33.1305 141.918L27.3809 145.279L20.8118 135.19L27.1528 143.501L33.1305 141.918Z" fill="black"/>
<path d="M12.7447 121.24C17.5595 121.24 21.4626 117.342 21.4626 112.534C21.4626 107.727 17.5595 103.829 12.7447 103.829C7.92997 103.829 4.02686 107.727 4.02686 112.534C4.02686 117.342 7.92997 121.24 12.7447 121.24Z" fill="#2F2E41"/>
<path d="M59.8495 133.525L53.7452 124.608L56.3329 121.409L62.6757 130.583L59.8495 133.525Z" fill="#1769AA"/>
<path d="M59.6773 137.11L50.3842 123.619L50.8425 123.066L60.0922 136.589L59.6773 137.11Z" fill="#E6E6E6"/>
<path d="M58.4799 138.422L49.1868 124.931L49.6451 124.378L58.8948 137.901L58.4799 138.422Z" fill="#E6E6E6"/>
<path d="M57.4597 139.387L48.1666 125.897L48.625 125.344L57.8746 138.867L57.4597 139.387Z" fill="#E6E6E6"/>
<path d="M16.6052 106.722H19.3021C20.6676 106.722 21.9771 107.263 22.9427 108.227C23.9082 109.192 24.4506 110.499 24.4506 111.863H16.6052V106.722Z" fill="#2F2E41"/>
<path d="M53.7543 103.45L53.2654 103.414C53.2464 103.668 53.2328 103.923 53.2167 104.178L51.0222 104.105L53.3241 108.412L55.9094 104.268L53.7069 104.194C53.7227 103.946 53.7358 103.698 53.7543 103.45Z" fill="#3F3D56"/>
<path d="M66.6257 68.3394L67.0155 68.6366C67.6002 67.8719 68.2108 67.1085 68.8306 66.3676L68.4542 66.0537C67.8299 66.8001 67.2147 67.5691 66.6257 68.3394Z" fill="#3F3D56"/>
<path d="M70.3818 63.851L70.7438 64.1811C71.3944 63.4697 72.0698 62.7633 72.7511 62.0811L72.4039 61.7354C71.7175 62.4225 71.0371 63.1343 70.3818 63.851Z" fill="#3F3D56"/>
<path d="M74.5167 59.7105L74.8483 60.0712C75.5598 59.4189 76.2943 58.7746 77.0315 58.1561L76.7162 57.7812C75.9735 58.4043 75.2334 59.0535 74.5167 59.7105Z" fill="#3F3D56"/>
<path d="M63.2791 73.143L63.6935 73.4046C64.2089 72.5904 64.7501 71.776 65.3019 70.9838L64.8995 70.7041C64.3434 71.5023 63.7982 72.3228 63.2791 73.143Z" fill="#3F3D56"/>
<path d="M78.9982 55.9509L79.2967 56.3392C80.0629 55.7518 80.8511 55.1747 81.6393 54.6238L81.3583 54.2227C80.564 54.7777 79.7699 55.3591 78.9982 55.9509Z" fill="#3F3D56"/>
<path d="M60.3693 78.2252L60.8053 78.4489C61.247 77.5911 61.7141 76.7316 62.1935 75.8945L61.7678 75.6514C61.2848 76.4948 60.8142 77.3608 60.3693 78.2252Z" fill="#3F3D56"/>
<path d="M55.6398 92.0068L55.1651 91.8848C54.9228 92.8242 54.6984 93.7822 54.4983 94.7323L54.9781 94.8332C55.1768 93.8903 55.3995 92.9392 55.6398 92.0068Z" fill="#3F3D56"/>
<path d="M83.7914 52.601L84.0545 53.0141C84.8672 52.4977 85.7028 51.9924 86.5381 51.5123L86.2934 51.0879C85.4519 51.5718 84.6101 52.0808 83.7914 52.601Z" fill="#3F3D56"/>
<path d="M54.4431 97.6868L53.9592 97.6074C53.8018 98.5632 53.6635 99.5372 53.5482 100.502L54.0352 100.56C54.1495 99.6025 54.2868 98.6357 54.4431 97.6868Z" fill="#3F3D56"/>
<path d="M57.9219 83.5473L58.3761 83.7316C58.7396 82.8381 59.1286 81.9401 59.532 81.0628L59.0864 80.8584C58.6799 81.7424 58.2881 82.647 57.9219 83.5473Z" fill="#3F3D56"/>
<path d="M55.9579 89.0697L56.4269 89.2127C56.7097 88.2888 57.017 87.3592 57.3403 86.4499L56.8782 86.2861C56.5525 87.2022 56.2428 88.1387 55.9579 89.0697Z" fill="#3F3D56"/>
<path d="M116.96 42.8414C117.922 42.8081 118.9 42.7949 119.869 42.8039L119.873 42.3143C118.898 42.3052 117.912 42.3185 116.944 42.352L116.96 42.8414Z" fill="#3F3D56"/>
<path d="M88.8597 49.6869L89.0853 50.1215C89.9416 49.6785 90.8181 49.2492 91.6908 48.8456L91.4846 48.4014C90.6055 48.808 89.7224 49.2405 88.8597 49.6869Z" fill="#3F3D56"/>
<path d="M128.563 43.4516C129.519 43.5868 130.485 43.7451 131.432 43.9221L131.522 43.4409C130.568 43.2625 129.595 43.103 128.631 42.9668L128.563 43.4516Z" fill="#3F3D56"/>
<path d="M134.278 44.5197C135.217 44.7387 136.165 44.9821 137.094 45.243L137.227 44.7716C136.29 44.5087 135.336 44.2636 134.39 44.043L134.278 44.5197Z" fill="#3F3D56"/>
<path d="M139.875 46.091C140.79 46.3926 141.712 46.7192 142.615 47.0618L142.789 46.6042C141.879 46.2589 140.951 45.9298 140.028 45.626L139.875 46.091Z" fill="#3F3D56"/>
<path d="M122.776 42.8932C123.741 42.9438 124.717 43.0165 125.676 43.109L125.723 42.6217C124.757 42.5284 123.774 42.4552 122.801 42.4043L122.776 42.8932Z" fill="#3F3D56"/>
<path d="M111.106 42.8106L111.166 43.2966C112.122 43.1792 113.095 43.0813 114.058 43.0058L114.02 42.5176C113.049 42.5937 112.069 42.6923 111.106 42.8106Z" fill="#3F3D56"/>
<path d="M99.6675 45.2596L99.8126 45.7272C100.734 45.4424 101.674 45.1744 102.608 44.9306L102.484 44.457C101.543 44.7024 100.596 44.9725 99.6675 45.2596Z" fill="#3F3D56"/>
<path d="M94.1631 47.2337L94.3492 47.6867C95.2407 47.3214 96.1514 46.9718 97.0559 46.6472L96.8902 46.1865C95.9787 46.5133 95.0613 46.8657 94.1631 47.2337Z" fill="#3F3D56"/>
<path d="M105.332 43.7807L105.435 44.2596C106.377 44.0579 107.338 43.8744 108.29 43.7144L108.209 43.2314C107.249 43.3928 106.281 43.5776 105.332 43.7807Z" fill="#3F3D56"/>
<path d="M149.931 50.0895L147.191 46.0459L146.227 48.0263C145.994 47.9223 145.762 47.8161 145.529 47.7153L145.334 48.1648C145.562 48.2631 145.787 48.3662 146.013 48.4669L145.054 50.4379L149.931 50.0895Z" fill="#3F3D56"/>
</g>
<defs>
<clipPath id="clip0">
<rect width="222" height="179" fill="white"/>
</clipPath>
</defs>
</svg>
