<svg width="220" height="162" viewBox="0 0 220 162" fill="none" xmlns="http://www.w3.org/2000/svg">
<g clip-path="url(#clip0)">
<path d="M81.5436 99.8148L36.0017 109.396C34.6856 109.672 33.3139 109.415 32.1873 108.682C31.0608 107.949 30.2716 106.8 29.9928 105.487L22.1778 68.4801C21.902 67.1665 22.1594 65.7973 22.8937 64.6728C23.628 63.5484 24.7792 62.7606 26.0946 62.4823L71.6365 52.9008C72.9526 52.6254 74.3244 52.8824 75.4509 53.6153C76.5774 54.3483 77.3666 55.4973 77.6455 56.8103L85.4604 93.817C85.7362 95.1307 85.4788 96.4999 84.7445 97.6243C84.0102 98.7487 82.8591 99.5365 81.5436 99.8148ZM26.2177 63.0651C25.057 63.3107 24.0413 64.0058 23.3934 64.9979C22.7455 65.9901 22.5183 67.1982 22.7617 68.3573L30.5766 105.364C30.8226 106.523 31.519 107.536 32.513 108.183C33.507 108.83 34.7174 109.057 35.8787 108.814L81.4205 99.232C82.5812 98.9864 83.5969 98.2913 84.2448 97.2992C84.8927 96.3071 85.1199 95.0989 84.8765 93.9398L77.0616 56.9331C76.8156 55.7746 76.1192 54.7608 75.1252 54.1141C74.1312 53.4674 72.9208 53.2406 71.7596 53.4836L26.2177 63.0651Z" fill="#3F3D56"/>
<path d="M68.807 65.1038L45.8227 69.9395C45.6215 69.986 45.4102 69.9547 45.2313 69.8517C45.0525 69.7487 44.9195 69.5818 44.8592 69.3846C44.8316 69.2818 44.8253 69.1745 44.8407 69.0692C44.8561 68.9639 44.8928 68.8628 44.9486 68.7721C45.0044 68.6815 45.0781 68.6031 45.1653 68.5418C45.2524 68.4805 45.3511 68.4375 45.4555 68.4156L68.8522 63.4932C69.7657 64.007 69.477 64.9628 68.8068 65.1038L68.807 65.1038Z" fill="#CCCCCC"/>
<path d="M69.6568 69.1272L46.6724 73.9629C46.4713 74.0095 46.2599 73.9781 46.0811 73.8751C45.9022 73.7721 45.7692 73.6052 45.7089 73.4081C45.6814 73.3053 45.6751 73.198 45.6904 73.0927C45.7058 72.9873 45.7425 72.8863 45.7983 72.7956C45.8541 72.7049 45.9278 72.6265 46.015 72.5652C46.1021 72.5039 46.2009 72.461 46.3052 72.439L69.7019 67.5166C70.6154 68.0305 70.3267 68.9863 69.6565 69.1273L69.6568 69.1272Z" fill="#CCCCCC"/>
<path d="M42.1874 77.2995L35.1728 78.7753C34.9438 78.8233 34.705 78.7786 34.5089 78.651C34.3128 78.5234 34.1754 78.3234 34.1269 78.0948L32.3821 69.8325C32.3341 69.6038 32.3789 69.3655 32.5067 69.1697C32.6345 68.974 32.8349 68.8369 33.0639 68.7885L40.0785 67.3127C40.3075 67.2648 40.5463 67.3096 40.7424 67.4371C40.9384 67.5647 41.0758 67.7646 41.1244 67.9932L42.8692 76.2556C42.9172 76.4842 42.8724 76.7226 42.7446 76.9183C42.6168 77.114 42.4164 77.2511 42.1874 77.2995V77.2995Z" fill="#CCCCCC"/>
<path d="M71.33 77.3812L36.2516 84.7613C36.0505 84.8079 35.8391 84.7765 35.6603 84.6736C35.4814 84.5706 35.3484 84.4036 35.2882 84.2065C35.2606 84.1037 35.2543 83.9964 35.2697 83.8911C35.285 83.7858 35.3217 83.6847 35.3775 83.594C35.4333 83.5033 35.5071 83.4249 35.5942 83.3636C35.6814 83.3023 35.7801 83.2594 35.8844 83.2375L71.3754 75.7705C72.2889 76.2844 72.0002 77.2402 71.33 77.3812Z" fill="#CCCCCC"/>
<path d="M72.1799 81.4066L37.1015 88.7867C36.9003 88.8333 36.689 88.8019 36.5101 88.699C36.3313 88.596 36.1983 88.429 36.138 88.2319C36.1104 88.1291 36.1042 88.0218 36.1195 87.9165C36.1349 87.8112 36.1716 87.7101 36.2274 87.6194C36.2832 87.5287 36.3569 87.4504 36.4441 87.389C36.5312 87.3277 36.63 87.2848 36.7343 87.2629L72.2253 79.7959C73.1388 80.3098 72.8501 81.2656 72.1799 81.4066Z" fill="#CCCCCC"/>
<path d="M73.0294 85.429L37.9511 92.8092C37.7499 92.8558 37.5386 92.8244 37.3597 92.7214C37.1809 92.6184 37.0479 92.4515 36.9876 92.2544C36.9601 92.1516 36.9538 92.0442 36.9691 91.9389C36.9845 91.8336 37.0212 91.7325 37.077 91.6419C37.1328 91.5512 37.2065 91.4728 37.2937 91.4115C37.3808 91.3502 37.4796 91.3073 37.5839 91.2853L73.0748 83.8184C73.9884 84.3322 73.6996 85.288 73.0294 85.429H73.0294Z" fill="#CCCCCC"/>
<path d="M73.8793 89.4535L38.8009 96.8336C38.5998 96.8802 38.3884 96.8488 38.2096 96.7458C38.0307 96.6428 37.8977 96.4759 37.8375 96.2788C37.8099 96.176 37.8036 96.0687 37.819 95.9633C37.8344 95.858 37.8711 95.757 37.9269 95.6663C37.9827 95.5756 38.0564 95.4972 38.1435 95.4359C38.2307 95.3746 38.3294 95.3317 38.4338 95.3097L73.9247 87.8428C74.8383 88.3566 74.5495 89.3124 73.8793 89.4535Z" fill="#CCCCCC"/>
<path d="M74.7289 93.4769L39.6505 100.857C39.4494 100.904 39.238 100.872 39.0592 100.769C38.8803 100.666 38.7473 100.499 38.6871 100.302C38.6595 100.199 38.6532 100.092 38.6686 99.9868C38.684 99.8815 38.7207 99.7804 38.7765 99.6897C38.8323 99.599 38.906 99.5206 38.9931 99.4593C39.0803 99.398 39.179 99.3551 39.2834 99.3331L74.7743 91.8662C75.6879 92.3801 75.3991 93.3359 74.7289 93.4769Z" fill="#CCCCCC"/>
<path d="M80.3243 75.0529C80.2446 75.1973 80.1764 75.3476 80.1204 75.5026L65.7598 79.0596L63.2616 76.4799L58.8684 79.7343L62.8464 84.7301C63.1677 85.1337 63.6116 85.4224 64.1113 85.5527C64.611 85.6831 65.1396 85.6482 65.6177 85.4531L81.2003 79.0976C81.7125 79.4739 82.3273 79.6856 82.963 79.7046C83.5987 79.7237 84.2252 79.5491 84.759 79.2041C85.2929 78.8591 85.7088 78.36 85.9516 77.7733C86.1943 77.1866 86.2524 76.54 86.118 75.9195C85.9836 75.299 85.6631 74.7341 85.1992 74.2999C84.7353 73.8657 84.15 73.5827 83.521 73.4886C82.8921 73.3945 82.2493 73.4938 81.6783 73.7733C81.1072 74.0527 80.635 74.4991 80.3243 75.0529L80.3243 75.0529Z" fill="#FFB8B8"/>
<path d="M31.3066 106.707C31.7543 106.569 32.1663 106.334 32.5134 106.02C32.8606 105.706 33.1345 105.32 33.3159 104.889C33.4974 104.457 33.5819 103.992 33.5635 103.524C33.5451 103.057 33.4243 102.6 33.2096 102.184L43.0922 74.7667L36.229 73.5527L28.6728 100.885C27.9971 101.291 27.4942 101.931 27.2594 102.682C27.0246 103.434 27.0743 104.246 27.3989 104.963C27.7236 105.681 28.3007 106.255 29.0209 106.576C29.7411 106.897 30.5544 106.944 31.3066 106.707Z" fill="#FFB8B8"/>
<path d="M41.8369 79.6335L35.0606 77.0377C34.8678 76.9639 34.6932 76.8494 34.5487 76.7021C34.4042 76.5548 34.2932 76.3782 34.2233 76.1842C34.1534 75.9903 34.1262 75.7836 34.1435 75.5782C34.1608 75.3728 34.2223 75.1735 34.3237 74.994L37.8786 68.7028C38.263 67.7207 39.0219 66.9308 39.9888 66.5062C40.9557 66.0816 42.0519 66.057 43.037 66.4377C44.0221 66.8183 44.8158 67.5733 45.2442 68.5371C45.6726 69.5009 45.7007 70.5949 45.3224 71.5794L43.7544 78.6066C43.7095 78.8078 43.6216 78.997 43.4968 79.1612C43.372 79.3254 43.2132 79.4609 43.0312 79.5583C42.8492 79.6558 42.6484 79.713 42.4423 79.7259C42.2362 79.7389 42.0297 79.7074 41.8369 79.6336V79.6335Z" fill="#1769AA"/>
<path d="M57.1318 158.181H60.7893L62.5296 144.099L57.1312 144.099L57.1318 158.181Z" fill="#FFB8B8"/>
<path d="M56.1989 156.989L63.4021 156.988H63.4024C64.0053 156.988 64.6022 157.107 65.1592 157.337C65.7161 157.567 66.2222 157.905 66.6484 158.33C67.0747 158.756 67.4129 159.261 67.6436 159.817C67.8743 160.373 67.993 160.968 67.993 161.57V161.719L56.1991 161.72L56.1989 156.989Z" fill="#2F2E41"/>
<path d="M36.5458 158.181H40.2032L41.9435 144.099L36.5452 144.099L36.5458 158.181Z" fill="#FFB8B8"/>
<path d="M35.6127 156.989L42.816 156.988H42.8163C43.4191 156.988 44.016 157.107 44.573 157.337C45.1299 157.567 45.636 157.905 46.0623 158.33C46.4885 158.756 46.8267 159.261 47.0574 159.817C47.2881 160.373 47.4068 160.968 47.4068 161.57V161.719L35.6129 161.72L35.6127 156.989Z" fill="#2F2E41"/>
<path d="M40.3802 152.513H35.7514C35.5697 152.513 35.3899 152.476 35.2229 152.404C35.0559 152.333 34.9052 152.228 34.7798 152.097C34.6544 151.966 34.557 151.811 34.4935 151.641C34.43 151.471 34.4017 151.29 34.4103 151.109L36.609 103.958L36.7475 103.955L59.0996 103.373L63.4736 150.55C63.4904 150.727 63.4718 150.906 63.4189 151.075C63.366 151.245 63.2799 151.402 63.1655 151.539C63.0511 151.675 62.9107 151.787 62.7525 151.868C62.5943 151.95 62.4215 151.999 62.2441 152.013L57.045 152.428C56.7184 152.454 56.3935 152.36 56.1316 152.163C55.8696 151.967 55.6887 151.682 55.6227 151.361L48.9724 117.777C48.9543 117.675 48.9001 117.583 48.8197 117.517C48.7392 117.452 48.6379 117.417 48.5342 117.42H48.5323C48.4282 117.418 48.3267 117.453 48.2464 117.519C48.1661 117.585 48.1123 117.678 48.0949 117.781L41.6975 151.431C41.6369 151.736 41.4725 152.01 41.2324 152.207C40.9922 152.404 40.6911 152.512 40.3802 152.513Z" fill="#2F2E41"/>
<path d="M48.8593 61.9066C52.9063 61.9066 56.187 58.6319 56.187 54.5925C56.187 50.553 52.9063 47.2783 48.8593 47.2783C44.8123 47.2783 41.5315 50.553 41.5315 54.5925C41.5315 58.6319 44.8123 61.9066 48.8593 61.9066Z" fill="#FFB8B8"/>
<path d="M46.4023 109.484C42.9097 109.484 39.3224 108.568 36.3485 105.859C36.1902 105.715 36.0681 105.537 35.9919 105.338C35.9157 105.139 35.8877 104.924 35.9101 104.712C36.2284 101.858 37.7724 87.1182 36.9029 77.2724C36.7332 75.4333 36.994 73.58 37.6648 71.8588C38.3356 70.1376 39.398 68.5956 40.7682 67.3544C42.1143 66.1161 43.7304 65.2069 45.4888 64.6987C47.2473 64.1905 49.1 64.0971 50.9008 64.4259H50.9008C50.9921 64.4422 51.0833 64.4594 51.1746 64.4768C57.0413 65.6101 61.1174 71.0294 60.6562 77.0828C59.9832 85.9154 59.3798 97.8626 60.3272 104.619C60.3664 104.896 60.3181 105.177 60.1889 105.425C60.0597 105.672 59.8561 105.874 59.6067 106C57.4512 107.087 52.0507 109.484 46.4023 109.484Z" fill="#1769AA"/>
<path d="M55.964 80.1594C55.7921 80.0452 55.6469 79.8954 55.5382 79.72C55.4296 79.5447 55.3602 79.3481 55.3347 79.1435L54.4419 71.9995C54.1585 70.9835 54.2903 69.8968 54.8083 68.9777C55.3264 68.0585 56.1885 67.382 57.2056 67.0962C58.2226 66.8105 59.3117 66.939 60.234 67.4536C61.1563 67.9681 61.8366 68.8267 62.1256 69.8411L65.0663 76.4405C65.1502 76.6289 65.1924 76.833 65.1901 77.0392C65.1879 77.2453 65.1411 77.4485 65.0531 77.6349C64.965 77.8214 64.8377 77.9867 64.6799 78.1196C64.5221 78.2526 64.3374 78.35 64.1384 78.4053L57.1459 80.3475C56.947 80.4028 56.7384 80.4147 56.5344 80.3822C56.3304 80.3498 56.1359 80.2738 55.964 80.1594Z" fill="#1769AA"/>
<path d="M46.3012 61.804C45.6076 61.8168 44.9184 61.6923 44.2733 61.4377C43.9894 61.3286 43.6948 61.2388 43.4114 61.1296C40.9093 60.1647 39.261 57.5048 39.202 54.8281C39.143 52.1513 40.5317 49.5533 42.594 47.8411C44.6562 46.129 47.3273 45.2499 50.002 45.0466C52.883 44.8277 56.1272 45.5569 57.7371 47.9518C58.1656 48.5893 58.4653 49.3627 58.2114 50.1324C58.1353 50.3647 57.9995 50.5729 57.8175 50.7363C57.0985 51.3748 56.3817 50.8947 55.6488 50.8523C54.6414 50.794 53.7366 51.6079 53.4114 52.5614C53.0862 53.5148 53.2294 54.5645 53.4919 55.537C53.692 56.1222 53.8181 56.73 53.8673 57.3464C53.8885 57.6554 53.8303 57.9648 53.6982 58.2451C53.566 58.5254 53.3643 58.7674 53.1122 58.9481C52.4827 59.3279 51.6561 59.1081 51.0262 58.7289C50.3963 58.3497 49.8521 57.8225 49.1717 57.5434C48.4914 57.2644 47.5773 57.3263 47.1813 57.945C47.0554 58.1701 46.9703 58.4156 46.9296 58.6702C46.5746 60.2846 46.6562 60.1896 46.3012 61.804V61.804Z" fill="#2F2E41"/>
<path d="M147.799 51.8159H101.257C99.9122 51.8144 98.623 51.2806 97.6722 50.3315C96.7213 49.3824 96.1865 48.0956 96.1849 46.7534V8.93359C96.1865 7.5914 96.7213 6.30461 97.6722 5.35553C98.623 4.40646 99.9122 3.8726 101.257 3.87109H147.799C149.144 3.8726 150.433 4.40646 151.384 5.35553C152.335 6.30461 152.87 7.5914 152.871 8.93359V46.7534C152.87 48.0956 152.335 49.3824 151.384 50.3315C150.433 51.2806 149.144 51.8144 147.799 51.8159ZM101.257 4.46668C100.07 4.46802 98.9329 4.93907 98.0939 5.77649C97.2549 6.61391 96.783 7.74931 96.7816 8.93359V46.7534C96.783 47.9377 97.2549 49.0731 98.0939 49.9105C98.9329 50.748 100.07 51.219 101.257 51.2203H147.799C148.986 51.219 150.123 50.748 150.962 49.9105C151.801 49.0731 152.273 47.9377 152.275 46.7534V8.93359C152.273 7.74931 151.801 6.61391 150.962 5.77649C150.123 4.93907 148.986 4.46802 147.799 4.46668H101.257Z" fill="#3F3D56"/>
<path d="M142.509 15.2288H119.02C118.813 15.233 118.613 15.1588 118.459 15.0212C118.305 14.8836 118.21 14.6929 118.192 14.4876C118.186 14.3813 118.202 14.275 118.239 14.1751C118.275 14.0752 118.332 13.9839 118.406 13.9066C118.479 13.8294 118.567 13.7679 118.665 13.7258C118.763 13.6838 118.869 13.6621 118.975 13.6621H142.886C143.674 14.353 143.194 15.2288 142.509 15.2288L142.509 15.2288Z" fill="#CCCCCC"/>
<path d="M142.509 19.3411H119.02C118.813 19.3453 118.613 19.2711 118.459 19.1335C118.305 18.9959 118.21 18.8052 118.192 18.5999C118.186 18.4936 118.202 18.3873 118.239 18.2874C118.275 18.1875 118.332 18.0962 118.406 18.019C118.479 17.9417 118.567 17.8802 118.665 17.8381C118.763 17.7961 118.869 17.7744 118.975 17.7744H142.886C143.674 18.4653 143.194 19.3411 142.509 19.3411L142.509 19.3411Z" fill="#CCCCCC"/>
<path d="M113.942 21.6829H106.773C106.539 21.6826 106.315 21.5897 106.149 21.4245C105.984 21.2593 105.891 21.0353 105.89 20.8017V12.3577C105.891 12.1241 105.984 11.9001 106.149 11.7349C106.315 11.5697 106.539 11.4768 106.773 11.4766H113.942C114.176 11.4769 114.4 11.5698 114.566 11.735C114.731 11.9002 114.824 12.1241 114.825 12.3577V20.8017C114.825 21.0353 114.731 21.2593 114.566 21.4245C114.4 21.5897 114.176 21.6826 113.942 21.6829Z" fill="#3F3D56"/>
<path d="M142.441 27.762H106.592C106.385 27.7662 106.185 27.692 106.031 27.5544C105.878 27.4168 105.782 27.2261 105.764 27.0208C105.758 26.9145 105.774 26.8082 105.811 26.7083C105.848 26.6084 105.904 26.5171 105.978 26.4398C106.051 26.3626 106.139 26.3011 106.237 26.259C106.335 26.217 106.441 26.1953 106.547 26.1953H142.818C143.606 26.8862 143.126 27.762 142.441 27.762V27.762Z" fill="#CCCCCC"/>
<path d="M142.441 31.8753H106.592C106.385 31.8795 106.185 31.8053 106.031 31.6677C105.878 31.5301 105.782 31.3393 105.764 31.1341C105.758 31.0278 105.774 30.9215 105.811 30.8216C105.848 30.7217 105.904 30.6304 105.978 30.5531C106.051 30.4759 106.139 30.4144 106.237 30.3723C106.335 30.3303 106.441 30.3086 106.547 30.3086H142.818C143.606 30.9995 143.126 31.8753 142.441 31.8753V31.8753Z" fill="#CCCCCC"/>
<path d="M142.441 35.9866H106.592C106.385 35.9908 106.185 35.9166 106.031 35.779C105.878 35.6414 105.782 35.4507 105.764 35.2454C105.758 35.1391 105.774 35.0328 105.811 34.9329C105.848 34.8331 105.904 34.7417 105.978 34.6645C106.051 34.5872 106.139 34.5257 106.237 34.4837C106.335 34.4416 106.441 34.4199 106.547 34.4199H142.818C143.606 35.1108 143.126 35.9866 142.441 35.9866V35.9866Z" fill="#CCCCCC"/>
<path d="M142.441 40.0999H106.592C106.385 40.1041 106.185 40.0299 106.031 39.8923C105.878 39.7547 105.782 39.564 105.764 39.3587C105.758 39.2524 105.774 39.1461 105.811 39.0462C105.848 38.9463 105.904 38.855 105.978 38.7777C106.051 38.7005 106.139 38.639 106.237 38.5969C106.335 38.5549 106.441 38.5332 106.547 38.5332H142.818C143.606 39.2241 143.126 40.0999 142.441 40.0999V40.0999Z" fill="#CCCCCC"/>
<path d="M142.441 44.2112H106.592C106.385 44.2154 106.185 44.1412 106.031 44.0036C105.878 43.866 105.782 43.6753 105.764 43.47C105.758 43.3637 105.774 43.2574 105.811 43.1575C105.848 43.0577 105.904 42.9663 105.978 42.8891C106.051 42.8118 106.139 42.7503 106.237 42.7083C106.335 42.6662 106.441 42.6445 106.547 42.6445H142.818C143.606 43.3354 143.126 44.2112 142.441 44.2112Z" fill="#CCCCCC"/>
<path d="M137.655 0C138.051 0.00045162 138.43 0.15747 138.71 0.436608C138.989 0.715746 139.147 1.09421 139.147 1.48897V6.25368C139.147 6.64844 138.989 7.0269 138.71 7.30604C138.43 7.58518 138.051 7.7422 137.655 7.74265H111.401C111.005 7.7422 110.626 7.58518 110.346 7.30604C110.067 7.0269 109.909 6.64844 109.909 6.25368V1.48897C109.909 1.09421 110.067 0.715746 110.346 0.436608C110.626 0.15747 111.005 0.00045162 111.401 0" fill="#1769AA"/>
<path d="M214.928 98.5699H168.385C167.041 98.5683 165.752 98.0345 164.801 97.0854C163.85 96.1363 163.315 94.8495 163.313 93.5074V55.6875C163.315 54.3453 163.85 53.0585 164.801 52.1094C165.752 51.1604 167.041 50.6265 168.385 50.625H214.928C216.273 50.6265 217.562 51.1604 218.513 52.1094C219.464 53.0585 219.998 54.3453 220 55.6875V93.5074C219.998 94.8495 219.464 96.1363 218.513 97.0854C217.562 98.0345 216.273 98.5683 214.928 98.5699ZM168.385 51.2206C167.199 51.2219 166.061 51.693 165.222 52.5304C164.383 53.3678 163.912 54.5032 163.91 55.6875V93.5074C163.912 94.6916 164.383 95.827 165.222 96.6645C166.061 97.5019 167.199 97.9729 168.385 97.9743H214.928C216.114 97.9729 217.252 97.5019 218.091 96.6645C218.93 95.827 219.402 94.6916 219.403 93.5074V55.6875C219.402 54.5032 218.93 53.3678 218.091 52.5304C217.252 51.693 216.114 51.2219 214.928 51.2206H168.385Z" fill="#3F3D56"/>
<path d="M209.638 61.9827H186.148C185.942 61.9869 185.742 61.9127 185.588 61.7751C185.434 61.6375 185.338 61.4468 185.32 61.2415C185.314 61.1352 185.331 61.0289 185.367 60.929C185.404 60.8291 185.461 60.7378 185.534 60.6606C185.608 60.5833 185.696 60.5218 185.794 60.4797C185.892 60.4377 185.997 60.416 186.104 60.416H210.015C210.802 61.1069 210.322 61.9827 209.637 61.9827H209.638Z" fill="#3F3D56"/>
<path d="M209.638 66.095H186.148C185.942 66.0992 185.742 66.025 185.588 65.8874C185.434 65.7498 185.338 65.5591 185.32 65.3538C185.314 65.2475 185.331 65.1412 185.367 65.0413C185.404 64.9414 185.461 64.8501 185.534 64.7729C185.608 64.6956 185.696 64.6341 185.794 64.5921C185.892 64.55 185.997 64.5283 186.104 64.5283H210.015C210.802 65.2192 210.322 66.095 209.637 66.095H209.638Z" fill="#3F3D56"/>
<path d="M181.07 68.4368H173.902C173.668 68.4365 173.443 68.3436 173.278 68.1784C173.112 68.0132 173.019 67.7892 173.019 67.5556V59.1116C173.019 58.878 173.112 58.654 173.278 58.4888C173.443 58.3236 173.668 58.2307 173.902 58.2305H181.07C181.305 58.2308 181.529 58.3237 181.694 58.4889C181.86 58.6541 181.953 58.878 181.953 59.1116V67.5556C181.953 67.7892 181.86 68.0132 181.694 68.1784C181.529 68.3436 181.305 68.4365 181.07 68.4368Z" fill="#CCCCCC"/>
<path d="M209.414 91.3662H202.245C202.011 91.3659 201.786 91.273 201.621 91.1078C201.455 90.9426 201.362 90.7186 201.362 90.485V85.6146C201.362 85.3809 201.455 85.157 201.621 84.9918C201.786 84.8266 202.011 84.7336 202.245 84.7334H209.414C209.648 84.7337 209.872 84.8267 210.038 84.9918C210.203 85.157 210.296 85.381 210.296 85.6146V90.485C210.296 90.7186 210.203 90.9426 210.038 91.1078C209.872 91.273 209.648 91.3659 209.414 91.3662Z" fill="#3F3D56"/>
<path d="M209.57 74.5149H173.72C173.514 74.5191 173.314 74.4449 173.16 74.3073C173.006 74.1697 172.911 73.979 172.892 73.7737C172.887 73.6674 172.903 73.5611 172.939 73.4612C172.976 73.3614 173.033 73.27 173.106 73.1928C173.18 73.1155 173.268 73.054 173.366 73.012C173.464 72.9699 173.569 72.9482 173.676 72.9482H209.947C210.735 73.6391 210.255 74.5149 209.57 74.5149V74.5149Z" fill="#CCCCCC"/>
<path d="M209.57 78.6292H173.72C173.514 78.6334 173.314 78.5592 173.16 78.4216C173.006 78.284 172.911 78.0933 172.892 77.888C172.887 77.7817 172.903 77.6754 172.939 77.5755C172.976 77.4756 173.033 77.3843 173.106 77.307C173.18 77.2298 173.268 77.1683 173.366 77.1262C173.464 77.0842 173.569 77.0625 173.676 77.0625H209.947C210.735 77.7534 210.255 78.6292 209.57 78.6292V78.6292Z" fill="#CCCCCC"/>
<path d="M209.57 82.7395H173.72C173.514 82.7437 173.314 82.6695 173.16 82.5319C173.006 82.3943 172.911 82.2036 172.892 81.9983C172.887 81.8921 172.903 81.7857 172.939 81.6859C172.976 81.586 173.033 81.4946 173.106 81.4174C173.18 81.3401 173.268 81.2786 173.366 81.2366C173.464 81.1945 173.569 81.1729 173.676 81.1729H209.947C210.735 81.8637 210.255 82.7395 209.57 82.7395V82.7395Z" fill="#CCCCCC"/>
<path d="M190.774 86.8538H173.72C173.514 86.858 173.314 86.7838 173.16 86.6462C173.006 86.5086 172.911 86.3179 172.892 86.1126C172.887 86.0063 172.903 85.9 172.939 85.8001C172.976 85.7002 173.033 85.6089 173.106 85.5316C173.18 85.4544 173.268 85.3929 173.366 85.3508C173.464 85.3088 173.569 85.2871 173.676 85.2871H191.151C191.939 85.978 191.459 86.8538 190.774 86.8538V86.8538Z" fill="#CCCCCC"/>
<path d="M190.774 90.9651H173.72C173.514 90.9693 173.314 90.8951 173.16 90.7575C173.006 90.6199 172.911 90.4292 172.892 90.2239C172.887 90.1176 172.903 90.0113 172.939 89.9114C172.976 89.8116 173.033 89.7202 173.106 89.643C173.18 89.5657 173.268 89.5042 173.366 89.4622C173.464 89.4201 173.569 89.3984 173.676 89.3984H191.151C191.939 90.0893 191.459 90.9651 190.774 90.9651Z" fill="#CCCCCC"/>
<path d="M204.784 54.4966H178.53C178.134 54.4961 177.755 54.3391 177.475 54.0599C177.196 53.7808 177.038 53.4023 177.038 53.0076V48.2429C177.038 47.8481 177.196 47.4697 177.475 47.1905C177.755 46.9114 178.134 46.7544 178.53 46.7539H204.784C205.18 46.7544 205.559 46.9114 205.839 47.1905C206.118 47.4697 206.276 47.8481 206.276 48.2429V53.0076C206.276 53.4023 206.118 53.7808 205.839 54.0599C205.559 54.3391 205.18 54.4961 204.784 54.4966Z" fill="#1769AA"/>
<path d="M113.97 162H0.29835C0.219222 162 0.143336 161.969 0.0873844 161.913C0.031433 161.857 0 161.781 0 161.702C0 161.623 0.031433 161.547 0.0873844 161.492C0.143336 161.436 0.219222 161.404 0.29835 161.404H113.97C114.049 161.404 114.125 161.436 114.181 161.492C114.237 161.547 114.268 161.623 114.268 161.702C114.268 161.781 114.237 161.857 114.181 161.913C114.125 161.969 114.049 162 113.97 162Z" fill="#3F3D56"/>
<path d="M28.8695 8.87211C29.935 8.87211 30.7989 8.0099 30.7989 6.94631C30.7989 5.88272 29.935 5.02051 28.8695 5.02051C27.8039 5.02051 26.9401 5.88272 26.9401 6.94631C26.9401 8.0099 27.8039 8.87211 28.8695 8.87211Z" fill="#F2F2F2"/>
<path d="M28.8695 16.5469C29.935 16.5469 30.7989 15.6847 30.7989 14.6211C30.7989 13.5575 29.935 12.6953 28.8695 12.6953C27.8039 12.6953 26.9401 13.5575 26.9401 14.6211C26.9401 15.6847 27.8039 16.5469 28.8695 16.5469Z" fill="#F2F2F2"/>
<path d="M28.8695 24.2217C29.935 24.2217 30.7989 23.3595 30.7989 22.2959C30.7989 21.2323 29.935 20.3701 28.8695 20.3701C27.8039 20.3701 26.9401 21.2323 26.9401 22.2959C26.9401 23.3595 27.8039 24.2217 28.8695 24.2217Z" fill="#F2F2F2"/>
<path d="M28.8695 31.8975C29.935 31.8975 30.7989 31.0353 30.7989 29.9717C30.7989 28.9081 29.935 28.0459 28.8695 28.0459C27.8039 28.0459 26.9401 28.9081 26.9401 29.9717C26.9401 31.0353 27.8039 31.8975 28.8695 31.8975Z" fill="#F2F2F2"/>
<path d="M36.9249 8.87211C37.9905 8.87211 38.8543 8.0099 38.8543 6.94631C38.8543 5.88272 37.9905 5.02051 36.9249 5.02051C35.8593 5.02051 34.9955 5.88272 34.9955 6.94631C34.9955 8.0099 35.8593 8.87211 36.9249 8.87211Z" fill="#F2F2F2"/>
<path d="M36.9249 16.5469C37.9905 16.5469 38.8543 15.6847 38.8543 14.6211C38.8543 13.5575 37.9905 12.6953 36.9249 12.6953C35.8593 12.6953 34.9955 13.5575 34.9955 14.6211C34.9955 15.6847 35.8593 16.5469 36.9249 16.5469Z" fill="#F2F2F2"/>
<path d="M36.9249 24.2217C37.9905 24.2217 38.8543 23.3595 38.8543 22.2959C38.8543 21.2323 37.9905 20.3701 36.9249 20.3701C35.8593 20.3701 34.9955 21.2323 34.9955 22.2959C34.9955 23.3595 35.8593 24.2217 36.9249 24.2217Z" fill="#F2F2F2"/>
<path d="M36.9249 31.8975C37.9905 31.8975 38.8543 31.0353 38.8543 29.9717C38.8543 28.9081 37.9905 28.0459 36.9249 28.0459C35.8593 28.0459 34.9955 28.9081 34.9955 29.9717C34.9955 31.0353 35.8593 31.8975 36.9249 31.8975Z" fill="#F2F2F2"/>
<path d="M44.9803 8.87211C46.0459 8.87211 46.9097 8.0099 46.9097 6.94631C46.9097 5.88272 46.0459 5.02051 44.9803 5.02051C43.9147 5.02051 43.0509 5.88272 43.0509 6.94631C43.0509 8.0099 43.9147 8.87211 44.9803 8.87211Z" fill="#F2F2F2"/>
<path d="M44.9803 16.5469C46.0459 16.5469 46.9097 15.6847 46.9097 14.6211C46.9097 13.5575 46.0459 12.6953 44.9803 12.6953C43.9147 12.6953 43.0509 13.5575 43.0509 14.6211C43.0509 15.6847 43.9147 16.5469 44.9803 16.5469Z" fill="#F2F2F2"/>
<path d="M44.9803 24.2217C46.0459 24.2217 46.9097 23.3595 46.9097 22.2959C46.9097 21.2323 46.0459 20.3701 44.9803 20.3701C43.9147 20.3701 43.0509 21.2323 43.0509 22.2959C43.0509 23.3595 43.9147 24.2217 44.9803 24.2217Z" fill="#F2F2F2"/>
<path d="M44.9803 31.8975C46.0459 31.8975 46.9097 31.0353 46.9097 29.9717C46.9097 28.9081 46.0459 28.0459 44.9803 28.0459C43.9147 28.0459 43.0509 28.9081 43.0509 29.9717C43.0509 31.0353 43.9147 31.8975 44.9803 31.8975Z" fill="#F2F2F2"/>
<path d="M53.0357 8.87211C54.1013 8.87211 54.9651 8.0099 54.9651 6.94631C54.9651 5.88272 54.1013 5.02051 53.0357 5.02051C51.9701 5.02051 51.1063 5.88272 51.1063 6.94631C51.1063 8.0099 51.9701 8.87211 53.0357 8.87211Z" fill="#F2F2F2"/>
<path d="M53.0357 16.5469C54.1013 16.5469 54.9651 15.6847 54.9651 14.6211C54.9651 13.5575 54.1013 12.6953 53.0357 12.6953C51.9701 12.6953 51.1063 13.5575 51.1063 14.6211C51.1063 15.6847 51.9701 16.5469 53.0357 16.5469Z" fill="#F2F2F2"/>
<path d="M53.0357 24.2217C54.1013 24.2217 54.9651 23.3595 54.9651 22.2959C54.9651 21.2323 54.1013 20.3701 53.0357 20.3701C51.9701 20.3701 51.1063 21.2323 51.1063 22.2959C51.1063 23.3595 51.9701 24.2217 53.0357 24.2217Z" fill="#F2F2F2"/>
<path d="M53.0357 31.8975C54.1013 31.8975 54.9651 31.0353 54.9651 29.9717C54.9651 28.9081 54.1013 28.0459 53.0357 28.0459C51.9701 28.0459 51.1063 28.9081 51.1063 29.9717C51.1063 31.0353 51.9701 31.8975 53.0357 31.8975Z" fill="#F2F2F2"/>
<path d="M61.0913 8.87211C62.1568 8.87211 63.0207 8.0099 63.0207 6.94631C63.0207 5.88272 62.1568 5.02051 61.0913 5.02051C60.0257 5.02051 59.1619 5.88272 59.1619 6.94631C59.1619 8.0099 60.0257 8.87211 61.0913 8.87211Z" fill="#F2F2F2"/>
<path d="M61.0913 16.5469C62.1568 16.5469 63.0207 15.6847 63.0207 14.6211C63.0207 13.5575 62.1568 12.6953 61.0913 12.6953C60.0257 12.6953 59.1619 13.5575 59.1619 14.6211C59.1619 15.6847 60.0257 16.5469 61.0913 16.5469Z" fill="#F2F2F2"/>
<path d="M61.0913 24.2217C62.1568 24.2217 63.0207 23.3595 63.0207 22.2959C63.0207 21.2323 62.1568 20.3701 61.0913 20.3701C60.0257 20.3701 59.1619 21.2323 59.1619 22.2959C59.1619 23.3595 60.0257 24.2217 61.0913 24.2217Z" fill="#F2F2F2"/>
<path d="M61.0913 31.8975C62.1568 31.8975 63.0207 31.0353 63.0207 29.9717C63.0207 28.9081 62.1568 28.0459 61.0913 28.0459C60.0257 28.0459 59.1619 28.9081 59.1619 29.9717C59.1619 31.0353 60.0257 31.8975 61.0913 31.8975Z" fill="#F2F2F2"/>
<path d="M69.1467 8.87211C70.2122 8.87211 71.0761 8.0099 71.0761 6.94631C71.0761 5.88272 70.2122 5.02051 69.1467 5.02051C68.0811 5.02051 67.2173 5.88272 67.2173 6.94631C67.2173 8.0099 68.0811 8.87211 69.1467 8.87211Z" fill="#F2F2F2"/>
<path d="M69.1467 16.5469C70.2122 16.5469 71.0761 15.6847 71.0761 14.6211C71.0761 13.5575 70.2122 12.6953 69.1467 12.6953C68.0811 12.6953 67.2173 13.5575 67.2173 14.6211C67.2173 15.6847 68.0811 16.5469 69.1467 16.5469Z" fill="#F2F2F2"/>
<path d="M69.1467 24.2217C70.2122 24.2217 71.0761 23.3595 71.0761 22.2959C71.0761 21.2323 70.2122 20.3701 69.1467 20.3701C68.0811 20.3701 67.2173 21.2323 67.2173 22.2959C67.2173 23.3595 68.0811 24.2217 69.1467 24.2217Z" fill="#F2F2F2"/>
<path d="M69.1467 31.8975C70.2122 31.8975 71.0761 31.0353 71.0761 29.9717C71.0761 28.9081 70.2122 28.0459 69.1467 28.0459C68.0811 28.0459 67.2173 28.9081 67.2173 29.9717C67.2173 31.0353 68.0811 31.8975 69.1467 31.8975Z" fill="#F2F2F2"/>
<path d="M179.536 115.481C180.602 115.481 181.465 114.619 181.465 113.556C181.465 112.492 180.602 111.63 179.536 111.63C178.47 111.63 177.607 112.492 177.607 113.556C177.607 114.619 178.47 115.481 179.536 115.481Z" fill="#F2F2F2"/>
<path d="M179.536 123.157C180.602 123.157 181.465 122.295 181.465 121.231C181.465 120.168 180.602 119.306 179.536 119.306C178.47 119.306 177.607 120.168 177.607 121.231C177.607 122.295 178.47 123.157 179.536 123.157Z" fill="#F2F2F2"/>
<path d="M179.536 130.832C180.602 130.832 181.465 129.97 181.465 128.906C181.465 127.843 180.602 126.98 179.536 126.98C178.47 126.98 177.607 127.843 177.607 128.906C177.607 129.97 178.47 130.832 179.536 130.832Z" fill="#F2F2F2"/>
<path d="M187.591 115.481C188.657 115.481 189.521 114.619 189.521 113.556C189.521 112.492 188.657 111.63 187.591 111.63C186.526 111.63 185.662 112.492 185.662 113.556C185.662 114.619 186.526 115.481 187.591 115.481Z" fill="#F2F2F2"/>
<path d="M187.591 123.157C188.657 123.157 189.521 122.295 189.521 121.231C189.521 120.168 188.657 119.306 187.591 119.306C186.526 119.306 185.662 120.168 185.662 121.231C185.662 122.295 186.526 123.157 187.591 123.157Z" fill="#F2F2F2"/>
<path d="M187.591 130.832C188.657 130.832 189.521 129.97 189.521 128.906C189.521 127.843 188.657 126.98 187.591 126.98C186.526 126.98 185.662 127.843 185.662 128.906C185.662 129.97 186.526 130.832 187.591 130.832Z" fill="#F2F2F2"/>
<path d="M195.647 115.481C196.713 115.481 197.576 114.619 197.576 113.556C197.576 112.492 196.713 111.63 195.647 111.63C194.581 111.63 193.718 112.492 193.718 113.556C193.718 114.619 194.581 115.481 195.647 115.481Z" fill="#F2F2F2"/>
<path d="M195.647 123.157C196.713 123.157 197.576 122.295 197.576 121.231C197.576 120.168 196.713 119.306 195.647 119.306C194.581 119.306 193.718 120.168 193.718 121.231C193.718 122.295 194.581 123.157 195.647 123.157Z" fill="#F2F2F2"/>
<path d="M195.647 130.832C196.713 130.832 197.576 129.97 197.576 128.906C197.576 127.843 196.713 126.98 195.647 126.98C194.581 126.98 193.718 127.843 193.718 128.906C193.718 129.97 194.581 130.832 195.647 130.832Z" fill="#F2F2F2"/>
<path d="M203.702 115.481C204.768 115.481 205.632 114.619 205.632 113.556C205.632 112.492 204.768 111.63 203.702 111.63C202.637 111.63 201.773 112.492 201.773 113.556C201.773 114.619 202.637 115.481 203.702 115.481Z" fill="#F2F2F2"/>
<path d="M203.702 123.157C204.768 123.157 205.632 122.295 205.632 121.231C205.632 120.168 204.768 119.306 203.702 119.306C202.637 119.306 201.773 120.168 201.773 121.231C201.773 122.295 202.637 123.157 203.702 123.157Z" fill="#F2F2F2"/>
<path d="M203.702 130.832C204.768 130.832 205.632 129.97 205.632 128.906C205.632 127.843 204.768 126.98 203.702 126.98C202.637 126.98 201.773 127.843 201.773 128.906C201.773 129.97 202.637 130.832 203.702 130.832Z" fill="#F2F2F2"/>
</g>
<defs>
<clipPath id="clip0">
<rect width="220" height="162" fill="white"/>
</clipPath>
</defs>
</svg>
