<svg width="478" height="386" viewBox="0 0 478 386" fill="none" xmlns="http://www.w3.org/2000/svg">
<g clip-path="url(#clip0)">
<path d="M314.524 216.114C304.44 222.162 286.474 229.74 268.115 221.952L256.248 216.918L280.03 190.257C261.052 169.33 250.553 142.082 250.582 113.831C250.611 85.5805 261.166 58.3541 280.186 37.4667C299.207 16.5792 325.328 3.52992 353.45 0.865804C381.573 -1.79831 409.68 6.114 432.284 23.0583C454.887 40.0027 470.366 64.7629 475.699 92.506C481.031 120.249 475.834 148.984 461.123 173.102C446.412 197.219 423.242 214.989 396.135 222.942C369.029 230.895 339.932 228.461 314.524 216.114V216.114ZM268.957 113.768C268.905 126.791 271.548 139.684 276.72 151.636C281.891 163.588 289.48 174.341 299.009 183.217L305.569 189.382L290.604 206.159C298.399 204.577 305.188 200.36 308.631 197.911L313.354 194.549L318.435 197.341C332.478 205.03 348.231 209.06 364.241 209.058C416.78 209.058 459.524 166.311 459.524 113.768C459.524 61.2245 416.78 18.4772 364.241 18.4772C311.701 18.4772 268.957 61.2245 268.957 113.768V113.768Z" fill="#3F3D56"/>
<path d="M259.719 113.768C259.719 56.0376 306.515 9.23828 364.241 9.23828C421.966 9.23828 468.762 56.0376 468.762 113.768C468.762 171.498 421.966 218.297 364.241 218.297C346.672 218.323 329.383 213.899 313.986 205.438C306.761 210.579 289.135 220.834 271.723 213.447L292.682 189.95C282.263 180.187 273.961 168.387 268.291 155.282C262.62 142.177 259.703 128.047 259.719 113.768Z" fill="#1769AA"/>
<path opacity="0.1" d="M450.956 113.994C450.956 59.3782 409.07 14.5536 355.673 9.87586C358.717 9.60915 361.797 9.46484 364.911 9.46484C422.636 9.46484 469.432 56.2642 469.432 113.994C469.432 171.724 422.636 218.523 364.911 218.523C361.802 218.523 358.727 218.377 355.687 218.111C409.078 213.427 450.956 168.605 450.956 113.994Z" fill="black"/>
<path d="M123.383 361.328C97.2662 361.34 71.939 352.375 51.6456 335.934C31.3523 319.493 17.326 296.577 11.9176 271.024C6.50911 245.472 10.0471 218.837 21.9386 195.583C33.8301 172.329 53.3524 153.869 77.2339 143.297C101.115 132.725 127.905 130.683 153.112 137.514C178.32 144.345 200.414 159.633 215.692 180.816C230.969 202 238.502 227.791 237.028 253.868C235.554 279.945 225.162 304.723 207.594 324.049L231.376 350.71L219.508 355.745C201.149 363.533 183.184 355.954 173.1 349.907C157.603 357.42 140.605 361.325 123.383 361.328ZM123.383 152.269C70.8436 152.269 28.0996 195.017 28.0996 247.56C28.0996 300.104 70.8436 342.851 123.383 342.851C139.393 342.852 155.146 338.823 169.189 331.133L174.269 328.341L178.993 331.703C182.436 334.152 189.225 338.369 197.02 339.951L182.055 323.175L188.615 317.01C198.143 308.133 205.732 297.38 210.904 285.428C216.076 273.476 218.719 260.583 218.666 247.56C218.666 195.017 175.922 152.269 123.383 152.269Z" fill="#3F3D56"/>
<path d="M227.904 247.56C227.904 189.83 181.108 143.03 123.383 143.03C65.6573 143.03 18.8616 189.83 18.8616 247.56C18.8616 305.29 65.6573 352.089 123.383 352.089C140.951 352.115 158.24 347.691 173.638 339.23C180.863 344.371 198.488 354.626 215.901 347.239L194.941 323.742C205.36 313.979 213.662 302.179 219.333 289.074C225.003 275.969 227.921 261.839 227.904 247.56Z" fill="#1769AA"/>
<path opacity="0.1" d="M37.3376 247.032C37.3376 192.416 79.2234 147.592 132.621 142.914C129.576 142.647 126.497 142.503 123.383 142.503C65.6573 142.503 18.8616 189.302 18.8616 247.032C18.8616 304.762 65.6573 351.562 123.383 351.562C126.492 351.562 129.566 351.415 132.606 351.149C79.2157 346.465 37.3376 301.643 37.3376 247.032Z" fill="black"/>
<path d="M388.778 80.5592C381.939 69.003 368.41 68.4645 368.41 68.4645C368.41 68.4645 355.226 66.7784 346.768 84.3785C338.885 100.783 328.006 116.622 345.017 120.463L348.089 110.898L349.992 121.175C352.414 121.349 354.844 121.39 357.271 121.299C375.488 120.711 392.838 121.471 392.279 114.933C391.536 106.242 395.358 91.6784 388.778 80.5592Z" fill="#2F2E41"/>
<path d="M344.046 181.761C343.845 183.032 343.553 184.287 343.173 185.517C342.745 186.72 342.085 187.833 341.693 189.049C340.446 192.924 342.175 197.246 344.937 200.237C347.331 202.821 350.423 204.656 353.837 205.523C356.351 206.061 358.915 206.33 361.486 206.326C368.595 206.568 375.887 206.783 382.624 204.498C384.752 203.759 386.808 202.825 388.765 201.708C389.383 201.414 389.927 200.985 390.358 200.454C390.81 199.675 391.01 198.776 390.933 197.879C390.918 194.865 390.307 191.867 390.452 188.856C390.533 187.189 390.845 185.523 390.691 183.86C390.478 181.972 389.688 180.196 388.427 178.775C387.166 177.354 385.497 176.357 383.648 175.921C381.737 175.51 379.755 175.734 377.809 175.921C372.759 176.406 367.687 176.633 362.614 176.601C357.43 176.567 352.279 175.776 347.121 175.693C345.596 175.669 345.627 176.139 345.141 177.616C344.694 178.974 344.328 180.359 344.046 181.761Z" fill="#2F2E41"/>
<path d="M358.756 107.338C358.507 108.643 358.238 109.995 357.454 111.067C356.552 112.3 355.082 113.005 354.112 114.185C352.651 115.962 352.567 118.462 352.561 120.761C352.556 122.88 352.599 125.14 353.78 126.898C354.621 127.991 355.665 128.911 356.854 129.608C361.284 132.594 366.072 135.634 371.413 135.732C373.626 135.773 375.999 135.201 377.456 133.534C378.084 132.751 378.579 131.869 378.919 130.924C380.284 127.557 381.112 123.996 381.372 120.372C381.569 118.668 381.41 116.942 380.905 115.303C380.256 113.493 378.944 112.004 378.077 110.289C377.052 108.249 376.677 105.944 377.003 103.684C377.046 103.525 377.033 103.356 376.965 103.205C376.894 103.125 376.805 103.062 376.705 103.022C376.605 102.981 376.498 102.965 376.39 102.973L365.799 102.21C364.813 102.161 363.83 102.049 362.858 101.874C362.287 101.758 360.779 100.947 360.235 101.162C359.227 101.561 358.963 106.257 358.756 107.338Z" fill="#A0616A"/>
<path opacity="0.1" d="M358.756 107.669C358.507 108.974 358.238 110.326 357.454 111.398C356.552 112.631 355.082 113.336 354.112 114.516C352.651 116.293 352.567 118.793 352.561 121.093C352.556 123.211 352.599 125.471 353.78 127.229C354.621 128.322 355.665 129.242 356.854 129.939C361.284 132.925 366.072 135.965 371.413 136.063C373.626 136.104 375.999 135.532 377.456 133.865C378.084 133.082 378.579 132.2 378.919 131.255C380.284 127.888 381.112 124.327 381.372 120.703C381.569 118.999 381.41 117.273 380.905 115.634C380.256 113.824 378.944 112.335 378.077 110.62C377.052 108.58 376.677 106.275 377.003 104.015C377.046 103.856 377.033 103.687 376.965 103.537C376.894 103.456 376.805 103.393 376.705 103.353C376.605 103.312 376.498 103.296 376.39 103.304L365.799 102.541C364.813 102.492 363.83 102.38 362.858 102.205C362.287 102.089 360.779 101.278 360.235 101.493C359.227 101.893 358.963 106.588 358.756 107.669Z" fill="black"/>
<path d="M368.885 108.759C377.467 108.759 384.424 101.801 384.424 93.2189C384.424 84.6363 377.467 77.6787 368.885 77.6787C360.303 77.6787 353.346 84.6363 353.346 93.2189C353.346 101.801 360.303 108.759 368.885 108.759Z" fill="#A0616A"/>
<path d="M360.935 128.025C361.703 128.915 362.628 129.654 363.665 130.207C364.745 130.653 365.905 130.874 367.074 130.856C369.875 130.935 372.912 130.421 374.861 128.407C377.372 125.811 377.29 121.624 379.258 118.596C379.417 118.321 379.633 118.084 379.893 117.902C380.223 117.722 380.596 117.636 380.972 117.654C383.458 117.63 385.624 119.243 387.579 120.78C388.499 121.413 389.289 122.218 389.905 123.149C390.291 123.904 390.556 124.714 390.689 125.551C391.659 130.287 391.973 135.129 392.285 139.954C392.457 142.618 392.63 145.285 392.617 147.955C392.575 156.752 390.53 165.402 388.497 173.961C388.235 175.063 387.877 176.296 386.874 176.824C386.427 177.025 385.947 177.143 385.457 177.17C379.634 177.854 373.799 178.539 367.936 178.629C365.648 178.664 363.361 178.609 361.076 178.463C360.682 178.458 360.292 178.39 359.92 178.261C359.415 178.019 358.981 177.65 358.66 177.191C355.489 173.195 355.302 167.67 355.322 162.568C355.371 150.095 355.817 137.631 356.659 125.178C356.728 124.15 356.743 122.901 356.003 122.093C357.445 124.23 359.097 126.218 360.935 128.025Z" fill="white"/>
<path d="M357.644 110.082C357.119 111.032 353.25 113.392 352.503 114.179C348.329 118.579 340.712 118.413 336.895 123.126C335.552 124.784 334.854 126.867 334.341 128.938C333.615 131.867 333.228 135.062 334.443 137.823C335.613 140.481 338.076 142.318 339.748 144.692C341.584 147.299 342.409 150.464 343.2 153.552C343.785 155.833 344.373 158.17 344.146 160.513C343.887 163.177 342.598 165.616 341.837 168.182C341.076 170.748 340.945 173.804 342.705 175.821C343.997 177.302 346.025 177.89 347.963 178.22C350.446 178.593 352.949 178.811 355.459 178.873C357.675 178.971 360.117 178.99 361.82 177.569C363.164 176.448 363.749 174.629 363.824 172.881C363.9 171.132 363.536 169.399 363.308 167.664C363.072 165.865 362.981 164.051 362.905 162.238C362.565 154.105 362.518 145.966 362.766 137.822C362.891 136.13 362.808 134.428 362.519 132.756C362.043 130.577 360.866 128.631 359.884 126.629C357.921 122.859 357.031 118.622 357.313 114.381C357.611 110.022 359.511 106.701 357.644 110.082Z" fill="white"/>
<path d="M379.465 110.412C380.264 111.234 382.98 111.505 383.997 112.034C384.954 112.476 385.952 112.821 386.977 113.066C390.686 114.136 394.214 115.755 397.444 117.87C398.115 118.263 398.708 118.775 399.194 119.382C399.707 120.215 400.036 121.147 400.163 122.117C400.661 124.583 401.161 127.08 401.049 129.594C400.93 132.262 400.127 134.847 399.329 137.396L396.35 146.921C394.126 154.032 391.888 161.212 391.262 168.635C390.916 172.75 391.07 176.891 391.721 180.968C391.782 181.166 391.8 181.375 391.774 181.581C391.748 181.787 391.679 181.985 391.571 182.162C391.374 182.356 391.116 182.475 390.841 182.498C389.403 182.723 388.012 181.99 386.709 181.341C382.727 179.359 378.477 177.969 374.094 177.213C375.807 174.738 377.128 172.013 378.012 169.135C378.514 167.308 378.909 165.453 379.196 163.58L380.582 155.564C381.146 152.634 381.543 149.674 381.771 146.699C381.875 145.582 381.81 144.457 381.578 143.36C381.258 142.316 380.834 141.307 380.312 140.348C378.028 135.596 376.956 130.174 377.855 124.979C378.248 122.706 379.012 120.429 378.694 118.144C378.387 115.947 378.706 114.24 378.142 112.066C375.828 103.138 377.961 108.866 379.465 110.412Z" fill="white"/>
<path d="M336.855 130.638C335.814 132.799 334.073 134.64 333.481 136.964C333.25 138.05 333.151 139.161 333.186 140.271C333.084 141.943 333.249 143.622 333.677 145.243C334.007 146.268 334.546 147.213 334.933 148.218C335.473 149.622 335.714 151.123 335.64 152.626C335.535 154.707 334.828 156.728 334.773 158.811C334.686 162.088 336.201 165.168 337.68 168.093C338.052 167.171 338.621 166.342 339.347 165.663C340.073 164.984 340.939 164.473 341.883 164.163C342.828 163.854 343.829 163.755 344.816 163.873C345.803 163.991 346.752 164.323 347.597 164.846C347.936 164.43 348.096 163.897 348.044 163.363C348.153 159.562 348.259 155.761 348.36 151.96C348.52 146.081 348.673 140.123 347.32 134.399C346.71 131.815 345.76 129.241 344.018 127.236C343.101 126.181 339.988 123.401 338.482 124.583C337.806 125.115 337.964 126.562 337.856 127.295C337.695 128.454 337.357 129.581 336.855 130.638Z" fill="white"/>
<path d="M401.354 124.411C401.773 125.969 401.952 127.582 401.886 129.194C401.906 132.48 401.862 135.766 401.755 139.051C401.771 140.736 401.556 142.415 401.115 144.041C400.778 145.098 400.259 146.09 399.912 147.144C398.871 150.303 399.44 153.729 399.529 157.053C399.592 158.129 399.5 159.209 399.257 160.258C398.707 162.319 397.231 163.985 396.201 165.852C395.223 167.626 394.632 169.614 393.464 171.268C392.295 172.923 390.272 174.234 388.311 173.726C386.826 173.341 385.77 172.026 385.04 170.676C383.446 167.708 382.901 164.289 383.493 160.972C384.226 156.937 386.596 153.358 387.451 149.347C388.625 143.839 386.841 138.155 386.894 132.524C386.87 131.641 386.989 130.76 387.248 129.916C387.697 128.629 388.659 127.602 389.549 126.571C390.661 125.281 391.693 123.926 392.641 122.512C393.278 121.562 394.143 119.12 395.272 118.916C397.793 118.463 400.728 122.463 401.354 124.411Z" fill="white"/>
<path d="M323.776 179.312C322.382 178.962 320.946 178.809 319.509 178.859C318 178.942 316.526 179.346 315.185 180.043C313.844 180.741 312.667 181.715 311.731 182.903C310.796 184.09 310.124 185.464 309.761 186.931C309.397 188.398 309.351 189.926 309.623 191.413C309.971 193.023 310.54 194.578 311.314 196.033C312.445 198.329 313.802 200.62 315.897 202.092C317.159 202.901 318.518 203.548 319.942 204.017L330.974 208.174C332.597 208.785 334.22 209.397 335.859 209.964C344.093 212.81 352.678 214.517 361.375 215.037C364.022 215.285 366.69 215.15 369.298 214.635C369.928 214.553 370.506 214.241 370.92 213.759C371.13 213.392 371.254 212.983 371.283 212.561L371.962 207.808C372.113 207.146 372.094 206.457 371.904 205.805C371.593 205.006 370.813 204.503 370.07 204.077C362.817 199.91 354.349 197.612 348.244 191.894C346.807 190.548 345.604 188.415 343.858 187.5C341.878 186.463 339.546 185.872 337.499 184.916C333.024 182.827 328.625 180.427 323.776 179.312Z" fill="#2F2E41"/>
<path opacity="0.1" d="M334.79 185.719C338.689 186.941 355.153 195.407 357.975 198.363C357.596 198.499 344.763 191.306 344.378 191.191C340.848 190.221 337.391 189.003 334.033 187.545C333.365 187.236 329.689 185.782 329.855 184.938C330.043 183.986 334.098 185.502 334.79 185.719Z" fill="black"/>
<path d="M383.438 217.501C383.659 217.517 383.879 217.453 384.056 217.319C384.134 217.219 384.191 217.105 384.224 216.983C384.257 216.861 384.266 216.733 384.249 216.608L384.231 210.133C382.369 209.246 380.286 208.961 378.242 208.688L368.704 207.413C368.924 207.442 367.213 211.521 367.475 212.066C367.938 213.026 371.47 213.876 372.467 214.33C375.933 215.905 379.534 217.637 383.438 217.501Z" fill="#A0616A"/>
<path d="M353.513 210.111C351.712 210.397 349.702 210.651 348.536 212.053C347.057 213.831 347.687 216.481 348.392 218.683C348.435 218.968 348.535 219.24 348.685 219.486C348.835 219.731 349.033 219.943 349.267 220.11C349.501 220.278 349.766 220.396 350.046 220.459C350.327 220.522 350.617 220.528 350.9 220.477C352.542 220.581 354.29 220.663 355.725 219.857C356.375 219.428 357.001 218.962 357.599 218.464C358.657 217.76 359.821 217.228 361.045 216.888C363.297 216.18 365.615 215.702 367.963 215.463C368.888 215.42 369.804 215.259 370.688 214.982C371.129 214.84 371.532 214.598 371.865 214.275C372.198 213.951 372.452 213.556 372.607 213.119C372.939 211.942 372.256 210.742 371.6 209.71C370.844 208.359 369.863 207.146 368.699 206.125C366.922 204.744 366.043 205.804 364.253 206.688C360.864 208.36 357.244 209.514 353.513 210.111Z" fill="#A0616A"/>
<path d="M348.807 211.732L337.372 208.352C336.001 207.875 334.568 207.597 333.117 207.528C332.391 207.498 331.666 207.624 330.992 207.896C330.319 208.169 329.711 208.582 329.209 209.108C328.322 210.149 328.069 211.571 327.848 212.921L327.375 215.807C327.059 217.262 326.97 218.757 327.11 220.239C327.186 220.981 327.43 221.695 327.824 222.327C328.218 222.96 328.75 223.495 329.382 223.891C330.964 224.754 332.903 224.332 334.669 223.971C338.236 223.242 341.865 222.853 345.505 222.809C346.874 222.793 348.309 222.81 349.519 222.169C350.221 221.753 350.811 221.171 351.237 220.475C351.663 219.779 351.913 218.99 351.964 218.175C352.189 215.71 351.368 212.489 348.807 211.732Z" fill="#2F2E41"/>
<path d="M387.932 208.787C389.415 208.527 390.723 207.685 392.143 207.187C394.143 206.487 396.309 206.488 398.427 206.495C399.206 206.424 399.989 206.581 400.68 206.946C401.613 207.568 401.853 208.811 402.011 209.921L402.968 216.616C403.224 217.865 403.251 219.15 403.047 220.409C402.766 221.65 401.92 222.846 400.689 223.166C399.194 223.555 397.728 222.6 396.316 221.972C392.788 220.404 388.686 220.805 385.007 219.632C384.655 219.562 384.322 219.418 384.03 219.209C383.739 219 383.494 218.732 383.314 218.422C383.188 218.05 383.143 217.656 383.182 217.265C383.245 215.113 382.791 212.174 383.439 210.117C384.022 208.268 386.278 208.787 387.932 208.787Z" fill="#2F2E41"/>
<path d="M412.131 176.617C414.415 176.044 416.784 175.882 419.125 176.139C420.995 176.345 422.922 176.865 424.287 178.16C425.949 179.735 426.483 182.172 426.528 184.461C426.601 189.022 425.088 193.466 422.249 197.035C421.555 197.937 420.731 198.731 419.803 199.39C418.801 200.016 417.734 200.531 416.62 200.924L391.914 210.669C385.414 213.233 378.891 215.804 372.112 217.495C371.926 217.584 371.725 217.636 371.519 217.646C371.314 217.657 371.108 217.626 370.915 217.556C370.721 217.486 370.544 217.377 370.393 217.238C370.242 217.098 370.12 216.929 370.035 216.742C367.87 213.649 366.054 210.327 364.62 206.836C364.552 206.753 364.505 206.655 364.483 206.55C364.461 206.445 364.465 206.336 364.494 206.233C364.523 206.129 364.576 206.035 364.65 205.956C364.723 205.878 364.814 205.819 364.915 205.783L382.39 195.742C383.671 195.073 384.866 194.25 385.947 193.291C386.702 192.559 387.321 191.698 387.773 190.749C388.135 189.992 388.169 188.206 388.632 187.647C389.085 187.099 390.634 187.056 391.35 186.84C392.359 186.531 393.348 186.157 394.309 185.722C398.218 183.973 401.699 181.432 405.447 179.384C407.548 178.182 409.794 177.252 412.131 176.617Z" fill="#2F2E41"/>
<path opacity="0.1" d="M402.224 184.116C399.222 186.371 395.334 188.444 392.359 190.758C391.343 191.548 374.414 201.067 374.175 202.331C376.951 202.799 394.634 190.427 397.164 189.192C399.694 187.958 401.937 186.217 404.16 184.489C404.726 184.048 407.126 182.724 405.501 182.232C404.585 181.955 402.9 183.665 402.224 184.116Z" fill="black"/>
<path d="M381.566 110.631H355.212C354.141 110.631 353.115 111.056 352.357 111.813C351.6 112.571 351.175 113.597 351.175 114.668V116.147H350.889V119.453H351.175V121.768H350.889V123.752H351.175V148.148C351.175 149.219 351.6 150.246 352.357 151.003C353.115 151.76 354.141 152.186 355.212 152.186H381.566C382.637 152.186 383.664 151.76 384.421 151.003C385.178 150.246 385.603 149.219 385.603 148.148V114.668C385.603 113.597 385.178 112.571 384.421 111.813C383.664 111.056 382.637 110.631 381.566 110.631Z" fill="#D0CDE1"/>
<path d="M385.755 79.4458L372.388 72.4434L353.929 75.308L350.11 92.1769L359.617 91.8108L362.272 85.6137V91.7091L366.659 91.5404L369.205 81.6733L370.797 92.1769L386.391 91.8584L385.755 79.4458Z" fill="#2F2E41"/>
<path d="M340.352 174.432C340.957 175.46 341.816 176.315 342.847 176.915C343.524 177.224 344.262 177.374 345.005 177.354C345.749 177.334 346.478 177.145 347.136 176.8C348.452 176.094 349.53 175.014 350.232 173.696C351.684 171.131 351.985 168.061 351.804 165.118C351.623 162.176 350.994 159.278 350.716 156.343C350.514 154.209 350.498 152.063 350.482 149.92C350.431 149.469 350.526 149.014 350.751 148.621C351.14 148.235 351.642 147.984 352.184 147.905C355.116 147.034 357.062 144.286 358.458 141.564C359.389 139.746 360.199 137.759 360.02 135.725C359.84 133.69 358.378 131.641 356.346 131.433C354.671 131.262 353.124 132.326 351.916 133.499C348.868 136.476 346.909 140.391 346.354 144.615C346.089 146.684 346.165 148.809 345.602 150.817C344.401 155.105 340.643 157.734 338.769 161.592C336.706 165.844 337.845 170.671 340.352 174.432Z" fill="#A0616A"/>
<path d="M395.662 158.051C395.235 159.045 394.612 159.944 393.832 160.694C393.052 161.444 392.129 162.03 391.118 162.417C389.862 162.922 388.476 163.007 387.168 162.659C386.519 162.479 385.92 162.152 385.418 161.703C384.917 161.254 384.525 160.695 384.274 160.071C384.074 159.441 383.964 158.786 383.948 158.126C383.76 155.235 383.833 152.255 384.883 149.554C385.288 148.512 385.834 147.525 386.154 146.454C386.468 145.217 386.629 143.946 386.632 142.67L386.978 134.78C387.035 134.207 386.995 133.629 386.861 133.069C386.516 131.927 385.449 131.186 384.47 130.505C382.106 128.861 379.77 126.942 378.624 124.3C378.231 123.504 378.09 122.607 378.22 121.73C378.543 120.163 380.124 119.149 381.687 118.807C382.71 118.583 383.767 118.569 384.795 118.765C385.823 118.961 386.801 119.363 387.669 119.947C388.538 120.531 389.279 121.284 389.849 122.162C390.418 123.04 390.804 124.025 390.983 125.056C391.138 125.946 391.136 126.856 391.226 127.755C391.418 129.662 392.024 131.501 392.402 133.38C393.335 138.009 392.852 142.794 393.775 147.422C394.546 151.292 397.455 153.817 395.662 158.051Z" fill="#A0616A"/>
<path d="M368.742 128.38C370.568 128.38 372.048 126.9 372.048 125.074C372.048 123.248 370.568 121.768 368.742 121.768C366.916 121.768 365.436 123.248 365.436 125.074C365.436 126.9 366.916 128.38 368.742 128.38Z" fill="#1769AA"/>
<path d="M9.75374 243.907C15.14 243.907 19.5065 239.541 19.5065 234.154C19.5065 228.767 15.14 224.4 9.75374 224.4C4.36744 224.4 0.000976562 228.767 0.000976562 234.154C0.000976562 239.541 4.36744 243.907 9.75374 243.907Z" fill="#2F2E41"/>
<path d="M45.1061 263.109L40.1937 258.334L30.3296 261.398L31.277 272.821L51.559 271.879L45.3283 263.412L45.1061 263.109Z" fill="#FBBEBE"/>
<path d="M34.3623 263.01C43.0704 263.01 50.1298 255.95 50.1298 247.241C50.1298 238.533 43.0704 231.473 34.3623 231.473C25.6541 231.473 18.5947 238.533 18.5947 247.241C18.5947 255.95 25.6541 263.01 34.3623 263.01Z" fill="#FBBEBE"/>
<path d="M132.248 283.349C132.248 283.349 151.619 316.64 156.229 321.638C158.421 324.098 160.757 326.426 163.224 328.61C163.224 328.61 161.056 335.799 157.604 335.543C155.637 335.424 153.708 334.949 151.911 334.139C151.911 334.139 150.37 330.145 147.683 328.394C144.996 326.642 123.041 305.042 123.554 298.138C124.067 291.234 132.248 283.349 132.248 283.349Z" fill="#2F2E41"/>
<path d="M63.2629 330.857C63.2629 330.857 83.9165 346.889 111.985 331.825L114.404 330.045C114.404 330.045 110.322 339.229 109.943 341.718C109.504 344.606 98.8762 361.518 97.1419 362.328C95.4075 363.138 95.0253 363.886 95.0253 363.886L102.385 371.987L105.107 369.984C105.107 369.984 115.718 354.95 118.821 352.199C121.925 349.449 136.711 321.086 136.711 321.086C136.711 321.086 142.365 310.399 128.256 309.595C114.147 308.791 107.654 312.637 107.654 312.637L82.6143 316.615L63.2629 330.857Z" fill="#2F2E41"/>
<path d="M163.463 327.035L173.91 334.264C173.91 334.264 187.237 338.44 179.028 341.219C170.818 343.998 149.184 345.003 148.693 341.169C148.202 337.335 149.546 331.3 150.626 331.63C151.705 331.96 159.196 333.905 163.463 327.035Z" fill="#2F2E41"/>
<path d="M106.031 367.5L107.965 378.119C107.965 378.119 113.463 388.635 106.861 385.372C100.26 382.109 86.6597 369.716 88.6681 367.117C90.6764 364.519 95.109 361.701 95.5591 362.548C96.0093 363.395 99.3409 369.064 106.031 367.5Z" fill="#2F2E41"/>
<path d="M86.1118 320.1C86.1118 320.1 72.0721 336.493 63.5483 332.511C55.0245 328.529 20.1522 282.406 24.134 273.882C28.1159 265.357 29.451 267.172 29.451 267.172L47.4567 268.837L42.2759 260.53C42.2759 260.53 44.6949 258.749 46.9999 261.248C49.3049 263.747 58.559 269.989 61.7829 278.804C65.0067 287.619 74.4716 287.179 74.4716 287.179L86.1118 320.1Z" fill="white"/>
<path d="M142.808 286.298L118.471 312.134L96.6697 273.639L117.396 248.596L142.808 286.298Z" fill="#3F3D56"/>
<path d="M140.972 286.019L118.99 308.722L99.0718 273.736L117.339 250.736L140.972 286.019Z" fill="white"/>
<path d="M117.279 311.146L118.471 312.133L117.707 313.628L83.6758 323.758L83.354 322.592L84.9022 320.99L117.279 311.146Z" fill="#B3B3B3"/>
<path d="M118.773 311.911L83.5333 322.93L62.0513 282.335L96.6696 273.639L118.773 311.911Z" fill="#D0CDE1"/>
<path d="M116.121 306.406L114.609 307.518L97.8286 278.38L99.5629 277.57L116.121 306.406Z" fill="#3F3D56"/>
<path d="M112.652 308.026L97.7443 312.472L80.8215 282.507L95.5693 279.111L112.652 308.026Z" fill="#3F3D56"/>
<path d="M70.6548 285.793L73.7413 284.92C73.7413 284.92 90.9537 282.974 91.205 288.382C91.4563 293.791 71.4309 291.282 71.4309 291.282L68.7607 287.653L70.6548 285.793Z" fill="#FBBEBE"/>
<path d="M85.7519 310.11L90.0478 308.347C90.0478 308.347 103.015 302.532 99.2955 298.744C95.5755 294.956 84.1027 301.535 84.1027 301.535L81.9062 303.617L85.7519 310.11Z" fill="#FBBEBE"/>
<path d="M81.9233 301.74C81.9233 301.74 88.9182 308.711 87.3266 310.349C85.7349 311.987 59.6346 333.527 53.1646 326.635C46.6946 319.742 15.1718 285.139 27.4378 282.172C39.7038 279.204 42.9447 286.142 42.9447 286.142L59.1373 313.848L81.9233 301.74Z" fill="white"/>
<path d="M60.9787 280.562L72.4689 284.458L72.2813 292.754L60.1292 291.443L60.9787 280.562Z" fill="white"/>
<path opacity="0.2" d="M71.3349 306.037L58.9551 313.283L44.8108 291.528L58.4641 309.449L71.3349 306.037Z" fill="black"/>
<path d="M27.4415 261.443C37.8084 261.443 46.2124 253.038 46.2124 242.671C46.2124 232.303 37.8084 223.898 27.4415 223.898C17.0747 223.898 8.67065 232.303 8.67065 242.671C8.67065 253.038 17.0747 261.443 27.4415 261.443Z" fill="#2F2E41"/>
<path d="M128.865 287.935L115.721 268.707L121.293 261.81L134.95 281.592L128.865 287.935Z" fill="#1769AA"/>
<path d="M128.494 295.667L108.485 266.575L109.472 265.383L129.388 294.543L128.494 295.667Z" fill="#E6E6E6"/>
<path d="M125.916 298.497L105.906 269.405L106.893 268.213L126.809 297.374L125.916 298.497Z" fill="#E6E6E6"/>
<path d="M123.719 300.579L103.71 271.487L104.697 270.295L124.613 299.456L123.719 300.579Z" fill="#E6E6E6"/>
<path d="M35.7537 230.139H41.5604C44.5005 230.139 47.3202 231.307 49.3991 233.386C51.4781 235.465 52.646 238.285 52.646 241.225H35.7537V230.139Z" fill="#2F2E41"/>
<path d="M115.741 223.083L114.688 223.005C114.648 223.552 114.618 224.103 114.584 224.652L109.859 224.494L114.815 233.783L120.382 224.846L115.639 224.687C115.673 224.153 115.701 223.617 115.741 223.083Z" fill="#3F3D56"/>
<path d="M143.455 147.369L144.295 148.01C145.553 146.361 146.868 144.715 148.203 143.117L147.392 142.44C146.048 144.05 144.723 145.708 143.455 147.369Z" fill="#3F3D56"/>
<path d="M151.543 137.69L152.322 138.402C153.723 136.868 155.177 135.345 156.644 133.873L155.896 133.128C154.419 134.61 152.954 136.145 151.543 137.69Z" fill="#3F3D56"/>
<path d="M160.446 128.762L161.16 129.54C162.692 128.133 164.273 126.744 165.86 125.41L165.182 124.602C163.582 125.945 161.989 127.345 160.446 128.762Z" fill="#3F3D56"/>
<path d="M136.249 157.728L137.142 158.292C138.251 156.536 139.417 154.78 140.605 153.072L139.738 152.469C138.541 154.19 137.367 155.959 136.249 157.728Z" fill="#3F3D56"/>
<path d="M170.095 120.655L170.738 121.492C172.387 120.225 174.084 118.981 175.782 117.793L175.176 116.928C173.466 118.125 171.756 119.378 170.095 120.655Z" fill="#3F3D56"/>
<path d="M129.984 168.687L130.923 169.169C131.874 167.32 132.88 165.466 133.912 163.661L132.996 163.137C131.956 164.956 130.942 166.823 129.984 168.687Z" fill="#3F3D56"/>
<path d="M119.801 198.407L118.779 198.144C118.257 200.169 117.774 202.235 117.343 204.284L118.376 204.502C118.804 202.468 119.283 200.417 119.801 198.407Z" fill="#3F3D56"/>
<path d="M180.416 113.429L180.982 114.32C182.732 113.206 184.531 112.117 186.33 111.081L185.803 110.166C183.991 111.209 182.179 112.307 180.416 113.429Z" fill="#3F3D56"/>
<path d="M117.224 210.654L116.182 210.482C115.843 212.544 115.545 214.644 115.297 216.725L116.346 216.85C116.592 214.785 116.887 212.7 117.224 210.654Z" fill="#3F3D56"/>
<path d="M124.715 180.165L125.693 180.562C126.475 178.635 127.313 176.699 128.181 174.807L127.222 174.366C126.347 176.272 125.503 178.223 124.715 180.165Z" fill="#3F3D56"/>
<path d="M120.486 192.073L121.496 192.381C122.105 190.389 122.766 188.384 123.462 186.423L122.467 186.07C121.766 188.046 121.099 190.065 120.486 192.073Z" fill="#3F3D56"/>
<path d="M251.834 92.3847C253.903 92.3131 256.011 92.2845 258.096 92.304L258.105 91.2482C256.006 91.2286 253.882 91.2572 251.798 91.3294L251.834 92.3847Z" fill="#3F3D56"/>
<path d="M191.329 107.146L191.814 108.083C193.658 107.128 195.545 106.202 197.424 105.332L196.98 104.374C195.087 105.251 193.186 106.184 191.329 107.146Z" fill="#3F3D56"/>
<path d="M276.816 93.7008C278.875 93.9924 280.954 94.3337 282.994 94.7154L283.188 93.6776C281.133 93.293 279.039 92.9489 276.963 92.6553L276.816 93.7008Z" fill="#3F3D56"/>
<path d="M289.121 96.0036C291.143 96.4758 293.184 97.0007 295.185 97.5634L295.47 96.5467C293.454 95.9799 291.399 95.4514 289.362 94.9756L289.121 96.0036Z" fill="#3F3D56"/>
<path d="M301.171 99.3914C303.143 100.042 305.128 100.746 307.071 101.485L307.447 100.498C305.488 99.7536 303.489 99.0439 301.502 98.3887L301.171 99.3914Z" fill="#3F3D56"/>
<path d="M264.354 92.4957C266.434 92.6047 268.534 92.7615 270.599 92.961L270.701 91.9103C268.621 91.709 266.504 91.5512 264.41 91.4414L264.354 92.4957Z" fill="#3F3D56"/>
<path d="M239.229 92.3174L239.358 93.3655C241.415 93.1123 243.51 92.9012 245.584 92.7383L245.502 91.6855C243.412 91.8498 241.301 92.0624 239.229 92.3174Z" fill="#3F3D56"/>
<path d="M214.599 97.5998L214.912 98.6083C216.895 97.994 218.92 97.416 220.93 96.8904L220.663 95.8691C218.638 96.3984 216.598 96.9807 214.599 97.5998Z" fill="#3F3D56"/>
<path d="M202.747 101.857L203.148 102.834C205.068 102.046 207.028 101.292 208.976 100.592L208.619 99.5986C206.657 100.303 204.681 101.063 202.747 101.857Z" fill="#3F3D56"/>
<path d="M226.797 94.4091L227.018 95.4417C229.046 95.0069 231.114 94.6112 233.165 94.266L232.99 93.2246C230.924 93.5726 228.84 93.9711 226.797 94.4091Z" fill="#3F3D56"/>
<path d="M322.824 108.014L316.925 99.2939L314.85 103.565C314.348 103.34 313.849 103.111 313.347 102.894L312.927 103.863C313.417 104.075 313.901 104.297 314.388 104.515L312.324 108.765L322.824 108.014Z" fill="#3F3D56"/>
</g>
<defs>
<clipPath id="clip0">
<rect width="478" height="386" fill="white"/>
</clipPath>
</defs>
</svg>
