<svg width="558" height="412" viewBox="0 0 558 412" fill="none" xmlns="http://www.w3.org/2000/svg">
<g clip-path="url(#clip0)">
<path d="M206.824 253.851L91.3137 278.219C87.9756 278.919 84.4963 278.266 81.639 276.402C78.7817 274.538 76.7799 271.616 76.0727 268.276L56.2513 174.16C55.5516 170.819 56.2046 167.337 58.067 164.478C59.9294 161.618 62.8492 159.615 66.1857 158.907L181.696 134.539C185.035 133.839 188.514 134.492 191.371 136.356C194.228 138.22 196.23 141.142 196.937 144.482L216.759 238.597C217.458 241.938 216.805 245.42 214.943 248.28C213.081 251.14 210.161 253.143 206.824 253.851ZM66.4979 160.389C63.5539 161.013 60.9776 162.781 59.3343 165.304C57.691 167.828 57.1148 170.9 57.7322 173.848L77.5536 267.964C78.1776 270.91 79.944 273.489 82.465 275.133C84.9861 276.778 88.0561 277.355 91.0015 276.737L206.512 252.369C209.456 251.744 212.032 249.977 213.676 247.453C215.319 244.93 215.895 241.858 215.278 238.91L195.456 144.794C194.832 141.848 193.066 139.269 190.545 137.624C188.024 135.98 184.954 135.403 182.009 136.021L66.4979 160.389Z" fill="#3F3D56"/>
<path d="M174.52 165.572L116.223 177.87C115.713 177.988 115.177 177.909 114.723 177.647C114.269 177.385 113.932 176.96 113.779 176.459C113.709 176.197 113.693 175.924 113.732 175.657C113.771 175.389 113.864 175.132 114.006 174.901C114.147 174.67 114.334 174.471 114.555 174.315C114.776 174.159 115.027 174.05 115.291 173.994L174.634 161.476C176.951 162.782 176.219 165.213 174.519 165.572L174.52 165.572Z" fill="#CCCCCC"/>
<path d="M176.675 175.805L118.378 188.103C117.868 188.222 117.332 188.142 116.878 187.88C116.425 187.618 116.087 187.194 115.934 186.692C115.864 186.431 115.849 186.158 115.887 185.89C115.926 185.622 116.02 185.365 116.161 185.135C116.303 184.904 116.49 184.705 116.711 184.549C116.932 184.393 117.182 184.284 117.447 184.228L176.789 171.709C179.106 173.016 178.374 175.447 176.674 175.805L176.675 175.805Z" fill="#CCCCCC"/>
<path d="M107.003 196.589L89.2113 200.342C88.6302 200.464 88.0246 200.35 87.5272 200.026C87.0299 199.701 86.6815 199.193 86.5584 198.612L82.1329 177.599C82.0111 177.017 82.1247 176.411 82.4489 175.913C82.7731 175.415 83.2813 175.067 83.8621 174.943L101.654 171.19C102.235 171.068 102.84 171.182 103.338 171.507C103.835 171.831 104.183 172.34 104.307 172.921L108.732 193.934C108.854 194.515 108.74 195.122 108.416 195.619C108.092 196.117 107.584 196.466 107.003 196.589V196.589Z" fill="#CCCCCC"/>
<path d="M180.918 196.796L91.9469 215.565C91.4367 215.683 90.9007 215.603 90.447 215.342C89.9934 215.08 89.6561 214.655 89.5032 214.154C89.4333 213.892 89.4174 213.619 89.4563 213.352C89.4953 213.084 89.5884 212.827 89.7299 212.596C89.8714 212.365 90.0584 212.166 90.2795 212.01C90.5005 211.854 90.751 211.745 91.0156 211.689L181.034 192.699C183.351 194.006 182.618 196.437 180.918 196.796Z" fill="#CCCCCC"/>
<path d="M183.074 207.033L94.1029 225.802C93.5928 225.921 93.0567 225.841 92.6031 225.579C92.1494 225.317 91.8121 224.892 91.6592 224.391C91.5893 224.13 91.5734 223.857 91.6123 223.589C91.6513 223.321 91.7444 223.064 91.8859 222.833C92.0275 222.603 92.2144 222.403 92.4355 222.247C92.6565 222.092 92.907 221.982 93.1716 221.927L183.19 202.937C185.507 204.243 184.774 206.674 183.074 207.033Z" fill="#CCCCCC"/>
<path d="M185.229 217.263L96.2577 236.033C95.7475 236.151 95.2115 236.071 94.7579 235.809C94.3042 235.547 93.9669 235.123 93.814 234.622C93.7441 234.36 93.7281 234.087 93.7671 233.819C93.8061 233.551 93.8992 233.294 94.0407 233.064C94.1822 232.833 94.3692 232.634 94.5903 232.478C94.8113 232.322 95.0618 232.213 95.3264 232.157L185.344 213.167C187.661 214.474 186.929 216.905 185.229 217.263H185.229Z" fill="#CCCCCC"/>
<path d="M187.385 227.5L98.4135 246.269C97.9033 246.387 97.3672 246.308 96.9136 246.046C96.46 245.784 96.1226 245.359 95.9698 244.858C95.8999 244.596 95.8839 244.323 95.9229 244.056C95.9619 243.788 96.055 243.531 96.1965 243.3C96.338 243.07 96.525 242.87 96.746 242.714C96.9671 242.558 97.2175 242.449 97.4822 242.393L187.5 223.403C189.817 224.71 189.085 227.141 187.385 227.5Z" fill="#CCCCCC"/>
<path d="M189.54 237.731L100.568 256.5C100.058 256.619 99.522 256.539 99.0684 256.277C98.6148 256.015 98.2774 255.591 98.1246 255.089C98.0546 254.828 98.0387 254.555 98.0777 254.287C98.1167 254.019 98.2097 253.762 98.3513 253.532C98.4928 253.301 98.6798 253.102 98.9008 252.946C99.1219 252.79 99.3723 252.681 99.6369 252.625L189.655 233.635C191.972 234.942 191.24 237.372 189.54 237.731Z" fill="#CCCCCC"/>
<path d="M203.732 190.876C203.53 191.243 203.357 191.625 203.215 192.019L166.791 201.066L160.455 194.505L149.312 202.781L159.402 215.487C160.217 216.513 161.342 217.247 162.61 217.579C163.877 217.91 165.218 217.822 166.431 217.326L205.954 201.162C207.253 202.119 208.812 202.658 210.425 202.706C212.037 202.754 213.626 202.31 214.98 201.433C216.334 200.556 217.389 199.286 218.005 197.794C218.62 196.302 218.768 194.658 218.427 193.08C218.086 191.502 217.273 190.065 216.097 188.961C214.92 187.856 213.435 187.137 211.84 186.897C210.245 186.658 208.615 186.911 207.166 187.621C205.718 188.332 204.52 189.467 203.732 190.876L203.732 190.876Z" fill="#FFB8B8"/>
<path d="M79.4046 271.377C80.5401 271.026 81.5849 270.43 82.4654 269.631C83.346 268.832 84.0408 267.85 84.501 266.754C84.9611 265.657 85.1754 264.473 85.1288 263.284C85.0822 262.096 84.7758 260.932 84.2311 259.875L109.297 190.147L91.8896 187.06L72.7243 256.57C71.0105 257.604 69.735 259.23 69.1394 261.142C68.5439 263.054 68.6698 265.118 69.4932 266.943C70.3167 268.768 71.7804 270.228 73.6071 271.045C75.4338 271.862 77.4966 271.98 79.4046 271.377Z" fill="#FFB8B8"/>
<path d="M106.114 202.525L88.9266 195.923C88.4375 195.735 87.9947 195.444 87.6283 195.069C87.2618 194.695 86.9803 194.245 86.803 193.752C86.6256 193.259 86.5566 192.733 86.6005 192.211C86.6445 191.688 86.8004 191.182 87.0577 190.725L96.074 174.725C97.0491 172.228 98.9738 170.219 101.426 169.139C103.879 168.059 106.659 167.996 109.158 168.965C111.656 169.933 113.669 171.853 114.756 174.304C115.843 176.755 115.914 179.537 114.954 182.041L110.977 199.913C110.863 200.425 110.64 200.906 110.324 201.323C110.007 201.741 109.605 202.085 109.143 202.333C108.681 202.581 108.172 202.727 107.649 202.76C107.126 202.793 106.603 202.712 106.114 202.525V202.525Z" fill="#1769AA"/>
<path d="M144.907 402.287H154.184L158.598 366.474L144.906 366.474L144.907 402.287Z" fill="#FFB8B8"/>
<path d="M142.541 399.256L160.811 399.255H160.811C162.34 399.255 163.855 399.556 165.267 400.142C166.68 400.727 167.963 401.586 169.045 402.668C170.126 403.75 170.983 405.034 171.568 406.448C172.154 407.862 172.455 409.377 172.455 410.908V411.286L142.541 411.287L142.541 399.256Z" fill="#2F2E41"/>
<path d="M92.6934 402.287H101.97L106.384 366.474L92.6919 366.474L92.6934 402.287Z" fill="#FFB8B8"/>
<path d="M90.3267 399.256L108.597 399.255H108.598C110.127 399.255 111.641 399.556 113.053 400.142C114.466 400.727 115.749 401.586 116.831 402.668C117.912 403.75 118.769 405.034 119.355 406.448C119.94 407.862 120.241 409.377 120.241 410.908V411.286L90.3272 411.287L90.3267 399.256Z" fill="#2F2E41"/>
<path d="M102.419 387.872H90.6786C90.2178 387.872 89.7619 387.779 89.3383 387.597C88.9147 387.416 88.5323 387.15 88.2144 386.816C87.8964 386.482 87.6493 386.088 87.4883 385.655C87.3272 385.223 87.2554 384.763 87.2773 384.302L92.8539 264.389L93.2052 264.38L149.898 262.9L160.992 382.882C161.035 383.332 160.988 383.786 160.854 384.217C160.719 384.649 160.501 385.049 160.211 385.395C159.921 385.741 159.565 386.026 159.163 386.233C158.762 386.441 158.324 386.566 157.874 386.602L144.687 387.657C143.859 387.723 143.035 387.484 142.37 386.984C141.706 386.485 141.247 385.759 141.08 384.944L124.212 299.533C124.166 299.273 124.029 299.039 123.825 298.872C123.621 298.706 123.364 298.618 123.1 298.625H123.096C122.832 298.619 122.574 298.708 122.371 298.877C122.167 299.045 122.03 299.281 121.986 299.542L105.76 385.123C105.606 385.897 105.19 386.594 104.58 387.095C103.971 387.596 103.208 387.871 102.419 387.872Z" fill="#2F2E41"/>
<path d="M123.925 157.442C134.189 157.442 142.511 149.114 142.511 138.841C142.511 128.567 134.189 120.239 123.925 120.239C113.66 120.239 105.339 128.567 105.339 138.841C105.339 149.114 113.66 157.442 123.925 157.442Z" fill="#FFB8B8"/>
<path d="M117.693 278.442C108.834 278.442 99.7356 276.111 92.1927 269.221C91.7914 268.857 91.4815 268.403 91.2883 267.896C91.095 267.39 91.0239 266.845 91.0808 266.305C91.8881 259.045 95.8044 221.56 93.5989 196.52C93.1685 191.843 93.8301 187.13 95.5315 182.752C97.2329 178.375 99.9275 174.453 103.403 171.297C106.817 168.147 110.916 165.835 115.376 164.543C119.836 163.25 124.535 163.013 129.103 163.849H129.103C129.334 163.89 129.566 163.934 129.797 163.978C144.677 166.861 155.016 180.643 153.846 196.038C152.139 218.501 150.609 248.886 153.011 266.069C153.111 266.772 152.988 267.488 152.661 268.118C152.333 268.748 151.817 269.259 151.184 269.58C145.717 272.345 132.019 278.442 117.693 278.442Z" fill="#1769AA"/>
<path d="M141.945 203.863C141.509 203.573 141.141 203.191 140.865 202.746C140.59 202.3 140.413 201.8 140.349 201.279L138.084 183.111C137.366 180.527 137.7 177.763 139.014 175.426C140.328 173.088 142.514 171.367 145.094 170.641C147.674 169.914 150.436 170.241 152.775 171.549C155.114 172.858 156.84 175.041 157.573 177.621L165.032 194.405C165.244 194.884 165.352 195.403 165.346 195.928C165.34 196.452 165.221 196.969 164.998 197.443C164.775 197.917 164.452 198.337 164.052 198.675C163.651 199.014 163.183 199.261 162.678 199.402L144.943 204.341C144.438 204.482 143.909 204.512 143.392 204.43C142.874 204.347 142.381 204.154 141.945 203.863Z" fill="#1769AA"/>
<path d="M117.437 157.179C115.677 157.212 113.929 156.895 112.293 156.248C111.573 155.97 110.826 155.742 110.107 155.464C103.761 153.01 99.5801 146.245 99.4304 139.438C99.2807 132.63 102.803 126.023 108.034 121.669C113.264 117.314 120.039 115.079 126.823 114.562C134.13 114.005 142.359 115.859 146.442 121.95C147.529 123.571 148.289 125.538 147.645 127.496C147.452 128.086 147.108 128.616 146.646 129.032C144.822 130.655 143.004 129.434 141.145 129.327C138.59 129.178 136.295 131.248 135.471 133.673C134.646 136.098 135.009 138.768 135.675 141.241C136.182 142.729 136.502 144.275 136.627 145.842C136.681 146.628 136.533 147.415 136.198 148.128C135.863 148.841 135.351 149.456 134.712 149.916C133.115 150.882 131.018 150.323 129.421 149.358C127.823 148.394 126.443 147.053 124.717 146.344C122.992 145.634 120.673 145.791 119.669 147.365C119.35 147.937 119.133 148.562 119.03 149.209C118.13 153.315 118.337 153.073 117.437 157.179V157.179Z" fill="#2F2E41"/>
<path d="M374.873 131.78H256.824C253.414 131.776 250.144 130.418 247.732 128.004C245.32 125.591 243.964 122.318 243.96 118.905V22.7207C243.964 19.3072 245.32 16.0346 247.732 13.6209C250.144 11.2072 253.414 9.84955 256.824 9.8457H374.873C378.284 9.84955 381.554 11.2072 383.965 13.6209C386.377 16.0346 387.734 19.3072 387.737 22.7207V118.905C387.734 122.318 386.377 125.591 383.965 128.004C381.554 130.418 378.284 131.776 374.873 131.78ZM256.824 11.3604C253.815 11.3638 250.93 12.5618 248.802 14.6915C246.674 16.8213 245.477 19.7088 245.473 22.7207V118.905C245.477 121.916 246.674 124.804 248.802 126.934C250.93 129.063 253.815 130.261 256.824 130.265H374.873C377.882 130.261 380.768 129.063 382.896 126.934C385.024 124.804 386.221 121.916 386.224 118.905V22.7207C386.221 19.7088 385.024 16.8213 382.896 14.6915C380.768 12.5618 377.882 11.3638 374.873 11.3604H256.824Z" fill="#3F3D56"/>
<path d="M361.455 38.7295H301.877C301.354 38.7402 300.846 38.5514 300.456 38.2015C300.066 37.8516 299.823 37.3665 299.777 36.8444C299.763 36.5742 299.803 36.3038 299.896 36.0498C299.99 35.7958 300.134 35.5635 300.32 35.367C300.506 35.1706 300.73 35.0141 300.978 34.9072C301.227 34.8003 301.494 34.7451 301.765 34.7451H362.411C364.409 36.5022 363.192 38.7296 361.454 38.7296L361.455 38.7295Z" fill="#CCCCCC"/>
<path d="M361.455 49.1885H301.877C301.354 49.1992 300.846 49.0104 300.456 48.6605C300.066 48.3106 299.823 47.8255 299.777 47.3034C299.763 47.0332 299.803 46.7628 299.896 46.5088C299.99 46.2548 300.134 46.0225 300.32 45.826C300.506 45.6296 300.73 45.4731 300.978 45.3662C301.227 45.2593 301.494 45.2041 301.765 45.2041H362.411C364.409 46.9612 363.192 49.1885 361.454 49.1885L361.455 49.1885Z" fill="#CCCCCC"/>
<path d="M288.998 55.1433H270.816C270.222 55.1427 269.653 54.9064 269.233 54.4862C268.813 54.0661 268.577 53.4964 268.576 52.9023V31.4275C268.577 30.8334 268.813 30.2637 269.233 29.8436C269.653 29.4234 270.222 29.1871 270.816 29.1865H288.998C289.592 29.1873 290.161 29.4237 290.581 29.8438C291 30.2639 291.236 30.8334 291.237 31.4275V52.9023C291.237 53.4964 291.001 54.0661 290.581 54.4862C290.161 54.9064 289.592 55.1427 288.998 55.1433Z" fill="#3F3D56"/>
<path d="M361.282 70.6035H270.355C269.832 70.6142 269.324 70.4254 268.934 70.0755C268.544 69.7256 268.301 69.2405 268.255 68.7185C268.241 68.4482 268.281 68.1778 268.375 67.9238C268.468 67.6698 268.612 67.4375 268.798 67.241C268.984 67.0446 269.208 66.8881 269.456 66.7812C269.705 66.6743 269.972 66.6191 270.243 66.6191H362.239C364.237 68.3762 363.019 70.6036 361.282 70.6036V70.6035Z" fill="#CCCCCC"/>
<path d="M361.282 81.0655H270.355C269.832 81.0761 269.324 80.8874 268.934 80.5374C268.544 80.1875 268.301 79.7025 268.255 79.1804C268.241 78.9101 268.281 78.6397 268.375 78.3857C268.468 78.1317 268.612 77.8994 268.798 77.703C268.984 77.5065 269.208 77.35 269.456 77.2431C269.705 77.1362 269.972 77.0811 270.243 77.0811H362.239C364.237 78.8381 363.019 81.0655 361.282 81.0655V81.0655Z" fill="#CCCCCC"/>
<path d="M361.282 91.5206H270.355C269.832 91.5312 269.324 91.3425 268.934 90.9925C268.544 90.6426 268.301 90.1576 268.255 89.6355C268.241 89.3652 268.281 89.0949 268.375 88.8408C268.468 88.5868 268.612 88.3545 268.798 88.158C268.984 87.9616 269.208 87.8051 269.456 87.6982C269.705 87.5913 269.972 87.5361 270.243 87.5361H362.239C364.237 89.2932 363.019 91.5206 361.282 91.5206V91.5206Z" fill="#CCCCCC"/>
<path d="M361.282 101.982H270.355C269.832 101.993 269.324 101.804 268.934 101.454C268.544 101.105 268.301 100.619 268.255 100.097C268.241 99.8271 268.281 99.5568 268.375 99.3028C268.468 99.0487 268.612 98.8164 268.798 98.62C268.984 98.4235 269.208 98.2671 269.456 98.1601C269.705 98.0532 269.972 97.9981 270.243 97.998H362.239C364.237 99.7551 363.019 101.982 361.282 101.982V101.982Z" fill="#CCCCCC"/>
<path d="M361.282 112.439H270.355C269.832 112.449 269.324 112.26 268.934 111.911C268.544 111.561 268.301 111.076 268.255 110.553C268.241 110.283 268.281 110.013 268.375 109.759C268.468 109.505 268.612 109.272 268.798 109.076C268.984 108.88 269.208 108.723 269.456 108.616C269.705 108.509 269.972 108.454 270.243 108.454H362.239C364.237 110.211 363.019 112.439 361.282 112.439Z" fill="#CCCCCC"/>
<path d="M349.144 0C350.147 0.00114856 351.109 0.400479 351.818 1.11039C352.528 1.82029 352.927 2.7828 352.928 3.78676V15.9044C352.927 16.9084 352.528 17.8709 351.818 18.5808C351.109 19.2907 350.147 19.69 349.144 19.6912H282.553C281.55 19.69 280.588 19.2907 279.878 18.5808C279.169 17.8709 278.77 16.9084 278.769 15.9044V3.78676C278.77 2.7828 279.169 1.82029 279.878 1.11039C280.588 0.400479 281.55 0.00114856 282.553 0" fill="#1769AA"/>
<path d="M545.136 250.684H427.087C423.676 250.68 420.406 249.322 417.995 246.909C415.583 244.495 414.226 241.222 414.223 237.809V141.625C414.226 138.212 415.583 134.939 417.995 132.525C420.406 130.112 423.676 128.754 427.087 128.75H545.136C548.546 128.754 551.816 130.112 554.228 132.525C556.64 134.939 557.996 138.212 558 141.625V237.809C557.996 241.222 556.64 244.495 554.228 246.909C551.816 249.322 548.546 250.68 545.136 250.684ZM427.087 130.265C424.078 130.268 421.192 131.466 419.064 133.596C416.936 135.726 415.74 138.613 415.736 141.625V237.809C415.74 240.821 416.936 243.708 419.064 245.838C421.192 247.968 424.078 249.166 427.087 249.169H545.136C548.145 249.166 551.03 247.968 553.158 245.838C555.286 243.708 556.483 240.821 556.487 237.809V141.625C556.483 138.613 555.286 135.726 553.158 133.596C551.03 131.466 548.145 130.268 545.136 130.265H427.087Z" fill="#3F3D56"/>
<path d="M531.718 157.634H472.14C471.617 157.644 471.108 157.456 470.718 157.106C470.329 156.756 470.086 156.271 470.04 155.749C470.025 155.478 470.066 155.208 470.159 154.954C470.253 154.7 470.397 154.468 470.583 154.271C470.769 154.075 470.993 153.918 471.241 153.811C471.489 153.705 471.757 153.649 472.027 153.649H532.674C534.672 155.406 533.454 157.634 531.717 157.634H531.718Z" fill="#3F3D56"/>
<path d="M531.718 168.093H472.14C471.617 168.103 471.108 167.915 470.718 167.565C470.329 167.215 470.086 166.73 470.04 166.208C470.025 165.937 470.066 165.667 470.159 165.413C470.253 165.159 470.397 164.927 470.583 164.73C470.769 164.534 470.993 164.377 471.241 164.27C471.489 164.164 471.757 164.108 472.027 164.108H532.674C534.672 165.865 533.454 168.093 531.717 168.093H531.718Z" fill="#3F3D56"/>
<path d="M459.261 174.048H441.078C440.485 174.047 439.915 173.811 439.496 173.391C439.076 172.97 438.84 172.401 438.839 171.807V150.332C438.84 149.738 439.076 149.168 439.496 148.748C439.915 148.328 440.485 148.091 441.078 148.091H459.261C459.854 148.092 460.424 148.328 460.843 148.748C461.263 149.168 461.499 149.738 461.5 150.332V171.807C461.499 172.401 461.263 172.97 460.844 173.391C460.424 173.811 459.854 174.047 459.261 174.048Z" fill="#CCCCCC"/>
<path d="M531.15 232.365H512.967C512.373 232.364 511.804 232.128 511.384 231.708C510.964 231.287 510.728 230.718 510.728 230.124V217.737C510.728 217.143 510.964 216.573 511.384 216.153C511.804 215.733 512.373 215.497 512.967 215.496H531.15C531.743 215.497 532.312 215.733 532.732 216.153C533.152 216.573 533.388 217.143 533.389 217.737V230.124C533.388 230.718 533.152 231.287 532.732 231.708C532.312 232.128 531.743 232.364 531.15 232.365Z" fill="#3F3D56"/>
<path d="M531.545 189.508H440.618C440.095 189.518 439.586 189.33 439.197 188.98C438.807 188.63 438.564 188.145 438.518 187.623C438.503 187.352 438.544 187.082 438.637 186.828C438.731 186.574 438.875 186.342 439.061 186.145C439.247 185.949 439.471 185.792 439.719 185.686C439.968 185.579 440.235 185.523 440.506 185.523H532.501C534.499 187.28 533.282 189.508 531.545 189.508V189.508Z" fill="#CCCCCC"/>
<path d="M531.545 199.97H440.618C440.095 199.98 439.586 199.792 439.197 199.442C438.807 199.092 438.564 198.607 438.518 198.085C438.503 197.814 438.544 197.544 438.637 197.29C438.731 197.036 438.875 196.804 439.061 196.607C439.247 196.411 439.471 196.254 439.719 196.147C439.968 196.04 440.235 195.985 440.506 195.985H532.501C534.499 197.742 533.282 199.97 531.545 199.97V199.97Z" fill="#CCCCCC"/>
<path d="M531.545 210.425H440.618C440.095 210.435 439.586 210.247 439.197 209.897C438.807 209.547 438.564 209.062 438.518 208.54C438.503 208.27 438.544 207.999 438.637 207.745C438.731 207.491 438.875 207.259 439.061 207.062C439.247 206.866 439.471 206.709 439.719 206.603C439.968 206.496 440.235 206.44 440.506 206.44H532.501C534.499 208.197 533.282 210.425 531.545 210.425V210.425Z" fill="#CCCCCC"/>
<path d="M483.871 220.887H440.618C440.095 220.897 439.586 220.709 439.197 220.359C438.807 220.009 438.564 219.524 438.518 219.002C438.503 218.731 438.544 218.461 438.637 218.207C438.731 217.953 438.875 217.721 439.061 217.524C439.247 217.328 439.471 217.171 439.719 217.064C439.968 216.958 440.235 216.902 440.506 216.902H484.828C486.826 218.659 485.608 220.887 483.871 220.887V220.887Z" fill="#CCCCCC"/>
<path d="M483.871 231.343H440.618C440.095 231.353 439.586 231.165 439.197 230.815C438.807 230.465 438.564 229.98 438.518 229.458C438.503 229.188 438.544 228.917 438.637 228.663C438.731 228.409 438.875 228.177 439.061 227.98C439.247 227.784 439.471 227.627 439.719 227.52C439.968 227.414 440.235 227.358 440.506 227.358H484.828C486.826 229.115 485.608 231.343 483.871 231.343Z" fill="#CCCCCC"/>
<path d="M519.407 138.595H452.816C451.812 138.594 450.851 138.195 450.141 137.485C449.432 136.775 449.033 135.813 449.032 134.809V122.691C449.033 121.687 449.432 120.725 450.141 120.015C450.851 119.305 451.812 118.905 452.816 118.904H519.407C520.41 118.905 521.372 119.305 522.081 120.015C522.791 120.725 523.19 121.687 523.191 122.691V134.809C523.19 135.813 522.791 136.775 522.081 137.485C521.372 138.195 520.41 138.594 519.407 138.595Z" fill="#1769AA"/>
<path d="M289.068 412H0.756723C0.556028 412 0.363552 411.92 0.221639 411.778C0.0797254 411.636 0 411.444 0 411.243C0 411.042 0.0797254 410.849 0.221639 410.707C0.363552 410.565 0.556028 410.485 0.756723 410.485H289.068C289.269 410.485 289.461 410.565 289.603 410.707C289.745 410.849 289.825 411.042 289.825 411.243C289.825 411.444 289.745 411.636 289.603 411.778C289.461 411.92 289.269 412 289.068 412Z" fill="#3F3D56"/>
<path d="M73.2235 22.562C75.9262 22.562 78.1171 20.3693 78.1171 17.6643C78.1171 14.9594 75.9262 12.7666 73.2235 12.7666C70.5208 12.7666 68.3298 14.9594 68.3298 17.6643C68.3298 20.3693 70.5208 22.562 73.2235 22.562Z" fill="#F2F2F2"/>
<path d="M73.2235 42.0816C75.9262 42.0816 78.1171 39.8888 78.1171 37.1838C78.1171 34.4789 75.9262 32.2861 73.2235 32.2861C70.5208 32.2861 68.3298 34.4789 68.3298 37.1838C68.3298 39.8888 70.5208 42.0816 73.2235 42.0816Z" fill="#F2F2F2"/>
<path d="M73.2235 61.6011C75.9262 61.6011 78.1171 59.4083 78.1171 56.7034C78.1171 53.9985 75.9262 51.8057 73.2235 51.8057C70.5208 51.8057 68.3298 53.9985 68.3298 56.7034C68.3298 59.4083 70.5208 61.6011 73.2235 61.6011Z" fill="#F2F2F2"/>
<path d="M73.2235 81.1206C75.9262 81.1206 78.1171 78.9279 78.1171 76.2229C78.1171 73.518 75.9262 71.3252 73.2235 71.3252C70.5208 71.3252 68.3298 73.518 68.3298 76.2229C68.3298 78.9279 70.5208 81.1206 73.2235 81.1206Z" fill="#F2F2F2"/>
<path d="M93.6549 22.562C96.3576 22.562 98.5485 20.3693 98.5485 17.6643C98.5485 14.9594 96.3576 12.7666 93.6549 12.7666C90.9522 12.7666 88.7612 14.9594 88.7612 17.6643C88.7612 20.3693 90.9522 22.562 93.6549 22.562Z" fill="#F2F2F2"/>
<path d="M93.6549 42.0816C96.3576 42.0816 98.5485 39.8888 98.5485 37.1838C98.5485 34.4789 96.3576 32.2861 93.6549 32.2861C90.9522 32.2861 88.7612 34.4789 88.7612 37.1838C88.7612 39.8888 90.9522 42.0816 93.6549 42.0816Z" fill="#F2F2F2"/>
<path d="M93.6549 61.6011C96.3576 61.6011 98.5485 59.4083 98.5485 56.7034C98.5485 53.9985 96.3576 51.8057 93.6549 51.8057C90.9522 51.8057 88.7612 53.9985 88.7612 56.7034C88.7612 59.4083 90.9522 61.6011 93.6549 61.6011Z" fill="#F2F2F2"/>
<path d="M93.6549 81.1206C96.3576 81.1206 98.5485 78.9279 98.5485 76.2229C98.5485 73.518 96.3576 71.3252 93.6549 71.3252C90.9522 71.3252 88.7612 73.518 88.7612 76.2229C88.7612 78.9279 90.9522 81.1206 93.6549 81.1206Z" fill="#F2F2F2"/>
<path d="M114.087 22.562C116.789 22.562 118.98 20.3693 118.98 17.6643C118.98 14.9594 116.789 12.7666 114.087 12.7666C111.384 12.7666 109.193 14.9594 109.193 17.6643C109.193 20.3693 111.384 22.562 114.087 22.562Z" fill="#F2F2F2"/>
<path d="M114.087 42.0816C116.789 42.0816 118.98 39.8888 118.98 37.1838C118.98 34.4789 116.789 32.2861 114.087 32.2861C111.384 32.2861 109.193 34.4789 109.193 37.1838C109.193 39.8888 111.384 42.0816 114.087 42.0816Z" fill="#F2F2F2"/>
<path d="M114.087 61.6011C116.789 61.6011 118.98 59.4083 118.98 56.7034C118.98 53.9985 116.789 51.8057 114.087 51.8057C111.384 51.8057 109.193 53.9985 109.193 56.7034C109.193 59.4083 111.384 61.6011 114.087 61.6011Z" fill="#F2F2F2"/>
<path d="M114.087 81.1206C116.789 81.1206 118.98 78.9279 118.98 76.2229C118.98 73.518 116.789 71.3252 114.087 71.3252C111.384 71.3252 109.193 73.518 109.193 76.2229C109.193 78.9279 111.384 81.1206 114.087 81.1206Z" fill="#F2F2F2"/>
<path d="M134.518 22.562C137.221 22.562 139.412 20.3693 139.412 17.6643C139.412 14.9594 137.221 12.7666 134.518 12.7666C131.815 12.7666 129.624 14.9594 129.624 17.6643C129.624 20.3693 131.815 22.562 134.518 22.562Z" fill="#F2F2F2"/>
<path d="M134.518 42.0816C137.221 42.0816 139.412 39.8888 139.412 37.1838C139.412 34.4789 137.221 32.2861 134.518 32.2861C131.815 32.2861 129.624 34.4789 129.624 37.1838C129.624 39.8888 131.815 42.0816 134.518 42.0816Z" fill="#F2F2F2"/>
<path d="M134.518 61.6011C137.221 61.6011 139.412 59.4083 139.412 56.7034C139.412 53.9985 137.221 51.8057 134.518 51.8057C131.815 51.8057 129.624 53.9985 129.624 56.7034C129.624 59.4083 131.815 61.6011 134.518 61.6011Z" fill="#F2F2F2"/>
<path d="M134.518 81.1206C137.221 81.1206 139.412 78.9279 139.412 76.2229C139.412 73.518 137.221 71.3252 134.518 71.3252C131.815 71.3252 129.624 73.518 129.624 76.2229C129.624 78.9279 131.815 81.1206 134.518 81.1206Z" fill="#F2F2F2"/>
<path d="M154.95 22.562C157.652 22.562 159.843 20.3693 159.843 17.6643C159.843 14.9594 157.652 12.7666 154.95 12.7666C152.247 12.7666 150.056 14.9594 150.056 17.6643C150.056 20.3693 152.247 22.562 154.95 22.562Z" fill="#F2F2F2"/>
<path d="M154.95 42.0816C157.652 42.0816 159.843 39.8888 159.843 37.1838C159.843 34.4789 157.652 32.2861 154.95 32.2861C152.247 32.2861 150.056 34.4789 150.056 37.1838C150.056 39.8888 152.247 42.0816 154.95 42.0816Z" fill="#F2F2F2"/>
<path d="M154.95 61.6011C157.652 61.6011 159.843 59.4083 159.843 56.7034C159.843 53.9985 157.652 51.8057 154.95 51.8057C152.247 51.8057 150.056 53.9985 150.056 56.7034C150.056 59.4083 152.247 61.6011 154.95 61.6011Z" fill="#F2F2F2"/>
<path d="M154.95 81.1206C157.652 81.1206 159.843 78.9279 159.843 76.2229C159.843 73.518 157.652 71.3252 154.95 71.3252C152.247 71.3252 150.056 73.518 150.056 76.2229C150.056 78.9279 152.247 81.1206 154.95 81.1206Z" fill="#F2F2F2"/>
<path d="M175.381 22.562C178.084 22.562 180.275 20.3693 180.275 17.6643C180.275 14.9594 178.084 12.7666 175.381 12.7666C172.678 12.7666 170.487 14.9594 170.487 17.6643C170.487 20.3693 172.678 22.562 175.381 22.562Z" fill="#F2F2F2"/>
<path d="M175.381 42.0816C178.084 42.0816 180.275 39.8888 180.275 37.1838C180.275 34.4789 178.084 32.2861 175.381 32.2861C172.678 32.2861 170.487 34.4789 170.487 37.1838C170.487 39.8888 172.678 42.0816 175.381 42.0816Z" fill="#F2F2F2"/>
<path d="M175.381 61.6011C178.084 61.6011 180.275 59.4083 180.275 56.7034C180.275 53.9985 178.084 51.8057 175.381 51.8057C172.678 51.8057 170.487 53.9985 170.487 56.7034C170.487 59.4083 172.678 61.6011 175.381 61.6011Z" fill="#F2F2F2"/>
<path d="M175.381 81.1206C178.084 81.1206 180.275 78.9279 180.275 76.2229C180.275 73.518 178.084 71.3252 175.381 71.3252C172.678 71.3252 170.487 73.518 170.487 76.2229C170.487 78.9279 172.678 81.1206 175.381 81.1206Z" fill="#F2F2F2"/>
<path d="M455.369 293.695C458.071 293.695 460.262 291.502 460.262 288.797C460.262 286.092 458.071 283.899 455.369 283.899C452.666 283.899 450.475 286.092 450.475 288.797C450.475 291.502 452.666 293.695 455.369 293.695Z" fill="#F2F2F2"/>
<path d="M455.369 313.214C458.071 313.214 460.262 311.022 460.262 308.317C460.262 305.612 458.071 303.419 455.369 303.419C452.666 303.419 450.475 305.612 450.475 308.317C450.475 311.022 452.666 313.214 455.369 313.214Z" fill="#F2F2F2"/>
<path d="M455.369 332.734C458.071 332.734 460.262 330.541 460.262 327.836C460.262 325.131 458.071 322.938 455.369 322.938C452.666 322.938 450.475 325.131 450.475 327.836C450.475 330.541 452.666 332.734 455.369 332.734Z" fill="#F2F2F2"/>
<path d="M475.8 293.695C478.503 293.695 480.694 291.502 480.694 288.797C480.694 286.092 478.503 283.899 475.8 283.899C473.097 283.899 470.906 286.092 470.906 288.797C470.906 291.502 473.097 293.695 475.8 293.695Z" fill="#F2F2F2"/>
<path d="M475.8 313.214C478.503 313.214 480.694 311.022 480.694 308.317C480.694 305.612 478.503 303.419 475.8 303.419C473.097 303.419 470.906 305.612 470.906 308.317C470.906 311.022 473.097 313.214 475.8 313.214Z" fill="#F2F2F2"/>
<path d="M475.8 332.734C478.503 332.734 480.694 330.541 480.694 327.836C480.694 325.131 478.503 322.938 475.8 322.938C473.097 322.938 470.906 325.131 470.906 327.836C470.906 330.541 473.097 332.734 475.8 332.734Z" fill="#F2F2F2"/>
<path d="M496.232 293.695C498.934 293.695 501.125 291.502 501.125 288.797C501.125 286.092 498.934 283.899 496.232 283.899C493.529 283.899 491.338 286.092 491.338 288.797C491.338 291.502 493.529 293.695 496.232 293.695Z" fill="#F2F2F2"/>
<path d="M496.232 313.214C498.934 313.214 501.125 311.022 501.125 308.317C501.125 305.612 498.934 303.419 496.232 303.419C493.529 303.419 491.338 305.612 491.338 308.317C491.338 311.022 493.529 313.214 496.232 313.214Z" fill="#F2F2F2"/>
<path d="M496.232 332.734C498.934 332.734 501.125 330.541 501.125 327.836C501.125 325.131 498.934 322.938 496.232 322.938C493.529 322.938 491.338 325.131 491.338 327.836C491.338 330.541 493.529 332.734 496.232 332.734Z" fill="#F2F2F2"/>
<path d="M516.663 293.695C519.366 293.695 521.557 291.502 521.557 288.797C521.557 286.092 519.366 283.899 516.663 283.899C513.961 283.899 511.77 286.092 511.77 288.797C511.77 291.502 513.961 293.695 516.663 293.695Z" fill="#F2F2F2"/>
<path d="M516.663 313.214C519.366 313.214 521.557 311.022 521.557 308.317C521.557 305.612 519.366 303.419 516.663 303.419C513.961 303.419 511.77 305.612 511.77 308.317C511.77 311.022 513.961 313.214 516.663 313.214Z" fill="#F2F2F2"/>
<path d="M516.663 332.734C519.366 332.734 521.557 330.541 521.557 327.836C521.557 325.131 519.366 322.938 516.663 322.938C513.961 322.938 511.77 325.131 511.77 327.836C511.77 330.541 513.961 332.734 516.663 332.734Z" fill="#F2F2F2"/>
</g>
<defs>
<clipPath id="clip0">
<rect width="558" height="412" fill="white"/>
</clipPath>
</defs>
</svg>
