<svg width="586" height="478" viewBox="0 0 586 478" fill="none" xmlns="http://www.w3.org/2000/svg">
<g clip-path="url(#clip0)">
<path opacity="0.1" d="M571.751 277.093C571.751 277.457 571.751 277.82 571.751 278.177C571.687 284.439 571.316 290.685 570.636 296.915C570.639 296.953 570.639 296.991 570.636 297.028C570.582 297.546 570.523 298.058 570.463 298.576C570.362 299.451 570.254 300.32 570.135 301.195C568.745 311.846 566.446 322.358 563.261 332.618C558.995 346.481 552.964 359.741 545.315 372.071C542.962 375.841 540.456 379.49 537.797 383.017C536.378 384.886 534.93 386.714 533.433 388.511C532.384 389.769 531.315 391.008 530.226 392.226L529.546 392.976C523.816 399.257 517.639 405.118 511.064 410.512C500.332 419.393 488.778 427.119 477.038 434.286C476.371 434.697 475.697 435.101 475.023 435.476C474.976 435.51 474.926 435.54 474.874 435.566C458.92 445.197 442.375 453.887 425.33 460.846C406.669 468.483 387.4 474.036 367.63 476.465C340.073 479.846 312.183 477.096 284.793 472.37C262.014 468.462 239.511 463.094 217.423 456.298L213.786 455.161C211.902 454.562 210.02 453.951 208.14 453.328C196.784 449.578 185.556 445.411 174.455 440.828C146.573 429.362 119.938 415.084 94.963 398.214C91.7833 396.079 88.6493 393.896 85.5609 391.666C81.2444 388.563 76.9796 385.369 72.7665 382.083L70.167 380.071C59.1412 371.451 48.811 361.979 39.2719 351.743C26.4416 337.802 15.4775 322.076 8.26943 304.124C7.13267 301.302 6.09131 298.427 5.14534 295.498L5.0559 295.207C4.57894 293.719 4.13775 292.231 3.73234 290.683C3.13614 288.469 2.61347 286.227 2.16433 283.957C2.06894 283.522 1.98547 283.088 1.90796 282.647C0.482975 275.008 -0.146389 267.242 0.0299293 259.474C0.179042 252.668 0.977588 245.891 2.41473 239.236C3.88569 232.337 6.15246 225.631 9.16969 219.253C11.8964 213.518 15.3705 208.168 19.5019 203.342C22.4049 199.969 25.6697 196.923 29.2378 194.259C35.7066 189.449 42.8789 186.098 50.3135 183.449C53.8073 182.199 57.3487 181.104 60.908 180.086C63.43 179.36 65.9638 178.67 68.4857 177.991L75.9263 175.985C80.6959 174.687 85.4655 173.354 90.1636 171.914C102.97 168.009 115.52 163.282 127.128 156.235C128.964 155.122 130.836 153.901 132.709 152.592C135.093 150.937 137.442 149.139 139.768 147.199C142.117 145.235 144.418 143.133 146.612 140.907C146.952 140.562 147.286 140.217 147.619 139.865C149.408 137.985 151.143 136.014 152.753 133.967C153.54 132.967 154.303 131.949 155.03 130.913C156.038 129.478 156.992 128.02 157.874 126.52C162.298 119.02 165.029 110.746 164.707 102.026C164.66 100.589 164.53 99.156 164.319 97.734C163.544 92.478 162.799 87.347 162.25 82.3291C159.949 61.5729 160.921 42.7512 176.523 25.0664C195.924 3.08402 226.372 -1.39818 254.089 0.357793C334.224 5.41738 407.176 51.0965 471.285 105.478C476.83 110.177 482.307 114.939 487.716 119.764C489.08 120.978 490.445 122.201 491.812 123.431C501.948 132.544 511.928 141.996 521.223 152.122C521.974 152.943 522.725 153.765 523.465 154.592C523.918 155.104 524.377 155.61 524.824 156.128C527.722 159.401 530.534 162.755 533.26 166.187C540.564 175.3 547.015 185.063 552.529 195.354C560.974 211.504 566.691 228.935 569.45 246.944C570.487 253.484 571.17 260.075 571.495 266.689C571.596 268.635 571.661 270.587 571.697 272.534C571.697 273.159 571.697 273.778 571.697 274.403C571.757 275.308 571.757 276.189 571.751 277.093Z" fill="#1769AA"/>
<path d="M234.891 267.11L225.352 436.63L234.891 436.755L242.642 264.729L234.891 267.11Z" fill="#3F3D56"/>
<path d="M199.716 352.998H81.6677V378.594H199.716V352.998Z" fill="#1769AA"/>
<path d="M207.466 375.611V391.683H85.5249C81.2084 388.58 76.9436 385.385 72.7305 382.099V375.611H207.466Z" fill="#3F3D56"/>
<path d="M231.815 339.034C231.481 340.576 231.046 342.1 230.587 343.617C229.233 348.004 227.606 352.332 227.29 356.891C226.866 362.915 228.482 369.921 224.309 374.296C223.236 375.427 221.834 376.273 220.875 377.481C220.727 377.67 220.591 377.869 220.469 378.076C219.611 379.493 219.509 381.219 219.497 382.838C219.507 386.291 219.732 389.74 220.171 393.166C221.584 404.952 224.374 416.761 220.708 427.886C220.043 429.816 219.269 431.706 218.388 433.547C216.6 437.476 214.65 441.351 214.066 445.607C213.637 448.762 213.768 452.012 213.744 455.22C211.86 454.621 209.978 454.01 208.098 453.387C196.742 449.637 185.514 445.47 174.413 440.887C174.442 440.726 174.472 440.559 174.496 440.398C175.349 435.101 174.18 429.684 172.761 424.517C169.78 413.571 165.559 402.731 163.061 391.707C162.055 387.402 161.395 383.023 161.088 378.612C161.016 377.624 160.974 376.63 160.968 375.636C160.938 374.338 160.968 373.04 161.022 371.731C161.147 369.118 161.26 366.017 159.168 364.427C158.017 363.564 156.497 363.415 155.155 362.892C152.568 361.886 150.797 359.552 148.746 357.683C147.768 356.736 146.573 356.04 145.266 355.656C143.958 355.273 142.576 355.212 141.24 355.481C127.837 358.546 117.988 369.898 105.516 375.636C105.033 375.862 104.55 376.076 104.061 376.279C102.448 376.868 100.912 377.652 99.488 378.612C98.4875 379.305 97.7618 380.327 97.4371 381.499C97.1211 382.761 97.3954 384.082 97.5504 385.38C97.8013 387.49 97.7107 389.626 97.2821 391.707C97.1204 392.514 96.9073 393.309 96.6441 394.088C96.1672 395.499 95.5293 396.88 94.9211 398.255C91.7414 396.12 88.6074 393.938 85.519 391.707C81.2025 388.604 76.9377 385.41 72.7246 382.124L70.1669 380.07C59.141 371.45 48.8108 361.979 39.2717 351.743C40.5416 348.171 42.3779 344.85 43.2603 341.189C43.7611 339.088 43.9459 336.903 44.6375 334.861C45.4351 332.745 46.5443 330.759 47.9286 328.968C52.9983 321.91 59.1889 315.725 66.2558 310.659C73.6427 305.373 82.1744 301.135 88.822 295.135C91.5197 292.777 93.8453 290.025 95.72 286.974C95.8333 286.789 95.9406 286.593 96.036 286.379C96.5549 285.301 96.9144 284.154 97.1032 282.974C97.5802 280.307 97.5086 277.379 97.7471 274.819C105.845 276.219 114.101 276.467 122.269 275.557C131.778 274.492 141.079 271.855 150.588 270.831C151.304 270.748 152.025 270.682 152.747 270.623C155.793 270.378 158.846 270.325 161.904 270.361C164.462 270.361 167.02 270.474 169.577 270.557L197.736 271.509C200.854 271.617 204.038 271.736 206.941 272.873C210.387 274.224 213.148 276.914 215.36 279.873C215.64 280.254 215.92 280.635 216.182 281.027C218.003 283.678 219.462 286.559 220.523 289.593C220.636 289.903 220.743 290.188 220.845 290.528C221.113 291.355 221.346 292.188 221.554 293.034C221.715 293.694 221.858 294.355 221.989 295.022C222.645 298.319 223.033 301.688 224.07 304.873C224.142 305.105 224.219 305.337 224.303 305.563C225.549 309.052 227.618 312.177 229.18 315.528C230.306 317.954 231.165 320.494 231.743 323.105C232.911 328.348 232.935 333.781 231.815 339.034Z" fill="#35323E"/>
<path d="M146.224 126.013C143.708 124.013 140.06 125.478 137.114 126.769C134.645 127.858 132.103 128.775 129.507 129.513C128.975 129.717 128.399 129.777 127.837 129.686C126.645 129.4 126.144 127.989 125.256 127.132C123.712 125.65 121.184 126.001 119.193 126.805C117.201 127.608 115.234 128.769 113.099 128.591C110.822 128.412 108.842 126.733 106.541 126.68C102.487 126.585 99.0827 131.573 95.2491 130.251C92.912 129.448 91.0757 126.412 88.7743 127.275C86.9857 127.954 86.8248 130.424 85.7456 132.037C84.4757 133.918 82.0015 134.448 79.885 135.281C73.2135 137.912 68.7956 145.335 69.6661 152.442C70.149 156.365 72.0509 159.96 73.3089 163.704C77.0411 174.591 75.7593 186.871 80.4633 197.371C81.0595 196.812 81.3934 196.603 81.9717 196.05C80.4843 199.13 80.1975 202.652 81.1668 205.931C81.6617 207.58 82.4665 209.115 83.0747 210.729C83.7064 212.538 84.2163 214.387 84.6009 216.264L89.7879 239.11C91.815 248.039 93.848 256.967 94.1998 266.11C94.4188 272.055 93.9628 278.006 92.8404 283.849C102.237 282.295 110.834 278.134 120.355 278.188C123.849 278.188 127.313 278.783 130.777 279.259C140.876 280.67 151.063 281.36 161.26 281.325C162.846 281.415 164.435 281.192 165.935 280.67C167.246 280.11 168.319 279.116 169.56 278.396C171.986 276.968 174.925 276.61 177.722 276.61C190.474 276.378 202.762 281.039 215.431 282.682C220.433 272.2 220.732 259.64 216.892 248.681C215.753 245.425 214.221 242.253 213.768 238.83C213.586 236.726 213.538 234.613 213.625 232.503C213.605 227.101 212.63 221.745 210.745 216.681C210.006 214.699 209.118 212.681 209.195 210.568C209.273 208.455 210.316 206.484 211.341 204.615C213.422 200.806 215.515 196.961 218.454 193.746C221.465 190.425 225.233 187.895 228.959 185.413L238.158 179.246C236.9 171.311 235.279 162.954 231.91 155.656C228.542 148.359 223.504 141.65 216.689 137.382C214.392 136.002 211.987 134.808 209.499 133.811C206.017 132.347 202.392 131.055 198.618 130.835C194.326 130.591 190.099 131.74 185.86 132.454C172.517 134.698 156.813 134.424 146.224 126.013Z" fill="#1769AA"/>
<path d="M246.815 263.706L242.439 269.224L234.188 279.623L224.648 291.641L221.983 294.998H216.814L88.816 295.147L8.65679 295.236H5.07958C4.60262 293.748 4.16143 292.26 3.75601 290.712C3.15981 288.498 2.63715 286.256 2.18801 283.986C2.09262 283.551 2.00915 283.117 1.93164 282.676L31.0143 263.694L41.9487 263.634L75.3955 263.444L94.0745 263.337H97.4848H99.6251L112.074 263.271L206.953 262.73L211.806 262.7H213.911L219.485 262.67L240.227 262.551L244.21 261.039L244.502 261.349L246.815 263.706Z" fill="#3F3D56"/>
<path d="M245.027 260.729L244.532 261.324L241.276 265.152L234.575 273.051L220.523 289.592L96.0359 286.42L2.16409 284.039C2.06869 283.604 1.98523 283.17 1.90772 282.729C0.482731 275.09 -0.146633 267.325 0.0296852 259.556L10.4394 254.235L12.8242 253.009L31.3839 243.485L47.6721 235.151L90.1574 240.663L99.5654 241.884L103.822 242.431L110.053 243.241L110.577 243.312L208.277 255.961L219.074 257.36L225.412 258.181L244.943 260.717L245.027 260.729Z" fill="#504F60"/>
<path d="M224.756 289.301L224.655 291.64L224.058 304.849L220.851 377.469L220.171 393.165L218.382 433.547L217.375 456.356L213.738 455.219C211.854 454.62 209.972 454.009 208.092 453.386L216.814 295.051L216.999 291.729L220.839 290.539L224.756 289.301Z" fill="#3F3D56"/>
<path d="M8.93105 289.129L8.66276 295.242L8.26927 304.171C7.13251 301.349 6.09115 298.474 5.14518 295.546L5.05574 295.254C4.57878 293.766 4.13759 292.278 3.73218 290.73L8.93105 289.129Z" fill="#3F3D56"/>
<path d="M164.838 199.128C179.984 199.128 192.263 182.605 192.263 162.223C192.263 141.84 179.984 125.317 164.838 125.317C149.691 125.317 137.412 141.84 137.412 162.223C137.412 182.605 149.691 199.128 164.838 199.128Z" fill="#A1616A"/>
<path opacity="0.1" d="M164.838 199.128C179.984 199.128 192.263 182.605 192.263 162.223C192.263 141.84 179.984 125.317 164.838 125.317C149.691 125.317 137.412 141.84 137.412 162.223C137.412 182.605 149.691 199.128 164.838 199.128Z" fill="black"/>
<path d="M168.713 177.996C189.786 177.996 206.87 160.94 206.87 139.9C206.87 118.861 189.786 101.805 168.713 101.805C147.64 101.805 130.556 118.861 130.556 139.9C130.556 160.94 147.64 177.996 168.713 177.996Z" fill="#A1616A"/>
<path d="M169.47 81.1857C167.141 81.3711 164.827 81.7232 162.548 82.2393C156.515 83.7036 151.298 86.9536 146.218 90.1441C143.941 91.5787 141.598 93.0727 140.185 95.1799C137.645 98.9597 138.629 103.769 137.204 107.966C136.465 110.121 135.105 112.055 133.955 114.061C130.789 119.561 129.131 125.603 127.504 131.585C127.17 132.823 127.074 134.502 128.428 134.978C129.207 135.14 130.018 135.048 130.741 134.716C135.016 133.305 140.447 132.901 143.619 135.764C146.791 138.627 146.522 143.704 150.296 145.883C154.619 148.401 161.368 145.359 165.291 148.329C166.972 149.603 167.58 151.645 168.958 153.181C172.165 156.752 178.336 156.579 183.469 155.859C186.414 155.443 190.027 155.163 191.816 157.228C192.674 158.204 192.919 159.544 193.914 160.425C195.703 162.02 198.976 161.21 200.723 159.574C202.47 157.937 203.305 155.722 204.759 153.883C207.591 150.312 212.57 148.365 215.491 144.835C217.935 141.859 218.675 138.133 219.342 134.538L221.829 121.21C222.836 115.805 223.754 109.9 220.708 105.138C219.623 103.424 218.067 101.948 217.131 100.174C216.505 98.9835 216.153 97.7276 215.425 96.6025C214.563 95.4306 213.532 94.3917 212.367 93.5192L206.482 88.656C204.47 86.8978 202.319 85.3052 200.049 83.8941C191.649 79.0071 179.069 80.2928 169.47 81.1857Z" fill="#464353"/>
<path d="M43.7908 179.318C42.3778 180.818 41.0722 182.437 39.5578 183.842C38.2257 185.025 36.8326 186.137 35.3844 187.175C33.0473 188.921 30.7619 190.729 28.5281 192.598C26.1976 194.438 24.0889 196.541 22.2441 198.866C19.0604 203.134 17.552 208.443 14.571 212.854C11.9358 216.765 8.22148 219.854 5.54454 223.735C4.37016 225.367 3.49787 227.196 2.96895 229.134C2.57415 231.01 2.39611 232.926 2.43833 234.843C2.38467 237.985 2.33698 241.164 2.98088 244.242C3.62477 247.319 5.03777 250.343 7.45834 252.361C9.70602 254.236 12.6095 255.099 15.4534 255.813C16.9201 256.176 18.5059 256.515 19.9011 255.938C20.9219 255.423 21.808 254.677 22.4886 253.759L29.7443 245.426C34.5974 239.831 39.6413 234.116 46.3008 230.843C48.3876 229.825 50.5875 229.057 52.6802 228.069C61.5517 223.801 67.8237 215.063 70.2562 205.539C70.8524 203.211 71.234 200.836 71.6215 198.461L72.6708 191.949C72.7514 191.623 72.7514 191.282 72.6708 190.955C72.5065 190.588 72.2421 190.274 71.9077 190.05C66.8537 185.975 62.1218 181.518 57.7539 176.717C56.7165 175.574 55.7447 174.008 54.5463 173.05C53.0439 171.86 53.1572 171.949 51.3507 173.05C48.5717 174.807 46.0309 176.913 43.7908 179.318Z" fill="#A1616A"/>
<path d="M93.4246 222.652C93.3643 222.513 93.2766 222.389 93.1668 222.285C93.057 222.182 92.9274 222.101 92.7857 222.049C92.644 221.997 92.4932 221.973 92.3423 221.981C92.1915 221.988 92.0436 222.026 91.9077 222.092C91.7718 222.158 91.6507 222.25 91.5515 222.364C91.4524 222.478 91.3772 222.61 91.3307 222.754C91.2842 222.897 91.2671 223.049 91.2807 223.199C91.2942 223.349 91.338 223.495 91.4094 223.628L90.8132 223.919L108.592 260.301L111.805 258.735L94.0268 222.33L93.4246 222.652Z" fill="#3F3D56"/>
<path opacity="0.04" d="M43.7908 179.318C42.3778 180.818 41.0722 182.437 39.5578 183.842C38.2257 185.025 36.8326 186.137 35.3844 187.175C33.0473 188.921 30.7619 190.729 28.5281 192.598C26.1976 194.438 24.0889 196.541 22.2441 198.866C19.0604 203.134 17.552 208.443 14.571 212.854C11.9358 216.765 8.22148 219.854 5.54454 223.735C4.37016 225.367 3.49787 227.196 2.96895 229.134C2.57415 231.01 2.39611 232.926 2.43833 234.843C2.38467 237.985 2.33698 241.164 2.98088 244.242C3.62477 247.319 5.03777 250.343 7.45834 252.361C9.70602 254.236 12.6095 255.099 15.4534 255.813C16.9201 256.176 18.5059 256.515 19.9011 255.938C20.9219 255.423 21.808 254.677 22.4886 253.759L29.7443 245.426C34.5974 239.831 39.6413 234.116 46.3008 230.843C48.3876 229.825 50.5875 229.057 52.6802 228.069C61.5517 223.801 67.8237 215.063 70.2562 205.539C70.8524 203.211 71.234 200.836 71.6215 198.461L72.6708 191.949C72.7514 191.623 72.7514 191.282 72.6708 190.955C72.5065 190.588 72.2421 190.274 71.9077 190.05C66.8537 185.975 62.1218 181.518 57.7539 176.717C56.7165 175.574 55.7447 174.008 54.5463 173.05C53.0439 171.86 53.1572 171.949 51.3507 173.05C48.5717 174.807 46.0309 176.913 43.7908 179.318Z" fill="black"/>
<path d="M249.325 246.366C249.266 250.164 249.117 254.074 247.537 257.539C246.857 259.039 245.802 260.515 244.222 261.009C243.266 261.229 242.276 261.266 241.306 261.116C229.609 260.09 217.823 261.023 206.435 263.878C209.475 257.806 207.728 250.527 208.569 243.788C208.801 241.949 209.225 240.14 209.386 238.294C209.982 231.747 207.174 225.389 205.886 218.925C204.768 213.329 204.768 207.568 205.886 201.972C206.105 200.532 206.601 199.148 207.347 197.895C208.22 196.676 209.368 195.679 210.697 194.984C215.527 192.24 221.22 191.925 226.646 192.288C230.3 192.532 237.628 192.187 240.674 194.431C244.007 196.889 245.062 205.145 245.963 208.961C247.311 214.812 248.227 220.755 248.705 226.741C249.289 233.265 249.415 239.818 249.325 246.366Z" fill="#A1616A"/>
<path d="M35.7603 259.545L57.2235 273.831L153.808 270.259L90.0145 259.545H35.7603Z" fill="white"/>
<path d="M64.0617 146.038C60.5381 149.139 57.5512 152.794 54.2124 156.097C49.6336 160.633 44.4288 164.49 39.2478 168.33C41.1054 168.848 42.7964 169.839 44.155 171.206C45.5137 172.573 46.4934 174.269 46.9984 176.127C47.225 177.002 47.3382 177.913 47.5946 178.77C48.1908 180.8 49.5025 182.55 50.9095 184.127C56.955 190.931 65.4151 195.967 68.9803 204.366C69.0967 204.774 69.349 205.131 69.6958 205.378C69.9859 205.506 70.3081 205.543 70.6199 205.485C73.8453 205.145 76.3136 202.55 78.3705 200.026C82.6632 194.669 86.3894 188.752 88.5059 182.217C90.6224 175.681 90.9623 168.455 88.655 161.978C87.5043 158.752 85.7276 155.788 83.9629 152.853C82.4167 150.286 80.8745 147.722 79.3363 145.163C78.5315 143.811 77.506 141.067 75.9261 140.401C72.5158 138.936 66.2497 143.853 64.0617 146.038Z" fill="#1769AA"/>
<path d="M239.667 184.508L244.741 196.413C239.217 194.486 233.314 193.9 227.519 194.702C221.724 195.504 216.203 197.672 211.413 201.026C208.521 203.092 205.868 205.687 204.563 208.984C203.918 209.107 203.252 209.045 202.641 208.806C202.031 208.567 201.5 208.16 201.111 207.633C200.347 206.565 199.905 205.301 199.835 203.99C199.364 199.419 201.099 194.937 202.816 190.663C203.615 188.663 204.437 186.621 205.856 184.996C207.275 183.371 209.159 182.3 211.043 181.288C217.054 177.969 223.349 175.192 229.853 172.99C232.596 172.103 235.47 172.121 237.008 174.68C238.79 177.734 238.272 181.258 239.667 184.508Z" fill="#1769AA"/>
<path d="M35.8853 220.229C37.1552 221.241 38.2701 222.437 39.5758 223.401C40.9566 224.359 42.426 225.182 43.9638 225.86L49.8424 228.681C51.664 229.627 53.5702 230.4 55.5361 230.991C58.0521 231.663 60.6932 231.729 63.2211 232.354C66.4108 233.14 69.3262 234.777 72.4682 235.723C75.6102 236.67 79.2887 236.824 81.912 234.854C83.5516 233.622 84.7917 231.586 86.8247 231.283C88.1364 231.11 89.4003 231.741 90.5689 232.354L105.867 240.384C107.93 241.467 110.112 242.67 111.191 244.735C112.271 246.801 111.543 249.938 109.272 250.473C108.48 250.564 107.684 250.61 106.887 250.61C106.1 250.705 105.241 251.17 105.134 251.961C105.13 252.453 105.26 252.936 105.51 253.36C106.195 254.932 106.398 256.813 105.599 258.336C104.8 259.86 102.839 260.807 101.271 260.122C101.539 262.426 99.029 264.039 96.7932 264.652C91.1531 266.194 85.1732 265.247 79.408 264.271C77.1424 263.89 74.8411 263.497 72.7782 262.485C71.7885 262.003 70.8704 261.384 69.8688 260.938C67.1203 259.717 63.9962 259.878 60.9913 259.932C47.0939 260.176 33.3157 257.604 19.6508 255.045C17.1169 254.569 14.5115 254.063 12.3473 252.664C8.17389 249.949 6.62377 244.378 7.3094 239.449C7.99503 234.521 10.4991 230.056 12.9614 225.723L16.1511 220.11C16.568 219.25 17.1516 218.481 17.8681 217.848C22.5602 214.27 31.8669 217.003 35.8853 220.229Z" fill="#A1616A"/>
<path opacity="0.04" d="M35.8853 220.229C37.1552 221.241 38.2701 222.437 39.5758 223.401C40.9566 224.359 42.426 225.182 43.9638 225.86L49.8424 228.681C51.664 229.627 53.5702 230.4 55.5361 230.991C58.0521 231.663 60.6932 231.729 63.2211 232.354C66.4108 233.14 69.3262 234.777 72.4682 235.723C75.6102 236.67 79.2887 236.824 81.912 234.854C83.5516 233.622 84.7917 231.586 86.8247 231.283C88.1364 231.11 89.4003 231.741 90.5689 232.354L105.867 240.384C107.93 241.467 110.112 242.67 111.191 244.735C112.271 246.801 111.543 249.938 109.272 250.473C108.48 250.564 107.684 250.61 106.887 250.61C106.1 250.705 105.241 251.17 105.134 251.961C105.13 252.453 105.26 252.936 105.51 253.36C106.195 254.932 106.398 256.813 105.599 258.336C104.8 259.86 102.839 260.807 101.271 260.122C101.539 262.426 99.029 264.039 96.7932 264.652C91.1531 266.194 85.1732 265.247 79.408 264.271C77.1424 263.89 74.8411 263.497 72.7782 262.485C71.7885 262.003 70.8704 261.384 69.8688 260.938C67.1203 259.717 63.9962 259.878 60.9913 259.932C47.0939 260.176 33.3157 257.604 19.6508 255.045C17.1169 254.569 14.5115 254.063 12.3473 252.664C8.17389 249.949 6.62377 244.378 7.3094 239.449C7.99503 234.521 10.4991 230.056 12.9614 225.723L16.1511 220.11C16.568 219.25 17.1516 218.481 17.8681 217.848C22.5602 214.27 31.8669 217.003 35.8853 220.229Z" fill="black"/>
<path d="M217.882 230.514C214.775 231.979 211.21 232.122 207.967 233.247C204.723 234.372 201.969 236.395 198.994 238.044C191.243 242.366 182.3 243.997 173.518 245.55C168.194 246.503 162.787 247.455 157.421 247.229C150.159 246.919 143.184 244.503 136.148 242.681C129.113 240.86 121.607 239.634 114.638 241.681C110.998 242.788 107.671 244.735 104.926 247.365C102.181 249.995 100.095 253.233 98.8382 256.818C97.3775 261.098 97.1748 265.711 97.455 270.223C98.9217 271.301 100.973 269.807 101.772 268.17C102.57 266.533 103.006 264.527 104.556 263.574C107.245 264.485 107.9 268.062 110.118 269.83C111.502 270.937 113.35 271.229 115.109 271.479L124.171 272.765C126.353 273.074 128.887 273.283 130.467 271.747C131.236 271.003 131.659 269.961 132.363 269.164C133.805 267.568 136.214 267.295 138.36 267.509C145.062 268.176 151.346 272.515 157.999 271.485C160.289 271.134 162.417 270.158 164.599 269.39C177.531 264.83 191.899 267.604 205.355 264.991C210.489 263.997 215.431 262.235 220.314 260.378C222.967 259.372 225.65 258.318 227.916 256.616C230.062 254.968 231.755 252.804 232.835 250.325C233.915 247.846 234.348 245.134 234.092 242.443C233.593 238.342 231.544 234.586 228.363 231.943C227.314 231.05 225.936 229.342 224.678 228.782C222.276 227.729 219.921 229.556 217.882 230.514Z" fill="#A1616A"/>
<g opacity="0.1">
<path opacity="0.1" d="M200.461 154.473C199.465 153.592 199.221 152.252 198.362 151.276C196.574 149.211 192.961 149.49 190.015 149.907C184.882 150.627 178.688 150.794 175.504 147.228C174.127 145.693 173.518 143.657 171.837 142.377C167.914 139.401 161.165 142.449 156.843 139.931C153.069 137.734 153.313 132.639 150.165 129.812C147.017 126.984 141.562 127.353 137.287 128.764C136.564 129.096 135.753 129.187 134.974 129.026C133.621 128.55 133.716 126.871 134.05 125.633C135.678 119.651 137.335 113.609 140.501 108.109C141.651 106.103 143.011 104.168 143.75 102.014C145.044 98.2398 144.382 93.9719 146.081 90.4004C144.257 91.5909 142.504 92.8885 141.377 94.5671C138.837 98.3469 139.821 103.157 138.396 107.353C137.657 109.508 136.298 111.442 135.147 113.448C131.981 118.948 130.324 124.99 128.696 130.972C128.362 132.21 128.267 133.889 129.62 134.365C130.399 134.527 131.21 134.435 131.933 134.103C136.208 132.693 141.64 132.288 144.811 135.151C147.983 138.014 147.715 143.092 151.489 145.27C155.811 147.788 162.56 144.746 166.483 147.717C168.165 148.99 168.773 151.032 170.15 152.568C173.357 156.139 179.528 155.967 184.661 155.246C187.607 154.83 191.22 154.55 193.008 156.616C193.867 157.592 194.111 158.931 195.107 159.812C196.895 161.407 200.169 160.598 201.915 158.961C203.036 157.796 203.994 156.487 204.765 155.068C203.215 155.538 201.564 155.467 200.461 154.473Z" fill="black"/>
<path opacity="0.1" d="M211.324 147.925C210.94 148.419 210.583 148.934 210.256 149.467C212.546 147.836 214.972 146.312 216.683 144.235C217.128 143.697 217.526 143.124 217.876 142.521C215.497 144.223 213.017 145.788 211.324 147.925Z" fill="black"/>
</g>
<path d="M331.774 265.795L333.563 436.63L341.909 435.44L340.121 265.795H331.774Z" fill="#3F3D56"/>
<path d="M381.855 296.748L383.643 467.583L391.99 466.393L390.202 296.748H381.855Z" fill="#3F3D56"/>
<path d="M537.779 383.046L537.744 379.766V377.814L537.428 347.766L536.933 300.789L536.849 296.735H528.502L528.544 300.64L528.807 325.801L528.92 336.694L529.015 345.516L529.17 360.766L529.266 369.76V370.712L529.391 382.534L529.498 392.957L530.178 392.207C531.271 390.989 532.34 389.75 533.385 388.492L537.779 383.046Z" fill="#3F3D56"/>
<path d="M372.614 324.427L367.844 331.546L372.614 363.981L413.155 375.058H478.737L518.087 377.433L536.831 364.624L533.588 342.623L519.279 324.427H372.614Z" fill="#1769AA"/>
<path d="M367.844 331.546L365.459 351.32C365.459 351.32 352.939 390.088 453.697 387.713C554.455 385.338 537.165 377.427 537.165 377.427L536.569 354.487C536.569 354.487 540.081 365.344 488.873 363.874C437.665 362.403 389.904 357.653 389.904 357.653C389.904 357.653 372.018 360.814 367.844 331.546Z" fill="#3F3D56"/>
<path d="M451.789 154.306C446.042 156.919 441.69 161.985 438.774 167.586C435.859 173.187 434.219 179.336 432.604 185.443C430.898 191.884 429.187 198.342 428.305 204.943C426.731 216.682 427.911 229.021 433.313 239.563C438.715 250.105 448.695 258.611 460.38 260.641C464.894 261.432 469.532 261.271 474.093 260.801C482.337 259.93 490.458 258.143 498.305 255.474C506.503 252.706 515.034 248.444 518.683 240.593C520.799 236.039 520.978 230.848 520.877 225.837C520.596 212.176 518.529 198.611 514.73 185.485C513.627 181.675 512.345 177.836 510.008 174.628C507.671 171.419 504.475 169.068 501.214 166.889C487.269 157.514 468.942 146.52 451.789 154.306Z" fill="#FBBEBE"/>
<path opacity="0.05" d="M451.789 154.306C446.042 156.919 441.69 161.985 438.774 167.586C435.859 173.187 434.219 179.336 432.604 185.443C430.898 191.884 429.187 198.342 428.305 204.943C426.731 216.682 427.911 229.021 433.313 239.563C438.715 250.105 448.695 258.611 460.38 260.641C464.894 261.432 469.532 261.271 474.093 260.801C482.337 259.93 490.458 258.143 498.305 255.474C506.503 252.706 515.034 248.444 518.683 240.593C520.799 236.039 520.978 230.848 520.877 225.837C520.596 212.176 518.529 198.611 514.73 185.485C513.627 181.675 512.345 177.836 510.008 174.628C507.671 171.419 504.475 169.068 501.214 166.889C487.269 157.514 468.942 146.52 451.789 154.306Z" fill="black"/>
<path d="M445.332 229.23C446.996 231.512 449.008 233.521 451.294 235.182C456.97 239.099 464.256 239.628 471.148 239.843C476.681 240.009 483.024 239.694 486.494 235.384C488.056 233.444 488.76 230.968 489.392 228.557C493.292 213.754 496.062 198.677 497.679 183.455L513.466 183.509C520.299 212.717 519.738 243.081 519.142 273.075L518.277 316.814L508.106 315.737C483.954 313.183 459.766 310.629 435.483 310.189C421.255 309.928 407.023 310.397 392.843 311.594L414.992 245.843C417.865 237.295 420.769 228.634 421.443 219.652C422.414 206.622 418.754 192.866 423.827 180.812C424.233 179.842 424.745 178.836 425.67 178.33C426.594 177.824 427.762 177.949 428.823 178.086C430.827 178.354 436.95 178.086 438.404 179.366C440.551 181.223 439.132 181.503 438.375 184.497C437.021 189.854 435.739 194.812 435.757 200.396C435.775 210.533 438.923 221.235 445.332 229.23Z" fill="#1769AA"/>
<path d="M537.779 383.047C540.438 379.523 542.944 375.874 545.297 372.1C544.105 369.553 542.793 367.065 541.75 364.463C540.152 360.475 539.234 356.249 538.328 352.052C538.018 350.624 537.71 349.195 537.404 347.767C534.065 332.225 530.929 316.463 530.279 300.707C530.22 299.397 530.182 298.088 530.166 296.778C530.166 296.587 530.166 296.403 530.166 296.183C530.166 294.748 530.166 293.314 530.166 291.885C530.237 288.314 530.464 284.712 530.875 281.129C530.953 280.427 531.042 279.724 531.138 279.022C531.138 278.867 531.173 278.718 531.197 278.563L571.739 277.087L575.149 276.962C577.492 276.879 579.972 276.748 581.904 275.421C585.153 273.194 585.535 268.629 585.481 264.706C585.284 254.792 584.158 244.917 582.119 235.212C580.581 227.914 578.387 220.456 573.462 214.848C569.42 210.241 563.565 206.89 561.461 201.158C560.679 199.027 560.483 196.687 559.469 194.652C558.456 192.616 556.78 191.122 555.2 189.55C549.64 184.049 545.027 177.67 541.547 170.669C539.133 165.812 536.515 160.455 533.362 157.098C533.207 156.925 533.051 156.764 532.891 156.61C530.208 153.961 527.137 152.8 523.5 154.604C522.846 154.931 522.224 155.318 521.64 155.758C520.344 156.747 519.159 157.873 518.105 159.116C514.431 163.333 511.208 167.921 508.488 172.806C506.575 176.245 504.933 179.828 503.575 183.521C502.504 186.438 501.618 189.42 500.922 192.449C500.409 194.693 500.004 196.961 499.682 199.235C498.49 207.783 498.49 216.497 498.657 225.152C498.836 233.105 499.187 241.075 499.909 248.998C500.088 250.914 500.286 252.829 500.505 254.742C500.942 258.524 501.483 262.293 502.127 266.051C502.383 267.486 502.645 268.92 502.937 270.349C503.009 270.73 503.086 271.111 503.164 271.486L503.2 271.647C503.987 274.967 504.598 278.327 505.03 281.712C505.078 282.137 505.114 282.56 505.137 282.98C505.238 284.926 505.222 286.876 505.09 288.82C504.953 291.117 504.738 293.409 504.631 295.707C504.631 296.111 504.631 296.51 504.589 296.897C504.559 298.058 504.589 299.218 504.589 300.379C504.71 303.156 505.041 305.92 505.579 308.647C506.584 313.72 508.321 318.62 510.736 323.195C510.962 323.624 511.195 324.046 511.427 324.463C514.45 329.856 518.266 334.802 521.062 340.32C523.474 345.286 525.276 350.524 526.428 355.922C526.825 357.703 527.203 359.489 527.56 361.279C528.115 364.136 528.61 367.017 529.117 369.898C529.164 370.184 529.218 370.493 529.272 370.755C529.945 374.577 530.655 378.38 531.567 382.112C532.098 384.285 532.694 386.428 533.391 388.535L537.779 383.047Z" fill="#464353"/>
<path d="M529.814 336.129C529.814 336.665 529.778 337.2 529.755 337.742C529.648 340.354 529.407 342.958 529.033 345.546C528.539 349.077 527.674 352.547 526.452 355.897C525.641 358.1 524.611 360.216 523.375 362.213C522.279 363.985 520.996 365.636 519.548 367.135C515.97 370.85 510.819 372.034 505.835 373.6C503.542 374.262 501.325 375.166 499.223 376.296C498.847 376.504 498.478 376.731 498.12 376.969L491.884 381.094C489.94 382.373 487.955 383.701 486.619 385.6C486.401 385.923 486.201 386.259 486.023 386.606C485.179 388.354 484.562 390.202 484.187 392.106C480.944 405.594 477.694 419.094 475.47 432.785C475.321 433.69 475.178 434.6 475.023 435.511L474.97 435.797C474.943 435.729 474.911 435.663 474.874 435.6C458.92 445.231 442.375 453.922 425.33 460.88L421.627 429.928C421.242 427.411 421.114 424.863 421.246 422.32C421.598 418.314 423.231 414.517 423.672 410.523C424.09 406.612 423.35 402.666 421.544 399.171C420.84 397.814 419.958 396.481 419.797 394.963C419.636 393.445 420.513 392.058 422.039 391.903C423.231 390.582 423.327 388.778 422.975 386.993C422.788 386.06 422.508 385.149 422.14 384.272C421.127 381.784 419.845 379.076 420.715 376.534C420.946 376.073 421.048 375.56 421.013 375.046C421.02 375.015 421.02 374.982 421.013 374.951C420.811 374.284 420.018 373.992 419.606 373.427C418.831 372.373 419.606 370.939 420.083 369.725C420.547 368.42 420.816 367.054 420.882 365.671C420.948 364.903 420.996 364.129 421.079 363.367C421.195 362.336 421.38 361.314 421.633 360.308C423.082 354.606 426.565 349.627 431.429 346.308C433.748 344.748 436.33 343.611 438.697 342.141C441.121 340.509 443.436 338.719 445.625 336.784C450.875 332.419 456.334 328.303 462.002 324.438C468.097 320.283 474.41 316.456 480.914 312.974C482.305 312.224 483.696 311.494 485.087 310.783C486.601 309.99 488.126 309.238 489.66 308.527C494.573 306.188 500.147 307.063 505.579 308.623C507.856 309.271 510.104 310.045 512.274 310.748C514.393 311.435 516.432 312.35 518.355 313.474C523.167 316.295 527.143 320.462 528.795 325.724C528.797 325.758 528.797 325.791 528.795 325.825C529.844 329.123 529.91 332.659 529.814 336.129Z" fill="#F86D70"/>
<path opacity="0.1" d="M529.814 336.129C529.814 336.665 529.778 337.2 529.755 337.742C529.648 340.354 529.407 342.958 529.033 345.546C528.539 349.077 527.674 352.547 526.452 355.897C525.641 358.1 524.611 360.216 523.375 362.213C522.279 363.985 520.996 365.636 519.548 367.135C515.97 370.85 510.819 372.034 505.835 373.6C503.542 374.262 501.325 375.166 499.223 376.296C498.847 376.504 498.478 376.731 498.12 376.969L491.884 381.094C489.94 382.373 487.955 383.701 486.619 385.6C486.401 385.923 486.201 386.259 486.023 386.606C485.179 388.354 484.562 390.202 484.187 392.106C480.944 405.594 477.694 419.094 475.47 432.785C475.321 433.69 475.178 434.6 475.023 435.511L474.97 435.797C474.943 435.729 474.911 435.663 474.874 435.6C458.92 445.231 442.375 453.922 425.33 460.88L421.627 429.928C421.242 427.411 421.114 424.863 421.246 422.32C421.598 418.314 423.231 414.517 423.672 410.523C424.09 406.612 423.35 402.666 421.544 399.171C420.84 397.814 419.958 396.481 419.797 394.963C419.636 393.445 420.513 392.058 422.039 391.903C423.231 390.582 423.327 388.778 422.975 386.993C422.788 386.06 422.508 385.149 422.14 384.272C421.127 381.784 419.845 379.076 420.715 376.534C420.946 376.073 421.048 375.56 421.013 375.046C421.02 375.015 421.02 374.982 421.013 374.951C420.811 374.284 420.018 373.992 419.606 373.427C418.831 372.373 419.606 370.939 420.083 369.725C420.547 368.42 420.816 367.054 420.882 365.671C420.948 364.903 420.996 364.129 421.079 363.367C421.195 362.336 421.38 361.314 421.633 360.308C423.082 354.606 426.565 349.627 431.429 346.308C433.748 344.748 436.33 343.611 438.697 342.141C441.121 340.509 443.436 338.719 445.625 336.784C450.875 332.419 456.334 328.303 462.002 324.438C468.097 320.283 474.41 316.456 480.914 312.974C482.305 312.224 483.696 311.494 485.087 310.783C486.601 309.99 488.126 309.238 489.66 308.527C494.573 306.188 500.147 307.063 505.579 308.623C507.856 309.271 510.104 310.045 512.274 310.748C514.393 311.435 516.432 312.35 518.355 313.474C523.167 316.295 527.143 320.462 528.795 325.724C528.797 325.758 528.797 325.791 528.795 325.825C529.844 329.123 529.91 332.659 529.814 336.129Z" fill="black"/>
<path d="M473.205 237.532C473.144 237.394 473.057 237.27 472.947 237.166C472.837 237.062 472.707 236.982 472.566 236.93C472.424 236.877 472.273 236.854 472.122 236.862C471.971 236.869 471.824 236.907 471.688 236.973C471.552 237.038 471.431 237.131 471.332 237.245C471.232 237.359 471.157 237.491 471.111 237.635C471.064 237.778 471.047 237.929 471.061 238.08C471.074 238.23 471.118 238.376 471.189 238.509L470.593 238.8L488.372 275.182L491.586 273.616L473.807 237.211L473.205 237.532Z" fill="#3F3D56"/>
<path d="M495.431 199.425C516.505 199.425 533.588 182.369 533.588 161.329C533.588 140.289 516.505 123.233 495.431 123.233C474.358 123.233 457.274 140.289 457.274 161.329C457.274 182.369 474.358 199.425 495.431 199.425Z" fill="#FBBEBE"/>
<path d="M545.792 137.745C545.614 134.717 545.163 131.711 544.445 128.763C542.203 119.138 538.107 109.662 531.054 102.751C530.619 101.061 530.1 99.3944 529.498 97.7567C529.487 97.7162 529.473 97.6764 529.456 97.6377C527.352 91.8685 524.311 86.4848 520.454 81.703C518.218 78.9291 515.32 76.191 511.755 76.0838C510.753 76.0481 509.692 76.2207 508.774 75.7624C508.099 75.3265 507.53 74.7447 507.111 74.06C505.345 71.8325 503.003 70.1289 500.339 69.1333C497.674 68.1378 494.788 67.888 491.991 68.4111L491.621 68.4885C491.413 68.5302 491.204 68.5778 491.025 68.6314C490.846 68.6849 490.524 68.7742 490.274 68.8516C490.548 69.304 490.816 69.7623 491.079 70.2266C491.786 71.4846 492.442 72.7703 493.046 74.0838C493.547 75.1791 494.01 76.2922 494.435 77.4231C488.33 78.1196 483.358 82.447 478.815 86.5661L468.119 96.2567C468.1 96.273 468.082 96.2909 468.065 96.3103L467.755 96.6079C467.678 96.6853 467.6 96.7627 467.529 96.846C467.5 96.8708 467.474 96.8988 467.451 96.9293C467.362 97.0246 467.278 97.1258 467.195 97.227C467.046 97.4144 466.913 97.6135 466.796 97.8222C466.737 97.9116 466.685 98.0051 466.641 98.102C466.624 98.1305 466.61 98.1604 466.599 98.1912C466.56 98.2724 466.526 98.3559 466.497 98.4413C466.495 98.453 466.495 98.4652 466.497 98.477C466.481 98.5258 466.467 98.5754 466.456 98.6258C466.334 99.0447 466.37 99.4935 466.557 99.8877L473.61 99.9651H474.439C474.475 100.906 474.504 101.852 474.54 102.792C473.421 103.629 472.347 104.523 471.321 105.471C470.202 106.505 469.153 107.61 468.179 108.781C461.817 116.453 458.496 126.364 458.163 136.341C458.163 136.65 458.163 136.936 458.163 137.257C458.163 138.168 458.163 139.079 458.163 139.983C458.163 140.579 458.216 141.174 458.264 141.769C458.267 142.545 458.472 143.306 458.86 143.978C458.911 144.053 458.967 144.124 459.027 144.192C459.385 144.579 459.814 144.895 460.291 145.12L460.804 145.37C461.06 145.495 461.305 145.614 461.543 145.751C463.791 147.019 465.12 149.466 467.165 151.037C467.284 151.126 467.404 151.216 467.523 151.293L467.791 151.472L467.958 151.579L468.185 151.71C468.333 151.799 468.486 151.881 468.644 151.954L468.93 152.097H468.978C469.216 152.204 469.455 152.305 469.699 152.394L470.039 152.513L470.14 152.549C470.236 152.579 470.337 152.615 470.438 152.638C470.641 152.698 470.84 152.751 471.035 152.799L471.631 152.93C471.863 152.972 472.102 153.013 472.34 153.043L472.692 153.091L473.05 153.126C473.618 153.178 474.19 153.208 474.767 153.216C476.575 153.205 478.382 153.079 480.174 152.841L495.389 151.055C498.841 150.656 502.365 150.257 505.769 150.96C508.655 151.555 511.314 152.924 514.116 153.894C514.748 154.115 515.38 154.317 516.018 154.49C516.25 154.555 516.489 154.626 516.727 154.686L517.055 154.769L517.818 154.954C518.093 155.019 518.367 155.085 518.641 155.138C519.029 155.222 519.41 155.293 519.798 155.365C520.06 155.418 520.328 155.46 520.597 155.507H520.65L521.414 155.626H521.598L522.165 155.704C522.439 155.746 522.713 155.781 522.993 155.811C523.602 155.886 524.21 155.952 524.818 156.007C525.802 156.103 526.791 156.174 527.799 156.234L528.789 156.293L529.778 156.341L532.759 156.472H532.89H533.308C534.547 156.558 535.792 156.494 537.016 156.281C537.231 156.24 537.439 156.192 537.648 156.132C537.857 156.073 538.03 156.013 538.244 155.942C540.48 155.085 542.114 153.115 543.246 151.007C543.485 150.561 543.705 150.115 543.908 149.656C544.111 149.198 544.296 148.734 544.463 148.269C544.671 147.674 544.85 147.109 545.005 146.513C545.053 146.353 545.095 146.192 545.13 146.025C545.166 145.859 545.25 145.531 545.297 145.281C545.446 144.597 545.56 143.906 545.643 143.21C545.643 142.989 545.697 142.763 545.721 142.543C545.774 141.948 545.816 141.394 545.84 140.811C545.84 140.37 545.84 139.924 545.84 139.477C545.834 138.995 545.792 138.358 545.792 137.745ZM530.506 102.209C530.023 101.757 529.528 101.322 529.027 100.912C529.584 101.263 530.081 101.701 530.5 102.209H530.506Z" fill="#464353"/>
<path d="M422.2 159.234C417.71 158.681 413.257 156.716 408.827 157.681C406.055 158.276 403.67 159.996 401.452 161.764C393.198 168.369 386.18 176.379 380.722 185.425C379.797 186.778 379.146 188.299 378.808 189.901C378.522 191.759 379.029 193.645 379.631 195.425C383.709 207.455 392.431 217.503 396.402 229.569C400.576 242.259 399.127 256.128 396.05 269.129C392.237 285.178 386.039 300.566 377.664 314.784C376.526 316.898 375.102 318.845 373.431 320.57C371.26 322.653 368.345 324.141 367.057 326.867C366.461 328.058 366.288 329.415 365.865 330.689C364.672 334.26 361.787 337.32 361.506 341.088C361.298 343.963 362.663 346.683 363.492 349.421C364.889 354.125 364.741 359.153 363.069 363.767C360.046 372.041 352.14 379.564 354.436 388.07C359.557 386.6 365.233 384.689 367.647 379.945C368.5 378.267 368.923 376.267 370.36 375.041C373.228 372.606 378.111 374.808 381.157 372.57C383.459 370.868 383.542 367.38 382.517 364.701C381.491 362.023 379.726 359.665 378.939 356.909C377.568 351.939 379.762 346.683 379.357 341.546C379.166 339.165 378.433 336.885 378.379 334.516C378.278 329.915 380.829 325.588 384.222 322.463C387.614 319.337 391.805 317.266 395.931 315.224L411.528 307.486C417.186 304.689 423.386 301.278 425.24 295.254C425.944 292.998 425.95 290.593 425.986 288.236C426.516 252.218 435.555 216.926 444.539 182.038C445.934 176.633 447.353 171.205 449.428 166.014C451.503 160.824 455.563 156.657 457.632 151.835C445.63 150.431 434.666 160.794 422.2 159.234Z" fill="#464353"/>
<path d="M508.178 385.195C509.555 393.529 510.396 402.041 511.052 410.511C500.32 419.392 488.766 427.118 477.026 434.285C476.359 434.696 475.685 435.101 475.011 435.476L474.958 435.761C474.931 435.694 474.899 435.628 474.862 435.565C473.951 433.6 472.359 432.031 470.379 431.148C465.979 421.922 461.583 412.696 457.191 403.469C454.806 398.487 452.421 393.457 451.229 388.082C451.229 387.969 451.175 387.85 451.157 387.737C450.251 383.57 450.042 379.243 449.44 375.022C449.135 372.605 448.59 370.225 447.813 367.915C447.097 365.862 446.113 363.868 445.243 361.862C444.17 359.385 443.269 356.879 443.228 354.207C443.228 353.355 443.281 352.421 442.864 351.707C442.418 351.092 441.867 350.56 441.236 350.135C440.449 349.438 439.853 348.553 439.502 347.563C439.152 346.573 439.059 345.51 439.233 344.474C435.656 344.659 433.641 348.498 432.204 351.754C430.898 354.939 429.182 357.94 427.101 360.683C425.583 362.642 423.654 364.245 421.449 365.379C421.252 365.475 421.055 365.57 420.852 365.653C415.874 367.844 410.061 367.07 404.665 366.082C399.95 365.219 395.073 364.147 391.281 361.219L390.875 360.897C389.753 359.966 388.751 358.898 387.894 357.719C384.717 353.385 383.31 347.677 382.529 342.242C382.457 341.73 382.385 341.218 382.32 340.707C381.778 336.867 381.628 332.981 381.873 329.111C381.944 328.159 382.046 327.206 382.171 326.26C382.254 325.665 382.344 325.022 382.445 324.403C382.442 324.385 382.442 324.367 382.445 324.349C382.6 323.367 382.767 322.379 382.934 321.373C383.53 317.998 384.126 314.534 385.915 311.629C387.092 309.821 388.577 308.234 390.303 306.938C390.947 306.432 391.609 305.95 392.276 305.486C393.362 304.736 394.476 304.022 395.609 303.349C398.459 301.646 401.451 300.192 404.552 299.004C405.291 298.718 406.043 298.45 406.794 298.194C409.714 297.157 412.857 296.909 415.904 297.474C418.604 297.864 421.333 298.023 424.06 297.95C431.053 297.813 438.077 296.48 445.058 295.617C454.752 294.426 465.168 294.283 473.622 299.188C474.028 299.42 474.421 299.664 474.814 299.92C478.988 302.647 482.35 306.468 485.063 310.736C485.659 311.635 486.178 312.557 486.691 313.492C487.873 315.637 488.941 317.842 489.892 320.099C490.455 321.207 490.759 322.428 490.781 323.671C490.767 323.907 490.735 324.142 490.685 324.373C490.524 325.218 490.202 326.04 490.089 326.897C489.714 330.141 492.474 332.849 493.505 335.939C494.173 337.951 494.102 340.105 494.477 342.224C495.02 345.201 496.48 347.879 497.792 350.558C499.865 354.87 501.638 359.319 503.098 363.873C504.136 367.046 505.024 370.266 505.805 373.516C506.059 374.56 506.3 375.606 506.526 376.653C507.176 379.534 507.707 382.356 508.178 385.195Z" fill="#F86D70"/>
<path d="M571.745 297.045V301.212L570.976 301.2L570.117 301.188L560.53 301.069L536.909 300.759L530.279 300.676L528.562 300.652L518.611 300.527L504.589 300.343L474.838 299.956L423.213 299.289L404.582 299.051L397.106 298.956L390.226 298.867L385.939 298.807L381.879 298.754L351.777 298.367L343.43 298.259L341.611 298.236L340.431 295.194L331.851 273.104L330.283 269.069L331.476 264.307L336.842 267.878L340.145 268.289L394.524 275.039L404.731 276.307L426.373 278.997L447.574 281.628L455.885 282.658L505.066 288.765L518.808 290.474L530.184 291.884L570.63 296.908L571.745 297.045Z" fill="#3F3D56"/>
<path d="M331.476 264.307L342.207 292.283L571.745 297.045V266.688L331.476 264.307Z" fill="#504F60"/>
<path d="M343.4 295.26L345.189 466.095L353.535 464.905L351.747 295.26H343.4Z" fill="#3F3D56"/>
<path d="M570.976 301.194H570.117C568.727 311.845 566.427 322.357 563.243 332.617L560.53 301.069L560.417 299.724L570.445 298.569L570.779 298.533L570.976 301.194Z" fill="#3F3D56"/>
<path d="M538.358 280.974L451.014 282.759L423.887 273.831L496.623 269.664L538.358 280.974Z" fill="white"/>
<path d="M428.794 246.259C427.868 246.614 427.047 247.197 426.409 247.955C425.91 248.777 425.606 249.701 425.521 250.658L424.054 259.39C423.83 260.189 423.87 261.038 424.167 261.813C424.549 262.545 425.658 262.926 426.212 262.319C426.141 264.027 426.29 265.848 427.285 267.241C428.281 268.634 430.368 269.366 431.775 268.396C431.995 268.755 432.292 269.062 432.643 269.295C432.994 269.528 433.392 269.683 433.809 269.747C434.226 269.812 434.651 269.785 435.057 269.669C435.462 269.553 435.838 269.35 436.157 269.075C435.31 269.36 435.251 270.652 435.853 271.307C436.527 271.901 437.387 272.244 438.285 272.277C448.762 273.751 459.444 272.41 469.228 268.39C470.152 268.009 467.72 256.634 467.475 255.467C466.879 252.723 466.581 249.372 464.262 247.527C458.717 243.11 448.868 242.241 442.113 242.765C437.498 243.113 432.985 244.297 428.794 246.259Z" fill="#FBBEBE"/>
<path opacity="0.1" d="M517.663 247.581C496.099 247.991 474.087 248.343 453.506 241.896C455.472 249.502 455.336 257.498 453.113 265.033L553.942 273.367C558.217 273.718 575.942 275.718 580.11 274.712C584.277 273.706 545.142 260.837 546.722 256.855C551.069 245.884 565.628 239.456 555.141 239.045C541.905 238.521 531.001 247.331 517.663 247.581Z" fill="black"/>
<path d="M518.26 248.771C496.695 249.182 474.683 249.533 454.102 243.087C456.068 250.693 455.932 258.689 453.709 266.224L554.539 274.557C558.813 274.908 576.538 276.938 580.706 275.903C584.873 274.867 583.895 269.766 585.475 265.783C589.822 254.813 566.224 240.646 555.737 240.235C542.501 239.712 531.597 248.521 518.26 248.771Z" fill="#464353"/>
<path d="M483.972 250.426C484.898 250.78 485.719 251.364 486.357 252.122C486.855 252.944 487.161 253.868 487.251 254.825L488.718 263.557C488.939 264.356 488.899 265.205 488.605 265.98C488.223 266.712 487.108 267.093 486.56 266.486C486.625 268.194 486.482 270.015 485.486 271.408C484.491 272.801 482.404 273.533 480.991 272.563C480.77 272.922 480.474 273.229 480.123 273.462C479.772 273.695 479.374 273.85 478.957 273.914C478.54 273.979 478.114 273.952 477.709 273.836C477.303 273.72 476.928 273.517 476.609 273.242C477.456 273.527 477.521 274.819 476.919 275.474C476.242 276.068 475.381 276.411 474.481 276.444C464.005 277.919 453.326 276.577 443.544 272.557C442.619 272.176 445.046 260.801 445.296 259.634C445.893 256.89 446.191 253.539 448.51 251.694C454.049 247.277 463.904 246.408 470.659 246.932C475.272 247.281 479.783 248.465 483.972 250.426Z" fill="#FBBEBE"/>
<path d="M341.48 231.467C339.501 234.014 337.515 236.616 336.24 239.586C333.801 245.253 334.159 251.669 334.564 257.824C334.677 259.61 334.821 261.431 335.757 262.914C336.566 264.033 337.633 264.942 338.869 265.562C344.032 268.491 350.077 269.366 355.98 270.021C365.018 271.021 374.088 271.63 383.19 271.848C405.739 272.396 428.633 270.557 450.597 275.658C447.878 271.533 447.884 266.074 449.404 261.372C450.925 256.67 453.852 252.574 456.72 248.544C446.668 245.366 435.889 250.33 425.36 249.836C414.55 249.33 404.546 243.092 393.725 243.098C391.4 243.098 389.033 243.39 386.773 242.83C384.514 242.271 382.326 240.568 382.117 238.253C385.003 238.901 387.739 236.437 388.932 233.735C390.124 231.032 390.339 227.979 391.495 225.258C394.375 218.49 402.155 215.354 406.997 209.782C407.76 208.901 408.481 207.859 408.457 206.693C408.344 205.704 407.927 204.775 407.265 204.032C403.241 198.675 397.177 195.699 392.139 191.532C390.386 190.079 386.851 184.603 384.884 184.097C381.235 183.163 378.14 188.425 375.768 190.99C363.788 203.986 352.359 217.479 341.48 231.467Z" fill="#464353"/>
<path opacity="0.07" d="M461.364 229.955C462.875 231.074 464.219 232.403 465.353 233.902C465.918 234.654 466.321 235.516 466.535 236.432C466.75 237.348 466.771 238.298 466.599 239.223C466.414 237.498 466.799 235.76 467.696 234.273C468.592 232.787 469.951 231.634 471.565 230.991L461.364 229.955Z" fill="black"/>
<g opacity="0.1">
<path opacity="0.1" d="M494.43 73.8576C493.728 71.9972 492.92 70.1787 492.009 68.4111C491.42 68.5242 490.839 68.6732 490.268 68.8576C491.291 70.5538 492.213 72.3089 493.028 74.1136C493.488 73.9945 493.953 73.9112 494.43 73.8576Z" fill="black"/>
<path opacity="0.1" d="M529.021 97.3281C529.182 97.4591 529.337 97.6079 529.491 97.7448C529.48 97.7062 529.466 97.6684 529.45 97.6317C529.315 97.5325 529.172 97.4313 529.021 97.3281Z" fill="black"/>
<path opacity="0.1" d="M473.598 99.9474C473.908 99.7033 474.194 99.4474 474.528 99.2093L474.433 96.3819L468.066 96.3164C467.034 97.2628 465.937 98.62 466.545 99.8879L473.598 99.9474Z" fill="black"/>
<path opacity="0.1" d="M543.211 147.543C542.078 149.65 540.444 151.627 538.209 152.478C536.486 153.133 534.59 153.073 532.747 152.99C526.463 152.734 520.072 152.454 514.134 150.377C511.356 149.4 508.697 148.037 505.787 147.436C502.383 146.734 498.859 147.133 495.407 147.537L480.192 149.323C475.703 149.847 470.701 150.24 467.118 147.49C465.067 145.918 463.743 143.472 461.495 142.21C460.547 141.674 459.421 141.329 458.807 140.424C458.419 139.752 458.213 138.991 458.21 138.216C458.163 137.591 458.133 136.966 458.109 136.341C458.044 138.157 458.078 139.975 458.21 141.787C458.213 142.563 458.419 143.324 458.807 143.996C459.403 144.894 460.547 145.24 461.495 145.781C463.743 147.043 465.073 149.49 467.118 151.061C470.695 153.811 475.703 153.442 480.192 152.895L495.407 151.109C498.859 150.704 502.383 150.305 505.787 151.008C508.673 151.603 511.332 152.972 514.134 153.948C520.096 156.026 526.463 156.329 532.747 156.561C534.59 156.639 536.486 156.704 538.209 156.049C540.444 155.198 542.078 153.222 543.211 151.115C545.405 147.037 546.019 142.412 545.786 137.752C545.659 141.165 544.779 144.508 543.211 147.543Z" fill="black"/>
</g>
<path opacity="0.1" d="M494.257 77.6855L502.603 85.4237C502.603 85.4237 495.449 82.4475 494.257 77.6855Z" fill="black"/>
</g>
<defs>
<clipPath id="clip0">
<rect width="586" height="478" fill="white"/>
</clipPath>
</defs>
</svg>
