<svg width="290" height="235" viewBox="0 0 290 235" fill="none" xmlns="http://www.w3.org/2000/svg">
<g clip-path="url(#clip0)">
<path d="M185.384 80.2567C183.531 80.2567 181.719 79.7058 180.178 78.6735C178.637 77.6412 177.436 76.174 176.726 74.4574C176.017 72.7408 175.832 70.8518 176.193 69.0295C176.555 67.2071 177.447 65.5332 178.758 64.2194C180.068 62.9055 181.738 62.0108 183.556 61.6483C185.374 61.2858 187.258 61.4718 188.97 62.1829C190.683 62.8939 192.146 64.098 193.176 65.643C194.206 67.1879 194.755 69.0042 194.755 70.8623C194.752 73.353 193.764 75.7409 192.007 77.5021C190.251 79.2633 187.869 80.2539 185.384 80.2567ZM185.384 62.3581C183.706 62.3581 182.066 62.8569 180.671 63.7913C179.276 64.7258 178.189 66.0539 177.547 67.6079C176.905 69.1618 176.737 70.8717 177.064 72.5213C177.391 74.171 178.199 75.6863 179.386 76.8756C180.572 78.0649 182.084 78.8749 183.729 79.203C185.375 79.5311 187.08 79.3627 188.63 78.7191C190.18 78.0754 191.505 76.9854 192.437 75.5869C193.37 74.1884 193.867 72.5442 193.867 70.8623C193.865 68.6076 192.97 66.446 191.38 64.8517C189.789 63.2574 187.633 62.3607 185.384 62.3581Z" fill="#E6E6E6"/>
<path d="M184.499 74.2761C184.299 74.2765 184.103 74.2113 183.942 74.0906L183.932 74.0831L181.834 72.4742C181.638 72.3233 181.51 72.1006 181.477 71.8548C181.445 71.6091 181.511 71.3605 181.662 71.1637C181.812 70.967 182.034 70.8383 182.28 70.8058C182.525 70.7734 182.773 70.8398 182.969 70.9907L184.328 72.0353L187.539 67.8356C187.613 67.7382 187.706 67.6565 187.812 67.5951C187.918 67.5337 188.035 67.4938 188.157 67.4778C188.278 67.4617 188.401 67.4698 188.519 67.5015C188.638 67.5332 188.748 67.5879 188.846 67.6626L188.846 67.6628L188.826 67.6905L188.846 67.6628C189.042 67.8137 189.171 68.0365 189.203 68.2821C189.235 68.5277 189.169 68.7762 189.019 68.9729L185.242 73.9105C185.154 74.0243 185.042 74.1163 184.913 74.1796C184.785 74.2428 184.643 74.2754 184.5 74.275L184.499 74.2761Z" fill="#E6E6E6"/>
<path d="M212.198 80.2567C210.344 80.2567 208.533 79.7058 206.992 78.6735C205.45 77.6412 204.249 76.174 203.54 74.4574C202.831 72.7408 202.645 70.8518 203.007 69.0295C203.368 67.2071 204.261 65.5332 205.572 64.2194C206.882 62.9055 208.552 62.0108 210.37 61.6483C212.187 61.2858 214.072 61.4718 215.784 62.1829C217.496 62.8939 218.96 64.098 219.99 65.643C221.019 67.1879 221.569 69.0042 221.569 70.8623C221.566 73.353 220.578 75.7409 218.821 77.5021C217.064 79.2633 214.682 80.254 212.198 80.2567ZM212.198 62.3581C210.52 62.3581 208.88 62.8569 207.485 63.7913C206.09 64.7258 205.003 66.0539 204.361 67.6079C203.719 69.1618 203.551 70.8717 203.878 72.5213C204.205 74.171 205.013 75.6863 206.199 76.8756C207.386 78.0649 208.897 78.8749 210.543 79.203C212.188 79.5311 213.894 79.3627 215.444 78.7191C216.994 78.0754 218.319 76.9854 219.251 75.5869C220.183 74.1884 220.681 72.5442 220.681 70.8623C220.678 68.6076 219.784 66.446 218.193 64.8517C216.603 63.2574 214.447 62.3606 212.198 62.3581Z" fill="#E6E6E6"/>
<path d="M215.571 74.1132C215.458 74.2258 215.306 74.289 215.147 74.289C214.988 74.289 214.835 74.2258 214.723 74.1132L212.474 71.8589C212.424 71.8087 212.356 71.7805 212.285 71.7805C212.214 71.7805 212.146 71.8086 212.096 71.8588L209.847 74.1131C209.735 74.2259 209.582 74.2893 209.423 74.2893C209.264 74.2893 209.111 74.2259 208.999 74.1131C208.886 74.0003 208.823 73.8474 208.823 73.6879C208.823 73.5284 208.886 73.3754 208.999 73.2626L211.248 71.0083C211.298 70.9581 211.326 70.89 211.326 70.8189C211.326 70.7479 211.298 70.6798 211.248 70.6295L208.999 68.3751C208.886 68.2623 208.823 68.1094 208.823 67.9499C208.823 67.7904 208.886 67.6375 208.999 67.5247C209.111 67.412 209.264 67.3486 209.423 67.3486C209.582 67.3486 209.735 67.412 209.847 67.5247L212.096 69.7792C212.146 69.8293 212.214 69.8575 212.285 69.8575C212.356 69.8575 212.424 69.8293 212.474 69.7791L214.722 67.5248C214.835 67.412 214.988 67.3487 215.147 67.3487C215.306 67.3487 215.458 67.412 215.571 67.5248C215.683 67.6376 215.747 67.7906 215.747 67.95C215.747 68.1095 215.683 68.2625 215.571 68.3753L213.322 70.6296C213.272 70.6799 213.244 70.748 213.244 70.8191C213.244 70.8901 213.272 70.9583 213.322 71.0086L215.571 73.2629C215.683 73.3757 215.746 73.5286 215.746 73.688C215.746 73.8474 215.683 74.0003 215.571 74.1132Z" fill="#E6E6E6"/>
<path d="M102.613 73.1382H29.5645C28.623 73.1371 27.7205 72.7614 27.0551 72.0937C26.3898 71.4259 26.0161 70.5207 26.0161 69.5769C26.0161 68.6331 26.3898 67.7279 27.0551 67.0601C27.7205 66.3924 28.623 66.0167 29.5645 66.0156H102.613C103.555 66.0167 104.457 66.3924 105.122 67.0601C105.788 67.7279 106.162 68.6331 106.162 69.5769C106.162 70.5207 105.788 71.4259 105.122 72.0937C104.457 72.7614 103.555 73.1371 102.613 73.1382Z" fill="#1769AA"/>
<path d="M147.713 76.1745H22.2963C22.1731 76.1745 22.055 76.1254 21.9678 76.0381C21.8807 75.9508 21.8318 75.8323 21.8318 75.7088C21.8318 75.5853 21.8807 75.4669 21.9678 75.3796C22.055 75.2922 22.1731 75.2432 22.2963 75.2432H147.713C147.836 75.2432 147.954 75.2922 148.042 75.3796C148.129 75.4669 148.178 75.5853 148.178 75.7088C148.178 75.8323 148.129 75.9508 148.042 76.0381C147.954 76.1254 147.836 76.1745 147.713 76.1745Z" fill="#3F3D56"/>
<path d="M185.384 110.223C183.531 110.223 181.719 109.672 180.178 108.639C178.637 107.607 177.436 106.14 176.726 104.423C176.017 102.707 175.832 100.818 176.193 98.9953C176.555 97.173 177.447 95.499 178.758 94.1852C180.068 92.8713 181.738 91.9766 183.556 91.6141C185.374 91.2516 187.258 91.4377 188.97 92.1487C190.683 92.8598 192.146 94.0639 193.176 95.6088C194.206 97.1537 194.755 98.97 194.755 100.828C194.752 103.319 193.764 105.707 192.007 107.468C190.251 109.229 187.869 110.22 185.384 110.223ZM185.384 92.3239C183.706 92.3239 182.066 92.8227 180.671 93.7571C179.276 94.6916 178.189 96.0198 177.547 97.5737C176.905 99.1276 176.737 100.838 177.064 102.487C177.391 104.137 178.199 105.652 179.386 106.841C180.572 108.031 182.084 108.841 183.729 109.169C185.375 109.497 187.08 109.329 188.63 108.685C190.18 108.041 191.505 106.951 192.437 105.553C193.37 104.154 193.867 102.51 193.867 100.828C193.865 98.5734 192.97 96.4118 191.38 94.8176C189.789 93.2233 187.633 92.3265 185.384 92.3239Z" fill="#E6E6E6"/>
<path d="M184.499 104.242C184.299 104.242 184.103 104.177 183.942 104.056L183.932 104.049L181.834 102.44C181.638 102.289 181.51 102.066 181.477 101.821C181.445 101.575 181.511 101.326 181.662 101.13C181.812 100.933 182.034 100.804 182.28 100.772C182.525 100.739 182.773 100.806 182.969 100.956L184.328 102.001L187.539 97.8014C187.613 97.704 187.706 97.6223 187.812 97.5609C187.918 97.4995 188.035 97.4597 188.157 97.4436C188.278 97.4275 188.401 97.4356 188.519 97.4673C188.638 97.499 188.748 97.5537 188.846 97.6284L188.846 97.6286L188.826 97.6563L188.846 97.6286C189.042 97.7795 189.171 98.0023 189.203 98.2479C189.235 98.4935 189.169 98.742 189.019 98.9387L185.242 103.876C185.154 103.99 185.042 104.082 184.913 104.145C184.785 104.209 184.643 104.241 184.5 104.241L184.499 104.242Z" fill="#E6E6E6"/>
<path d="M212.198 110.223C210.344 110.223 208.533 109.672 206.992 108.639C205.45 107.607 204.249 106.14 203.54 104.423C202.831 102.707 202.645 100.818 203.007 98.9953C203.368 97.173 204.261 95.499 205.572 94.1852C206.882 92.8713 208.552 91.9766 210.37 91.6141C212.187 91.2516 214.072 91.4377 215.784 92.1487C217.496 92.8598 218.96 94.0639 219.99 95.6088C221.019 97.1537 221.569 98.97 221.569 100.828C221.566 103.319 220.578 105.707 218.821 107.468C217.064 109.229 214.682 110.22 212.198 110.223ZM212.198 92.3239C210.52 92.3239 208.88 92.8227 207.485 93.7571C206.09 94.6916 205.003 96.0198 204.361 97.5737C203.719 99.1276 203.551 100.838 203.878 102.487C204.205 104.137 205.013 105.652 206.199 106.841C207.386 108.031 208.897 108.841 210.543 109.169C212.188 109.497 213.894 109.329 215.444 108.685C216.994 108.041 218.319 106.951 219.251 105.553C220.183 104.154 220.681 102.51 220.681 100.828C220.678 98.5734 219.784 96.4118 218.193 94.8175C216.603 93.2232 214.447 92.3265 212.198 92.3239Z" fill="#E6E6E6"/>
<path d="M215.571 104.079C215.458 104.192 215.306 104.255 215.147 104.255C214.988 104.255 214.835 104.192 214.723 104.079L212.474 101.825C212.424 101.774 212.356 101.746 212.285 101.746C212.214 101.746 212.146 101.774 212.096 101.825L209.847 104.079C209.735 104.192 209.582 104.255 209.423 104.255C209.264 104.255 209.111 104.192 208.999 104.079C208.886 103.966 208.823 103.813 208.823 103.654C208.823 103.494 208.886 103.341 208.999 103.228L211.248 100.974C211.298 100.924 211.326 100.856 211.326 100.785C211.326 100.714 211.298 100.646 211.248 100.595L208.999 98.3409C208.886 98.2281 208.823 98.0752 208.823 97.9157C208.823 97.7563 208.886 97.6033 208.999 97.4906C209.111 97.3778 209.264 97.3145 209.423 97.3145C209.582 97.3145 209.735 97.3778 209.847 97.4906L212.096 99.745C212.146 99.7952 212.214 99.8233 212.285 99.8233C212.356 99.8233 212.424 99.7951 212.474 99.7449L214.722 97.4906C214.835 97.3778 214.988 97.3145 215.147 97.3145C215.306 97.3145 215.458 97.3778 215.571 97.4906C215.683 97.6034 215.747 97.7564 215.747 97.9159C215.747 98.0754 215.683 98.2283 215.571 98.3411L213.322 100.595C213.272 100.646 213.244 100.714 213.244 100.785C213.244 100.856 213.272 100.924 213.322 100.974L215.571 103.229C215.683 103.342 215.746 103.494 215.746 103.654C215.746 103.813 215.683 103.966 215.571 104.079Z" fill="#E6E6E6"/>
<path d="M102.613 103.104H29.5645C28.623 103.103 27.7205 102.727 27.0551 102.06C26.3898 101.392 26.0161 100.487 26.0161 99.5427C26.0161 98.5989 26.3898 97.6937 27.0551 97.026C27.7205 96.3582 28.623 95.9825 29.5645 95.9814H102.613C103.555 95.9825 104.457 96.3582 105.122 97.026C105.788 97.6937 106.162 98.5989 106.162 99.5427C106.162 100.487 105.788 101.392 105.122 102.06C104.457 102.727 103.555 103.103 102.613 103.104Z" fill="#1769AA"/>
<path d="M147.713 106.14H22.2963C22.1731 106.14 22.055 106.091 21.9678 106.004C21.8807 105.917 21.8318 105.798 21.8318 105.675C21.8318 105.551 21.8807 105.433 21.9678 105.345C22.055 105.258 22.1731 105.209 22.2963 105.209H147.713C147.836 105.209 147.954 105.258 148.042 105.345C148.129 105.433 148.178 105.551 148.178 105.675C148.178 105.798 148.129 105.917 148.042 106.004C147.954 106.091 147.836 106.14 147.713 106.14Z" fill="#3F3D56"/>
<path d="M185.384 140.187C183.531 140.187 181.719 139.636 180.178 138.604C178.637 137.572 177.436 136.105 176.726 134.388C176.017 132.671 175.832 130.782 176.193 128.96C176.555 127.138 177.447 125.464 178.758 124.15C180.068 122.836 181.738 121.941 183.556 121.579C185.374 121.216 187.258 121.403 188.97 122.114C190.683 122.825 192.146 124.029 193.176 125.574C194.206 127.119 194.755 128.935 194.755 130.793C194.752 133.284 193.764 135.672 192.007 137.433C190.251 139.194 187.869 140.185 185.384 140.187ZM185.384 122.289C183.706 122.289 182.066 122.788 180.671 123.722C179.276 124.656 178.189 125.985 177.547 127.539C176.905 129.092 176.737 130.802 177.064 132.452C177.391 134.102 178.199 135.617 179.386 136.806C180.572 137.996 182.084 138.806 183.729 139.134C185.375 139.462 187.08 139.293 188.63 138.65C190.18 138.006 191.505 136.916 192.437 135.518C193.37 134.119 193.867 132.475 193.867 130.793C193.865 128.538 192.97 126.377 191.38 124.782C189.789 123.188 187.633 122.291 185.384 122.289Z" fill="#E6E6E6"/>
<path d="M184.499 134.207C184.299 134.207 184.103 134.142 183.942 134.021L183.932 134.014L181.834 132.405C181.638 132.254 181.51 132.031 181.477 131.785C181.445 131.54 181.511 131.291 181.662 131.094C181.812 130.898 182.034 130.769 182.28 130.736C182.525 130.704 182.773 130.77 182.969 130.921L184.328 131.966L187.539 127.766C187.613 127.669 187.706 127.587 187.812 127.526C187.918 127.464 188.035 127.425 188.157 127.408C188.278 127.392 188.401 127.4 188.519 127.432C188.638 127.464 188.748 127.519 188.846 127.593L188.846 127.593L188.826 127.621L188.846 127.593C189.042 127.744 189.171 127.967 189.203 128.213C189.235 128.458 189.169 128.707 189.019 128.904L185.242 133.841C185.154 133.955 185.042 134.047 184.913 134.11C184.785 134.173 184.643 134.206 184.5 134.206L184.499 134.207Z" fill="#E6E6E6"/>
<path d="M212.198 140.187C210.344 140.187 208.533 139.636 206.992 138.604C205.45 137.572 204.249 136.105 203.54 134.388C202.831 132.671 202.645 130.782 203.007 128.96C203.368 127.138 204.261 125.464 205.572 124.15C206.882 122.836 208.552 121.941 210.37 121.579C212.187 121.216 214.072 121.403 215.784 122.114C217.496 122.825 218.96 124.029 219.99 125.574C221.019 127.119 221.569 128.935 221.569 130.793C221.566 133.284 220.578 135.672 218.821 137.433C217.064 139.194 214.682 140.185 212.198 140.187ZM212.198 122.289C210.52 122.289 208.88 122.788 207.485 123.722C206.09 124.656 205.003 125.985 204.361 127.539C203.719 129.092 203.551 130.802 203.878 132.452C204.205 134.102 205.013 135.617 206.199 136.806C207.386 137.996 208.897 138.806 210.543 139.134C212.188 139.462 213.894 139.293 215.444 138.65C216.994 138.006 218.319 136.916 219.251 135.518C220.183 134.119 220.681 132.475 220.681 130.793C220.678 128.538 219.784 126.377 218.193 124.782C216.603 123.188 214.447 122.291 212.198 122.289Z" fill="#E6E6E6"/>
<path d="M215.571 134.044C215.458 134.156 215.306 134.22 215.147 134.22C214.988 134.22 214.835 134.156 214.723 134.044L212.474 131.79C212.424 131.739 212.356 131.711 212.285 131.711C212.214 131.711 212.146 131.739 212.096 131.789L209.847 134.044C209.735 134.157 209.582 134.22 209.423 134.22C209.264 134.22 209.111 134.157 208.999 134.044C208.886 133.931 208.823 133.778 208.823 133.619C208.823 133.459 208.886 133.306 208.999 133.193L211.248 130.939C211.298 130.889 211.326 130.821 211.326 130.75C211.326 130.679 211.298 130.61 211.248 130.56L208.999 128.306C208.886 128.193 208.823 128.04 208.823 127.881C208.823 127.721 208.886 127.568 208.999 127.455C209.111 127.343 209.264 127.279 209.423 127.279C209.582 127.279 209.735 127.343 209.847 127.455L212.096 129.71C212.146 129.76 212.214 129.788 212.285 129.788C212.356 129.788 212.424 129.76 212.474 129.71L214.722 127.455C214.835 127.343 214.988 127.279 215.147 127.279C215.306 127.279 215.458 127.343 215.571 127.455C215.683 127.568 215.747 127.721 215.747 127.881C215.747 128.04 215.683 128.193 215.571 128.306L213.322 130.56C213.272 130.611 213.244 130.679 213.244 130.75C213.244 130.821 213.272 130.889 213.322 130.939L215.571 133.193C215.683 133.306 215.746 133.459 215.746 133.619C215.746 133.778 215.683 133.931 215.571 134.044Z" fill="#E6E6E6"/>
<path d="M102.613 133.069H29.5645C28.623 133.068 27.7205 132.692 27.0551 132.024C26.3898 131.357 26.0161 130.451 26.0161 129.508C26.0161 128.564 26.3898 127.659 27.0551 126.991C27.7205 126.323 28.623 125.947 29.5645 125.946H102.613C103.555 125.947 104.457 126.323 105.122 126.991C105.788 127.659 106.162 128.564 106.162 129.508C106.162 130.451 105.788 131.357 105.122 132.024C104.457 132.692 103.555 133.068 102.613 133.069Z" fill="#1769AA"/>
<path d="M147.713 136.105H22.2963C22.1731 136.105 22.055 136.056 21.9678 135.969C21.8807 135.881 21.8318 135.763 21.8318 135.639C21.8318 135.516 21.8807 135.398 21.9678 135.31C22.055 135.223 22.1731 135.174 22.2963 135.174H147.713C147.836 135.174 147.954 135.223 148.042 135.31C148.129 135.398 148.178 135.516 148.178 135.639C148.178 135.763 148.129 135.881 148.042 135.969C147.954 136.056 147.836 136.105 147.713 136.105Z" fill="#3F3D56"/>
<path d="M185.384 170.152C183.531 170.152 181.719 169.601 180.178 168.569C178.637 167.537 177.436 166.07 176.726 164.353C176.017 162.636 175.832 160.747 176.193 158.925C176.555 157.103 177.447 155.429 178.758 154.115C180.068 152.801 181.738 151.906 183.556 151.544C185.374 151.181 187.258 151.367 188.97 152.078C190.683 152.789 192.146 153.994 193.176 155.538C194.206 157.083 194.755 158.9 194.755 160.758C194.752 163.248 193.764 165.636 192.007 167.398C190.251 169.159 187.869 170.149 185.384 170.152ZM185.384 152.254C183.706 152.254 182.066 152.752 180.671 153.687C179.276 154.621 178.189 155.949 177.547 157.503C176.905 159.057 176.737 160.767 177.064 162.417C177.391 164.067 178.199 165.582 179.386 166.771C180.572 167.96 182.084 168.77 183.729 169.099C185.375 169.427 187.08 169.258 188.63 168.615C190.18 167.971 191.505 166.881 192.437 165.482C193.37 164.084 193.867 162.44 193.867 160.758C193.865 158.503 192.97 156.342 191.38 154.747C189.789 153.153 187.633 152.256 185.384 152.254Z" fill="#E6E6E6"/>
<path d="M184.499 164.172C184.299 164.172 184.103 164.107 183.942 163.986L183.932 163.979L181.834 162.37C181.638 162.219 181.51 161.996 181.477 161.75C181.445 161.505 181.511 161.256 181.662 161.059C181.812 160.863 182.034 160.734 182.28 160.701C182.525 160.669 182.773 160.735 182.969 160.886L184.328 161.931L187.539 157.731C187.613 157.634 187.706 157.552 187.812 157.491C187.918 157.429 188.035 157.389 188.157 157.373C188.278 157.357 188.401 157.365 188.519 157.397C188.638 157.429 188.748 157.483 188.846 157.558L188.846 157.558L188.826 157.586L188.846 157.558C189.042 157.709 189.171 157.932 189.203 158.178C189.235 158.423 189.169 158.672 189.019 158.868L185.242 163.806C185.154 163.92 185.042 164.012 184.913 164.075C184.785 164.138 184.643 164.171 184.5 164.171L184.499 164.172Z" fill="#E6E6E6"/>
<path d="M212.198 170.152C210.344 170.152 208.533 169.601 206.992 168.569C205.45 167.537 204.249 166.07 203.54 164.353C202.831 162.636 202.645 160.747 203.007 158.925C203.368 157.103 204.261 155.429 205.572 154.115C206.882 152.801 208.552 151.906 210.37 151.544C212.187 151.181 214.072 151.367 215.784 152.078C217.496 152.789 218.96 153.994 219.99 155.538C221.019 157.083 221.569 158.9 221.569 160.758C221.566 163.248 220.578 165.636 218.821 167.398C217.064 169.159 214.682 170.149 212.198 170.152ZM212.198 152.254C210.52 152.254 208.88 152.752 207.485 153.687C206.09 154.621 205.003 155.949 204.361 157.503C203.719 159.057 203.551 160.767 203.878 162.417C204.205 164.067 205.013 165.582 206.199 166.771C207.386 167.96 208.897 168.77 210.543 169.099C212.188 169.427 213.894 169.258 215.444 168.615C216.994 167.971 218.319 166.881 219.251 165.482C220.183 164.084 220.681 162.44 220.681 160.758C220.678 158.503 219.784 156.342 218.193 154.747C216.603 153.153 214.447 152.256 212.198 152.254Z" fill="#E6E6E6"/>
<path d="M215.571 164.009C215.458 164.121 215.306 164.184 215.147 164.184C214.988 164.184 214.835 164.121 214.723 164.009L212.474 161.754C212.424 161.704 212.356 161.676 212.285 161.676C212.214 161.676 212.146 161.704 212.096 161.754L209.847 164.009C209.735 164.121 209.582 164.185 209.423 164.185C209.264 164.185 209.111 164.121 208.999 164.009C208.886 163.896 208.823 163.743 208.823 163.583C208.823 163.424 208.886 163.271 208.999 163.158L211.248 160.904C211.298 160.854 211.326 160.785 211.326 160.714C211.326 160.643 211.298 160.575 211.248 160.525L208.999 158.271C208.886 158.158 208.823 158.005 208.823 157.845C208.823 157.686 208.886 157.533 208.999 157.42C209.111 157.307 209.264 157.244 209.423 157.244C209.582 157.244 209.735 157.307 209.847 157.42L212.096 159.675C212.146 159.725 212.214 159.753 212.285 159.753C212.356 159.753 212.424 159.725 212.474 159.675L214.722 157.42C214.835 157.308 214.988 157.244 215.147 157.244C215.306 157.244 215.458 157.308 215.571 157.42C215.683 157.533 215.747 157.686 215.747 157.846C215.747 158.005 215.683 158.158 215.571 158.271L213.322 160.525C213.272 160.575 213.244 160.644 213.244 160.715C213.244 160.786 213.272 160.854 213.322 160.904L215.571 163.158C215.683 163.271 215.746 163.424 215.746 163.583C215.746 163.743 215.683 163.896 215.571 164.009Z" fill="#E6E6E6"/>
<path d="M102.613 163.034H29.5645C28.623 163.033 27.7205 162.657 27.0551 161.989C26.3898 161.321 26.0161 160.416 26.0161 159.472C26.0161 158.529 26.3898 157.623 27.0551 156.956C27.7205 156.288 28.623 155.912 29.5645 155.911H102.613C103.555 155.912 104.457 156.288 105.122 156.956C105.788 157.623 106.162 158.529 106.162 159.472C106.162 160.416 105.788 161.321 105.122 161.989C104.457 162.657 103.555 163.033 102.613 163.034Z" fill="#1769AA"/>
<path d="M147.713 166.07H22.2963C22.1731 166.07 22.055 166.021 21.9678 165.934C21.8807 165.846 21.8318 165.728 21.8318 165.604C21.8318 165.481 21.8807 165.362 21.9678 165.275C22.055 165.188 22.1731 165.139 22.2963 165.139H147.713C147.836 165.139 147.954 165.188 148.042 165.275C148.129 165.362 148.178 165.481 148.178 165.604C148.178 165.728 148.129 165.846 148.042 165.934C147.954 166.021 147.836 166.07 147.713 166.07Z" fill="#3F3D56"/>
<path d="M286.006 5.29335e-09H4.05036C2.97642 0.00098029 1.94674 0.429112 1.18736 1.19042C0.427974 1.95172 0.000943355 2.98399 0 4.06063V195.599C0.000942127 196.676 0.427973 197.708 1.18736 198.469C1.94674 199.231 2.97642 199.659 4.05036 199.66H286.006C286.591 199.66 287.17 199.533 287.702 199.286C288.234 199.04 288.706 198.682 289.086 198.235C289.118 198.2 289.147 198.163 289.174 198.123C289.416 197.827 289.611 197.496 289.755 197.141C289.958 196.652 290.063 196.128 290.061 195.599V4.06065C290.06 2.98326 289.632 1.95039 288.872 1.189C288.111 0.427599 287.081 -5.49371e-05 286.006 5.29335e-09ZM288.905 195.599C288.905 196.166 288.738 196.72 288.426 197.192C288.148 197.607 287.771 197.947 287.33 198.179C286.921 198.391 286.466 198.501 286.006 198.5H4.05036C3.28315 198.499 2.54762 198.193 2.00511 197.65C1.46261 197.106 1.15742 196.368 1.15649 195.599V4.06065C1.15742 3.29151 1.46261 2.55414 2.00511 2.01028C2.54762 1.46642 3.28315 1.16046 4.05036 1.15953H286.006C286.774 1.15943 287.51 1.4649 288.054 2.00885C288.597 2.5528 288.903 3.29076 288.905 4.06065V195.599Z" fill="#3F3D56"/>
<path d="M289.48 16.2744H0.577148V17.4352H289.48V16.2744Z" fill="#3F3D56"/>
<path d="M10.4196 12.1886C12.3381 12.1886 13.8934 10.6294 13.8934 8.7061C13.8934 6.78279 12.3381 5.22363 10.4196 5.22363C8.50107 5.22363 6.9458 6.78279 6.9458 8.7061C6.9458 10.6294 8.50107 12.1886 10.4196 12.1886Z" fill="#3F3D56"/>
<path d="M20.4066 12.1886C22.3252 12.1886 23.8804 10.6294 23.8804 8.7061C23.8804 6.78279 22.3252 5.22363 20.4066 5.22363C18.4881 5.22363 16.9329 6.78279 16.9329 8.7061C16.9329 10.6294 18.4881 12.1886 20.4066 12.1886Z" fill="#3F3D56"/>
<path d="M30.394 12.1886C32.3125 12.1886 33.8677 10.6294 33.8677 8.7061C33.8677 6.78279 32.3125 5.22363 30.394 5.22363C28.4754 5.22363 26.9202 6.78279 26.9202 8.7061C26.9202 10.6294 28.4754 12.1886 30.394 12.1886Z" fill="#3F3D56"/>
<path d="M217.296 105.342C217.183 105.454 217.031 105.517 216.872 105.517C216.713 105.517 216.56 105.454 216.448 105.342L214.199 103.087C214.149 103.037 214.081 103.009 214.01 103.009C213.939 103.009 213.871 103.037 213.821 103.087L211.572 105.342C211.46 105.454 211.307 105.518 211.148 105.518C210.989 105.518 210.836 105.454 210.724 105.342C210.611 105.229 210.548 105.076 210.548 104.916C210.548 104.757 210.611 104.604 210.724 104.491L212.973 102.237C213.023 102.187 213.051 102.118 213.051 102.047C213.051 101.976 213.023 101.908 212.973 101.858L210.724 99.6036C210.611 99.4908 210.548 99.3379 210.548 99.1784C210.548 99.0189 210.611 98.866 210.724 98.7533C210.836 98.6405 210.989 98.5771 211.148 98.5771C211.307 98.5771 211.459 98.6405 211.572 98.7533L213.821 101.008C213.871 101.058 213.939 101.086 214.01 101.086C214.081 101.086 214.149 101.058 214.199 101.008L216.447 98.7533C216.56 98.6405 216.712 98.5772 216.872 98.5772C217.031 98.5772 217.183 98.6405 217.296 98.7533C217.408 98.8661 217.471 99.0191 217.471 99.1786C217.471 99.3381 217.408 99.491 217.296 99.6038L215.047 101.858C214.997 101.908 214.969 101.977 214.969 102.048C214.969 102.119 214.997 102.187 215.047 102.237L217.296 104.491C217.408 104.604 217.471 104.757 217.471 104.917C217.471 105.076 217.408 105.229 217.296 105.342Z" fill="#E6E6E6"/>
<path d="M190.754 107.774C191.338 108.129 191.993 108.35 192.672 108.423C193.351 108.496 194.037 108.419 194.683 108.197C195.33 107.976 195.919 107.615 196.411 107.14C196.903 106.665 197.285 106.088 197.53 105.449L214.12 106.002L209.613 98.6289L194.55 99.2336C193.452 98.8918 192.267 98.9657 191.22 99.4411C190.173 99.9166 189.336 100.761 188.868 101.814C188.4 102.866 188.333 104.055 188.681 105.153C189.029 106.252 189.766 107.185 190.754 107.774V107.774Z" fill="#FFB8B8"/>
<path d="M284.293 143.799C284.744 143.284 285.076 142.677 285.266 142.019C285.457 141.362 285.502 140.671 285.397 139.994C285.292 139.318 285.041 138.672 284.661 138.104C284.281 137.535 283.781 137.057 283.196 136.703L286.645 120.426L278.615 123.582L276.57 138.556C276.042 139.58 275.907 140.762 276.191 141.879C276.475 142.996 277.157 143.97 278.109 144.616C279.061 145.262 280.216 145.536 281.356 145.385C282.496 145.235 283.541 144.67 284.293 143.799Z" fill="#FFB8B8"/>
<path d="M245.431 228.63L239.736 228.63L237.027 206.609L245.432 206.61L245.431 228.63Z" fill="#FFB8B8"/>
<path d="M246.883 234.164L228.521 234.163V233.931C228.521 232.99 228.706 232.058 229.065 231.189C229.424 230.319 229.95 229.529 230.614 228.864C231.278 228.199 232.066 227.671 232.933 227.311C233.8 226.951 234.729 226.766 235.668 226.766H235.668L246.883 226.766L246.883 234.164Z" fill="#2F2E41"/>
<path d="M273.301 228.63L267.607 228.63L264.898 206.609L273.302 206.61L273.301 228.63Z" fill="#FFB8B8"/>
<path d="M274.753 234.164L256.391 234.163V233.931C256.391 232.99 256.576 232.058 256.935 231.189C257.294 230.319 257.821 229.529 258.484 228.864C259.148 228.199 259.936 227.671 260.803 227.311C261.67 226.951 262.6 226.766 263.538 226.766H263.539L274.754 226.766L274.753 234.164Z" fill="#2F2E41"/>
<path d="M246.024 217.132L237.963 216.809C237.413 216.785 236.894 216.546 236.519 216.142C236.144 215.738 235.942 215.203 235.957 214.651L238.228 139.968L238.377 139.914C252.505 134.791 264.193 135.178 274.109 141.097L274.22 141.164L275.581 213.902C275.586 214.18 275.536 214.457 275.433 214.716C275.33 214.975 275.177 215.21 274.983 215.409C274.788 215.608 274.556 215.766 274.3 215.874C274.044 215.982 273.769 216.037 273.491 216.037H266.693C266.209 216.036 265.74 215.867 265.366 215.559C264.992 215.251 264.736 214.822 264.642 214.346L255.382 167.123C255.35 166.96 255.261 166.813 255.131 166.71C255.001 166.607 254.838 166.553 254.673 166.559C254.507 166.565 254.349 166.631 254.227 166.743C254.105 166.856 254.027 167.009 254.007 167.174L248.183 215.291C248.119 215.799 247.873 216.265 247.491 216.604C247.109 216.943 246.617 217.132 246.107 217.134C246.079 217.134 246.052 217.133 246.024 217.132Z" fill="#2F2E41"/>
<path d="M253.867 74.4722C260.167 74.4722 265.275 69.3516 265.275 63.0349C265.275 56.7183 260.167 51.5977 253.867 51.5977C247.566 51.5977 242.458 56.7183 242.458 63.0349C242.458 69.3516 247.566 74.4722 253.867 74.4722Z" fill="#FFB8B8"/>
<path d="M200.231 105.072C200.104 104.665 200.104 104.228 200.231 103.821L201.413 100.024C201.542 99.6136 201.793 99.2525 202.134 98.9897C202.474 98.727 202.887 98.5754 203.316 98.5554L218.284 97.8921L242.567 85.4129C243.41 85.1429 244.298 85.0422 245.18 85.1165C246.062 85.1908 246.921 85.4387 247.707 85.8459C248.494 86.2532 249.192 86.8119 249.763 87.49C250.334 88.1681 250.765 88.9524 251.034 89.798C251.302 90.6435 251.401 91.5338 251.326 92.4178C251.25 93.3019 251.002 94.1624 250.595 94.9501C250.187 95.7378 249.629 96.4373 248.952 97.0086C248.275 97.5798 247.492 98.0117 246.648 98.2794L231.766 106.933C227.25 109.56 221.935 110.453 216.811 109.446L201.824 106.502C201.536 106.445 201.263 106.328 201.023 106.159C200.783 105.989 200.581 105.771 200.431 105.518C200.347 105.378 200.28 105.228 200.231 105.072Z" fill="#CCCCCC"/>
<path d="M283.806 133.261C283.406 133.405 282.971 133.424 282.56 133.315L278.726 132.293C278.311 132.181 277.94 131.944 277.664 131.614C277.387 131.285 277.219 130.878 277.181 130.449L275.882 115.486L262.41 91.6952C262.105 90.8623 261.967 89.9773 262.004 89.0909C262.04 88.2045 262.251 87.3339 262.623 86.5291C262.996 85.7243 263.522 85.0009 264.174 84.4004C264.825 83.7999 265.589 83.3341 266.42 83.0295C267.251 82.7249 268.134 82.5875 269.018 82.6253C269.902 82.663 270.77 82.8751 271.573 83.2494C272.375 83.6237 273.096 84.1529 273.694 84.8067C274.292 85.4606 274.756 86.2262 275.059 87.0599L284.317 101.597C287.128 106.008 288.244 111.293 287.459 116.468L285.164 131.604C285.119 131.895 285.015 132.174 284.856 132.422C284.697 132.669 284.488 132.881 284.243 133.042C284.106 133.132 283.96 133.205 283.806 133.261Z" fill="#CCCCCC"/>
<path d="M241.388 83.3461C243.347 81.1917 245.764 79.506 248.461 78.4131C251.157 77.3202 254.063 76.8482 256.966 77.0318C257.157 77.0436 257.347 77.057 257.536 77.0718H257.536C260.287 77.2899 262.96 78.0942 265.376 79.431C267.792 80.7678 269.895 82.6063 271.545 84.8236C273.223 87.0718 274.403 89.6532 275.006 92.3952C275.609 95.1372 275.621 97.9766 275.041 100.724C272.829 111.222 273.389 122.117 276.665 132.331L279.726 141.858C279.824 142.164 279.851 142.487 279.804 142.805C279.758 143.122 279.639 143.425 279.458 143.689C279.277 143.953 279.037 144.172 278.758 144.329C278.479 144.485 278.168 144.576 277.848 144.593L262.201 145.436L258.197 138.503V145.652L239.18 146.677C239.142 146.679 239.104 146.68 239.067 146.68C238.778 146.68 238.493 146.62 238.228 146.504C237.964 146.388 237.727 146.218 237.531 146.005C237.335 145.793 237.186 145.542 237.092 145.268C236.997 144.995 236.961 144.705 236.984 144.416L239.133 117.695L236.437 99.5472C236.001 96.6475 236.219 93.6865 237.076 90.8826C237.933 88.0787 239.406 85.5033 241.388 83.3461Z" fill="#CCCCCC"/>
<path d="M261.795 73.9539C260.739 74.5632 256.564 74.9672 256.267 73.7824L256.26 73.7564C256.053 72.8883 256.225 71.9819 256.285 71.0913C256.344 70.2008 256.257 69.2225 255.652 68.5677C254.524 67.3471 252.518 67.9942 250.887 67.6855C249.932 67.4718 249.087 66.9164 248.511 66.1233C247.934 65.3302 247.666 64.3538 247.756 63.3768C247.779 63.1916 247.816 63.0063 247.857 62.8211C247.959 62.3519 247.951 61.8654 247.834 61.3997C247.716 60.934 247.493 60.5019 247.181 60.1373C246.87 59.7726 246.478 59.4854 246.037 59.2981C245.596 59.1109 245.117 59.0287 244.639 59.0579C242.991 59.1524 241.212 59.653 239.848 58.4292C238.794 57.4829 238.537 55.0194 239 53.6788C239.778 51.4257 244.766 50.2462 246.944 49.5978C249.637 48.8177 252.47 48.649 255.236 49.1041C258.003 49.5592 260.634 50.6266 262.937 52.2286C264.312 53.2006 265.597 54.4219 266.183 56.0032C266.769 57.5846 266.487 59.5797 265.165 60.6236C266.189 61.7113 266.911 63.0498 267.257 64.5051C267.603 65.9604 267.562 67.4813 267.137 68.9155C266.484 71.0247 263.368 73.0469 261.795 73.9539Z" fill="#2F2E41"/>
</g>
<defs>
<clipPath id="clip0">
<rect width="290" height="235" fill="white"/>
</clipPath>
</defs>
</svg>
