<svg width="326" height="126" viewBox="0 0 326 126" fill="none" xmlns="http://www.w3.org/2000/svg">
<g filter="url(#filter0_d)">
<g clip-path="url(#clip0)">
<rect x="3" width="320" height="120" rx="10" fill="#FFE179"/>
<path d="M56.5234 65.1758H63.9883V68H53.0078V50.9375H56.5234V65.1758ZM73.1406 68C72.9844 67.6953 72.8711 67.3164 72.8008 66.8633C71.9805 67.7773 70.9141 68.2344 69.6016 68.2344C68.3594 68.2344 67.3281 67.875 66.5078 67.1562C65.6953 66.4375 65.2891 65.5312 65.2891 64.4375C65.2891 63.0938 65.7852 62.0625 66.7773 61.3438C67.7773 60.625 69.2188 60.2617 71.1016 60.2539H72.6602V59.5273C72.6602 58.9414 72.5078 58.4727 72.2031 58.1211C71.9062 57.7695 71.4336 57.5938 70.7852 57.5938C70.2148 57.5938 69.7656 57.7305 69.4375 58.0039C69.1172 58.2773 68.957 58.6523 68.957 59.1289H65.5703C65.5703 58.3945 65.7969 57.7148 66.25 57.0898C66.7031 56.4648 67.3438 55.9766 68.1719 55.625C69 55.2656 69.9297 55.0859 70.9609 55.0859C72.5234 55.0859 73.7617 55.4805 74.6758 56.2695C75.5977 57.0508 76.0586 58.1523 76.0586 59.5742V65.0703C76.0664 66.2734 76.2344 67.1836 76.5625 67.8008V68H73.1406ZM70.3398 65.6445C70.8398 65.6445 71.3008 65.5352 71.7227 65.3164C72.1445 65.0898 72.457 64.7891 72.6602 64.4141V62.2344H71.3945C69.6992 62.2344 68.7969 62.8203 68.6875 63.9922L68.6758 64.1914C68.6758 64.6133 68.8242 64.9609 69.1211 65.2344C69.418 65.5078 69.8242 65.6445 70.3398 65.6445ZM81.7773 55.3203L81.8828 56.7852C82.7891 55.6523 84.0039 55.0859 85.5273 55.0859C86.8711 55.0859 87.8711 55.4805 88.5273 56.2695C89.1836 57.0586 89.5195 58.2383 89.5352 59.8086V68H86.1484V59.8906C86.1484 59.1719 85.9922 58.6523 85.6797 58.332C85.3672 58.0039 84.8477 57.8398 84.1211 57.8398C83.168 57.8398 82.4531 58.2461 81.9766 59.0586V68H78.5898V55.3203H81.7773ZM91.6211 61.5664C91.6211 59.6211 92.082 58.0547 93.0039 56.8672C93.9336 55.6797 95.1836 55.0859 96.7539 55.0859C98.1445 55.0859 99.2266 55.5625 100 56.5156L100.141 55.3203H103.211V67.5781C103.211 68.6875 102.957 69.6523 102.449 70.4727C101.949 71.293 101.242 71.918 100.328 72.3477C99.4141 72.7773 98.3438 72.9922 97.1172 72.9922C96.1875 72.9922 95.2812 72.8047 94.3984 72.4297C93.5156 72.0625 92.8477 71.5859 92.3945 71L93.8945 68.9375C94.7383 69.8828 95.7617 70.3555 96.9648 70.3555C97.8633 70.3555 98.5625 70.1133 99.0625 69.6289C99.5625 69.1523 99.8125 68.4727 99.8125 67.5898V66.9102C99.0312 67.793 98.0039 68.2344 96.7305 68.2344C95.207 68.2344 93.9727 67.6406 93.0273 66.4531C92.0898 65.2578 91.6211 63.6758 91.6211 61.707V61.5664ZM95.0078 61.8125C95.0078 62.9609 95.2383 63.8633 95.6992 64.5195C96.1602 65.168 96.793 65.4922 97.5977 65.4922C98.6289 65.4922 99.3672 65.1055 99.8125 64.332V59C99.3594 58.2266 98.6289 57.8398 97.6211 57.8398C96.8086 57.8398 96.168 58.1719 95.6992 58.8359C95.2383 59.5 95.0078 60.4922 95.0078 61.8125ZM113.418 66.7109C112.582 67.7266 111.426 68.2344 109.949 68.2344C108.59 68.2344 107.551 67.8438 106.832 67.0625C106.121 66.2812 105.758 65.1367 105.742 63.6289V55.3203H109.129V63.5117C109.129 64.832 109.73 65.4922 110.934 65.4922C112.082 65.4922 112.871 65.0938 113.301 64.2969V55.3203H116.699V68H113.512L113.418 66.7109ZM126.602 68C126.445 67.6953 126.332 67.3164 126.262 66.8633C125.441 67.7773 124.375 68.2344 123.062 68.2344C121.82 68.2344 120.789 67.875 119.969 67.1562C119.156 66.4375 118.75 65.5312 118.75 64.4375C118.75 63.0938 119.246 62.0625 120.238 61.3438C121.238 60.625 122.68 60.2617 124.562 60.2539H126.121V59.5273C126.121 58.9414 125.969 58.4727 125.664 58.1211C125.367 57.7695 124.895 57.5938 124.246 57.5938C123.676 57.5938 123.227 57.7305 122.898 58.0039C122.578 58.2773 122.418 58.6523 122.418 59.1289H119.031C119.031 58.3945 119.258 57.7148 119.711 57.0898C120.164 56.4648 120.805 55.9766 121.633 55.625C122.461 55.2656 123.391 55.0859 124.422 55.0859C125.984 55.0859 127.223 55.4805 128.137 56.2695C129.059 57.0508 129.52 58.1523 129.52 59.5742V65.0703C129.527 66.2734 129.695 67.1836 130.023 67.8008V68H126.602ZM123.801 65.6445C124.301 65.6445 124.762 65.5352 125.184 65.3164C125.605 65.0898 125.918 64.7891 126.121 64.4141V62.2344H124.855C123.16 62.2344 122.258 62.8203 122.148 63.9922L122.137 64.1914C122.137 64.6133 122.285 64.9609 122.582 65.2344C122.879 65.5078 123.285 65.6445 123.801 65.6445ZM131.629 61.5664C131.629 59.6211 132.09 58.0547 133.012 56.8672C133.941 55.6797 135.191 55.0859 136.762 55.0859C138.152 55.0859 139.234 55.5625 140.008 56.5156L140.148 55.3203H143.219V67.5781C143.219 68.6875 142.965 69.6523 142.457 70.4727C141.957 71.293 141.25 71.918 140.336 72.3477C139.422 72.7773 138.352 72.9922 137.125 72.9922C136.195 72.9922 135.289 72.8047 134.406 72.4297C133.523 72.0625 132.855 71.5859 132.402 71L133.902 68.9375C134.746 69.8828 135.77 70.3555 136.973 70.3555C137.871 70.3555 138.57 70.1133 139.07 69.6289C139.57 69.1523 139.82 68.4727 139.82 67.5898V66.9102C139.039 67.793 138.012 68.2344 136.738 68.2344C135.215 68.2344 133.98 67.6406 133.035 66.4531C132.098 65.2578 131.629 63.6758 131.629 61.707V61.5664ZM135.016 61.8125C135.016 62.9609 135.246 63.8633 135.707 64.5195C136.168 65.168 136.801 65.4922 137.605 65.4922C138.637 65.4922 139.375 65.1055 139.82 64.332V59C139.367 58.2266 138.637 57.8398 137.629 57.8398C136.816 57.8398 136.176 58.1719 135.707 58.8359C135.246 59.5 135.016 60.4922 135.016 61.8125ZM151.668 68.2344C149.809 68.2344 148.293 67.6641 147.121 66.5234C145.957 65.3828 145.375 63.8633 145.375 61.9648V61.6367C145.375 60.3633 145.621 59.2266 146.113 58.2266C146.605 57.2188 147.301 56.4453 148.199 55.9062C149.105 55.3594 150.137 55.0859 151.293 55.0859C153.027 55.0859 154.391 55.6328 155.383 56.7266C156.383 57.8203 156.883 59.3711 156.883 61.3789V62.7617H148.809C148.918 63.5898 149.246 64.2539 149.793 64.7539C150.348 65.2539 151.047 65.5039 151.891 65.5039C153.195 65.5039 154.215 65.0312 154.949 64.0859L156.613 65.9492C156.105 66.668 155.418 67.2305 154.551 67.6367C153.684 68.0352 152.723 68.2344 151.668 68.2344ZM151.281 57.8281C150.609 57.8281 150.062 58.0547 149.641 58.5078C149.227 58.9609 148.961 59.6094 148.844 60.4531H153.555V60.1836C153.539 59.4336 153.336 58.8555 152.945 58.4492C152.555 58.0352 152 57.8281 151.281 57.8281Z" fill="#171717"/>
<path d="M269.375 45.5424V39H255.219C253.54 39 252.032 39.739 251 40.9083C249.968 39.739 248.46 39 246.781 39H232.625V45.5424H227V87L234.708 79.2924H275V45.5424H269.375ZM249.594 65.9865C248.766 65.5063 247.806 65.2299 246.781 65.2299H235.438V62.4174H246.781C248.332 62.4174 249.594 63.6793 249.594 65.2299V65.9865ZM235.438 68.0424H246.781C248.332 68.0424 249.594 69.3043 249.594 70.8549H235.438V68.0424ZM266.562 65.2299H255.219C254.194 65.2299 253.234 65.5063 252.406 65.9865V65.2299C252.406 63.6793 253.668 62.4174 255.219 62.4174H266.562V65.2299ZM266.562 68.0424V70.8549H252.406C252.406 69.3043 253.668 68.0424 255.219 68.0424H266.562ZM255.219 41.8125H266.562V59.6049H255.219C254.194 59.6049 253.234 59.8813 252.406 60.3615V44.625C252.406 43.0741 253.668 41.8125 255.219 41.8125ZM246.781 41.8125C248.332 41.8125 249.594 43.0741 249.594 44.625V60.3615C248.766 59.8813 247.806 59.6049 246.781 59.6049H235.438V41.8125H246.781ZM272.188 76.4799H233.542L229.812 80.2101V48.3549H232.625V73.6674H269.375V48.3549H272.188V76.4799Z" fill="black"/>
<ellipse cx="23" cy="164.5" rx="60" ry="57.5" fill="#4DABF5"/>
<ellipse cx="47" cy="148.5" rx="60" ry="57.5" fill="#F73378" fill-opacity="0.7"/>
</g>
</g>
<defs>
<filter id="filter0_d" x="0" y="0" width="326" height="126" filterUnits="userSpaceOnUse" color-interpolation-filters="sRGB">
<feFlood flood-opacity="0" result="BackgroundImageFix"/>
<feColorMatrix in="SourceAlpha" type="matrix" values="0 0 0 0 0 0 0 0 0 0 0 0 0 0 0 0 0 0 127 0"/>
<feOffset dy="3"/>
<feGaussianBlur stdDeviation="1.5"/>
<feColorMatrix type="matrix" values="0 0 0 0 0 0 0 0 0 0 0 0 0 0 0 0 0 0 0.16 0"/>
<feBlend mode="normal" in2="BackgroundImageFix" result="effect1_dropShadow"/>
<feBlend mode="normal" in="SourceGraphic" in2="effect1_dropShadow" result="shape"/>
</filter>
<clipPath id="clip0">
<rect x="3" width="320" height="120" rx="10" fill="white"/>
</clipPath>
</defs>
</svg>
