<svg width="358" height="159" viewBox="0 0 358 159" fill="none" xmlns="http://www.w3.org/2000/svg">
<g clip-path="url(#clip0)">
<rect width="358" height="159" rx="10" fill="#FFE179"/>
<path d="M63.0352 87.2637H74.2324V91.5H57.7617V65.9062H63.0352V87.2637ZM87.9609 91.5C87.7266 91.043 87.5566 90.4746 87.4512 89.7949C86.2207 91.166 84.6211 91.8516 82.6523 91.8516C80.7891 91.8516 79.2422 91.3125 78.0117 90.2344C76.793 89.1562 76.1836 87.7969 76.1836 86.1562C76.1836 84.1406 76.9277 82.5938 78.416 81.5156C79.916 80.4375 82.0781 79.8926 84.9023 79.8809H87.2402V78.791C87.2402 77.9121 87.0117 77.209 86.5547 76.6816C86.1094 76.1543 85.4004 75.8906 84.4277 75.8906C83.5723 75.8906 82.8984 76.0957 82.4062 76.5059C81.9258 76.916 81.6855 77.4785 81.6855 78.1934H76.6055C76.6055 77.0918 76.9453 76.0723 77.625 75.1348C78.3047 74.1973 79.2656 73.4648 80.5078 72.9375C81.75 72.3984 83.1445 72.1289 84.6914 72.1289C87.0352 72.1289 88.8926 72.7207 90.2637 73.9043C91.6465 75.0762 92.3379 76.7285 92.3379 78.8613V87.1055C92.3496 88.9102 92.6016 90.2754 93.0938 91.2012V91.5H87.9609ZM83.7598 87.9668C84.5098 87.9668 85.2012 87.8027 85.834 87.4746C86.4668 87.1348 86.9355 86.6836 87.2402 86.1211V82.8516H85.3418C82.7988 82.8516 81.4453 83.7305 81.2812 85.4883L81.2637 85.7871C81.2637 86.4199 81.4863 86.9414 81.9316 87.3516C82.377 87.7617 82.9863 87.9668 83.7598 87.9668ZM100.916 72.4805L101.074 74.6777C102.434 72.9785 104.256 72.1289 106.541 72.1289C108.557 72.1289 110.057 72.7207 111.041 73.9043C112.025 75.0879 112.529 76.8574 112.553 79.2129V91.5H107.473V79.3359C107.473 78.2578 107.238 77.4785 106.77 76.998C106.301 76.5059 105.521 76.2598 104.432 76.2598C103.002 76.2598 101.93 76.8691 101.215 78.0879V91.5H96.1348V72.4805H100.916ZM115.682 81.8496C115.682 78.9316 116.373 76.582 117.756 74.8008C119.15 73.0195 121.025 72.1289 123.381 72.1289C125.467 72.1289 127.09 72.8438 128.25 74.2734L128.461 72.4805H133.066V90.8672C133.066 92.5312 132.686 93.9785 131.924 95.209C131.174 96.4395 130.113 97.377 128.742 98.0215C127.371 98.666 125.766 98.9883 123.926 98.9883C122.531 98.9883 121.172 98.707 119.848 98.1445C118.523 97.5938 117.521 96.8789 116.842 96L119.092 92.9062C120.357 94.3242 121.893 95.0332 123.697 95.0332C125.045 95.0332 126.094 94.6699 126.844 93.9434C127.594 93.2285 127.969 92.209 127.969 90.8848V89.8652C126.797 91.1895 125.256 91.8516 123.346 91.8516C121.061 91.8516 119.209 90.9609 117.791 89.1797C116.385 87.3867 115.682 85.0137 115.682 82.0605V81.8496ZM120.762 82.2188C120.762 83.9414 121.107 85.2949 121.799 86.2793C122.49 87.252 123.439 87.7383 124.646 87.7383C126.193 87.7383 127.301 87.1582 127.969 85.998V78C127.289 76.8398 126.193 76.2598 124.682 76.2598C123.463 76.2598 122.502 76.7578 121.799 77.7539C121.107 78.75 120.762 80.2383 120.762 82.2188ZM148.377 89.5664C147.123 91.0898 145.389 91.8516 143.174 91.8516C141.135 91.8516 139.576 91.2656 138.498 90.0938C137.432 88.9219 136.887 87.2051 136.863 84.9434V72.4805H141.943V84.7676C141.943 86.748 142.846 87.7383 144.65 87.7383C146.373 87.7383 147.557 87.1406 148.201 85.9453V72.4805H153.299V91.5H148.518L148.377 89.5664ZM168.152 91.5C167.918 91.043 167.748 90.4746 167.643 89.7949C166.412 91.166 164.812 91.8516 162.844 91.8516C160.98 91.8516 159.434 91.3125 158.203 90.2344C156.984 89.1562 156.375 87.7969 156.375 86.1562C156.375 84.1406 157.119 82.5938 158.607 81.5156C160.107 80.4375 162.27 79.8926 165.094 79.8809H167.432V78.791C167.432 77.9121 167.203 77.209 166.746 76.6816C166.301 76.1543 165.592 75.8906 164.619 75.8906C163.764 75.8906 163.09 76.0957 162.598 76.5059C162.117 76.916 161.877 77.4785 161.877 78.1934H156.797C156.797 77.0918 157.137 76.0723 157.816 75.1348C158.496 74.1973 159.457 73.4648 160.699 72.9375C161.941 72.3984 163.336 72.1289 164.883 72.1289C167.227 72.1289 169.084 72.7207 170.455 73.9043C171.838 75.0762 172.529 76.7285 172.529 78.8613V87.1055C172.541 88.9102 172.793 90.2754 173.285 91.2012V91.5H168.152ZM163.951 87.9668C164.701 87.9668 165.393 87.8027 166.025 87.4746C166.658 87.1348 167.127 86.6836 167.432 86.1211V82.8516H165.533C162.99 82.8516 161.637 83.7305 161.473 85.4883L161.455 85.7871C161.455 86.4199 161.678 86.9414 162.123 87.3516C162.568 87.7617 163.178 87.9668 163.951 87.9668ZM175.693 81.8496C175.693 78.9316 176.385 76.582 177.768 74.8008C179.162 73.0195 181.037 72.1289 183.393 72.1289C185.479 72.1289 187.102 72.8438 188.262 74.2734L188.473 72.4805H193.078V90.8672C193.078 92.5312 192.697 93.9785 191.936 95.209C191.186 96.4395 190.125 97.377 188.754 98.0215C187.383 98.666 185.777 98.9883 183.938 98.9883C182.543 98.9883 181.184 98.707 179.859 98.1445C178.535 97.5938 177.533 96.8789 176.854 96L179.104 92.9062C180.369 94.3242 181.904 95.0332 183.709 95.0332C185.057 95.0332 186.105 94.6699 186.855 93.9434C187.605 93.2285 187.98 92.209 187.98 90.8848V89.8652C186.809 91.1895 185.268 91.8516 183.357 91.8516C181.072 91.8516 179.221 90.9609 177.803 89.1797C176.396 87.3867 175.693 85.0137 175.693 82.0605V81.8496ZM180.773 82.2188C180.773 83.9414 181.119 85.2949 181.811 86.2793C182.502 87.252 183.451 87.7383 184.658 87.7383C186.205 87.7383 187.312 87.1582 187.98 85.998V78C187.301 76.8398 186.205 76.2598 184.693 76.2598C183.475 76.2598 182.514 76.7578 181.811 77.7539C181.119 78.75 180.773 80.2383 180.773 82.2188ZM205.752 91.8516C202.963 91.8516 200.689 90.9961 198.932 89.2852C197.186 87.5742 196.312 85.2949 196.312 82.4473V81.9551C196.312 80.0449 196.682 78.3398 197.42 76.8398C198.158 75.3281 199.201 74.168 200.549 73.3594C201.908 72.5391 203.455 72.1289 205.189 72.1289C207.791 72.1289 209.836 72.9492 211.324 74.5898C212.824 76.2305 213.574 78.5566 213.574 81.5684V83.6426H201.463C201.627 84.8848 202.119 85.8809 202.939 86.6309C203.771 87.3809 204.82 87.7559 206.086 87.7559C208.043 87.7559 209.572 87.0469 210.674 85.6289L213.17 88.4238C212.408 89.502 211.377 90.3457 210.076 90.9551C208.775 91.5527 207.334 91.8516 205.752 91.8516ZM205.172 76.2422C204.164 76.2422 203.344 76.582 202.711 77.2617C202.09 77.9414 201.691 78.9141 201.516 80.1797H208.582V79.7754C208.559 78.6504 208.254 77.7832 207.668 77.1738C207.082 76.5527 206.25 76.2422 205.172 76.2422Z" fill="#171717"/>
<path d="M295.5 55.7231V47H276.625C274.387 47 272.375 47.9854 271 49.5444C269.625 47.9854 267.613 47 265.375 47H246.5V55.7231H239V111L249.277 100.723H303V55.7231H295.5ZM269.125 82.9819C268.021 82.3418 266.741 81.9731 265.375 81.9731H250.25V78.2231H265.375C267.443 78.2231 269.125 79.9058 269.125 81.9731V82.9819ZM250.25 85.7231H265.375C267.443 85.7231 269.125 87.4058 269.125 89.4731H250.25V85.7231ZM291.75 81.9731H276.625C275.259 81.9731 273.979 82.3418 272.875 82.9819V81.9731C272.875 79.9058 274.557 78.2231 276.625 78.2231H291.75V81.9731ZM291.75 85.7231V89.4731H272.875C272.875 87.4058 274.557 85.7231 276.625 85.7231H291.75ZM276.625 50.75H291.75V74.4731H276.625C275.259 74.4731 273.979 74.8418 272.875 75.4819V54.5C272.875 52.4321 274.557 50.75 276.625 50.75ZM265.375 50.75C267.443 50.75 269.125 52.4321 269.125 54.5V75.4819C268.021 74.8418 266.741 74.4731 265.375 74.4731H250.25V50.75H265.375ZM299.25 96.9731H247.723L242.75 101.947V59.4731H246.5V93.2231H295.5V59.4731H299.25V96.9731Z" fill="black"/>
<ellipse cx="20" cy="164.5" rx="60" ry="57.5" fill="#4DABF5"/>
<ellipse cx="44" cy="148.5" rx="60" ry="57.5" fill="#F73378" fill-opacity="0.7"/>
</g>
<defs>
<clipPath id="clip0">
<rect width="358" height="159" rx="10" fill="white"/>
</clipPath>
</defs>
</svg>
