<svg width="320" height="120" viewBox="0 0 320 120" fill="none" xmlns="http://www.w3.org/2000/svg">
<g clip-path="url(#clip0)">
<rect width="320" height="120" rx="10" fill="#FFE179"/>
<path d="M54.4023 51.4375L58.7852 63.8125L63.1445 51.4375H67.7617V68.5H64.2344V63.8359L64.5859 55.7852L59.9805 68.5H57.5664L52.9727 55.7969L53.3242 63.8359V68.5H49.8086V51.4375H54.4023ZM77.957 68.5C77.8008 68.1953 77.6875 67.8164 77.6172 67.3633C76.7969 68.2773 75.7305 68.7344 74.418 68.7344C73.1758 68.7344 72.1445 68.375 71.3242 67.6562C70.5117 66.9375 70.1055 66.0312 70.1055 64.9375C70.1055 63.5938 70.6016 62.5625 71.5938 61.8438C72.5938 61.125 74.0352 60.7617 75.918 60.7539H77.4766V60.0273C77.4766 59.4414 77.3242 58.9727 77.0195 58.6211C76.7227 58.2695 76.25 58.0938 75.6016 58.0938C75.0312 58.0938 74.582 58.2305 74.2539 58.5039C73.9336 58.7773 73.7734 59.1523 73.7734 59.6289H70.3867C70.3867 58.8945 70.6133 58.2148 71.0664 57.5898C71.5195 56.9648 72.1602 56.4766 72.9883 56.125C73.8164 55.7656 74.7461 55.5859 75.7773 55.5859C77.3398 55.5859 78.5781 55.9805 79.4922 56.7695C80.4141 57.5508 80.875 58.6523 80.875 60.0742V65.5703C80.8828 66.7734 81.0508 67.6836 81.3789 68.3008V68.5H77.957ZM75.1562 66.1445C75.6562 66.1445 76.1172 66.0352 76.5391 65.8164C76.9609 65.5898 77.2734 65.2891 77.4766 64.9141V62.7344H76.2109C74.5156 62.7344 73.6133 63.3203 73.5039 64.4922L73.4922 64.6914C73.4922 65.1133 73.6406 65.4609 73.9375 65.7344C74.2344 66.0078 74.6406 66.1445 75.1562 66.1445ZM87.5312 52.7031V55.8203H89.6992V58.3047H87.5312V64.6328C87.5312 65.1016 87.6211 65.4375 87.8008 65.6406C87.9805 65.8438 88.3242 65.9453 88.832 65.9453C89.207 65.9453 89.5391 65.918 89.8281 65.8633V68.4297C89.1641 68.6328 88.4805 68.7344 87.7773 68.7344C85.4023 68.7344 84.1914 67.5352 84.1445 65.1367V58.3047H82.293V55.8203H84.1445V52.7031H87.5312ZM94.8906 57.2031C95.7891 56.125 96.918 55.5859 98.2773 55.5859C101.027 55.5859 102.422 57.1836 102.461 60.3789V68.5H99.0742V60.4727C99.0742 59.7461 98.918 59.2109 98.6055 58.8672C98.293 58.5156 97.7734 58.3398 97.0469 58.3398C96.0547 58.3398 95.3359 58.7227 94.8906 59.4883V68.5H91.5039V50.5H94.8906V57.2031Z" fill="#171717"/>
<path d="M269.562 37.7812H226.438C226.263 37.7812 226.097 37.8504 225.973 37.9735C225.85 38.0965 225.781 38.2635 225.781 38.4375V81.5625C225.781 81.7365 225.85 81.9035 225.973 82.0265C226.097 82.1496 226.263 82.2188 226.438 82.2188H269.562C269.737 82.2188 269.903 82.1496 270.027 82.0265C270.15 81.9035 270.219 81.7365 270.219 81.5625V38.4375C270.219 38.2635 270.15 38.0965 270.027 37.9735C269.903 37.8504 269.737 37.7812 269.562 37.7812ZM268.906 59.3438H248.656V39.0938H268.906V59.3438ZM227.094 39.0938H247.344V59.3438H227.094V39.0938ZM227.094 60.6562H247.344V80.9062H227.094V60.6562ZM268.906 80.9062H248.656V60.6562H268.906V80.9062Z" fill="#171717"/>
<path d="M242.656 48.5625H237.875V43.7812C237.875 43.6072 237.806 43.4403 237.683 43.3172C237.56 43.1941 237.393 43.125 237.219 43.125C237.045 43.125 236.878 43.1941 236.755 43.3172C236.632 43.4403 236.562 43.6072 236.562 43.7812V48.5625H231.781C231.607 48.5625 231.44 48.6316 231.317 48.7547C231.194 48.8778 231.125 49.0447 231.125 49.2188C231.125 49.3928 231.194 49.5597 231.317 49.6828C231.44 49.8059 231.607 49.875 231.781 49.875H236.562V54.6562C236.562 54.8303 236.632 54.9972 236.755 55.1203C236.878 55.2434 237.045 55.3125 237.219 55.3125C237.393 55.3125 237.56 55.2434 237.683 55.1203C237.806 54.9972 237.875 54.8303 237.875 54.6562V49.875H242.656C242.83 49.875 242.997 49.8059 243.12 49.6828C243.243 49.5597 243.312 49.3928 243.312 49.2188C243.312 49.0447 243.243 48.8778 243.12 48.7547C242.997 48.6316 242.83 48.5625 242.656 48.5625Z" fill="#171717"/>
<path d="M241.527 66.4726C241.467 66.4117 241.394 66.3633 241.315 66.3303C241.235 66.2973 241.15 66.2803 241.064 66.2803C240.977 66.2803 240.892 66.2973 240.812 66.3303C240.733 66.3633 240.661 66.4117 240.6 66.4726L237.219 69.8533L233.838 66.4726C233.777 66.4117 233.704 66.3634 233.625 66.3304C233.545 66.2975 233.46 66.2805 233.374 66.2805C233.288 66.2805 233.202 66.2975 233.123 66.3304C233.043 66.3634 232.971 66.4117 232.91 66.4726C232.849 66.5335 232.801 66.6059 232.768 66.6855C232.735 66.765 232.718 66.8504 232.718 66.9365C232.718 67.0227 232.735 67.108 232.768 67.1876C232.801 67.2671 232.849 67.3395 232.91 67.4004L236.291 70.7814L232.91 74.1624C232.849 74.2233 232.801 74.2956 232.768 74.3752C232.735 74.4548 232.718 74.5401 232.718 74.6263C232.718 74.7124 232.735 74.7977 232.768 74.8773C232.801 74.9569 232.849 75.0292 232.91 75.0901C232.971 75.151 233.043 75.1994 233.123 75.2323C233.202 75.2653 233.288 75.2823 233.374 75.2823C233.46 75.2823 233.545 75.2653 233.625 75.2323C233.704 75.1994 233.777 75.151 233.838 75.0901L237.219 71.7095L240.6 75.0901C240.723 75.2132 240.89 75.2823 241.064 75.2823C241.238 75.2823 241.404 75.2132 241.527 75.0901C241.65 74.9671 241.72 74.8002 241.72 74.6263C241.72 74.4523 241.65 74.2854 241.527 74.1624L238.147 70.7814L241.527 67.4004C241.588 67.3395 241.637 67.2672 241.67 67.1876C241.703 67.108 241.72 67.0227 241.72 66.9365C241.72 66.8503 241.703 66.765 241.67 66.6854C241.637 66.6058 241.588 66.5335 241.527 66.4726Z" fill="#171717"/>
<path d="M253.344 49.875H264.219C264.393 49.875 264.56 49.8059 264.683 49.6828C264.806 49.5597 264.875 49.3928 264.875 49.2188C264.875 49.0447 264.806 48.8778 264.683 48.7547C264.56 48.6316 264.393 48.5625 264.219 48.5625H253.344C253.17 48.5625 253.003 48.6316 252.88 48.7547C252.757 48.8778 252.688 49.0447 252.688 49.2188C252.688 49.3928 252.757 49.5597 252.88 49.6828C253.003 49.8059 253.17 49.875 253.344 49.875Z" fill="#171717"/>
<path d="M254.938 75.2823C255.024 75.2824 255.109 75.2655 255.189 75.2325C255.268 75.1995 255.341 75.151 255.401 75.0899L263.09 67.4002C263.213 67.2771 263.282 67.1103 263.282 66.9363C263.282 66.7623 263.213 66.5954 263.09 66.4724C262.967 66.3494 262.8 66.2803 262.626 66.2803C262.452 66.2803 262.285 66.3494 262.162 66.4724L254.473 74.1622C254.381 74.2539 254.318 74.3709 254.293 74.4981C254.268 74.6254 254.281 74.7573 254.33 74.8771C254.38 74.997 254.464 75.0995 254.572 75.1716C254.68 75.2437 254.807 75.2822 254.936 75.2823H254.938Z" fill="#171717"/>
<path d="M261.137 71.3555C260.725 71.3554 260.325 71.4982 260.006 71.7597C259.688 72.0211 259.47 72.3849 259.389 72.7892C259.309 73.1935 259.371 73.6131 259.565 73.9767C259.759 74.3402 260.074 74.6252 260.454 74.783C260.835 74.9408 261.259 74.9617 261.653 74.8421C262.048 74.7225 262.389 74.4698 262.618 74.1271C262.847 73.7845 262.95 73.3729 262.909 72.9627C262.869 72.5525 262.688 72.169 262.396 71.8775C262.231 71.7114 262.035 71.5797 261.819 71.4901C261.603 71.4005 261.371 71.3547 261.137 71.3555ZM261.469 73.4682C261.379 73.5539 261.261 73.6017 261.137 73.6017C261.013 73.6017 260.894 73.5539 260.805 73.4682C260.74 73.4027 260.695 73.3192 260.677 73.2284C260.659 73.1376 260.669 73.0435 260.704 72.958C260.74 72.8725 260.8 72.7994 260.877 72.748C260.954 72.6966 261.044 72.6692 261.137 72.6692C261.229 72.6692 261.32 72.6966 261.397 72.748C261.474 72.7994 261.534 72.8725 261.569 72.958C261.605 73.0435 261.614 73.1376 261.596 73.2284C261.578 73.3192 261.534 73.4027 261.469 73.4682Z" fill="#171717"/>
<path d="M256.426 70.2068C256.838 70.2069 257.237 70.064 257.556 69.8026C257.875 69.5412 258.093 69.1773 258.173 68.7731C258.254 68.3688 258.192 67.9492 257.998 67.5856C257.803 67.222 257.489 66.9371 257.108 66.7793C256.727 66.6215 256.304 66.6006 255.909 66.7202C255.515 66.8398 255.174 67.0924 254.945 67.4351C254.716 67.7778 254.613 68.1893 254.653 68.5996C254.693 69.0098 254.875 69.3933 255.166 69.6848C255.331 69.8509 255.527 69.9826 255.744 70.0722C255.96 70.1618 256.192 70.2076 256.426 70.2068ZM256.094 68.0941C256.137 68.0505 256.189 68.016 256.246 67.9924C256.303 67.9689 256.364 67.9567 256.425 67.9567C256.487 67.9567 256.548 67.9689 256.605 67.9924C256.662 68.016 256.713 68.0505 256.757 68.0941C256.8 68.1376 256.835 68.1893 256.859 68.2461C256.882 68.303 256.894 68.364 256.894 68.4256C256.894 68.4871 256.882 68.5481 256.859 68.605C256.835 68.6618 256.8 68.7135 256.757 68.7571C256.668 68.8422 256.549 68.8897 256.426 68.8897C256.302 68.8897 256.184 68.8422 256.094 68.7571C256.007 68.669 255.957 68.5498 255.957 68.4256C255.957 68.3013 256.007 68.1821 256.094 68.0941H256.094Z" fill="#171717"/>
<ellipse cx="27" cy="151.5" rx="60" ry="57.5" fill="#4DABF5"/>
<ellipse cx="33" cy="132.5" rx="60" ry="57.5" fill="#F73378" fill-opacity="0.7"/>
</g>
<defs>
<clipPath id="clip0">
<rect width="320" height="120" rx="10" fill="white"/>
</clipPath>
</defs>
</svg>
