<svg width="358" height="159" viewBox="0 0 358 159" fill="none" xmlns="http://www.w3.org/2000/svg">
<g clip-path="url(#clip0)">
<rect width="358" height="159" rx="10" fill="#FFE179"/>
<path d="M102.604 65.9062L109.178 84.4688L115.717 65.9062H122.643V91.5H117.352V84.5039L117.879 72.4277L110.971 91.5H107.35L100.459 72.4453L100.986 84.5039V91.5H95.7129V65.9062H102.604ZM137.936 91.5C137.701 91.043 137.531 90.4746 137.426 89.7949C136.195 91.166 134.596 91.8516 132.627 91.8516C130.764 91.8516 129.217 91.3125 127.986 90.2344C126.768 89.1562 126.158 87.7969 126.158 86.1562C126.158 84.1406 126.902 82.5938 128.391 81.5156C129.891 80.4375 132.053 79.8926 134.877 79.8809H137.215V78.791C137.215 77.9121 136.986 77.209 136.529 76.6816C136.084 76.1543 135.375 75.8906 134.402 75.8906C133.547 75.8906 132.873 76.0957 132.381 76.5059C131.9 76.916 131.66 77.4785 131.66 78.1934H126.58C126.58 77.0918 126.92 76.0723 127.6 75.1348C128.279 74.1973 129.24 73.4648 130.482 72.9375C131.725 72.3984 133.119 72.1289 134.666 72.1289C137.01 72.1289 138.867 72.7207 140.238 73.9043C141.621 75.0762 142.312 76.7285 142.312 78.8613V87.1055C142.324 88.9102 142.576 90.2754 143.068 91.2012V91.5H137.936ZM133.734 87.9668C134.484 87.9668 135.176 87.8027 135.809 87.4746C136.441 87.1348 136.91 86.6836 137.215 86.1211V82.8516H135.316C132.773 82.8516 131.42 83.7305 131.256 85.4883L131.238 85.7871C131.238 86.4199 131.461 86.9414 131.906 87.3516C132.352 87.7617 132.961 87.9668 133.734 87.9668ZM152.297 67.8047V72.4805H155.549V76.207H152.297V85.6992C152.297 86.4023 152.432 86.9062 152.701 87.2109C152.971 87.5156 153.486 87.668 154.248 87.668C154.811 87.668 155.309 87.627 155.742 87.5449V91.3945C154.746 91.6992 153.721 91.8516 152.666 91.8516C149.104 91.8516 147.287 90.0527 147.217 86.4551V76.207H144.439V72.4805H147.217V67.8047H152.297ZM163.336 74.5547C164.684 72.9375 166.377 72.1289 168.416 72.1289C172.541 72.1289 174.633 74.5254 174.691 79.3184V91.5H169.611V79.459C169.611 78.3691 169.377 77.5664 168.908 77.0508C168.439 76.5234 167.66 76.2598 166.57 76.2598C165.082 76.2598 164.004 76.834 163.336 77.9824V91.5H158.256V64.5H163.336V74.5547Z" fill="#171717"/>
<path d="M299.75 49.375H242.25C242.018 49.375 241.795 49.4672 241.631 49.6313C241.467 49.7954 241.375 50.0179 241.375 50.25V107.75C241.375 107.982 241.467 108.205 241.631 108.369C241.795 108.533 242.018 108.625 242.25 108.625H299.75C299.982 108.625 300.205 108.533 300.369 108.369C300.533 108.205 300.625 107.982 300.625 107.75V50.25C300.625 50.0179 300.533 49.7954 300.369 49.6313C300.205 49.4672 299.982 49.375 299.75 49.375ZM298.875 78.125H271.875V51.125H298.875V78.125ZM243.125 51.125H270.125V78.125H243.125V51.125ZM243.125 79.875H270.125V106.875H243.125V79.875ZM298.875 106.875H271.875V79.875H298.875V106.875Z" fill="#171717"/>
<path d="M263.875 63.75H257.5V57.375C257.5 57.1429 257.408 56.9204 257.244 56.7563C257.08 56.5922 256.857 56.5 256.625 56.5C256.393 56.5 256.17 56.5922 256.006 56.7563C255.842 56.9204 255.75 57.1429 255.75 57.375V63.75H249.375C249.143 63.75 248.92 63.8422 248.756 64.0063C248.592 64.1704 248.5 64.3929 248.5 64.625C248.5 64.8571 248.592 65.0796 248.756 65.2437C248.92 65.4078 249.143 65.5 249.375 65.5H255.75V71.875C255.75 72.1071 255.842 72.3296 256.006 72.4937C256.17 72.6578 256.393 72.75 256.625 72.75C256.857 72.75 257.08 72.6578 257.244 72.4937C257.408 72.3296 257.5 72.1071 257.5 71.875V65.5H263.875C264.107 65.5 264.33 65.4078 264.494 65.2437C264.658 65.0796 264.75 64.8571 264.75 64.625C264.75 64.3929 264.658 64.1704 264.494 64.0063C264.33 63.8422 264.107 63.75 263.875 63.75Z" fill="#171717"/>
<path d="M262.37 87.6295C262.289 87.5482 262.192 87.4837 262.086 87.4397C261.98 87.3957 261.866 87.373 261.751 87.373C261.637 87.373 261.523 87.3957 261.417 87.4397C261.311 87.4837 261.214 87.5482 261.133 87.6295L256.625 92.137L252.117 87.6295C252.036 87.5483 251.939 87.4839 251.833 87.4399C251.727 87.396 251.613 87.3733 251.498 87.3733C251.384 87.3733 251.27 87.396 251.164 87.4399C251.058 87.4839 250.961 87.5483 250.88 87.6295C250.799 87.7107 250.734 87.8072 250.69 87.9133C250.646 88.0194 250.624 88.1332 250.624 88.248C250.624 88.3629 250.646 88.4766 250.69 88.5828C250.734 88.6889 250.799 88.7853 250.88 88.8665L255.387 93.3745L250.88 97.8825C250.799 97.9637 250.734 98.0602 250.69 98.1663C250.646 98.2724 250.624 98.3862 250.624 98.501C250.624 98.6159 250.646 98.7296 250.69 98.8358C250.734 98.9419 250.799 99.0383 250.88 99.1195C250.961 99.2007 251.058 99.2652 251.164 99.3091C251.27 99.3531 251.384 99.3757 251.498 99.3757C251.613 99.3757 251.727 99.3531 251.833 99.3091C251.939 99.2652 252.036 99.2007 252.117 99.1195L256.625 94.612L261.133 99.1195C261.297 99.2836 261.519 99.3757 261.751 99.3757C261.983 99.3757 262.206 99.2836 262.37 99.1195C262.534 98.9555 262.626 98.733 262.626 98.501C262.626 98.269 262.534 98.0466 262.37 97.8825L257.862 93.3745L262.37 88.8665C262.451 88.7853 262.516 88.6889 262.56 88.5828C262.604 88.4767 262.626 88.3629 262.626 88.248C262.626 88.1331 262.604 88.0194 262.56 87.9132C262.516 87.8071 262.451 87.7107 262.37 87.6295Z" fill="#171717"/>
<path d="M278.125 65.5H292.625C292.857 65.5 293.08 65.4078 293.244 65.2437C293.408 65.0796 293.5 64.8571 293.5 64.625C293.5 64.3929 293.408 64.1704 293.244 64.0063C293.08 63.8422 292.857 63.75 292.625 63.75H278.125C277.893 63.75 277.67 63.8422 277.506 64.0063C277.342 64.1704 277.25 64.3929 277.25 64.625C277.25 64.8571 277.342 65.0796 277.506 65.2437C277.67 65.4078 277.893 65.5 278.125 65.5Z" fill="#171717"/>
<path d="M280.25 99.3767C280.365 99.3769 280.479 99.3543 280.585 99.3103C280.691 99.2663 280.788 99.2017 280.869 99.1202L291.12 88.8672C291.284 88.7032 291.376 88.4807 291.376 88.2487C291.376 88.0167 291.284 87.7943 291.12 87.6302C290.956 87.4662 290.734 87.374 290.502 87.374C290.27 87.374 290.047 87.4662 289.883 87.6302L279.63 97.8832C279.508 98.0056 279.425 98.1615 279.391 98.3311C279.357 98.5008 279.374 98.6767 279.441 98.8365C279.507 98.9963 279.619 99.133 279.763 99.2291C279.907 99.3253 280.076 99.3766 280.249 99.3767H280.25Z" fill="#171717"/>
<path d="M288.516 94.1406C287.966 94.1405 287.433 94.331 287.008 94.6796C286.584 95.0281 286.293 95.5133 286.185 96.0523C286.078 96.5913 286.161 97.1508 286.42 97.6356C286.679 98.1203 287.098 98.5003 287.606 98.7107C288.113 98.9211 288.678 98.9489 289.204 98.7895C289.73 98.63 290.185 98.2931 290.49 97.8362C290.796 97.3793 290.933 96.8306 290.879 96.2836C290.825 95.7367 290.584 95.2253 290.195 94.8366C289.975 94.6152 289.714 94.4396 289.425 94.3201C289.137 94.2006 288.828 94.1396 288.516 94.1406ZM288.958 96.9576C288.839 97.0718 288.681 97.1356 288.516 97.1356C288.351 97.1356 288.193 97.0718 288.074 96.9576C287.986 96.8702 287.927 96.7589 287.903 96.6379C287.879 96.5168 287.892 96.3913 287.939 96.2773C287.986 96.1633 288.066 96.0659 288.169 95.9973C288.272 95.9288 288.392 95.8922 288.516 95.8922C288.639 95.8922 288.76 95.9288 288.863 95.9973C288.965 96.0659 289.045 96.1633 289.093 96.2773C289.14 96.3913 289.152 96.5168 289.129 96.6379C289.105 96.7589 289.045 96.8702 288.958 96.9576Z" fill="#171717"/>
<path d="M282.234 92.6094C282.784 92.6095 283.317 92.419 283.742 92.0705C284.166 91.7219 284.457 91.2368 284.565 90.6978C284.672 90.1587 284.589 89.5992 284.33 89.1145C284.071 88.6297 283.652 88.2498 283.144 88.0394C282.637 87.829 282.072 87.8011 281.546 87.9606C281.02 88.12 280.565 88.4569 280.26 88.9138C279.955 89.3708 279.817 89.9194 279.871 90.4664C279.925 91.0133 280.166 91.5247 280.555 91.9134C280.775 92.1349 281.037 92.3104 281.325 92.4299C281.613 92.5494 281.922 92.6104 282.234 92.6094ZM281.792 89.7924C281.85 89.7344 281.919 89.6883 281.995 89.6569C282.071 89.6255 282.152 89.6093 282.234 89.6093C282.316 89.6093 282.397 89.6255 282.473 89.6569C282.549 89.6883 282.618 89.7344 282.676 89.7924C282.734 89.8504 282.78 89.9194 282.811 89.9952C282.843 90.071 282.859 90.1523 282.859 90.2344C282.859 90.3165 282.843 90.3978 282.811 90.4736C282.78 90.5494 282.734 90.6184 282.676 90.6764C282.557 90.7899 282.399 90.8533 282.234 90.8533C282.07 90.8533 281.911 90.7899 281.792 90.6764C281.675 90.5591 281.61 90.4001 281.61 90.2344C281.61 90.0687 281.675 89.9097 281.792 89.7924H281.792Z" fill="#171717"/>
<ellipse cx="9" cy="164.5" rx="60" ry="57.5" fill="#4DABF5"/>
<ellipse cx="33" cy="148.5" rx="60" ry="57.5" fill="#F73378" fill-opacity="0.7"/>
</g>
<defs>
<clipPath id="clip0">
<rect width="358" height="159" rx="10" fill="white"/>
</clipPath>
</defs>
</svg>
