<svg width="358" height="159" viewBox="0 0 358 159" fill="none" xmlns="http://www.w3.org/2000/svg">
<g clip-path="url(#clip0)">
<rect width="358" height="159" rx="10" fill="#FFE179"/>
<path d="M273 70.2104V100.481C271.903 100.015 270.626 99.7495 269.25 99.7495C265.044 99.7495 261.75 102.22 261.75 105.375C261.75 108.529 265.044 111 269.25 111C273.456 111 276.75 108.529 276.75 105.375V80.5386L299.25 74.1104V92.9814C298.153 92.5151 296.876 92.2495 295.5 92.2495C291.294 92.2495 288 94.7202 288 97.8745C288 101.029 291.294 103.5 295.5 103.5C299.706 103.5 303 101.029 303 97.8745V61.6387L273 70.2104ZM269.25 107.25C266.961 107.25 265.5 106.139 265.5 105.375C265.5 104.61 266.961 103.5 269.25 103.5C271.539 103.5 273 104.61 273 105.375C273 106.139 271.539 107.25 269.25 107.25ZM276.75 76.6387V73.0386L299.25 66.6104V70.21L276.75 76.6387ZM295.5 99.7495C293.211 99.7495 291.75 98.6392 291.75 97.8745C291.75 97.1099 293.211 95.9995 295.5 95.9995C297.789 95.9995 299.25 97.1099 299.25 97.8745C299.25 98.6392 297.789 99.7495 295.5 99.7495Z" fill="black"/>
<path d="M269 67.625V63.875C269 54.5703 261.43 47 252.125 47H250.25V78.0088C249.146 77.3687 247.866 77 246.5 77C242.364 77 239 80.3643 239 84.5C239 88.6357 242.364 92 246.5 92C250.636 92 254 88.6357 254 84.5V50.8833C260.352 51.7959 265.25 57.2744 265.25 63.875V67.625C265.25 68.6587 264.409 69.5 263.375 69.5C262.341 69.5 261.5 68.6587 261.5 67.625V63.875H257.75V67.625C257.75 70.7266 260.273 73.25 263.375 73.25C266.477 73.25 269 70.7266 269 67.625ZM246.5 88.25C244.432 88.25 242.75 86.5679 242.75 84.5C242.75 82.4321 244.432 80.75 246.5 80.75C248.568 80.75 250.25 82.4321 250.25 84.5C250.25 86.5679 248.568 88.25 246.5 88.25Z" fill="black"/>
<path d="M95.4043 65.9062L101.979 84.4688L108.518 65.9062H115.443V91.5H110.152V84.5039L110.68 72.4277L103.771 91.5H100.15L93.2598 72.4453L93.7871 84.5039V91.5H88.5137V65.9062H95.4043ZM131.105 89.5664C129.852 91.0898 128.117 91.8516 125.902 91.8516C123.863 91.8516 122.305 91.2656 121.227 90.0938C120.16 88.9219 119.615 87.2051 119.592 84.9434V72.4805H124.672V84.7676C124.672 86.748 125.574 87.7383 127.379 87.7383C129.102 87.7383 130.285 87.1406 130.93 85.9453V72.4805H136.027V91.5H131.246L131.105 89.5664ZM150.16 86.2441C150.16 85.623 149.85 85.1367 149.229 84.7852C148.619 84.4219 147.635 84.0996 146.275 83.8184C141.752 82.8691 139.49 80.9473 139.49 78.0527C139.49 76.3652 140.188 74.959 141.582 73.834C142.988 72.6973 144.822 72.1289 147.084 72.1289C149.498 72.1289 151.426 72.6973 152.867 73.834C154.32 74.9707 155.047 76.4473 155.047 78.2637H149.967C149.967 77.5371 149.732 76.9395 149.264 76.4707C148.795 75.9902 148.062 75.75 147.066 75.75C146.211 75.75 145.549 75.9434 145.08 76.3301C144.611 76.7168 144.377 77.209 144.377 77.8066C144.377 78.3691 144.641 78.8262 145.168 79.1777C145.707 79.5176 146.609 79.8164 147.875 80.0742C149.141 80.3203 150.207 80.6016 151.074 80.918C153.758 81.9023 155.1 83.6074 155.1 86.0332C155.1 87.7676 154.355 89.1738 152.867 90.252C151.379 91.3184 149.457 91.8516 147.102 91.8516C145.508 91.8516 144.09 91.5703 142.848 91.0078C141.617 90.4336 140.65 89.6543 139.947 88.6699C139.244 87.6738 138.893 86.6016 138.893 85.4531H143.709C143.756 86.3555 144.09 87.0469 144.711 87.5273C145.332 88.0078 146.164 88.248 147.207 88.248C148.18 88.248 148.912 88.0664 149.404 87.7031C149.908 87.3281 150.16 86.8418 150.16 86.2441ZM163.748 91.5H158.65V72.4805H163.748V91.5ZM158.352 67.5586C158.352 66.7969 158.604 66.1699 159.107 65.6777C159.623 65.1855 160.32 64.9395 161.199 64.9395C162.066 64.9395 162.758 65.1855 163.273 65.6777C163.789 66.1699 164.047 66.7969 164.047 67.5586C164.047 68.332 163.783 68.9648 163.256 69.457C162.74 69.9492 162.055 70.1953 161.199 70.1953C160.344 70.1953 159.652 69.9492 159.125 69.457C158.609 68.9648 158.352 68.332 158.352 67.5586ZM175.859 87.7559C176.797 87.7559 177.559 87.498 178.145 86.9824C178.73 86.4668 179.035 85.7812 179.059 84.9258H183.822C183.811 86.2148 183.459 87.3984 182.768 88.4766C182.076 89.543 181.127 90.375 179.92 90.9727C178.725 91.5586 177.4 91.8516 175.947 91.8516C173.229 91.8516 171.084 90.9902 169.514 89.2676C167.943 87.5332 167.158 85.1426 167.158 82.0957V81.7617C167.158 78.832 167.938 76.4941 169.496 74.748C171.055 73.002 173.193 72.1289 175.912 72.1289C178.291 72.1289 180.195 72.8086 181.625 74.168C183.066 75.5156 183.799 77.3145 183.822 79.5645H179.059C179.035 78.5801 178.73 77.7832 178.145 77.1738C177.559 76.5527 176.785 76.2422 175.824 76.2422C174.641 76.2422 173.744 76.6758 173.135 77.543C172.537 78.3984 172.238 79.793 172.238 81.7266V82.2539C172.238 84.2109 172.537 85.6172 173.135 86.4727C173.732 87.3281 174.641 87.7559 175.859 87.7559Z" fill="#171717"/>
<ellipse cx="349" cy="151.5" rx="60" ry="57.5" fill="#F73378" fill-opacity="0.7"/>
<ellipse cx="378" cy="133.5" rx="60" ry="57.5" fill="#F73378"/>
</g>
<defs>
<clipPath id="clip0">
<rect width="358" height="159" rx="10" fill="white"/>
</clipPath>
</defs>
</svg>
