<svg width="320" height="120" viewBox="0 0 320 120" fill="none" xmlns="http://www.w3.org/2000/svg">
<g clip-path="url(#clip0)">
<rect width="320" height="120" rx="10" fill="#FFE179"/>
<path d="M249.5 53.4083V76.1116C248.677 75.7618 247.719 75.5626 246.688 75.5626C243.533 75.5626 241.062 77.4156 241.062 79.7814C241.062 82.1471 243.533 84.0001 246.688 84.0001C249.842 84.0001 252.312 82.1471 252.312 79.7814V61.1544L269.188 56.3333V70.4866C268.365 70.1368 267.407 69.9376 266.375 69.9376C263.221 69.9376 260.75 71.7906 260.75 74.1564C260.75 76.5221 263.221 78.3751 266.375 78.3751C269.529 78.3751 272 76.5221 272 74.1564V46.9795L249.5 53.4083ZM246.688 81.1876C244.971 81.1876 243.875 80.3549 243.875 79.7814C243.875 79.2079 244.971 78.3751 246.688 78.3751C248.404 78.3751 249.5 79.2079 249.5 79.7814C249.5 80.3549 248.404 81.1876 246.688 81.1876ZM252.312 58.2295V55.5294L269.188 50.7083V53.408L252.312 58.2295ZM266.375 75.5626C264.658 75.5626 263.562 74.7299 263.562 74.1564C263.562 73.5829 264.658 72.7501 266.375 72.7501C268.092 72.7501 269.188 73.5829 269.188 74.1564C269.188 74.7299 268.092 75.5626 266.375 75.5626Z" fill="black"/>
<path d="M246.5 51.4688V48.6562C246.5 41.6777 240.822 36 233.844 36H232.438V59.2566C231.609 58.7765 230.649 58.5 229.625 58.5C226.523 58.5 224 61.0232 224 64.125C224 67.2268 226.523 69.75 229.625 69.75C232.727 69.75 235.25 67.2268 235.25 64.125V38.9125C240.014 39.5969 243.688 43.7058 243.688 48.6562V51.4688C243.688 52.244 243.057 52.875 242.281 52.875C241.506 52.875 240.875 52.244 240.875 51.4688V48.6562H238.062V51.4688C238.062 53.7949 239.955 55.6875 242.281 55.6875C244.607 55.6875 246.5 53.7949 246.5 51.4688ZM229.625 66.9375C228.074 66.9375 226.812 65.6759 226.812 64.125C226.812 62.5741 228.074 61.3125 229.625 61.3125C231.176 61.3125 232.438 62.5741 232.438 64.125C232.438 65.6759 231.176 66.9375 229.625 66.9375Z" fill="black"/>
<path d="M54.2695 51.4375L58.6523 63.8125L63.0117 51.4375H67.6289V68.5H64.1016V63.8359L64.4531 55.7852L59.8477 68.5H57.4336L52.8398 55.7969L53.1914 63.8359V68.5H49.6758V51.4375H54.2695ZM78.0703 67.2109C77.2344 68.2266 76.0781 68.7344 74.6016 68.7344C73.2422 68.7344 72.2031 68.3438 71.4844 67.5625C70.7734 66.7812 70.4102 65.6367 70.3945 64.1289V55.8203H73.7812V64.0117C73.7812 65.332 74.3828 65.9922 75.5859 65.9922C76.7344 65.9922 77.5234 65.5938 77.9531 64.7969V55.8203H81.3516V68.5H78.1641L78.0703 67.2109ZM90.7734 64.9961C90.7734 64.582 90.5664 64.2578 90.1523 64.0234C89.7461 63.7812 89.0898 63.5664 88.1836 63.3789C85.168 62.7461 83.6602 61.4648 83.6602 59.5352C83.6602 58.4102 84.125 57.4727 85.0547 56.7227C85.9922 55.9648 87.2148 55.5859 88.7227 55.5859C90.332 55.5859 91.6172 55.9648 92.5781 56.7227C93.5469 57.4805 94.0312 58.4648 94.0312 59.6758H90.6445C90.6445 59.1914 90.4883 58.793 90.1758 58.4805C89.8633 58.1602 89.375 58 88.7109 58C88.1406 58 87.6992 58.1289 87.3867 58.3867C87.0742 58.6445 86.918 58.9727 86.918 59.3711C86.918 59.7461 87.0938 60.0508 87.4453 60.2852C87.8047 60.5117 88.4062 60.7109 89.25 60.8828C90.0938 61.0469 90.8047 61.2344 91.3828 61.4453C93.1719 62.1016 94.0664 63.2383 94.0664 64.8555C94.0664 66.0117 93.5703 66.9492 92.5781 67.668C91.5859 68.3789 90.3047 68.7344 88.7344 68.7344C87.6719 68.7344 86.7266 68.5469 85.8984 68.1719C85.0781 67.7891 84.4336 67.2695 83.9648 66.6133C83.4961 65.9492 83.2617 65.2344 83.2617 64.4688H86.4727C86.5039 65.0703 86.7266 65.5312 87.1406 65.8516C87.5547 66.1719 88.1094 66.332 88.8047 66.332C89.4531 66.332 89.9414 66.2109 90.2695 65.9688C90.6055 65.7188 90.7734 65.3945 90.7734 64.9961ZM99.832 68.5H96.4336V55.8203H99.832V68.5ZM96.2344 52.5391C96.2344 52.0312 96.4023 51.6133 96.7383 51.2852C97.082 50.957 97.5469 50.793 98.1328 50.793C98.7109 50.793 99.1719 50.957 99.5156 51.2852C99.8594 51.6133 100.031 52.0312 100.031 52.5391C100.031 53.0547 99.8555 53.4766 99.5039 53.8047C99.1602 54.1328 98.7031 54.2969 98.1328 54.2969C97.5625 54.2969 97.1016 54.1328 96.75 53.8047C96.4062 53.4766 96.2344 53.0547 96.2344 52.5391ZM107.906 66.0039C108.531 66.0039 109.039 65.832 109.43 65.4883C109.82 65.1445 110.023 64.6875 110.039 64.1172H113.215C113.207 64.9766 112.973 65.7656 112.512 66.4844C112.051 67.1953 111.418 67.75 110.613 68.1484C109.816 68.5391 108.934 68.7344 107.965 68.7344C106.152 68.7344 104.723 68.1602 103.676 67.0117C102.629 65.8555 102.105 64.2617 102.105 62.2305V62.0078C102.105 60.0547 102.625 58.4961 103.664 57.332C104.703 56.168 106.129 55.5859 107.941 55.5859C109.527 55.5859 110.797 56.0391 111.75 56.9453C112.711 57.8438 113.199 59.043 113.215 60.543H110.039C110.023 59.8867 109.82 59.3555 109.43 58.9492C109.039 58.5352 108.523 58.3281 107.883 58.3281C107.094 58.3281 106.496 58.6172 106.09 59.1953C105.691 59.7656 105.492 60.6953 105.492 61.9844V62.3359C105.492 63.6406 105.691 64.5781 106.09 65.1484C106.488 65.7188 107.094 66.0039 107.906 66.0039Z" fill="#171717"/>
<ellipse cx="325" cy="117.5" rx="60" ry="57.5" fill="#F73378" fill-opacity="0.7"/>
<ellipse cx="378" cy="133.5" rx="60" ry="57.5" fill="#F73378"/>
</g>
<defs>
<clipPath id="clip0">
<rect width="320" height="120" rx="10" fill="white"/>
</clipPath>
</defs>
</svg>
