<svg width="358" height="159" viewBox="0 0 358 159" fill="none" xmlns="http://www.w3.org/2000/svg">
<g clip-path="url(#clip0)">
<rect width="358" height="159" rx="10" fill="#FFE179"/>
<path d="M270.961 60.5781C270.957 60.5781 270.954 60.5781 270.95 60.5781H270.917C270.914 60.5781 270.91 60.5781 270.907 60.5781C265.899 60.5892 261.205 62.4985 257.685 65.9574C254.135 69.4457 252.179 74.123 252.179 79.1273C252.179 84.737 254.594 89.9133 258.805 93.3287C259.455 93.8561 260.545 95.5362 260.545 100.864V109.438C260.545 110.091 261.074 110.62 261.727 110.62H280.14C280.792 110.62 281.322 110.091 281.322 109.438V100.864C281.322 100.855 281.32 100.846 281.32 100.837C281.32 100.827 281.322 100.818 281.322 100.809C281.322 95.432 282.412 93.7452 283.063 93.2178C287.335 89.7508 289.688 84.7467 289.688 79.1271C289.688 74.1226 287.733 69.4455 284.183 65.9572C280.663 62.4985 275.969 60.5892 270.961 60.5781ZM278.959 108.257H262.909V102.046H274.089C274.141 102.053 274.194 102.058 274.248 102.058C274.302 102.058 274.355 102.053 274.407 102.046H278.959V108.257ZM268.624 83.1898H273.267C273.156 87.6566 273.081 95.2601 273.068 99.683H268.821C268.809 95.5878 268.737 87.7787 268.624 83.1898ZM281.574 91.3829C279.953 92.697 279.102 95.4206 278.977 99.683H275.431C275.444 94.8348 275.53 87.3901 275.631 83.1898H278.157C280.275 83.1898 282.063 81.3145 282.063 79.0946C282.063 76.9255 280.275 75.0932 278.157 75.0932C276.214 75.0932 273.949 76.3094 273.418 79.7236C273.392 79.8926 273.367 80.276 273.343 80.8268H268.55C268.524 80.2531 268.498 79.8532 268.471 79.6763C268.121 77.4153 266.693 74.9991 263.733 74.9991C261.616 74.9991 259.828 76.8745 259.828 79.0946C259.828 81.3145 261.616 83.1898 263.733 83.1898H266.26C266.361 87.4106 266.446 94.8466 266.459 99.683H262.888C262.757 95.4897 261.906 92.8017 260.294 91.4936C256.639 88.5289 254.543 84.0216 254.543 79.1273C254.543 74.762 256.247 70.6833 259.341 67.6431C262.423 64.6148 266.54 62.9453 270.934 62.9412C275.328 62.9453 279.445 64.6148 282.527 67.6431C285.621 70.6833 287.325 74.7618 287.325 79.1273C287.325 84.021 285.282 88.3734 281.574 91.3829ZM275.703 80.8268C275.72 80.4522 275.737 80.1974 275.753 80.0857C276.109 77.7977 277.412 77.4561 278.157 77.4561C278.979 77.4561 279.7 78.2217 279.7 79.0944C279.7 80.0011 278.965 80.8266 278.157 80.8266H275.703V80.8268ZM266.188 80.8268H263.733C262.926 80.8268 262.191 80.0013 262.191 79.0946C262.191 78.188 262.926 77.3621 263.733 77.3621C265.463 77.3621 265.981 79.0383 266.135 80.0379C266.153 80.1543 266.17 80.4262 266.188 80.8268Z" fill="black"/>
<path d="M279.301 59.2084C279.453 59.2734 279.611 59.3043 279.766 59.3043C280.225 59.3043 280.661 59.0359 280.853 58.5877L284.92 49.0967C285.177 48.4969 284.9 47.8024 284.3 47.5454C283.7 47.2876 283.005 47.5661 282.748 48.1659L278.681 57.6569C278.424 58.2569 278.702 58.9515 279.301 59.2084Z" fill="black"/>
<path d="M261.072 58.5892C261.256 59.0511 261.7 59.3322 262.169 59.3322C262.315 59.3322 262.464 59.3048 262.608 59.2473C263.213 59.0049 263.508 58.3172 263.266 57.7113L259.431 48.124C259.188 47.5183 258.501 47.2233 257.895 47.4657C257.289 47.7081 256.994 48.3957 257.236 49.0017L261.072 58.5892Z" fill="black"/>
<path d="M239.787 67.63L249.277 71.7C249.429 71.765 249.587 71.7959 249.742 71.7959C250.2 71.7959 250.637 71.5275 250.829 71.0797C251.086 70.4799 250.808 69.7853 250.209 69.5279L240.718 65.4582C240.118 65.2012 239.424 65.4786 239.167 66.0783C238.91 66.6781 239.187 67.3728 239.787 67.63Z" fill="black"/>
<path d="M249.33 87.1132L239.743 90.9506C239.137 91.193 238.842 91.8808 239.085 92.4866C239.27 92.9486 239.713 93.2294 240.182 93.2294C240.328 93.2294 240.477 93.202 240.621 93.1443L250.208 89.3069C250.814 89.0645 251.109 88.3766 250.866 87.7709C250.624 87.1654 249.936 86.8708 249.33 87.1132Z" fill="black"/>
<path d="M302.213 91.1271L292.719 87.0599C292.118 86.8025 291.425 87.0805 291.168 87.6806C290.911 88.2804 291.189 88.9749 291.788 89.2321L301.282 93.2993C301.434 93.3643 301.591 93.395 301.747 93.395C302.205 93.395 302.641 93.1266 302.833 92.6784C303.09 92.0788 302.813 91.384 302.213 91.1271Z" fill="black"/>
<path d="M292.228 71.7314C292.374 71.7314 292.523 71.704 292.667 71.6463L302.257 67.8081C302.863 67.5657 303.157 66.8778 302.915 66.2721C302.673 65.6662 301.985 65.3718 301.379 65.6142L291.789 69.4524C291.183 69.6948 290.889 70.3826 291.131 70.9884C291.316 71.4504 291.759 71.7314 292.228 71.7314Z" fill="black"/>
<path d="M113.414 79.2832C113.414 81.8027 112.969 84.0117 112.078 85.9102C111.188 87.8086 109.91 89.2734 108.246 90.3047C106.594 91.3359 104.695 91.8516 102.551 91.8516C100.43 91.8516 98.5371 91.3418 96.873 90.3223C95.209 89.3027 93.9199 87.8496 93.0059 85.9629C92.0918 84.0645 91.6289 81.8848 91.6172 79.4238V78.1582C91.6172 75.6387 92.0684 73.4238 92.9707 71.5137C93.8848 69.5918 95.168 68.1211 96.8203 67.1016C98.4844 66.0703 100.383 65.5547 102.516 65.5547C104.648 65.5547 106.541 66.0703 108.193 67.1016C109.857 68.1211 111.141 69.5918 112.043 71.5137C112.957 73.4238 113.414 75.6328 113.414 78.1406V79.2832ZM108.07 78.123C108.07 75.4395 107.59 73.4004 106.629 72.0059C105.668 70.6113 104.297 69.9141 102.516 69.9141C100.746 69.9141 99.3809 70.6055 98.4199 71.9883C97.459 73.3594 96.9727 75.375 96.9609 78.0352V79.2832C96.9609 81.8965 97.4414 83.9238 98.4023 85.3652C99.3633 86.8066 100.746 87.5273 102.551 87.5273C104.32 87.5273 105.68 86.8359 106.629 85.4531C107.578 84.0586 108.059 82.0312 108.07 79.3711V78.123ZM122.994 67.8047V72.4805H126.246V76.207H122.994V85.6992C122.994 86.4023 123.129 86.9062 123.398 87.2109C123.668 87.5156 124.184 87.668 124.945 87.668C125.508 87.668 126.006 87.627 126.439 87.5449V91.3945C125.443 91.6992 124.418 91.8516 123.363 91.8516C119.801 91.8516 117.984 90.0527 117.914 86.4551V76.207H115.137V72.4805H117.914V67.8047H122.994ZM134.033 74.5547C135.381 72.9375 137.074 72.1289 139.113 72.1289C143.238 72.1289 145.33 74.5254 145.389 79.3184V91.5H140.309V79.459C140.309 78.3691 140.074 77.5664 139.605 77.0508C139.137 76.5234 138.357 76.2598 137.268 76.2598C135.779 76.2598 134.701 76.834 134.033 77.9824V91.5H128.953V64.5H134.033V74.5547ZM157.975 91.8516C155.186 91.8516 152.912 90.9961 151.154 89.2852C149.408 87.5742 148.535 85.2949 148.535 82.4473V81.9551C148.535 80.0449 148.904 78.3398 149.643 76.8398C150.381 75.3281 151.424 74.168 152.771 73.3594C154.131 72.5391 155.678 72.1289 157.412 72.1289C160.014 72.1289 162.059 72.9492 163.547 74.5898C165.047 76.2305 165.797 78.5566 165.797 81.5684V83.6426H153.686C153.85 84.8848 154.342 85.8809 155.162 86.6309C155.994 87.3809 157.043 87.7559 158.309 87.7559C160.266 87.7559 161.795 87.0469 162.896 85.6289L165.393 88.4238C164.631 89.502 163.6 90.3457 162.299 90.9551C160.998 91.5527 159.557 91.8516 157.975 91.8516ZM157.395 76.2422C156.387 76.2422 155.566 76.582 154.934 77.2617C154.312 77.9414 153.914 78.9141 153.738 80.1797H160.805V79.7754C160.781 78.6504 160.477 77.7832 159.891 77.1738C159.305 76.5527 158.473 76.2422 157.395 76.2422ZM179.385 77.2441C178.693 77.1504 178.084 77.1035 177.557 77.1035C175.635 77.1035 174.375 77.7539 173.777 79.0547V91.5H168.697V72.4805H173.496L173.637 74.748C174.656 73.002 176.068 72.1289 177.873 72.1289C178.436 72.1289 178.963 72.2051 179.455 72.3574L179.385 77.2441Z" fill="#171717"/>
<ellipse cx="349" cy="151.5" rx="60" ry="57.5" fill="#F73378" fill-opacity="0.7"/>
<ellipse cx="378" cy="133.5" rx="60" ry="57.5" fill="#F73378"/>
</g>
<defs>
<clipPath id="clip0">
<rect width="358" height="159" rx="10" fill="white"/>
</clipPath>
</defs>
</svg>
