<svg width="320" height="120" viewBox="0 0 320 120" fill="none" xmlns="http://www.w3.org/2000/svg">
<g clip-path="url(#clip0)">
<rect width="320" height="120" rx="10" fill="#FFE179"/>
<path d="M262.971 42.3975C262.968 42.3975 262.966 42.3975 262.963 42.3975H262.938C262.936 42.3975 262.933 42.3975 262.93 42.3975C259.175 42.4058 255.654 43.8551 253.014 46.4805C250.351 49.1282 248.885 52.6784 248.885 56.4768C248.885 60.7347 250.696 64.6636 253.854 67.256C254.341 67.6563 255.159 68.9316 255.159 72.9759V79.4838C255.159 79.9789 255.556 80.3806 256.045 80.3806H269.855C270.345 80.3806 270.741 79.9789 270.741 79.4838V72.9759C270.741 72.9687 270.741 72.962 270.74 72.955C270.741 72.9478 270.741 72.9409 270.741 72.9339C270.741 68.8525 271.559 67.5722 272.047 67.1719C275.251 64.5403 277.016 60.742 277.016 56.4767C277.016 52.6781 275.55 49.128 272.887 46.4803C270.247 43.8551 266.727 42.4058 262.971 42.3975ZM268.969 78.5869H256.932V73.8727H265.317C265.356 73.8781 265.395 73.8818 265.436 73.8818C265.477 73.8818 265.516 73.8782 265.555 73.8727H268.969V78.5869ZM261.218 59.5603H264.701C264.617 62.9507 264.561 68.722 264.551 72.0791H261.366C261.357 68.9707 261.303 63.0434 261.218 59.5603ZM270.931 65.7791C269.715 66.7765 269.076 68.8438 268.983 72.0791H266.324C266.333 68.3992 266.398 62.7485 266.473 59.5603H268.368C269.956 59.5603 271.298 58.1369 271.298 56.452C271.298 54.8056 269.956 53.4148 268.368 53.4148C266.911 53.4148 265.212 54.3379 264.814 56.9294C264.794 57.0576 264.775 57.3487 264.757 57.7667H261.162C261.144 57.3313 261.124 57.0277 261.103 56.8935C260.841 55.1773 259.77 53.3433 257.55 53.3433C255.962 53.3433 254.621 54.7669 254.621 56.452C254.621 58.1369 255.962 59.5603 257.55 59.5603H259.445C259.521 62.764 259.585 68.4081 259.594 72.0791H256.917C256.818 68.8963 256.18 66.8561 254.971 65.8631C252.23 63.6129 250.657 60.1917 250.657 56.4768C250.657 53.1634 251.935 50.0676 254.256 47.7599C256.568 45.4614 259.655 44.1942 262.951 44.1911C266.246 44.1942 269.334 45.4614 271.645 47.7599C273.966 50.0676 275.244 53.1632 275.244 56.4768C275.244 60.1912 273.712 63.4948 270.931 65.7791ZM266.528 57.7667C266.54 57.4824 266.553 57.289 266.565 57.2043C266.832 55.4676 267.809 55.2083 268.368 55.2083C268.985 55.2083 269.525 55.7894 269.525 56.4518C269.525 57.14 268.974 57.7666 268.368 57.7666H266.528V57.7667ZM259.391 57.7667H257.55C256.944 57.7667 256.393 57.1401 256.393 56.452C256.393 55.7638 256.944 55.137 257.55 55.137C258.848 55.137 259.236 56.4092 259.352 57.1679C259.365 57.2563 259.378 57.4627 259.391 57.7667Z" fill="black"/>
<path d="M269.226 41.3582C269.34 41.4075 269.458 41.431 269.575 41.431C269.919 41.431 270.246 41.2272 270.39 40.8871L273.44 33.6831C273.633 33.2278 273.425 32.7007 272.975 32.5056C272.525 32.3099 272.004 32.5213 271.811 32.9766L268.761 40.1805C268.568 40.6359 268.776 41.1631 269.226 41.3582Z" fill="black"/>
<path d="M255.554 40.8883C255.692 41.2389 256.025 41.4522 256.377 41.4522C256.486 41.4522 256.598 41.4314 256.706 41.3878C257.16 41.2038 257.381 40.6819 257.199 40.2219L254.323 32.9449C254.141 32.4851 253.626 32.2612 253.171 32.4452C252.717 32.6292 252.495 33.1512 252.677 33.6111L255.554 40.8883Z" fill="black"/>
<path d="M239.59 47.7505L246.708 50.8398C246.822 50.8891 246.94 50.9126 247.057 50.9126C247.4 50.9126 247.727 50.7088 247.872 50.3689C248.064 49.9137 247.856 49.3865 247.406 49.1911L240.289 46.1021C239.839 45.907 239.318 46.1176 239.125 46.5727C238.932 47.028 239.14 47.5553 239.59 47.7505Z" fill="black"/>
<path d="M246.748 62.539L239.557 65.4517C239.103 65.6357 238.882 66.1578 239.064 66.6176C239.202 66.9682 239.535 67.1814 239.887 67.1814C239.996 67.1814 240.108 67.1606 240.215 67.1168L247.406 64.2041C247.861 64.0201 248.082 63.498 247.9 63.0383C247.718 62.5786 247.202 62.355 246.748 62.539Z" fill="black"/>
<path d="M286.41 65.5858L279.29 62.4986C278.839 62.3033 278.319 62.5143 278.126 62.9698C277.933 63.425 278.142 63.9522 278.592 64.1474L285.712 67.2346C285.826 67.2839 285.944 67.3072 286.06 67.3072C286.404 67.3072 286.731 67.1035 286.875 66.7633C287.068 66.3081 286.86 65.7808 286.41 65.5858Z" fill="black"/>
<path d="M278.922 50.8638C279.031 50.8638 279.142 50.843 279.251 50.7992L286.443 47.8859C286.897 47.7019 287.118 47.1798 286.937 46.7201C286.755 46.2601 286.239 46.0367 285.785 46.2207L278.592 49.134C278.138 49.318 277.917 49.8401 278.099 50.2998C278.237 50.6505 278.57 50.8638 278.922 50.8638Z" fill="black"/>
<path d="M63.6094 59.3555C63.6094 61.0352 63.3125 62.5078 62.7188 63.7734C62.125 65.0391 61.2734 66.0156 60.1641 66.7031C59.0625 67.3906 57.7969 67.7344 56.3672 67.7344C54.9531 67.7344 53.6914 67.3945 52.582 66.7148C51.4727 66.0352 50.6133 65.0664 50.0039 63.8086C49.3945 62.543 49.0859 61.0898 49.0781 59.4492V58.6055C49.0781 56.9258 49.3789 55.4492 49.9805 54.1758C50.5898 52.8945 51.4453 51.9141 52.5469 51.2344C53.6562 50.5469 54.9219 50.2031 56.3438 50.2031C57.7656 50.2031 59.0273 50.5469 60.1289 51.2344C61.2383 51.9141 62.0938 52.8945 62.6953 54.1758C63.3047 55.4492 63.6094 56.9219 63.6094 58.5938V59.3555ZM60.0469 58.582C60.0469 56.793 59.7266 55.4336 59.0859 54.5039C58.4453 53.5742 57.5312 53.1094 56.3438 53.1094C55.1641 53.1094 54.2539 53.5703 53.6133 54.4922C52.9727 55.4062 52.6484 56.75 52.6406 58.5234V59.3555C52.6406 61.0977 52.9609 62.4492 53.6016 63.4102C54.2422 64.3711 55.1641 64.8516 56.3672 64.8516C57.5469 64.8516 58.4531 64.3906 59.0859 63.4688C59.7188 62.5391 60.0391 61.1875 60.0469 59.4141V58.582ZM69.9961 51.7031V54.8203H72.1641V57.3047H69.9961V63.6328C69.9961 64.1016 70.0859 64.4375 70.2656 64.6406C70.4453 64.8438 70.7891 64.9453 71.2969 64.9453C71.6719 64.9453 72.0039 64.918 72.293 64.8633V67.4297C71.6289 67.6328 70.9453 67.7344 70.2422 67.7344C67.8672 67.7344 66.6562 66.5352 66.6094 64.1367V57.3047H64.7578V54.8203H66.6094V51.7031H69.9961ZM77.3555 56.2031C78.2539 55.125 79.3828 54.5859 80.7422 54.5859C83.4922 54.5859 84.8867 56.1836 84.9258 59.3789V67.5H81.5391V59.4727C81.5391 58.7461 81.3828 58.2109 81.0703 57.8672C80.7578 57.5156 80.2383 57.3398 79.5117 57.3398C78.5195 57.3398 77.8008 57.7227 77.3555 58.4883V67.5H73.9688V49.5H77.3555V56.2031ZM93.3164 67.7344C91.457 67.7344 89.9414 67.1641 88.7695 66.0234C87.6055 64.8828 87.0234 63.3633 87.0234 61.4648V61.1367C87.0234 59.8633 87.2695 58.7266 87.7617 57.7266C88.2539 56.7188 88.9492 55.9453 89.8477 55.4062C90.7539 54.8594 91.7852 54.5859 92.9414 54.5859C94.6758 54.5859 96.0391 55.1328 97.0312 56.2266C98.0312 57.3203 98.5312 58.8711 98.5312 60.8789V62.2617H90.457C90.5664 63.0898 90.8945 63.7539 91.4414 64.2539C91.9961 64.7539 92.6953 65.0039 93.5391 65.0039C94.8438 65.0039 95.8633 64.5312 96.5977 63.5859L98.2617 65.4492C97.7539 66.168 97.0664 66.7305 96.1992 67.1367C95.332 67.5352 94.3711 67.7344 93.3164 67.7344ZM92.9297 57.3281C92.2578 57.3281 91.7109 57.5547 91.2891 58.0078C90.875 58.4609 90.6094 59.1094 90.4922 59.9531H95.2031V59.6836C95.1875 58.9336 94.9844 58.3555 94.5938 57.9492C94.2031 57.5352 93.6484 57.3281 92.9297 57.3281ZM107.59 57.9961C107.129 57.9336 106.723 57.9023 106.371 57.9023C105.09 57.9023 104.25 58.3359 103.852 59.2031V67.5H100.465V54.8203H103.664L103.758 56.332C104.438 55.168 105.379 54.5859 106.582 54.5859C106.957 54.5859 107.309 54.6367 107.637 54.7383L107.59 57.9961Z" fill="#171717"/>
<ellipse cx="331" cy="127.5" rx="60" ry="57.5" fill="#F73378" fill-opacity="0.7"/>
<ellipse cx="378" cy="133.5" rx="60" ry="57.5" fill="#F73378"/>
</g>
<defs>
<clipPath id="clip0">
<rect width="320" height="120" rx="10" fill="white"/>
</clipPath>
</defs>
</svg>
