<svg width="739" height="505" viewBox="0 0 739 505" fill="none" xmlns="http://www.w3.org/2000/svg">
<g clip-path="url(#clip0)">
<path d="M399.099 172.348C395.109 172.348 391.208 171.165 387.891 168.948C384.573 166.732 381.987 163.581 380.46 159.895C378.934 156.208 378.534 152.152 379.312 148.238C380.091 144.325 382.012 140.73 384.834 137.909C387.655 135.087 391.25 133.166 395.163 132.388C399.077 131.609 403.133 132.009 406.819 133.536C410.506 135.063 413.656 137.648 415.873 140.966C418.09 144.284 419.273 148.184 419.273 152.174C419.267 157.523 417.14 162.651 413.358 166.433C409.576 170.215 404.448 172.342 399.099 172.348ZM399.099 133.912C395.487 133.912 391.956 134.983 388.953 136.99C385.95 138.996 383.609 141.849 382.227 145.186C380.845 148.523 380.483 152.194 381.188 155.737C381.892 159.28 383.632 162.534 386.186 165.088C388.74 167.642 391.994 169.381 395.536 170.086C399.079 170.79 402.751 170.429 406.088 169.046C409.425 167.664 412.277 165.323 414.284 162.32C416.29 159.317 417.361 155.786 417.361 152.174C417.356 147.332 415.43 142.691 412.006 139.267C408.583 135.843 403.941 133.917 399.099 133.912Z" fill="#E6E6E6"/>
<path d="M397.195 159.505C396.762 159.506 396.341 159.366 395.996 159.107L395.974 159.09L391.458 155.635C391.035 155.312 390.759 154.833 390.689 154.305C390.619 153.778 390.762 153.244 391.086 152.821C391.41 152.399 391.888 152.122 392.416 152.053C392.944 151.983 393.477 152.126 393.9 152.45L396.825 154.693L403.738 145.674C403.899 145.465 404.099 145.29 404.327 145.158C404.555 145.026 404.807 144.94 405.068 144.906C405.329 144.871 405.594 144.889 405.849 144.957C406.104 145.025 406.342 145.142 406.551 145.303L406.552 145.303L406.509 145.363L406.553 145.303C406.975 145.627 407.251 146.106 407.32 146.633C407.39 147.161 407.247 147.694 406.924 148.117L398.793 158.72C398.605 158.964 398.363 159.162 398.086 159.298C397.809 159.433 397.505 159.504 397.196 159.503L397.195 159.505Z" fill="#E6E6E6"/>
<path d="M456.824 172.348C452.834 172.348 448.933 171.165 445.616 168.948C442.298 166.732 439.712 163.581 438.185 159.895C436.658 156.208 436.259 152.152 437.037 148.238C437.816 144.325 439.737 140.73 442.559 137.909C445.38 135.087 448.975 133.166 452.888 132.388C456.801 131.609 460.858 132.009 464.544 133.536C468.231 135.063 471.381 137.648 473.598 140.966C475.815 144.284 476.998 148.184 476.998 152.174C476.992 157.523 474.865 162.651 471.083 166.433C467.3 170.215 462.173 172.342 456.824 172.348ZM456.824 133.912C453.212 133.912 449.681 134.983 446.678 136.99C443.675 138.996 441.334 141.849 439.952 145.186C438.57 148.523 438.208 152.194 438.912 155.737C439.617 159.28 441.356 162.534 443.91 165.088C446.465 167.642 449.719 169.381 453.261 170.086C456.804 170.79 460.476 170.429 463.813 169.046C467.15 167.664 470.002 165.323 472.008 162.32C474.015 159.317 475.086 155.786 475.086 152.174C475.081 147.332 473.155 142.69 469.731 139.267C466.308 135.843 461.666 133.917 456.824 133.912Z" fill="#E6E6E6"/>
<path d="M464.086 159.154C463.843 159.396 463.515 159.532 463.173 159.532C462.83 159.532 462.502 159.396 462.26 159.154L457.419 154.313C457.311 154.206 457.164 154.145 457.012 154.145C456.859 154.145 456.713 154.206 456.605 154.313L451.764 159.154C451.522 159.397 451.193 159.533 450.851 159.533C450.508 159.533 450.18 159.397 449.937 159.154C449.695 158.912 449.559 158.584 449.559 158.241C449.559 157.899 449.695 157.57 449.937 157.328L454.778 152.487C454.886 152.379 454.947 152.233 454.947 152.08C454.947 151.928 454.886 151.781 454.779 151.673L449.937 146.832C449.695 146.59 449.559 146.262 449.559 145.919C449.559 145.577 449.695 145.248 449.937 145.006C450.179 144.764 450.508 144.628 450.85 144.628C451.193 144.628 451.521 144.764 451.763 145.006L456.605 149.847C456.713 149.955 456.859 150.016 457.011 150.016C457.164 150.016 457.31 149.955 457.418 149.847L462.259 145.006C462.501 144.764 462.83 144.628 463.172 144.628C463.515 144.628 463.843 144.764 464.086 145.006C464.328 145.248 464.464 145.577 464.464 145.919C464.464 146.262 464.328 146.59 464.085 146.833L459.245 151.674C459.137 151.782 459.076 151.928 459.076 152.081C459.076 152.233 459.137 152.379 459.245 152.487L464.086 157.328C464.327 157.571 464.463 157.899 464.463 158.241C464.463 158.584 464.327 158.912 464.086 159.154Z" fill="#E6E6E6"/>
<path d="M220.908 157.061H63.6475C61.6207 157.059 59.6777 156.252 58.2454 154.818C56.8131 153.384 56.0085 151.44 56.0085 149.413C56.0085 147.387 56.8131 145.443 58.2454 144.009C59.6777 142.575 61.6207 141.768 63.6475 141.766H220.908C222.935 141.768 224.878 142.575 226.31 144.009C227.743 145.443 228.547 147.387 228.547 149.413C228.547 151.44 227.743 153.384 226.31 154.818C224.878 156.252 222.935 157.059 220.908 157.061Z" fill="#1769AA"/>
<path d="M318 163.583H48C47.7348 163.583 47.4804 163.478 47.2929 163.29C47.1054 163.103 47 162.848 47 162.583C47 162.318 47.1054 162.063 47.2929 161.876C47.4804 161.688 47.7348 161.583 48 161.583H318C318.265 161.583 318.52 161.688 318.707 161.876C318.895 162.063 319 162.318 319 162.583C319 162.848 318.895 163.103 318.707 163.29C318.52 163.478 318.265 163.583 318 163.583Z" fill="#3F3D56"/>
<path d="M399.099 236.697C395.109 236.697 391.208 235.514 387.891 233.297C384.573 231.08 381.987 227.93 380.46 224.243C378.934 220.557 378.534 216.5 379.312 212.587C380.091 208.674 382.012 205.079 384.834 202.258C387.655 199.436 391.25 197.515 395.163 196.736C399.077 195.958 403.133 196.357 406.819 197.884C410.506 199.411 413.656 201.997 415.873 205.315C418.09 208.632 419.273 212.533 419.273 216.523C419.267 221.872 417.14 226.999 413.358 230.782C409.576 234.564 404.448 236.691 399.099 236.697ZM399.099 198.261C395.487 198.261 391.956 199.332 388.953 201.338C385.95 203.345 383.609 206.197 382.227 209.534C380.845 212.871 380.483 216.543 381.188 220.086C381.892 223.628 383.632 226.882 386.186 229.436C388.74 231.99 391.994 233.73 395.536 234.434C399.079 235.139 402.751 234.777 406.088 233.395C409.425 232.013 412.277 229.672 414.284 226.669C416.29 223.666 417.361 220.135 417.361 216.523C417.356 211.681 415.43 207.039 412.006 203.616C408.583 200.192 403.941 198.266 399.099 198.261Z" fill="#E6E6E6"/>
<path d="M397.195 223.854C396.762 223.854 396.341 223.715 395.996 223.455L395.974 223.439L391.458 219.984C391.035 219.66 390.759 219.182 390.689 218.654C390.619 218.126 390.762 217.592 391.086 217.17C391.41 216.748 391.888 216.471 392.416 216.401C392.944 216.332 393.477 216.474 393.9 216.798L396.825 219.042L403.738 210.023C403.899 209.814 404.099 209.638 404.327 209.507C404.555 209.375 404.807 209.289 405.068 209.255C405.329 209.22 405.594 209.237 405.849 209.305C406.104 209.374 406.342 209.491 406.551 209.651L406.552 209.652L406.509 209.711L406.553 209.652C406.975 209.976 407.251 210.454 407.32 210.982C407.39 211.509 407.247 212.043 406.924 212.465L398.793 223.069C398.605 223.313 398.363 223.511 398.086 223.646C397.809 223.782 397.505 223.852 397.196 223.851L397.195 223.854Z" fill="#E6E6E6"/>
<path d="M456.824 236.697C452.834 236.697 448.933 235.514 445.616 233.297C442.298 231.08 439.712 227.93 438.185 224.243C436.658 220.557 436.259 216.5 437.037 212.587C437.816 208.674 439.737 205.079 442.559 202.258C445.38 199.436 448.975 197.515 452.888 196.736C456.801 195.958 460.858 196.357 464.544 197.884C468.231 199.411 471.381 201.997 473.598 205.315C475.815 208.632 476.998 212.533 476.998 216.523C476.992 221.872 474.865 226.999 471.083 230.782C467.3 234.564 462.173 236.691 456.824 236.697ZM456.824 198.261C453.212 198.261 449.681 199.332 446.678 201.338C443.675 203.345 441.334 206.197 439.952 209.534C438.57 212.871 438.208 216.543 438.912 220.086C439.617 223.628 441.356 226.882 443.91 229.436C446.465 231.99 449.719 233.73 453.261 234.434C456.804 235.139 460.476 234.777 463.813 233.395C467.15 232.013 470.002 229.672 472.008 226.669C474.015 223.666 475.086 220.135 475.086 216.523C475.081 211.681 473.155 207.039 469.731 203.615C466.308 200.192 461.666 198.266 456.824 198.261Z" fill="#E6E6E6"/>
<path d="M464.086 223.503C463.843 223.745 463.515 223.881 463.173 223.881C462.83 223.881 462.502 223.745 462.26 223.503L457.419 218.662C457.311 218.554 457.164 218.494 457.012 218.494C456.859 218.494 456.713 218.554 456.605 218.662L451.764 223.503C451.522 223.745 451.193 223.881 450.851 223.881C450.508 223.881 450.18 223.745 449.937 223.503C449.695 223.261 449.559 222.932 449.559 222.59C449.559 222.247 449.695 221.919 449.937 221.677L454.778 216.836C454.886 216.728 454.947 216.581 454.947 216.429C454.947 216.276 454.886 216.13 454.779 216.022L449.937 211.181C449.695 210.939 449.559 210.61 449.559 210.268C449.559 209.925 449.695 209.597 449.937 209.355C450.179 209.113 450.508 208.977 450.85 208.977C451.193 208.977 451.521 209.113 451.763 209.355L456.605 214.196C456.713 214.304 456.859 214.364 457.011 214.364C457.164 214.364 457.31 214.304 457.418 214.196L462.259 209.355C462.501 209.113 462.83 208.977 463.172 208.977C463.515 208.977 463.843 209.113 464.086 209.355C464.328 209.597 464.464 209.926 464.464 210.268C464.464 210.611 464.328 210.939 464.085 211.181L459.245 216.022C459.137 216.13 459.076 216.277 459.076 216.429C459.076 216.582 459.137 216.728 459.245 216.836L464.086 221.677C464.327 221.919 464.463 222.248 464.463 222.59C464.463 222.932 464.327 223.261 464.086 223.503Z" fill="#E6E6E6"/>
<path d="M220.908 221.41H63.6475C61.6207 221.407 59.6777 220.601 58.2454 219.167C56.8131 217.733 56.0085 215.789 56.0085 213.762C56.0085 211.735 56.8131 209.791 58.2454 208.357C59.6777 206.923 61.6207 206.117 63.6475 206.114H220.908C222.935 206.117 224.878 206.923 226.31 208.357C227.743 209.791 228.547 211.735 228.547 213.762C228.547 215.789 227.743 217.733 226.31 219.167C224.878 220.601 222.935 221.407 220.908 221.41Z" fill="#1769AA"/>
<path d="M318 227.932H48C47.7348 227.932 47.4804 227.826 47.2929 227.639C47.1054 227.451 47 227.197 47 226.932C47 226.666 47.1054 226.412 47.2929 226.225C47.4804 226.037 47.7348 225.932 48 225.932H318C318.265 225.932 318.52 226.037 318.707 226.225C318.895 226.412 319 226.666 319 226.932C319 227.197 318.895 227.451 318.707 227.639C318.52 227.826 318.265 227.932 318 227.932Z" fill="#3F3D56"/>
<path d="M399.099 301.046C395.109 301.046 391.208 299.863 387.891 297.646C384.573 295.429 381.987 292.278 380.46 288.592C378.934 284.905 378.534 280.849 379.312 276.936C380.091 273.022 382.012 269.428 384.834 266.606C387.655 263.785 391.25 261.863 395.163 261.085C399.077 260.306 403.133 260.706 406.819 262.233C410.506 263.76 413.656 266.346 415.873 269.663C418.09 272.981 419.273 276.881 419.273 280.871C419.267 286.22 417.14 291.348 413.358 295.13C409.576 298.912 404.448 301.04 399.099 301.046ZM399.099 262.609C395.487 262.609 391.956 263.68 388.953 265.687C385.95 267.694 383.609 270.546 382.227 273.883C380.845 277.22 380.483 280.892 381.188 284.434C381.892 287.977 383.632 291.231 386.186 293.785C388.74 296.339 391.994 298.078 395.536 298.783C399.079 299.488 402.751 299.126 406.088 297.744C409.425 296.361 412.277 294.021 414.284 291.017C416.29 288.014 417.361 284.483 417.361 280.871C417.356 276.03 415.43 271.388 412.006 267.964C408.583 264.541 403.941 262.615 399.099 262.609Z" fill="#E6E6E6"/>
<path d="M397.195 288.202C396.762 288.203 396.341 288.063 395.996 287.804L395.974 287.788L391.458 284.333C391.035 284.009 390.759 283.53 390.689 283.003C390.619 282.475 390.762 281.941 391.086 281.519C391.41 281.096 391.888 280.82 392.416 280.75C392.944 280.68 393.477 280.823 393.9 281.147L396.825 283.39L403.738 274.372C403.899 274.162 404.099 273.987 404.327 273.855C404.555 273.723 404.807 273.638 405.068 273.603C405.329 273.569 405.594 273.586 405.849 273.654C406.104 273.722 406.342 273.84 406.551 274L406.552 274L406.509 274.06L406.553 274C406.975 274.325 407.251 274.803 407.32 275.33C407.39 275.858 407.247 276.391 406.924 276.814L398.793 287.417C398.605 287.661 398.363 287.859 398.086 287.995C397.809 288.131 397.505 288.201 397.196 288.2L397.195 288.202Z" fill="#E6E6E6"/>
<path d="M456.824 301.046C452.834 301.046 448.933 299.863 445.616 297.646C442.298 295.429 439.712 292.278 438.185 288.592C436.658 284.905 436.259 280.849 437.037 276.936C437.816 273.022 439.737 269.428 442.559 266.606C445.38 263.785 448.975 261.863 452.888 261.085C456.801 260.306 460.858 260.706 464.544 262.233C468.231 263.76 471.381 266.346 473.598 269.663C475.815 272.981 476.998 276.881 476.998 280.871C476.992 286.22 474.865 291.348 471.083 295.13C467.3 298.912 462.173 301.04 456.824 301.046ZM456.824 262.609C453.212 262.609 449.681 263.68 446.678 265.687C443.675 267.694 441.334 270.546 439.952 273.883C438.57 277.22 438.208 280.892 438.912 284.434C439.617 287.977 441.356 291.231 443.91 293.785C446.465 296.339 449.719 298.078 453.261 298.783C456.804 299.488 460.476 299.126 463.813 297.744C467.15 296.361 470.002 294.021 472.008 291.017C474.015 288.014 475.086 284.483 475.086 280.871C475.081 276.03 473.155 271.388 469.731 267.964C466.308 264.54 461.666 262.615 456.824 262.609Z" fill="#E6E6E6"/>
<path d="M464.086 287.852C463.843 288.093 463.515 288.229 463.173 288.229C462.83 288.229 462.502 288.093 462.26 287.852L457.419 283.011C457.311 282.903 457.164 282.842 457.012 282.842C456.859 282.842 456.713 282.903 456.605 283.011L451.764 287.852C451.522 288.094 451.193 288.23 450.851 288.23C450.508 288.23 450.18 288.094 449.937 287.852C449.695 287.609 449.559 287.281 449.559 286.938C449.559 286.596 449.695 286.267 449.937 286.025L454.778 281.184C454.886 281.076 454.947 280.93 454.947 280.777C454.947 280.625 454.886 280.479 454.779 280.371L449.937 275.529C449.695 275.287 449.559 274.959 449.559 274.616C449.559 274.274 449.695 273.946 449.937 273.703C450.179 273.461 450.508 273.325 450.85 273.325C451.193 273.325 451.521 273.461 451.763 273.703L456.605 278.545C456.713 278.652 456.859 278.713 457.011 278.713C457.164 278.713 457.31 278.652 457.418 278.545L462.259 273.704C462.501 273.461 462.83 273.325 463.172 273.325C463.515 273.325 463.843 273.461 464.086 273.704C464.328 273.946 464.464 274.274 464.464 274.617C464.464 274.959 464.328 275.288 464.085 275.53L459.245 280.371C459.137 280.479 459.076 280.625 459.076 280.778C459.076 280.93 459.137 281.077 459.245 281.185L464.086 286.026C464.327 286.268 464.463 286.596 464.463 286.939C464.463 287.281 464.327 287.609 464.086 287.852Z" fill="#E6E6E6"/>
<path d="M220.908 285.758H63.6475C61.6207 285.756 59.6777 284.949 58.2454 283.515C56.8131 282.081 56.0085 280.137 56.0085 278.111C56.0085 276.084 56.8131 274.14 58.2454 272.706C59.6777 271.272 61.6207 270.465 63.6475 270.463H220.908C222.935 270.465 224.878 271.272 226.31 272.706C227.743 274.14 228.547 276.084 228.547 278.111C228.547 280.137 227.743 282.081 226.31 283.515C224.878 284.949 222.935 285.756 220.908 285.758Z" fill="#1769AA"/>
<path d="M318 292.28H48C47.7348 292.28 47.4804 292.175 47.2929 291.987C47.1054 291.8 47 291.545 47 291.28C47 291.015 47.1054 290.761 47.2929 290.573C47.4804 290.386 47.7348 290.28 48 290.28H318C318.265 290.28 318.52 290.386 318.707 290.573C318.895 290.761 319 291.015 319 291.28C319 291.545 318.895 291.8 318.707 291.987C318.52 292.175 318.265 292.28 318 292.28Z" fill="#3F3D56"/>
<path d="M399.099 365.393C395.109 365.393 391.208 364.21 387.891 361.993C384.573 359.777 381.987 356.626 380.46 352.939C378.934 349.253 378.534 345.197 379.312 341.283C380.091 337.37 382.012 333.775 384.834 330.954C387.655 328.132 391.25 326.211 395.163 325.433C399.077 324.654 403.133 325.054 406.819 326.581C410.506 328.108 413.656 330.693 415.873 334.011C418.09 337.329 419.273 341.229 419.273 345.219C419.267 350.568 417.14 355.696 413.358 359.478C409.576 363.26 404.448 365.387 399.099 365.393ZM399.099 326.957C395.487 326.957 391.956 328.028 388.953 330.035C385.95 332.041 383.609 334.893 382.227 338.23C380.845 341.567 380.483 345.239 381.188 348.782C381.892 352.324 383.632 355.578 386.186 358.133C388.74 360.687 391.994 362.426 395.536 363.131C399.079 363.835 402.751 363.474 406.088 362.091C409.425 360.709 412.277 358.368 414.284 355.365C416.29 352.362 417.361 348.831 417.361 345.219C417.356 340.377 415.43 335.735 412.006 332.312C408.583 328.888 403.941 326.962 399.099 326.957Z" fill="#E6E6E6"/>
<path d="M397.195 352.55C396.762 352.551 396.341 352.411 395.996 352.151L395.974 352.135L391.458 348.68C391.035 348.356 390.759 347.878 390.689 347.35C390.619 346.823 390.762 346.289 391.086 345.866C391.41 345.444 391.888 345.167 392.416 345.098C392.944 345.028 393.477 345.171 393.9 345.495L396.825 347.738L403.738 338.719C403.899 338.51 404.099 338.335 404.327 338.203C404.555 338.071 404.807 337.985 405.068 337.951C405.329 337.916 405.594 337.934 405.849 338.002C406.104 338.07 406.342 338.187 406.551 338.348L406.552 338.348L406.509 338.408L406.553 338.348C406.975 338.672 407.251 339.151 407.32 339.678C407.39 340.206 407.247 340.739 406.924 341.162L398.793 351.765C398.605 352.009 398.363 352.207 398.086 352.343C397.809 352.478 397.505 352.548 397.196 352.548L397.195 352.55Z" fill="#E6E6E6"/>
<path d="M456.824 365.393C452.834 365.393 448.933 364.21 445.616 361.993C442.298 359.777 439.712 356.626 438.185 352.939C436.658 349.253 436.259 345.197 437.037 341.283C437.816 337.37 439.737 333.775 442.559 330.954C445.38 328.132 448.975 326.211 452.888 325.433C456.801 324.654 460.858 325.054 464.544 326.581C468.231 328.108 471.381 330.693 473.598 334.011C475.815 337.329 476.998 341.229 476.998 345.219C476.992 350.568 474.865 355.696 471.083 359.478C467.3 363.26 462.173 365.387 456.824 365.393ZM456.824 326.957C453.212 326.957 449.681 328.028 446.678 330.035C443.675 332.041 441.334 334.893 439.952 338.23C438.57 341.567 438.208 345.239 438.912 348.782C439.617 352.324 441.356 355.578 443.91 358.133C446.465 360.687 449.719 362.426 453.261 363.131C456.804 363.835 460.476 363.474 463.813 362.091C467.15 360.709 470.002 358.368 472.008 355.365C474.015 352.362 475.086 348.831 475.086 345.219C475.081 340.377 473.155 335.735 469.731 332.312C466.308 328.888 461.666 326.962 456.824 326.957Z" fill="#E6E6E6"/>
<path d="M464.086 352.199C463.843 352.441 463.515 352.577 463.173 352.577C462.83 352.577 462.502 352.441 462.26 352.199L457.419 347.358C457.311 347.251 457.164 347.19 457.012 347.19C456.859 347.19 456.713 347.25 456.605 347.358L451.764 352.199C451.522 352.441 451.193 352.577 450.851 352.577C450.508 352.577 450.18 352.441 449.937 352.199C449.695 351.957 449.559 351.629 449.559 351.286C449.559 350.944 449.695 350.615 449.937 350.373L454.778 345.532C454.886 345.424 454.947 345.278 454.947 345.125C454.947 344.973 454.886 344.826 454.779 344.718L449.937 339.877C449.695 339.635 449.559 339.306 449.559 338.964C449.559 338.622 449.695 338.293 449.937 338.051C450.179 337.809 450.508 337.673 450.85 337.673C451.193 337.673 451.521 337.809 451.763 338.051L456.605 342.892C456.713 343 456.859 343.061 457.011 343.061C457.164 343.06 457.31 343 457.418 342.892L462.259 338.051C462.501 337.809 462.83 337.673 463.172 337.673C463.515 337.673 463.843 337.809 464.086 338.051C464.328 338.293 464.464 338.622 464.464 338.964C464.464 339.307 464.328 339.635 464.085 339.878L459.245 344.719C459.137 344.827 459.076 344.973 459.076 345.125C459.076 345.278 459.137 345.424 459.245 345.532L464.086 350.373C464.327 350.616 464.463 350.944 464.463 351.286C464.463 351.629 464.327 351.957 464.086 352.199Z" fill="#E6E6E6"/>
<path d="M220.908 350.106H63.6475C61.6207 350.104 59.6777 349.297 58.2454 347.863C56.8131 346.429 56.0085 344.485 56.0085 342.458C56.0085 340.431 56.8131 338.488 58.2454 337.054C59.6777 335.62 61.6207 334.813 63.6475 334.811H220.908C222.935 334.813 224.878 335.62 226.31 337.054C227.743 338.488 228.547 340.431 228.547 342.458C228.547 344.485 227.743 346.429 226.31 347.863C224.878 349.297 222.935 350.104 220.908 350.106Z" fill="#1769AA"/>
<path d="M318 356.628H48C47.7348 356.628 47.4804 356.523 47.2929 356.335C47.1054 356.148 47 355.893 47 355.628C47 355.363 47.1054 355.108 47.2929 354.921C47.4804 354.733 47.7348 354.628 48 354.628H318C318.265 354.628 318.52 354.733 318.707 354.921C318.895 355.108 319 355.363 319 355.628C319 355.893 318.895 356.148 318.707 356.335C318.52 356.523 318.265 356.628 318 356.628Z" fill="#3F3D56"/>
<path d="M701.129 435.991C703.589 439.817 705.477 443.981 706.734 448.352C707.797 452.258 708.27 456.302 708.138 460.348C707.795 468.675 705.457 476.798 701.322 484.033C698.206 489.522 694.41 494.595 690.022 499.132C687.874 500.588 685.724 502.01 683.575 503.398C683.56 503.405 683.545 503.418 683.53 503.425C683.427 503.491 683.323 503.558 683.227 503.625C682.783 503.911 682.339 504.197 681.899 504.48C681.899 504.48 682.378 504.714 682.119 504.608C682.041 504.576 681.96 504.547 681.883 504.515C682.684 497.946 681.9 491.281 679.594 485.078C677.289 478.875 673.531 473.315 668.634 468.864C663.726 464.48 657.851 461.319 651.489 459.637C651.801 459.191 652.137 458.763 652.487 458.344C654.944 459.033 657.336 459.938 659.634 461.048C667.848 464.992 674.574 471.477 678.815 479.541C682.622 486.864 684.26 495.121 683.538 503.343C683.905 503.01 684.273 502.67 684.63 502.333C691.423 496 697.456 488.731 701.539 480.341C705.082 473.236 706.823 465.37 706.609 457.434C706.276 448.78 702.828 440.765 697.836 433.788C692.365 426.343 685.902 419.682 678.626 413.989C671.293 408.116 663.269 403.162 654.733 399.239C654.541 399.149 654.39 398.988 654.313 398.791C654.235 398.593 654.237 398.373 654.317 398.176C654.374 397.999 654.498 397.852 654.663 397.767C654.747 397.73 654.839 397.713 654.932 397.717C655.024 397.721 655.114 397.746 655.195 397.79C656.249 398.275 657.296 398.767 658.334 399.28C666.981 403.554 675.064 408.885 682.396 415.152C689.479 421.191 696.147 428.09 701.129 435.991Z" fill="white"/>
<path d="M615.72 1.13672e-08H8.71971C6.4077 0.00210513 4.19098 0.921497 2.55617 2.55637C0.921351 4.19124 0.00203087 6.40799 0 8.72V420.04C0.00202823 422.352 0.92135 424.569 2.55617 426.204C4.19098 427.839 6.40769 428.758 8.71971 428.76H615.72C616.98 428.76 618.226 428.486 619.371 427.958C620.516 427.43 621.532 426.659 622.35 425.7C622.419 425.625 622.483 425.545 622.54 425.46C623.061 424.824 623.482 424.112 623.79 423.35C624.229 422.302 624.453 421.176 624.45 420.04V8.72005C624.447 6.4064 623.526 4.18838 621.889 2.55331C620.252 0.918249 618.033 -0.000117975 615.72 1.13672e-08ZM621.96 420.04C621.961 421.257 621.603 422.446 620.93 423.46C620.332 424.352 619.521 425.081 618.57 425.58C617.689 426.035 616.711 426.272 615.72 426.27H8.71971C7.06803 426.268 5.48457 425.611 4.31665 424.443C3.14873 423.275 2.49172 421.692 2.48972 420.04V8.72005C2.49172 7.06836 3.14873 5.4849 4.31665 4.31699C5.48457 3.14907 7.06803 2.49204 8.71971 2.49004H615.72C617.373 2.48982 618.959 3.1458 620.129 4.3139C621.299 5.48201 621.957 7.06674 621.96 8.72005V420.04Z" fill="#3F3D56"/>
<path d="M623.199 34.9492H1.24268V37.442H623.199V34.9492Z" fill="#3F3D56"/>
<path d="M22.4316 26.1747C26.5618 26.1747 29.91 22.8264 29.91 18.6962C29.91 14.566 26.5618 11.2178 22.4316 11.2178C18.3013 11.2178 14.9531 14.566 14.9531 18.6962C14.9531 22.8264 18.3013 26.1747 22.4316 26.1747Z" fill="#3F3D56"/>
<path d="M43.9321 26.1747C48.0623 26.1747 51.4105 22.8264 51.4105 18.6962C51.4105 14.566 48.0623 11.2178 43.9321 11.2178C39.8018 11.2178 36.4536 14.566 36.4536 18.6962C36.4536 22.8264 39.8018 26.1747 43.9321 26.1747Z" fill="#3F3D56"/>
<path d="M65.4325 26.1747C69.5628 26.1747 72.911 22.8264 72.911 18.6962C72.911 14.566 69.5628 11.2178 65.4325 11.2178C61.3023 11.2178 57.9541 14.566 57.9541 18.6962C57.9541 22.8264 61.3023 26.1747 65.4325 26.1747Z" fill="#3F3D56"/>
<path d="M467.799 226.216C467.556 226.458 467.228 226.594 466.886 226.594C466.543 226.594 466.215 226.458 465.973 226.216L461.132 221.375C461.024 221.267 460.877 221.207 460.725 221.207C460.572 221.207 460.426 221.267 460.318 221.375L455.477 226.216C455.235 226.458 454.906 226.594 454.564 226.594C454.221 226.594 453.893 226.458 453.651 226.216C453.408 225.974 453.272 225.645 453.272 225.303C453.272 224.96 453.408 224.632 453.651 224.389L458.492 219.548C458.599 219.441 458.66 219.294 458.66 219.142C458.66 218.989 458.599 218.843 458.492 218.735L453.65 213.894C453.408 213.652 453.272 213.323 453.272 212.981C453.272 212.638 453.408 212.31 453.65 212.068C453.893 211.825 454.221 211.689 454.563 211.689C454.906 211.689 455.234 211.825 455.476 212.068L460.318 216.909C460.426 217.017 460.572 217.077 460.724 217.077C460.877 217.077 461.023 217.017 461.131 216.909L465.972 212.068C466.214 211.826 466.543 211.69 466.885 211.69C467.228 211.69 467.556 211.826 467.799 212.068C468.041 212.31 468.177 212.638 468.177 212.981C468.177 213.323 468.041 213.652 467.799 213.894L462.958 218.735C462.85 218.843 462.789 218.989 462.789 219.142C462.789 219.295 462.85 219.441 462.958 219.549L467.799 224.39C468.04 224.632 468.176 224.961 468.176 225.303C468.176 225.645 468.041 225.974 467.799 226.216Z" fill="#E6E6E6"/>
<path d="M737.418 504.356H356.418C356.153 504.356 355.898 504.251 355.711 504.064C355.523 503.876 355.418 503.622 355.418 503.356C355.418 503.091 355.523 502.837 355.711 502.649C355.898 502.462 356.153 502.356 356.418 502.356H737.418C737.683 502.356 737.937 502.462 738.125 502.649C738.312 502.837 738.418 503.091 738.418 503.356C738.418 503.622 738.312 503.876 738.125 504.064C737.937 504.251 737.683 504.356 737.418 504.356Z" fill="#3F3D56"/>
<path d="M410.659 231.441C411.917 232.202 413.326 232.677 414.788 232.834C416.25 232.991 417.728 232.826 419.119 232.35C420.51 231.874 421.779 231.098 422.838 230.078C423.897 229.059 424.719 227.819 425.247 226.447L460.962 227.636L451.26 211.802L418.832 213.1C416.468 212.366 413.917 212.525 411.663 213.546C409.408 214.567 407.606 216.38 406.599 218.641C405.591 220.901 405.448 223.453 406.197 225.812C406.945 228.172 408.533 230.175 410.659 231.441V231.441Z" fill="#FFB8B8"/>
<path d="M612.033 308.802C613.002 307.696 613.717 306.392 614.128 304.98C614.538 303.569 614.634 302.084 614.409 300.631C614.184 299.179 613.643 297.793 612.824 296.572C612.005 295.351 610.929 294.324 609.67 293.564L617.095 258.609L599.807 265.388L595.407 297.543C594.27 299.741 593.979 302.281 594.59 304.679C595.2 307.078 596.67 309.169 598.719 310.557C600.768 311.945 603.256 312.533 605.709 312.209C608.163 311.885 610.413 310.673 612.033 308.802Z" fill="#FFB8B8"/>
<path d="M528.369 490.974L516.109 490.973L510.277 443.685L528.371 443.686L528.369 490.974Z" fill="#FFB8B8"/>
<path d="M531.495 502.857L491.965 502.856V502.356C491.965 500.335 492.363 498.335 493.136 496.468C493.909 494.601 495.042 492.905 496.471 491.476C497.9 490.047 499.596 488.914 501.463 488.141C503.33 487.368 505.33 486.97 507.351 486.97H507.352L531.496 486.971L531.495 502.857Z" fill="#2F2E41"/>
<path d="M588.369 490.974L576.109 490.973L570.277 443.685L588.371 443.686L588.369 490.974Z" fill="#FFB8B8"/>
<path d="M591.495 502.857L551.965 502.856V502.356C551.965 500.335 552.363 498.335 553.136 496.468C553.909 494.601 555.042 492.905 556.471 491.476C557.9 490.047 559.596 488.914 561.463 488.141C563.33 487.368 565.33 486.97 567.351 486.97H567.352L591.496 486.971L591.495 502.857Z" fill="#2F2E41"/>
<path d="M529.646 466.281L512.291 465.587C511.107 465.535 509.991 465.021 509.183 464.154C508.375 463.287 507.941 462.137 507.973 460.953L512.863 300.574L513.182 300.459C543.598 289.456 568.761 290.288 590.108 302.999L590.347 303.141L593.276 459.343C593.287 459.941 593.179 460.536 592.958 461.092C592.737 461.647 592.408 462.153 591.989 462.58C591.57 463.007 591.07 463.346 590.518 463.578C589.967 463.809 589.375 463.928 588.777 463.928H574.143C573.1 463.927 572.091 463.564 571.286 462.902C570.481 462.24 569.93 461.319 569.727 460.297L549.792 358.887C549.723 358.537 549.531 358.222 549.251 358.001C548.972 357.779 548.622 357.664 548.265 357.677C547.908 357.691 547.567 357.831 547.304 358.073C547.042 358.314 546.874 358.642 546.831 358.997L534.293 462.327C534.155 463.416 533.626 464.419 532.803 465.147C531.981 465.875 530.922 466.279 529.824 466.284C529.765 466.284 529.705 466.283 529.646 466.281Z" fill="#2F2E41"/>
<path d="M546.529 159.927C560.094 159.927 571.09 148.93 571.09 135.366C571.09 121.801 560.094 110.805 546.529 110.805C532.965 110.805 521.968 121.801 521.968 135.366C521.968 148.93 532.965 159.927 546.529 159.927Z" fill="#FFB8B8"/>
<path d="M431.063 225.637C430.789 224.763 430.789 223.826 431.061 222.952L433.606 214.798C433.884 213.916 434.425 213.141 435.158 212.576C435.891 212.012 436.779 211.687 437.703 211.644L469.926 210.219L522.204 183.421C524.019 182.841 525.931 182.625 527.83 182.784C529.728 182.944 531.577 183.476 533.27 184.351C534.962 185.225 536.466 186.425 537.695 187.881C538.924 189.338 539.853 191.022 540.431 192.838C541.008 194.653 541.222 196.565 541.059 198.464C540.897 200.362 540.362 202.21 539.486 203.902C538.609 205.593 537.407 207.095 535.949 208.322C534.491 209.549 532.806 210.476 530.989 211.051L498.951 229.634C489.228 235.275 477.787 237.193 466.756 235.03L434.492 228.709C433.871 228.587 433.284 228.336 432.767 227.972C432.25 227.608 431.815 227.139 431.491 226.597C431.311 226.295 431.167 225.973 431.063 225.637Z" fill="#CCCCCC"/>
<path d="M610.984 286.17C610.122 286.481 609.186 286.521 608.301 286.286L600.046 284.091C599.153 283.851 598.355 283.343 597.76 282.635C597.166 281.927 596.802 281.053 596.72 280.132L593.924 247.999L564.922 196.91C564.266 195.122 563.968 193.221 564.047 191.318C564.126 189.414 564.579 187.545 565.381 185.816C566.182 184.088 567.317 182.535 568.719 181.245C570.122 179.956 571.765 178.955 573.554 178.301C575.343 177.647 577.244 177.352 579.148 177.433C581.051 177.514 582.92 177.97 584.647 178.773C586.375 179.577 587.927 180.714 589.215 182.118C590.502 183.522 591.501 185.166 592.153 186.956L612.084 218.173C618.135 227.647 620.538 238.996 618.847 250.109L613.907 282.614C613.811 283.238 613.585 283.836 613.244 284.368C612.902 284.9 612.453 285.354 611.924 285.701C611.63 285.894 611.315 286.052 610.984 286.17Z" fill="#CCCCCC"/>
<path d="M519.665 178.983C523.883 174.357 529.087 170.737 534.891 168.39C540.696 166.043 546.953 165.03 553.202 165.424C553.612 165.449 554.021 165.478 554.429 165.51H554.429C560.352 165.978 566.106 167.705 571.307 170.576C576.508 173.447 581.036 177.395 584.589 182.156C588.201 186.984 590.741 192.528 592.038 198.416C593.336 204.304 593.362 210.402 592.114 216.301C587.352 238.845 588.557 262.241 595.61 284.177L602.199 304.636C602.411 305.291 602.469 305.987 602.369 306.668C602.269 307.35 602.014 307.999 601.623 308.566C601.233 309.134 600.717 309.604 600.116 309.94C599.515 310.277 598.845 310.471 598.157 310.508L564.472 312.319L555.852 297.429V312.782L514.911 314.983C514.83 314.988 514.749 314.99 514.668 314.99C514.047 314.99 513.432 314.861 512.863 314.612C512.294 314.362 511.783 313.998 511.362 313.541C510.941 313.085 510.619 312.546 510.416 311.958C510.213 311.371 510.134 310.748 510.184 310.129L514.812 252.747L509.007 213.774C508.068 207.547 508.538 201.189 510.382 195.168C512.227 189.146 515.399 183.616 519.665 178.983Z" fill="#CCCCCC"/>
<path d="M563.599 158.813C561.325 160.121 552.337 160.989 551.696 158.445L551.683 158.389C551.237 156.525 551.607 154.578 551.735 152.666C551.863 150.753 551.676 148.652 550.373 147.246C547.945 144.625 543.626 146.015 540.115 145.352C538.058 144.893 536.24 143.7 534.999 141.997C533.758 140.294 533.181 138.197 533.375 136.099C533.425 135.701 533.503 135.303 533.591 134.906C533.811 133.898 533.794 132.853 533.542 131.853C533.289 130.853 532.809 129.925 532.138 129.142C531.467 128.359 530.623 127.742 529.673 127.34C528.724 126.938 527.694 126.762 526.664 126.824C523.116 127.027 519.286 128.102 516.351 125.474C514.081 123.442 513.527 118.152 514.524 115.273C516.2 110.435 526.938 107.902 531.626 106.509C537.424 104.834 543.523 104.472 549.479 105.449C555.435 106.426 561.098 108.719 566.056 112.159C569.018 114.246 571.783 116.869 573.045 120.265C574.307 123.661 573.698 127.945 570.852 130.187C573.058 132.522 574.612 135.397 575.357 138.522C576.102 141.647 576.013 144.913 575.099 147.993C573.693 152.523 566.984 156.865 563.599 158.813Z" fill="#2F2E41"/>
<path d="M49.5352 89.4141L51.0117 76.4062H65.3555V80.6426H55.1777L54.5449 86.1445C55.752 85.5 57.0352 85.1777 58.3945 85.1777C60.832 85.1777 62.7422 85.9336 64.125 87.4453C65.5078 88.957 66.1992 91.0723 66.1992 93.791C66.1992 95.4434 65.8477 96.9258 65.1445 98.2383C64.4531 99.5391 63.457 100.553 62.1562 101.279C60.8555 101.994 59.3203 102.352 57.5508 102.352C56.0039 102.352 54.5684 102.041 53.2441 101.42C51.9199 100.787 50.8711 99.9023 50.0977 98.7656C49.3359 97.6289 48.9316 96.334 48.8848 94.8809H53.9121C54.0176 95.9473 54.3867 96.7793 55.0195 97.377C55.6641 97.9629 56.502 98.2559 57.5332 98.2559C58.6816 98.2559 59.5664 97.8457 60.1875 97.0254C60.8086 96.1934 61.1191 95.0215 61.1191 93.5098C61.1191 92.0566 60.7617 90.9434 60.0469 90.1699C59.332 89.3965 58.3184 89.0098 57.0059 89.0098C55.7988 89.0098 54.8203 89.3262 54.0703 89.959L53.5781 90.416L49.5352 89.4141ZM86.6777 91.418C86.6777 94.957 85.9453 97.6641 84.4805 99.5391C83.0156 101.414 80.8711 102.352 78.0469 102.352C75.2578 102.352 73.125 101.432 71.6484 99.5918C70.1719 97.752 69.416 95.1152 69.3809 91.6816V86.9707C69.3809 83.3965 70.1191 80.6836 71.5957 78.832C73.084 76.9805 75.2227 76.0547 78.0117 76.0547C80.8008 76.0547 82.9336 76.9746 84.4102 78.8145C85.8867 80.6426 86.6426 83.2734 86.6777 86.707V91.418ZM81.5977 86.25C81.5977 84.1289 81.3047 82.5879 80.7188 81.627C80.1445 80.6543 79.2422 80.168 78.0117 80.168C76.8164 80.168 75.9316 80.6309 75.3574 81.5566C74.7949 82.4707 74.4961 83.9062 74.4609 85.8633V92.0859C74.4609 94.1719 74.7422 95.7246 75.3047 96.7441C75.8789 97.752 76.793 98.2559 78.0469 98.2559C79.2891 98.2559 80.1855 97.7695 80.7363 96.7969C81.2871 95.8242 81.5742 94.3359 81.5977 92.332V86.25ZM90.0527 81.3281C90.0527 79.7578 90.5625 78.4863 91.582 77.5137C92.6016 76.5293 93.9375 76.0371 95.5898 76.0371C97.2656 76.0371 98.6133 76.5234 99.6328 77.4961C100.652 78.457 101.162 79.7637 101.162 81.416V82.6816C101.162 84.2637 100.652 85.5352 99.6328 86.4961C98.6133 87.457 97.2773 87.9375 95.625 87.9375C93.9609 87.9375 92.6133 87.457 91.582 86.4961C90.5625 85.5234 90.0527 84.2168 90.0527 82.5762V81.3281ZM93.4277 82.6816C93.4277 83.3848 93.627 83.9531 94.0254 84.3867C94.4355 84.8086 94.9688 85.0195 95.625 85.0195C96.2812 85.0195 96.8027 84.8027 97.1895 84.3691C97.5762 83.9355 97.7695 83.3555 97.7695 82.6289V81.3281C97.7695 80.625 97.5762 80.0566 97.1895 79.623C96.8027 79.1895 96.2695 78.9727 95.5898 78.9727C94.9453 78.9727 94.4238 79.1895 94.0254 79.623C93.627 80.0449 93.4277 80.6367 93.4277 81.3984V82.6816ZM102.287 95.7246C102.287 94.1426 102.803 92.8711 103.834 91.9102C104.865 90.9375 106.201 90.4512 107.842 90.4512C109.506 90.4512 110.848 90.9316 111.867 91.8926C112.898 92.8418 113.414 94.1543 113.414 95.8301V97.0957C113.414 98.666 112.91 99.9375 111.902 100.91C110.895 101.871 109.553 102.352 107.877 102.352C106.189 102.352 104.836 101.865 103.816 100.893C102.797 99.9199 102.287 98.6309 102.287 97.0254V95.7246ZM105.662 97.0957C105.662 97.7402 105.873 98.291 106.295 98.748C106.717 99.2051 107.244 99.4336 107.877 99.4336C109.307 99.4336 110.021 98.6426 110.021 97.0605V95.7246C110.021 95.0215 109.822 94.459 109.424 94.0371C109.025 93.6035 108.498 93.3867 107.842 93.3867C107.186 93.3867 106.658 93.6035 106.26 94.0371C105.861 94.459 105.662 95.0391 105.662 95.7773V97.0957ZM96.627 100.084L94.1484 98.748L106.646 78.7441L109.125 80.0801L96.627 100.084Z" fill="#1769AA"/>
</g>
<defs>
<clipPath id="clip0">
<rect width="738.418" height="504.651" fill="white"/>
</clipPath>
</defs>
</svg>
