<svg width="320" height="120" viewBox="0 0 320 120" fill="none" xmlns="http://www.w3.org/2000/svg">
<g clip-path="url(#clip0)">
<rect width="320" height="120" rx="10" fill="#FFE179"/>
<g clip-path="url(#clip1)">
<path d="M269.6 43.5751H268.8V42.7749C268.8 41.4496 267.726 40.3751 266.4 40.3751H237.6V37.975C237.6 37.0913 236.884 36.375 236 36.375H225.6C224.716 36.375 224 37.0913 224 37.975V45.9749C224.002 46.5439 224.307 47.0691 224.8 47.3525V65.5748C224.804 68.1145 226.406 70.377 228.8 71.2247V77.9751C228.8 79.3004 229.874 80.3749 231.2 80.3749H246.48C246.859 82.2393 248.498 83.5789 250.4 83.5789C252.302 83.5789 253.941 82.2393 254.32 80.3749H269.6C270.926 80.3749 272 79.3004 272 77.9751V45.9749C272 44.6495 270.926 43.5751 269.6 43.5751ZM249.6 41.9751V69.9749C249.6 70.4169 249.958 70.775 250.4 70.775C250.842 70.775 251.2 70.4169 251.2 69.9749V41.9751H266.4C266.842 41.9751 267.2 42.3333 267.2 42.7749V74.7751C267.2 75.2168 266.842 75.575 266.4 75.575H253.6C252.274 75.575 251.2 74.5005 251.2 73.1752C251.2 72.7332 250.842 72.375 250.4 72.375C249.958 72.375 249.6 72.7332 249.6 73.1752C249.6 74.5005 248.526 75.575 247.2 75.575H234.4C233.958 75.575 233.6 75.2168 233.6 74.7751V70.8776C235.567 69.8397 236.798 67.7988 236.8 65.5748V47.3525C237.293 47.0691 237.598 46.5439 237.6 45.9749V41.9751H249.6ZM225.6 37.975H236V45.9749H225.6V37.975ZM226.4 65.5748V47.5748H235.2V65.5748C235.2 68.005 233.23 69.9749 230.8 69.9749C228.37 69.9749 226.4 68.005 226.4 65.5748ZM270.4 77.9751C270.4 78.4167 270.042 78.7749 269.6 78.7749H253.6C253.158 78.7749 252.8 79.1331 252.8 79.5751C252.8 80.9004 251.725 81.9749 250.4 81.9749C249.074 81.9749 248 80.9004 248 79.5751C248 79.1331 247.642 78.7749 247.2 78.7749H231.2C230.758 78.7749 230.4 78.4167 230.4 77.9751V71.5551C230.533 71.5638 230.665 71.5748 230.8 71.5748C231.203 71.5752 231.605 71.5349 232 71.4543V74.7751C232 76.1005 233.074 77.1749 234.4 77.1749H247.2C248.464 77.1716 249.651 76.5685 250.4 75.55C251.149 76.5685 252.336 77.1716 253.6 77.1749H266.4C267.726 77.1749 268.8 76.1005 268.8 74.7751V45.175H269.6C270.042 45.175 270.4 45.5332 270.4 45.9749V77.9751Z" fill="black"/>
<path d="M254.634 60.9406C254.784 61.0907 254.988 61.1749 255.2 61.1753H258.4C258.612 61.1749 258.816 61.0907 258.965 60.9406L260.565 59.3406C260.716 59.1908 260.8 58.9872 260.8 58.7751V56.375H263.2C263.412 56.375 263.616 56.2908 263.766 56.1406L265.366 54.5406C265.516 54.3909 265.6 54.1873 265.6 53.9752V50.7753C265.6 50.5629 265.516 50.3596 265.366 50.2095L263.766 48.6095C263.616 48.4594 263.412 48.3751 263.2 48.3751H260.8V45.975C260.8 45.7629 260.716 45.5597 260.565 45.4095L258.965 43.8096C258.816 43.6594 258.612 43.5752 258.4 43.5752H255.2C254.988 43.5752 254.784 43.6594 254.634 43.8096L253.034 45.4095C252.885 45.5597 252.8 45.7629 252.8 45.975V49.1753C252.8 49.3873 252.885 49.5906 253.034 49.7407L254.634 51.3407C254.784 51.4908 254.988 51.5751 255.2 51.5751H257.6V53.175H255.2C254.988 53.175 254.784 53.2596 254.634 53.4094L253.034 55.0094C252.885 55.1595 252.8 55.3628 252.8 55.5752V58.7751C252.8 58.9872 252.885 59.1908 253.034 59.3406L254.634 60.9406ZM264 51.1063V53.6438L262.869 54.775H260.331L259.2 53.6438V51.1063L260.331 49.9751H262.869L264 51.1063ZM254.4 48.8439V46.3064L255.531 45.1752H258.069L259.2 46.3064V48.8439L258.069 49.9751H255.531L254.4 48.8439ZM254.4 55.9062L255.531 54.775H258.069L259.2 55.9062V58.4441L258.069 59.575H255.531L254.4 58.4441V55.9062Z" fill="black"/>
<path d="M253.6 65.1752H260.8C261.242 65.1752 261.6 64.817 261.6 64.3754C261.6 63.9333 261.242 63.5752 260.8 63.5752H253.6C253.158 63.5752 252.8 63.9333 252.8 64.3754C252.8 64.817 253.158 65.1752 253.6 65.1752Z" fill="black"/>
<path d="M264.8 63.5752H264C263.558 63.5752 263.2 63.9333 263.2 64.3754C263.2 64.817 263.558 65.1752 264 65.1752H264.8C265.242 65.1752 265.6 64.817 265.6 64.3754C265.6 63.9333 265.242 63.5752 264.8 63.5752Z" fill="black"/>
<path d="M253.6 71.5746H260.8C261.242 71.5746 261.6 71.2164 261.6 70.7748C261.6 70.3328 261.242 69.9746 260.8 69.9746H253.6C253.158 69.9746 252.8 70.3328 252.8 70.7748C252.8 71.2164 253.158 71.5746 253.6 71.5746Z" fill="black"/>
<path d="M264.8 69.9746H264C263.558 69.9746 263.2 70.3328 263.2 70.7748C263.2 71.2164 263.558 71.5746 264 71.5746H264.8C265.242 71.5746 265.6 71.2164 265.6 70.7748C265.6 70.3328 265.242 69.9746 264.8 69.9746Z" fill="black"/>
<path d="M264.8 66.7754H257.6C257.158 66.7754 256.8 67.1335 256.8 67.5756C256.8 68.0172 257.158 68.3754 257.6 68.3754H264.8C265.242 68.3754 265.6 68.0172 265.6 67.5756C265.6 67.1335 265.242 66.7754 264.8 66.7754Z" fill="black"/>
<path d="M253.6 68.3754H254.4C254.842 68.3754 255.2 68.0172 255.2 67.5756C255.2 67.1335 254.842 66.7754 254.4 66.7754H253.6C253.158 66.7754 252.8 67.1335 252.8 67.5756C252.8 68.0172 253.158 68.3754 253.6 68.3754Z" fill="black"/>
<path d="M228.8 49.1748C228.358 49.1748 228 49.533 228 49.9746V61.1748C228 61.6165 228.358 61.9746 228.8 61.9746C229.242 61.9746 229.6 61.6165 229.6 61.1748V49.9746C229.6 49.533 229.242 49.1748 228.8 49.1748Z" fill="black"/>
<path d="M228.8 63.5752C228.358 63.5752 228 63.9333 228 64.3754V65.9753C228 66.417 228.358 66.7751 228.8 66.7751C229.242 66.7751 229.6 66.417 229.6 65.9753V64.3754C229.6 63.9333 229.242 63.5752 228.8 63.5752Z" fill="black"/>
<path d="M239.2 51.5746H241.6C242.042 51.5746 242.4 51.2164 242.4 50.7748C242.4 50.3328 242.042 49.9746 241.6 49.9746H239.2C238.758 49.9746 238.4 50.3328 238.4 50.7748C238.4 51.2164 238.758 51.5746 239.2 51.5746Z" fill="black"/>
<path d="M244.8 51.5746H247.2C247.642 51.5746 248 51.2164 248 50.7748C248 50.3328 247.642 49.9746 247.2 49.9746H244.8C244.358 49.9746 244 50.3328 244 50.7748C244 51.2164 244.358 51.5746 244.8 51.5746Z" fill="black"/>
<path d="M239.2 54.7748H241.6C242.042 54.7748 242.4 54.4166 242.4 53.975C242.4 53.533 242.042 53.1748 241.6 53.1748H239.2C238.758 53.1748 238.4 53.533 238.4 53.975C238.4 54.4166 238.758 54.7748 239.2 54.7748Z" fill="black"/>
<path d="M244.8 54.7748H247.2C247.642 54.7748 248 54.4166 248 53.975C248 53.533 247.642 53.1748 247.2 53.1748H244.8C244.358 53.1748 244 53.533 244 53.975C244 54.4166 244.358 54.7748 244.8 54.7748Z" fill="black"/>
<path d="M239.2 57.975H241.6C242.042 57.975 242.4 57.6168 242.4 57.1752C242.4 56.7332 242.042 56.375 241.6 56.375H239.2C238.758 56.375 238.4 56.7332 238.4 57.1752C238.4 57.6168 238.758 57.975 239.2 57.975Z" fill="black"/>
<path d="M244.8 57.975H247.2C247.642 57.975 248 57.6168 248 57.1752C248 56.7332 247.642 56.375 247.2 56.375H244.8C244.358 56.375 244 56.7332 244 57.1752C244 57.6168 244.358 57.975 244.8 57.975Z" fill="black"/>
<path d="M239.2 61.1755H241.6C242.042 61.1755 242.4 60.817 242.4 60.3754C242.4 59.9337 242.042 59.5752 241.6 59.5752H239.2C238.758 59.5752 238.4 59.9337 238.4 60.3754C238.4 60.817 238.758 61.1755 239.2 61.1755Z" fill="black"/>
<path d="M244.8 61.1755H247.2C247.642 61.1755 248 60.817 248 60.3754C248 59.9337 247.642 59.5752 247.2 59.5752H244.8C244.358 59.5752 244 59.9337 244 60.3754C244 60.817 244.358 61.1755 244.8 61.1755Z" fill="black"/>
<path d="M239.2 64.3754H241.6C242.042 64.3754 242.4 64.0172 242.4 63.5752C242.4 63.1335 242.042 62.7754 241.6 62.7754H239.2C238.758 62.7754 238.4 63.1335 238.4 63.5752C238.4 64.0172 238.758 64.3754 239.2 64.3754Z" fill="black"/>
<path d="M244.8 64.3754H247.2C247.642 64.3754 248 64.0172 248 63.5752C248 63.1335 247.642 62.7754 247.2 62.7754H244.8C244.358 62.7754 244 63.1335 244 63.5752C244 64.0172 244.358 64.3754 244.8 64.3754Z" fill="black"/>
</g>
<path d="M58.5742 64.0234C58.5742 63.3594 58.3398 62.8516 57.8711 62.5C57.4023 62.1406 56.5586 61.7656 55.3398 61.375C54.1211 60.9766 53.1562 60.5859 52.4453 60.2031C50.5078 59.1562 49.5391 57.7461 49.5391 55.9727C49.5391 55.0508 49.7969 54.2305 50.3125 53.5117C50.8359 52.7852 51.582 52.2188 52.5508 51.8125C53.5273 51.4062 54.6211 51.2031 55.832 51.2031C57.0508 51.2031 58.1367 51.4258 59.0898 51.8711C60.043 52.3086 60.7812 52.9297 61.3047 53.7344C61.8359 54.5391 62.1016 55.4531 62.1016 56.4766H58.5859C58.5859 55.6953 58.3398 55.0898 57.8477 54.6602C57.3555 54.2227 56.6641 54.0039 55.7734 54.0039C54.9141 54.0039 54.2461 54.1875 53.7695 54.5547C53.293 54.9141 53.0547 55.3906 53.0547 55.9844C53.0547 56.5391 53.332 57.0039 53.8867 57.3789C54.4492 57.7539 55.2734 58.1055 56.3594 58.4336C58.3594 59.0352 59.8164 59.7812 60.7305 60.6719C61.6445 61.5625 62.1016 62.6719 62.1016 64C62.1016 65.4766 61.543 66.6367 60.4258 67.4805C59.3086 68.3164 57.8047 68.7344 55.9141 68.7344C54.6016 68.7344 53.4062 68.4961 52.3281 68.0195C51.25 67.5352 50.4258 66.875 49.8555 66.0391C49.293 65.2031 49.0117 64.2344 49.0117 63.1328H52.5391C52.5391 65.0156 53.6641 65.957 55.9141 65.957C56.75 65.957 57.4023 65.7891 57.8711 65.4531C58.3398 65.1094 58.5742 64.6328 58.5742 64.0234ZM69.543 66.0039C70.168 66.0039 70.6758 65.832 71.0664 65.4883C71.457 65.1445 71.6602 64.6875 71.6758 64.1172H74.8516C74.8438 64.9766 74.6094 65.7656 74.1484 66.4844C73.6875 67.1953 73.0547 67.75 72.25 68.1484C71.4531 68.5391 70.5703 68.7344 69.6016 68.7344C67.7891 68.7344 66.3594 68.1602 65.3125 67.0117C64.2656 65.8555 63.7422 64.2617 63.7422 62.2305V62.0078C63.7422 60.0547 64.2617 58.4961 65.3008 57.332C66.3398 56.168 67.7656 55.5859 69.5781 55.5859C71.1641 55.5859 72.4336 56.0391 73.3867 56.9453C74.3477 57.8438 74.8359 59.043 74.8516 60.543H71.6758C71.6602 59.8867 71.457 59.3555 71.0664 58.9492C70.6758 58.5352 70.1602 58.3281 69.5195 58.3281C68.7305 58.3281 68.1328 58.6172 67.7266 59.1953C67.3281 59.7656 67.1289 60.6953 67.1289 61.9844V62.3359C67.1289 63.6406 67.3281 64.5781 67.7266 65.1484C68.125 65.7188 68.7305 66.0039 69.543 66.0039ZM80.3594 68.5H76.9609V55.8203H80.3594V68.5ZM76.7617 52.5391C76.7617 52.0312 76.9297 51.6133 77.2656 51.2852C77.6094 50.957 78.0742 50.793 78.6602 50.793C79.2383 50.793 79.6992 50.957 80.043 51.2852C80.3867 51.6133 80.5586 52.0312 80.5586 52.5391C80.5586 53.0547 80.3828 53.4766 80.0312 53.8047C79.6875 54.1328 79.2305 54.2969 78.6602 54.2969C78.0898 54.2969 77.6289 54.1328 77.2773 53.8047C76.9336 53.4766 76.7617 53.0547 76.7617 52.5391ZM88.9961 68.7344C87.1367 68.7344 85.6211 68.1641 84.4492 67.0234C83.2852 65.8828 82.7031 64.3633 82.7031 62.4648V62.1367C82.7031 60.8633 82.9492 59.7266 83.4414 58.7266C83.9336 57.7188 84.6289 56.9453 85.5273 56.4062C86.4336 55.8594 87.4648 55.5859 88.6211 55.5859C90.3555 55.5859 91.7188 56.1328 92.7109 57.2266C93.7109 58.3203 94.2109 59.8711 94.2109 61.8789V63.2617H86.1367C86.2461 64.0898 86.5742 64.7539 87.1211 65.2539C87.6758 65.7539 88.375 66.0039 89.2188 66.0039C90.5234 66.0039 91.543 65.5312 92.2773 64.5859L93.9414 66.4492C93.4336 67.168 92.7461 67.7305 91.8789 68.1367C91.0117 68.5352 90.0508 68.7344 88.9961 68.7344ZM88.6094 58.3281C87.9375 58.3281 87.3906 58.5547 86.9688 59.0078C86.5547 59.4609 86.2891 60.1094 86.1719 60.9531H90.8828V60.6836C90.8672 59.9336 90.6641 59.3555 90.2734 58.9492C89.8828 58.5352 89.3281 58.3281 88.6094 58.3281ZM99.2617 55.8203L99.3672 57.2852C100.273 56.1523 101.488 55.5859 103.012 55.5859C104.355 55.5859 105.355 55.9805 106.012 56.7695C106.668 57.5586 107.004 58.7383 107.02 60.3086V68.5H103.633V60.3906C103.633 59.6719 103.477 59.1523 103.164 58.832C102.852 58.5039 102.332 58.3398 101.605 58.3398C100.652 58.3398 99.9375 58.7461 99.4609 59.5586V68.5H96.0742V55.8203H99.2617ZM114.871 66.0039C115.496 66.0039 116.004 65.832 116.395 65.4883C116.785 65.1445 116.988 64.6875 117.004 64.1172H120.18C120.172 64.9766 119.938 65.7656 119.477 66.4844C119.016 67.1953 118.383 67.75 117.578 68.1484C116.781 68.5391 115.898 68.7344 114.93 68.7344C113.117 68.7344 111.688 68.1602 110.641 67.0117C109.594 65.8555 109.07 64.2617 109.07 62.2305V62.0078C109.07 60.0547 109.59 58.4961 110.629 57.332C111.668 56.168 113.094 55.5859 114.906 55.5859C116.492 55.5859 117.762 56.0391 118.715 56.9453C119.676 57.8438 120.164 59.043 120.18 60.543H117.004C116.988 59.8867 116.785 59.3555 116.395 58.9492C116.004 58.5352 115.488 58.3281 114.848 58.3281C114.059 58.3281 113.461 58.6172 113.055 59.1953C112.656 59.7656 112.457 60.6953 112.457 61.9844V62.3359C112.457 63.6406 112.656 64.5781 113.055 65.1484C113.453 65.7188 114.059 66.0039 114.871 66.0039ZM127.949 68.7344C126.09 68.7344 124.574 68.1641 123.402 67.0234C122.238 65.8828 121.656 64.3633 121.656 62.4648V62.1367C121.656 60.8633 121.902 59.7266 122.395 58.7266C122.887 57.7188 123.582 56.9453 124.48 56.4062C125.387 55.8594 126.418 55.5859 127.574 55.5859C129.309 55.5859 130.672 56.1328 131.664 57.2266C132.664 58.3203 133.164 59.8711 133.164 61.8789V63.2617H125.09C125.199 64.0898 125.527 64.7539 126.074 65.2539C126.629 65.7539 127.328 66.0039 128.172 66.0039C129.477 66.0039 130.496 65.5312 131.23 64.5859L132.895 66.4492C132.387 67.168 131.699 67.7305 130.832 68.1367C129.965 68.5352 129.004 68.7344 127.949 68.7344ZM127.562 58.3281C126.891 58.3281 126.344 58.5547 125.922 59.0078C125.508 59.4609 125.242 60.1094 125.125 60.9531H129.836V60.6836C129.82 59.9336 129.617 59.3555 129.227 58.9492C128.836 58.5352 128.281 58.3281 127.562 58.3281Z" fill="#171717"/>
<ellipse cx="326" cy="125.5" rx="60" ry="57.5" fill="#F73378" fill-opacity="0.7"/>
<ellipse cx="5" cy="0.5" rx="60" ry="57.5" fill="#1769AA"/>
</g>
<defs>
<clipPath id="clip0">
<rect width="320" height="120" rx="10" fill="white"/>
</clipPath>
<clipPath id="clip1">
<rect width="48" height="48" fill="white" transform="translate(224 36)"/>
</clipPath>
</defs>
</svg>
