<svg width="358" height="159" viewBox="0 0 358 159" fill="none" xmlns="http://www.w3.org/2000/svg">
<g clip-path="url(#clip0)">
<path d="M0 10C0 4.47715 4.47715 0 10 0H348C353.523 0 358 4.47715 358 10V149C358 154.523 353.523 159 348 159H9.99999C4.47715 159 0 154.523 0 149V10Z" fill="#FFE179"/>
<g clip-path="url(#clip1)">
<path d="M299.8 57.1001H298.733V56.0332C298.733 54.2661 297.301 52.8335 295.533 52.8335H257.133V49.6333C257.133 48.4551 256.178 47.5 255 47.5H241.133C239.955 47.5 239 48.4551 239 49.6333V60.2998C239.002 61.0586 239.409 61.7588 240.067 62.1367V86.4331C240.072 89.8193 242.208 92.8359 245.4 93.9663V102.967C245.4 104.734 246.833 106.167 248.6 106.167H268.973C269.478 108.652 271.664 110.438 274.2 110.438C276.736 110.438 278.922 108.652 279.427 106.167H299.8C301.567 106.167 303 104.734 303 102.967V60.2998C303 58.5327 301.567 57.1001 299.8 57.1001ZM273.133 54.9668V92.2998C273.133 92.8892 273.611 93.3667 274.2 93.3667C274.789 93.3667 275.267 92.8892 275.267 92.2998V54.9668H295.533C296.123 54.9668 296.6 55.4443 296.6 56.0332V98.7002C296.6 99.2891 296.123 99.7666 295.533 99.7666H278.467C276.699 99.7666 275.267 98.334 275.267 96.5669C275.267 95.9775 274.789 95.5 274.2 95.5C273.611 95.5 273.133 95.9775 273.133 96.5669C273.133 98.334 271.701 99.7666 269.933 99.7666H252.867C252.277 99.7666 251.8 99.2891 251.8 98.7002V93.5034C254.422 92.1196 256.064 89.3984 256.067 86.4331V62.1367C256.725 61.7588 257.131 61.0586 257.133 60.2998V54.9668H273.133ZM241.133 49.6333H255V60.2998H241.133V49.6333ZM242.2 86.4331V62.4331H253.933V86.4331C253.933 89.6733 251.307 92.2998 248.067 92.2998C244.827 92.2998 242.2 89.6733 242.2 86.4331ZM300.867 102.967C300.867 103.556 300.389 104.033 299.8 104.033H278.467C277.877 104.033 277.4 104.511 277.4 105.1C277.4 106.867 275.967 108.3 274.2 108.3C272.433 108.3 271 106.867 271 105.1C271 104.511 270.522 104.033 269.933 104.033H248.6C248.011 104.033 247.533 103.556 247.533 102.967V94.4067C247.71 94.4185 247.886 94.4331 248.067 94.4331C248.604 94.4336 249.14 94.3799 249.667 94.2725V98.7002C249.667 100.467 251.099 101.9 252.867 101.9H269.933C271.619 101.896 273.202 101.091 274.2 99.7334C275.198 101.091 276.781 101.896 278.467 101.9H295.533C297.301 101.9 298.733 100.467 298.733 98.7002V59.2334H299.8C300.389 59.2334 300.867 59.7109 300.867 60.2998V102.967Z" fill="black"/>
<path d="M279.846 80.2544C280.046 80.4546 280.317 80.5669 280.6 80.5674H284.867C285.149 80.5669 285.421 80.4546 285.621 80.2544L287.754 78.1211C287.954 77.9214 288.066 77.6499 288.067 77.3672V74.167H291.267C291.549 74.167 291.821 74.0547 292.021 73.8545L294.154 71.7212C294.354 71.5215 294.467 71.25 294.467 70.9673V66.7007C294.467 66.4175 294.354 66.1465 294.154 65.9463L292.021 63.813C291.821 63.6128 291.549 63.5005 291.267 63.5005H288.067V60.3003C288.066 60.0176 287.954 59.7466 287.754 59.5464L285.621 57.4131C285.421 57.2129 285.149 57.1006 284.867 57.1006H280.6C280.317 57.1006 280.046 57.2129 279.846 57.4131L277.712 59.5464C277.513 59.7466 277.4 60.0176 277.4 60.3003V64.5674C277.4 64.8501 277.513 65.1211 277.712 65.3213L279.846 67.4546C280.046 67.6548 280.317 67.7671 280.6 67.7671H283.8V69.9004H280.6C280.317 69.9004 280.046 70.0132 279.846 70.2129L277.712 72.3462C277.513 72.5464 277.4 72.8174 277.4 73.1006V77.3672C277.4 77.6499 277.513 77.9214 277.712 78.1211L279.846 80.2544ZM292.333 67.1421V70.5254L290.825 72.0337H287.441L285.933 70.5254V67.1421L287.441 65.6338H290.825L292.333 67.1421ZM279.533 64.1255V60.7422L281.042 59.2339H284.425L285.933 60.7422V64.1255L284.425 65.6338H281.042L279.533 64.1255ZM279.533 73.542L281.042 72.0337H284.425L285.933 73.542V76.9258L284.425 78.4336H281.042L279.533 76.9258V73.542Z" fill="black"/>
<path d="M278.467 85.8999H288.067C288.656 85.8999 289.133 85.4224 289.133 84.8335C289.133 84.2441 288.656 83.7666 288.067 83.7666H278.467C277.877 83.7666 277.4 84.2441 277.4 84.8335C277.4 85.4224 277.877 85.8999 278.467 85.8999Z" fill="black"/>
<path d="M293.4 83.7666H292.333C291.744 83.7666 291.267 84.2441 291.267 84.8335C291.267 85.4224 291.744 85.8999 292.333 85.8999H293.4C293.989 85.8999 294.467 85.4224 294.467 84.8335C294.467 84.2441 293.989 83.7666 293.4 83.7666Z" fill="black"/>
<path d="M278.467 94.4331H288.067C288.656 94.4331 289.133 93.9556 289.133 93.3667C289.133 92.7773 288.656 92.2998 288.067 92.2998H278.467C277.877 92.2998 277.4 92.7773 277.4 93.3667C277.4 93.9556 277.877 94.4331 278.467 94.4331Z" fill="black"/>
<path d="M293.4 92.2998H292.333C291.744 92.2998 291.267 92.7773 291.267 93.3667C291.267 93.9556 291.744 94.4331 292.333 94.4331H293.4C293.989 94.4331 294.467 93.9556 294.467 93.3667C294.467 92.7773 293.989 92.2998 293.4 92.2998Z" fill="black"/>
<path d="M293.4 88.0332H283.8C283.211 88.0332 282.733 88.5107 282.733 89.1001C282.733 89.689 283.211 90.1665 283.8 90.1665H293.4C293.989 90.1665 294.467 89.689 294.467 89.1001C294.467 88.5107 293.989 88.0332 293.4 88.0332Z" fill="black"/>
<path d="M278.467 90.1665H279.533C280.123 90.1665 280.6 89.689 280.6 89.1001C280.6 88.5107 280.123 88.0332 279.533 88.0332H278.467C277.877 88.0332 277.4 88.5107 277.4 89.1001C277.4 89.689 277.877 90.1665 278.467 90.1665Z" fill="black"/>
<path d="M245.4 64.5664C244.811 64.5664 244.333 65.0439 244.333 65.6328V80.5664C244.333 81.1553 244.811 81.6328 245.4 81.6328C245.989 81.6328 246.467 81.1553 246.467 80.5664V65.6328C246.467 65.0439 245.989 64.5664 245.4 64.5664Z" fill="black"/>
<path d="M245.4 83.7666C244.811 83.7666 244.333 84.2441 244.333 84.8335V86.9668C244.333 87.5557 244.811 88.0332 245.4 88.0332C245.989 88.0332 246.467 87.5557 246.467 86.9668V84.8335C246.467 84.2441 245.989 83.7666 245.4 83.7666Z" fill="black"/>
<path d="M259.267 67.7661H262.467C263.056 67.7661 263.533 67.2886 263.533 66.6997C263.533 66.1104 263.056 65.6328 262.467 65.6328H259.267C258.678 65.6328 258.2 66.1104 258.2 66.6997C258.2 67.2886 258.678 67.7661 259.267 67.7661Z" fill="black"/>
<path d="M266.733 67.7661H269.933C270.522 67.7661 271 67.2886 271 66.6997C271 66.1104 270.522 65.6328 269.933 65.6328H266.733C266.144 65.6328 265.667 66.1104 265.667 66.6997C265.667 67.2886 266.144 67.7661 266.733 67.7661Z" fill="black"/>
<path d="M259.267 72.0337H262.467C263.056 72.0337 263.533 71.5562 263.533 70.9673C263.533 70.3779 263.056 69.9004 262.467 69.9004H259.267C258.678 69.9004 258.2 70.3779 258.2 70.9673C258.2 71.5562 258.678 72.0337 259.267 72.0337Z" fill="black"/>
<path d="M266.733 72.0337H269.933C270.522 72.0337 271 71.5562 271 70.9673C271 70.3779 270.522 69.9004 269.933 69.9004H266.733C266.144 69.9004 265.667 70.3779 265.667 70.9673C265.667 71.5562 266.144 72.0337 266.733 72.0337Z" fill="black"/>
<path d="M259.267 76.2993H262.467C263.056 76.2993 263.533 75.8218 263.533 75.2329C263.533 74.6436 263.056 74.166 262.467 74.166H259.267C258.678 74.166 258.2 74.6436 258.2 75.2329C258.2 75.8218 258.678 76.2993 259.267 76.2993Z" fill="black"/>
<path d="M266.733 76.2993H269.933C270.522 76.2993 271 75.8218 271 75.2329C271 74.6436 270.522 74.166 269.933 74.166H266.733C266.144 74.166 265.667 74.6436 265.667 75.2329C265.667 75.8218 266.144 76.2993 266.733 76.2993Z" fill="black"/>
<path d="M259.267 80.5674H262.467C263.056 80.5674 263.533 80.0894 263.533 79.5005C263.533 78.9116 263.056 78.4336 262.467 78.4336H259.267C258.678 78.4336 258.2 78.9116 258.2 79.5005C258.2 80.0894 258.678 80.5674 259.267 80.5674Z" fill="black"/>
<path d="M266.733 80.5674H269.933C270.522 80.5674 271 80.0894 271 79.5005C271 78.9116 270.522 78.4336 269.933 78.4336H266.733C266.144 78.4336 265.667 78.9116 265.667 79.5005C265.667 80.0894 266.144 80.5674 266.733 80.5674Z" fill="black"/>
<path d="M259.267 84.8335H262.467C263.056 84.8335 263.533 84.356 263.533 83.7666C263.533 83.1777 263.056 82.7002 262.467 82.7002H259.267C258.678 82.7002 258.2 83.1777 258.2 83.7666C258.2 84.356 258.678 84.8335 259.267 84.8335Z" fill="black"/>
<path d="M266.733 84.8335H269.933C270.522 84.8335 271 84.356 271 83.7666C271 83.1777 270.522 82.7002 269.933 82.7002H266.733C266.144 82.7002 265.667 83.1777 265.667 83.7666C265.667 84.356 266.144 84.8335 266.733 84.8335Z" fill="black"/>
</g>
<path d="M86.8613 84.7852C86.8613 83.7891 86.5098 83.0273 85.8066 82.5C85.1035 81.9609 83.8379 81.3984 82.0098 80.8125C80.1816 80.2148 78.7344 79.6289 77.668 79.0547C74.7617 77.4844 73.3086 75.3691 73.3086 72.709C73.3086 71.3262 73.6953 70.0957 74.4688 69.0176C75.2539 67.9277 76.373 67.0781 77.8262 66.4688C79.291 65.8594 80.9316 65.5547 82.748 65.5547C84.5762 65.5547 86.2051 65.8887 87.6348 66.5566C89.0645 67.2129 90.1719 68.1445 90.957 69.3516C91.7539 70.5586 92.1523 71.9297 92.1523 73.4648H86.8789C86.8789 72.293 86.5098 71.3848 85.7715 70.7402C85.0332 70.084 83.9961 69.7559 82.6602 69.7559C81.3711 69.7559 80.3691 70.0312 79.6543 70.582C78.9395 71.1211 78.582 71.8359 78.582 72.7266C78.582 73.5586 78.998 74.2559 79.8301 74.8184C80.6738 75.3809 81.9102 75.9082 83.5391 76.4004C86.5391 77.3027 88.7246 78.4219 90.0957 79.7578C91.4668 81.0938 92.1523 82.7578 92.1523 84.75C92.1523 86.9648 91.3145 88.7051 89.6387 89.9707C87.9629 91.2246 85.707 91.8516 82.8711 91.8516C80.9023 91.8516 79.1094 91.4941 77.4922 90.7793C75.875 90.0527 74.6387 89.0625 73.7832 87.8086C72.9395 86.5547 72.5176 85.1016 72.5176 83.4492H77.8086C77.8086 86.2734 79.4961 87.6855 82.8711 87.6855C84.125 87.6855 85.1035 87.4336 85.8066 86.9297C86.5098 86.4141 86.8613 85.6992 86.8613 84.7852ZM103.314 87.7559C104.252 87.7559 105.014 87.498 105.6 86.9824C106.186 86.4668 106.49 85.7812 106.514 84.9258H111.277C111.266 86.2148 110.914 87.3984 110.223 88.4766C109.531 89.543 108.582 90.375 107.375 90.9727C106.18 91.5586 104.855 91.8516 103.402 91.8516C100.684 91.8516 98.5391 90.9902 96.9688 89.2676C95.3984 87.5332 94.6133 85.1426 94.6133 82.0957V81.7617C94.6133 78.832 95.3926 76.4941 96.9512 74.748C98.5098 73.002 100.648 72.1289 103.367 72.1289C105.746 72.1289 107.65 72.8086 109.08 74.168C110.521 75.5156 111.254 77.3145 111.277 79.5645H106.514C106.49 78.5801 106.186 77.7832 105.6 77.1738C105.014 76.5527 104.24 76.2422 103.279 76.2422C102.096 76.2422 101.199 76.6758 100.59 77.543C99.9922 78.3984 99.6934 79.793 99.6934 81.7266V82.2539C99.6934 84.2109 99.9922 85.6172 100.59 86.4727C101.188 87.3281 102.096 87.7559 103.314 87.7559ZM119.539 91.5H114.441V72.4805H119.539V91.5ZM114.143 67.5586C114.143 66.7969 114.395 66.1699 114.898 65.6777C115.414 65.1855 116.111 64.9395 116.99 64.9395C117.857 64.9395 118.549 65.1855 119.064 65.6777C119.58 66.1699 119.838 66.7969 119.838 67.5586C119.838 68.332 119.574 68.9648 119.047 69.457C118.531 69.9492 117.846 70.1953 116.99 70.1953C116.135 70.1953 115.443 69.9492 114.916 69.457C114.4 68.9648 114.143 68.332 114.143 67.5586ZM132.494 91.8516C129.705 91.8516 127.432 90.9961 125.674 89.2852C123.928 87.5742 123.055 85.2949 123.055 82.4473V81.9551C123.055 80.0449 123.424 78.3398 124.162 76.8398C124.9 75.3281 125.943 74.168 127.291 73.3594C128.65 72.5391 130.197 72.1289 131.932 72.1289C134.533 72.1289 136.578 72.9492 138.066 74.5898C139.566 76.2305 140.316 78.5566 140.316 81.5684V83.6426H128.205C128.369 84.8848 128.861 85.8809 129.682 86.6309C130.514 87.3809 131.562 87.7559 132.828 87.7559C134.785 87.7559 136.314 87.0469 137.416 85.6289L139.912 88.4238C139.15 89.502 138.119 90.3457 136.818 90.9551C135.518 91.5527 134.076 91.8516 132.494 91.8516ZM131.914 76.2422C130.906 76.2422 130.086 76.582 129.453 77.2617C128.832 77.9414 128.434 78.9141 128.258 80.1797H135.324V79.7754C135.301 78.6504 134.996 77.7832 134.41 77.1738C133.824 76.5527 132.992 76.2422 131.914 76.2422ZM147.893 72.4805L148.051 74.6777C149.41 72.9785 151.232 72.1289 153.518 72.1289C155.533 72.1289 157.033 72.7207 158.018 73.9043C159.002 75.0879 159.506 76.8574 159.529 79.2129V91.5H154.449V79.3359C154.449 78.2578 154.215 77.4785 153.746 76.998C153.277 76.5059 152.498 76.2598 151.408 76.2598C149.979 76.2598 148.906 76.8691 148.191 78.0879V91.5H143.111V72.4805H147.893ZM171.307 87.7559C172.244 87.7559 173.006 87.498 173.592 86.9824C174.178 86.4668 174.482 85.7812 174.506 84.9258H179.27C179.258 86.2148 178.906 87.3984 178.215 88.4766C177.523 89.543 176.574 90.375 175.367 90.9727C174.172 91.5586 172.848 91.8516 171.395 91.8516C168.676 91.8516 166.531 90.9902 164.961 89.2676C163.391 87.5332 162.605 85.1426 162.605 82.0957V81.7617C162.605 78.832 163.385 76.4941 164.943 74.748C166.502 73.002 168.641 72.1289 171.359 72.1289C173.738 72.1289 175.643 72.8086 177.072 74.168C178.514 75.5156 179.246 77.3145 179.27 79.5645H174.506C174.482 78.5801 174.178 77.7832 173.592 77.1738C173.006 76.5527 172.232 76.2422 171.271 76.2422C170.088 76.2422 169.191 76.6758 168.582 77.543C167.984 78.3984 167.686 79.793 167.686 81.7266V82.2539C167.686 84.2109 167.984 85.6172 168.582 86.4727C169.18 87.3281 170.088 87.7559 171.307 87.7559ZM190.924 91.8516C188.135 91.8516 185.861 90.9961 184.104 89.2852C182.357 87.5742 181.484 85.2949 181.484 82.4473V81.9551C181.484 80.0449 181.854 78.3398 182.592 76.8398C183.33 75.3281 184.373 74.168 185.721 73.3594C187.08 72.5391 188.627 72.1289 190.361 72.1289C192.963 72.1289 195.008 72.9492 196.496 74.5898C197.996 76.2305 198.746 78.5566 198.746 81.5684V83.6426H186.635C186.799 84.8848 187.291 85.8809 188.111 86.6309C188.943 87.3809 189.992 87.7559 191.258 87.7559C193.215 87.7559 194.744 87.0469 195.846 85.6289L198.342 88.4238C197.58 89.502 196.549 90.3457 195.248 90.9551C193.947 91.5527 192.506 91.8516 190.924 91.8516ZM190.344 76.2422C189.336 76.2422 188.516 76.582 187.883 77.2617C187.262 77.9414 186.863 78.9141 186.688 80.1797H193.754V79.7754C193.73 78.6504 193.426 77.7832 192.84 77.1738C192.254 76.5527 191.422 76.2422 190.344 76.2422Z" fill="#171717"/>
<ellipse cx="349" cy="151.5" rx="60" ry="57.5" fill="#F73378" fill-opacity="0.7"/>
<ellipse cx="11" cy="7.5" rx="60" ry="57.5" fill="#1769AA"/>
</g>
<defs>
<clipPath id="clip0">
<path d="M0 10C0 4.47715 4.47715 0 10 0H348C353.523 0 358 4.47715 358 10V149C358 154.523 353.523 159 348 159H9.99999C4.47715 159 0 154.523 0 149V10Z" fill="white"/>
</clipPath>
<clipPath id="clip1">
<rect width="64" height="64" fill="white" transform="translate(239 47)"/>
</clipPath>
</defs>
</svg>
