<svg width="358" height="159" viewBox="0 0 358 159" fill="none" xmlns="http://www.w3.org/2000/svg">
<g clip-path="url(#clip0)">
<rect width="358" height="159" rx="10" fill="#FFE179"/>
<g clip-path="url(#clip1)">
<path d="M247.982 70.5791C244.268 70.5791 241.246 73.601 241.246 77.316C241.246 81.031 244.267 84.0529 247.982 84.0529C251.697 84.0529 254.719 81.031 254.719 77.316C254.719 73.601 251.697 70.5791 247.982 70.5791ZM247.982 81.8071C245.505 81.8071 243.491 79.7924 243.491 77.3159C243.491 74.8394 245.505 72.8246 247.982 72.8246C250.459 72.8246 252.474 74.8394 252.474 77.3159C252.474 79.7924 250.459 81.8071 247.982 81.8071Z" fill="black"/>
<path d="M294.017 70.5791C290.303 70.5791 287.281 73.601 287.281 77.316C287.281 81.031 290.302 84.0529 294.017 84.0529C297.732 84.0529 300.754 81.031 300.754 77.316C300.754 73.601 297.732 70.5791 294.017 70.5791ZM294.017 81.8071C291.54 81.8071 289.526 79.7924 289.526 77.3159C289.526 74.8394 291.54 72.8246 294.017 72.8246C296.494 72.8246 298.509 74.8394 298.509 77.3159C298.509 79.7924 296.494 81.8071 294.017 81.8071Z" fill="black"/>
<path d="M271.561 47C267.846 47 264.824 50.0219 264.824 53.7369C264.824 57.4519 267.846 60.4738 271.561 60.4738C275.276 60.4738 278.298 57.4519 278.298 53.7369C278.298 50.0219 275.276 47 271.561 47ZM271.561 58.2281C269.084 58.2281 267.07 56.2134 267.07 53.7369C267.07 51.2605 269.084 49.2456 271.561 49.2456C274.038 49.2456 276.053 51.2604 276.053 53.7369C276.053 56.2133 274.038 58.2281 271.561 58.2281Z" fill="black"/>
<path d="M254.717 98.4319C255.873 97.0585 256.965 95.7609 256.965 94.1583C256.965 89.2054 252.935 85.1758 247.982 85.1758C243.03 85.1759 239 89.2054 239 94.1583C239 95.7608 240.031 97.0585 241.186 98.4319C242.068 99.479 243.07 100.666 243.631 102.115V102.116C244.193 103.02 243.929 104.247 243.777 105.434C243.579 107.001 243.405 108.622 244.441 109.798C245.154 110.607 246.318 111 247.967 111C249.616 111 250.773 110.607 251.486 109.798C252.522 108.622 252.321 107.001 252.122 105.434C251.971 104.247 251.817 103.02 252.209 102.115C252.835 100.666 253.835 99.479 254.717 98.4319ZM250.149 101.224C249.514 102.693 249.718 104.299 249.898 105.717C250.034 106.789 250.174 107.898 249.809 108.313C249.558 108.598 248.909 108.755 247.982 108.755C247.056 108.755 246.407 108.598 246.156 108.313C245.79 107.898 245.961 106.789 246.097 105.717C246.277 104.299 246.438 102.693 245.877 101.224V101.225C245.035 99.4724 243.977 98.1512 242.997 96.9857C242.073 95.8892 241.261 94.9418 241.261 94.1584C241.261 90.4435 244.275 87.4215 247.99 87.4215C251.705 87.4215 254.723 90.4434 254.723 94.1584C254.723 94.9419 253.924 95.8892 253.001 96.9857C252.02 98.1512 250.906 99.4724 250.149 101.224Z" fill="black"/>
<path d="M300.752 98.4319C301.908 97.0585 303 95.7608 303 94.1583C303 89.2054 298.97 85.1758 294.017 85.1758C289.065 85.1758 285.035 89.2054 285.035 94.1583C285.035 95.7608 286.066 97.0585 287.221 98.4319C288.103 99.479 289.105 100.666 289.666 102.115V102.116C290.228 103.02 289.964 104.247 289.812 105.434C289.614 107.001 289.44 108.622 290.476 109.798C291.188 110.607 292.353 111.001 294.002 111.001C295.651 111.001 296.808 110.607 297.521 109.798C298.557 108.622 298.356 107.001 298.157 105.434C298.006 104.247 297.852 103.02 298.244 102.115C298.87 100.666 299.871 99.479 300.752 98.4319ZM296.184 101.224C295.549 102.693 295.753 104.299 295.933 105.717C296.069 106.789 296.209 107.898 295.844 108.313C295.593 108.598 294.944 108.755 294.017 108.755C293.091 108.755 292.442 108.598 292.191 108.313C291.826 107.898 291.997 106.789 292.133 105.717C292.312 104.299 292.474 102.693 291.912 101.224V101.225C291.07 99.4724 290.012 98.1512 289.032 96.9857C288.108 95.8892 287.296 94.9418 287.296 94.1584C287.296 90.4435 290.31 87.4215 294.025 87.4215C297.74 87.4215 300.758 90.4434 300.758 94.1584C300.758 94.9419 299.959 95.8892 299.036 96.9857C298.056 98.1512 296.941 99.4724 296.184 101.224Z" fill="black"/>
<path d="M278.295 74.8528C279.451 73.4794 280.543 72.1818 280.543 70.5792C280.543 65.6263 276.514 61.5967 271.561 61.5967C266.608 61.5967 262.579 65.6263 262.579 70.5792C262.579 72.1817 263.61 73.4794 264.765 74.8528C265.647 75.8999 266.649 77.0869 267.211 78.5359V78.5364C267.772 79.4411 267.508 80.6681 267.356 81.8549C267.158 83.4218 266.984 85.0424 268.02 86.2184C268.733 87.0277 269.897 87.4213 271.546 87.4213C273.195 87.4213 274.352 87.0277 275.065 86.2184C276.101 85.0424 275.9 83.4218 275.701 81.8549C275.55 80.6679 275.396 79.4411 275.788 78.5358C276.414 77.0869 277.413 75.8999 278.295 74.8528ZM273.728 77.6451C273.093 79.1138 273.297 80.7202 273.477 82.1374C273.613 83.2098 273.753 84.3189 273.388 84.7339C273.137 85.0191 272.488 85.1758 271.561 85.1758C270.635 85.1758 269.986 85.0191 269.735 84.7339C269.369 84.3189 269.54 83.2098 269.676 82.1374C269.856 80.7202 270.017 79.1138 269.456 77.6451V77.6456C268.614 75.8933 267.556 74.5721 266.576 73.4066C265.652 72.3101 264.84 71.3627 264.84 70.5793C264.84 66.8644 267.846 63.8424 271.561 63.8424C275.276 63.8424 278.298 66.8643 278.298 70.5793C278.298 71.3628 277.501 72.3101 276.578 73.4066C275.598 74.5722 274.485 75.8934 273.728 77.6451Z" fill="black"/>
<path d="M264.354 78.6476C263.851 78.2891 263.149 78.4047 262.788 78.9091L257.174 86.7688C256.814 87.2731 256.931 87.9744 257.435 88.3351C257.633 88.476 257.861 88.544 258.087 88.544C258.438 88.544 258.782 88.3806 259.001 88.0736L264.615 80.214C264.976 79.7095 264.859 79.0084 264.354 78.6476Z" fill="black"/>
<path d="M285.948 86.769L280.334 78.9094C279.974 78.405 279.273 78.2888 278.769 78.6479C278.264 79.0086 278.147 79.7099 278.508 80.2143L284.122 88.0739C284.341 88.3809 284.685 88.5443 285.036 88.5443C285.262 88.5443 285.49 88.4763 285.688 88.3354C286.192 87.9746 286.309 87.2734 285.948 86.769Z" fill="black"/>
<path d="M286.017 104.403H255.702V106.649H286.017V104.403Z" fill="black"/>
</g>
<path d="M85.5566 63.2852C85.5566 62.2891 85.2051 61.5273 84.502 61C83.7988 60.4609 82.5332 59.8984 80.7051 59.3125C78.877 58.7148 77.4297 58.1289 76.3633 57.5547C73.457 55.9844 72.0039 53.8691 72.0039 51.209C72.0039 49.8262 72.3906 48.5957 73.1641 47.5176C73.9492 46.4277 75.0684 45.5781 76.5215 44.9688C77.9863 44.3594 79.627 44.0547 81.4434 44.0547C83.2715 44.0547 84.9004 44.3887 86.3301 45.0566C87.7598 45.7129 88.8672 46.6445 89.6523 47.8516C90.4492 49.0586 90.8477 50.4297 90.8477 51.9648H85.5742C85.5742 50.793 85.2051 49.8848 84.4668 49.2402C83.7285 48.584 82.6914 48.2559 81.3555 48.2559C80.0664 48.2559 79.0645 48.5312 78.3496 49.082C77.6348 49.6211 77.2773 50.3359 77.2773 51.2266C77.2773 52.0586 77.6934 52.7559 78.5254 53.3184C79.3691 53.8809 80.6055 54.4082 82.2344 54.9004C85.2344 55.8027 87.4199 56.9219 88.791 58.2578C90.1621 59.5938 90.8477 61.2578 90.8477 63.25C90.8477 65.4648 90.0098 67.2051 88.334 68.4707C86.6582 69.7246 84.4023 70.3516 81.5664 70.3516C79.5977 70.3516 77.8047 69.9941 76.1875 69.2793C74.5703 68.5527 73.334 67.5625 72.4785 66.3086C71.6348 65.0547 71.2129 63.6016 71.2129 61.9492H76.5039C76.5039 64.7734 78.1914 66.1855 81.5664 66.1855C82.8203 66.1855 83.7988 65.9336 84.502 65.4297C85.2051 64.9141 85.5566 64.1992 85.5566 63.2852ZM93.3086 60.3145C93.3086 58.4277 93.6719 56.7461 94.3984 55.2695C95.125 53.793 96.168 52.6504 97.5273 51.8418C98.8984 51.0332 100.486 50.6289 102.291 50.6289C104.857 50.6289 106.949 51.4141 108.566 52.9844C110.195 54.5547 111.104 56.6875 111.291 59.3828L111.326 60.6836C111.326 63.6016 110.512 65.9453 108.883 67.7148C107.254 69.4727 105.068 70.3516 102.326 70.3516C99.584 70.3516 97.3926 69.4727 95.752 67.7148C94.123 65.957 93.3086 63.5664 93.3086 60.543V60.3145ZM98.3887 60.6836C98.3887 62.4883 98.7285 63.8711 99.4082 64.832C100.088 65.7812 101.061 66.2559 102.326 66.2559C103.557 66.2559 104.518 65.7871 105.209 64.8496C105.9 63.9004 106.246 62.3887 106.246 60.3145C106.246 58.5449 105.9 57.1738 105.209 56.2012C104.518 55.2285 103.545 54.7422 102.291 54.7422C101.049 54.7422 100.088 55.2285 99.4082 56.2012C98.7285 57.1621 98.3887 58.6562 98.3887 60.6836ZM122.365 66.2559C123.303 66.2559 124.064 65.998 124.65 65.4824C125.236 64.9668 125.541 64.2812 125.564 63.4258H130.328C130.316 64.7148 129.965 65.8984 129.273 66.9766C128.582 68.043 127.633 68.875 126.426 69.4727C125.23 70.0586 123.906 70.3516 122.453 70.3516C119.734 70.3516 117.59 69.4902 116.02 67.7676C114.449 66.0332 113.664 63.6426 113.664 60.5957V60.2617C113.664 57.332 114.443 54.9941 116.002 53.248C117.561 51.502 119.699 50.6289 122.418 50.6289C124.797 50.6289 126.701 51.3086 128.131 52.668C129.572 54.0156 130.305 55.8145 130.328 58.0645H125.564C125.541 57.0801 125.236 56.2832 124.65 55.6738C124.064 55.0527 123.291 54.7422 122.33 54.7422C121.146 54.7422 120.25 55.1758 119.641 56.043C119.043 56.8984 118.744 58.293 118.744 60.2266V60.7539C118.744 62.7109 119.043 64.1172 119.641 64.9727C120.238 65.8281 121.146 66.2559 122.365 66.2559ZM138.59 70H133.492V50.9805H138.59V70ZM133.193 46.0586C133.193 45.2969 133.445 44.6699 133.949 44.1777C134.465 43.6855 135.162 43.4395 136.041 43.4395C136.908 43.4395 137.6 43.6855 138.115 44.1777C138.631 44.6699 138.889 45.2969 138.889 46.0586C138.889 46.832 138.625 47.4648 138.098 47.957C137.582 48.4492 136.896 48.6953 136.041 48.6953C135.186 48.6953 134.494 48.4492 133.967 47.957C133.451 47.4648 133.193 46.832 133.193 46.0586ZM153.812 70C153.578 69.543 153.408 68.9746 153.303 68.2949C152.072 69.666 150.473 70.3516 148.504 70.3516C146.641 70.3516 145.094 69.8125 143.863 68.7344C142.645 67.6562 142.035 66.2969 142.035 64.6562C142.035 62.6406 142.779 61.0938 144.268 60.0156C145.768 58.9375 147.93 58.3926 150.754 58.3809H153.092V57.291C153.092 56.4121 152.863 55.709 152.406 55.1816C151.961 54.6543 151.252 54.3906 150.279 54.3906C149.424 54.3906 148.75 54.5957 148.258 55.0059C147.777 55.416 147.537 55.9785 147.537 56.6934H142.457C142.457 55.5918 142.797 54.5723 143.477 53.6348C144.156 52.6973 145.117 51.9648 146.359 51.4375C147.602 50.8984 148.996 50.6289 150.543 50.6289C152.887 50.6289 154.744 51.2207 156.115 52.4043C157.498 53.5762 158.189 55.2285 158.189 57.3613V65.6055C158.201 67.4102 158.453 68.7754 158.945 69.7012V70H153.812ZM149.611 66.4668C150.361 66.4668 151.053 66.3027 151.686 65.9746C152.318 65.6348 152.787 65.1836 153.092 64.6211V61.3516H151.193C148.65 61.3516 147.297 62.2305 147.133 63.9883L147.115 64.2871C147.115 64.9199 147.338 65.4414 147.783 65.8516C148.229 66.2617 148.838 66.4668 149.611 66.4668ZM167.453 70H162.355V43H167.453V70ZM85.5566 105.285C85.5566 104.289 85.2051 103.527 84.502 103C83.7988 102.461 82.5332 101.898 80.7051 101.312C78.877 100.715 77.4297 100.129 76.3633 99.5547C73.457 97.9844 72.0039 95.8691 72.0039 93.209C72.0039 91.8262 72.3906 90.5957 73.1641 89.5176C73.9492 88.4277 75.0684 87.5781 76.5215 86.9688C77.9863 86.3594 79.627 86.0547 81.4434 86.0547C83.2715 86.0547 84.9004 86.3887 86.3301 87.0566C87.7598 87.7129 88.8672 88.6445 89.6523 89.8516C90.4492 91.0586 90.8477 92.4297 90.8477 93.9648H85.5742C85.5742 92.793 85.2051 91.8848 84.4668 91.2402C83.7285 90.584 82.6914 90.2559 81.3555 90.2559C80.0664 90.2559 79.0645 90.5312 78.3496 91.082C77.6348 91.6211 77.2773 92.3359 77.2773 93.2266C77.2773 94.0586 77.6934 94.7559 78.5254 95.3184C79.3691 95.8809 80.6055 96.4082 82.2344 96.9004C85.2344 97.8027 87.4199 98.9219 88.791 100.258C90.1621 101.594 90.8477 103.258 90.8477 105.25C90.8477 107.465 90.0098 109.205 88.334 110.471C86.6582 111.725 84.4023 112.352 81.5664 112.352C79.5977 112.352 77.8047 111.994 76.1875 111.279C74.5703 110.553 73.334 109.562 72.4785 108.309C71.6348 107.055 71.2129 105.602 71.2129 103.949H76.5039C76.5039 106.773 78.1914 108.186 81.5664 108.186C82.8203 108.186 83.7988 107.934 84.502 107.43C85.2051 106.914 85.5566 106.199 85.5566 105.285ZM102.01 108.256C102.947 108.256 103.709 107.998 104.295 107.482C104.881 106.967 105.186 106.281 105.209 105.426H109.973C109.961 106.715 109.609 107.898 108.918 108.977C108.227 110.043 107.277 110.875 106.07 111.473C104.875 112.059 103.551 112.352 102.098 112.352C99.3789 112.352 97.2344 111.49 95.6641 109.768C94.0938 108.033 93.3086 105.643 93.3086 102.596V102.262C93.3086 99.332 94.0879 96.9941 95.6465 95.248C97.2051 93.502 99.3438 92.6289 102.062 92.6289C104.441 92.6289 106.346 93.3086 107.775 94.668C109.217 96.0156 109.949 97.8145 109.973 100.064H105.209C105.186 99.0801 104.881 98.2832 104.295 97.6738C103.709 97.0527 102.936 96.7422 101.975 96.7422C100.791 96.7422 99.8945 97.1758 99.2852 98.043C98.6875 98.8984 98.3887 100.293 98.3887 102.227V102.754C98.3887 104.711 98.6875 106.117 99.2852 106.973C99.8828 107.828 100.791 108.256 102.01 108.256ZM118.234 112H113.137V92.9805H118.234V112ZM112.838 88.0586C112.838 87.2969 113.09 86.6699 113.594 86.1777C114.109 85.6855 114.807 85.4395 115.686 85.4395C116.553 85.4395 117.244 85.6855 117.76 86.1777C118.275 86.6699 118.533 87.2969 118.533 88.0586C118.533 88.832 118.27 89.4648 117.742 89.957C117.227 90.4492 116.541 90.6953 115.686 90.6953C114.83 90.6953 114.139 90.4492 113.611 89.957C113.096 89.4648 112.838 88.832 112.838 88.0586ZM131.189 112.352C128.4 112.352 126.127 111.496 124.369 109.785C122.623 108.074 121.75 105.795 121.75 102.947V102.455C121.75 100.545 122.119 98.8398 122.857 97.3398C123.596 95.8281 124.639 94.668 125.986 93.8594C127.346 93.0391 128.893 92.6289 130.627 92.6289C133.229 92.6289 135.273 93.4492 136.762 95.0898C138.262 96.7305 139.012 99.0566 139.012 102.068V104.143H126.9C127.064 105.385 127.557 106.381 128.377 107.131C129.209 107.881 130.258 108.256 131.523 108.256C133.48 108.256 135.01 107.547 136.111 106.129L138.607 108.924C137.846 110.002 136.814 110.846 135.514 111.455C134.213 112.053 132.771 112.352 131.189 112.352ZM130.609 96.7422C129.602 96.7422 128.781 97.082 128.148 97.7617C127.527 98.4414 127.129 99.4141 126.953 100.68H134.02V100.275C133.996 99.1504 133.691 98.2832 133.105 97.6738C132.52 97.0527 131.688 96.7422 130.609 96.7422ZM146.588 92.9805L146.746 95.1777C148.105 93.4785 149.928 92.6289 152.213 92.6289C154.229 92.6289 155.729 93.2207 156.713 94.4043C157.697 95.5879 158.201 97.3574 158.225 99.7129V112H153.145V99.8359C153.145 98.7578 152.91 97.9785 152.441 97.498C151.973 97.0059 151.193 96.7598 150.104 96.7598C148.674 96.7598 147.602 97.3691 146.887 98.5879V112H141.807V92.9805H146.588ZM170.002 108.256C170.939 108.256 171.701 107.998 172.287 107.482C172.873 106.967 173.178 106.281 173.201 105.426H177.965C177.953 106.715 177.602 107.898 176.91 108.977C176.219 110.043 175.27 110.875 174.062 111.473C172.867 112.059 171.543 112.352 170.09 112.352C167.371 112.352 165.227 111.49 163.656 109.768C162.086 108.033 161.301 105.643 161.301 102.596V102.262C161.301 99.332 162.08 96.9941 163.639 95.248C165.197 93.502 167.336 92.6289 170.055 92.6289C172.434 92.6289 174.338 93.3086 175.768 94.668C177.209 96.0156 177.941 97.8145 177.965 100.064H173.201C173.178 99.0801 172.873 98.2832 172.287 97.6738C171.701 97.0527 170.928 96.7422 169.967 96.7422C168.783 96.7422 167.887 97.1758 167.277 98.043C166.68 98.8984 166.381 100.293 166.381 102.227V102.754C166.381 104.711 166.68 106.117 167.277 106.973C167.875 107.828 168.783 108.256 170.002 108.256ZM189.619 112.352C186.83 112.352 184.557 111.496 182.799 109.785C181.053 108.074 180.18 105.795 180.18 102.947V102.455C180.18 100.545 180.549 98.8398 181.287 97.3398C182.025 95.8281 183.068 94.668 184.416 93.8594C185.775 93.0391 187.322 92.6289 189.057 92.6289C191.658 92.6289 193.703 93.4492 195.191 95.0898C196.691 96.7305 197.441 99.0566 197.441 102.068V104.143H185.33C185.494 105.385 185.986 106.381 186.807 107.131C187.639 107.881 188.688 108.256 189.953 108.256C191.91 108.256 193.439 107.547 194.541 106.129L197.037 108.924C196.275 110.002 195.244 110.846 193.943 111.455C192.643 112.053 191.201 112.352 189.619 112.352ZM189.039 96.7422C188.031 96.7422 187.211 97.082 186.578 97.7617C185.957 98.4414 185.559 99.4141 185.383 100.68H192.449V100.275C192.426 99.1504 192.121 98.2832 191.535 97.6738C190.949 97.0527 190.117 96.7422 189.039 96.7422Z" fill="#171717"/>
<ellipse cx="349" cy="151.5" rx="60" ry="57.5" fill="#F73378" fill-opacity="0.7"/>
<ellipse cx="11" cy="7.5" rx="60" ry="57.5" fill="#1769AA"/>
</g>
<defs>
<clipPath id="clip0">
<rect width="358" height="159" rx="10" fill="white"/>
</clipPath>
<clipPath id="clip1">
<rect width="64" height="64" fill="white" transform="translate(239 47)"/>
</clipPath>
</defs>
</svg>
