<svg width="320" height="120" viewBox="0 0 320 120" fill="none" xmlns="http://www.w3.org/2000/svg">
<g clip-path="url(#clip0)">
<rect width="320" height="120" rx="10" fill="#FFE179"/>
<g clip-path="url(#clip1)">
<path d="M230.737 53.6846C227.951 53.6846 225.684 55.951 225.684 58.7372C225.684 61.5235 227.951 63.7899 230.737 63.7899C233.523 63.7899 235.79 61.5235 235.79 58.7372C235.79 55.951 233.523 53.6846 230.737 53.6846ZM230.737 62.1056C228.879 62.1056 227.368 60.5945 227.368 58.7371C227.368 56.8798 228.879 55.3687 230.737 55.3687C232.595 55.3687 234.105 56.8798 234.105 58.7371C234.105 60.5945 232.595 62.1056 230.737 62.1056Z" fill="black"/>
<path d="M265.263 53.6846C262.477 53.6846 260.21 55.951 260.21 58.7372C260.21 61.5235 262.477 63.7899 265.263 63.7899C268.049 63.7899 270.316 61.5235 270.316 58.7372C270.316 55.951 268.049 53.6846 265.263 53.6846ZM265.263 62.1056C263.405 62.1056 261.895 60.5945 261.895 58.7371C261.895 56.8798 263.405 55.3687 265.263 55.3687C267.121 55.3687 268.632 56.8798 268.632 58.7371C268.632 60.5945 267.121 62.1056 265.263 62.1056Z" fill="black"/>
<path d="M248.421 36C245.635 36 243.368 38.2664 243.368 41.0527C243.368 43.8389 245.635 46.1053 248.421 46.1053C251.207 46.1053 253.474 43.8389 253.474 41.0527C253.474 38.2664 251.207 36 248.421 36ZM248.421 44.4211C246.563 44.4211 245.053 42.91 245.053 41.0527C245.053 39.1954 246.563 37.6842 248.421 37.6842C250.279 37.6842 251.79 39.1953 251.79 41.0527C251.79 42.9099 250.279 44.4211 248.421 44.4211Z" fill="black"/>
<path d="M235.788 74.5739C236.655 73.5439 237.474 72.5707 237.474 71.3687C237.474 67.6541 234.451 64.6318 230.737 64.6318C227.022 64.6319 224 67.6541 224 71.3687C224 72.5706 224.773 73.5439 225.64 74.5739C226.301 75.3593 227.053 76.2495 227.474 77.3363V77.3367C227.895 78.0152 227.696 78.9354 227.583 79.8256C227.434 81.0008 227.303 82.2162 228.081 83.0982C228.615 83.7051 229.489 84.0003 230.725 84.0003C231.962 84.0003 232.83 83.7051 233.364 83.0982C234.141 82.2162 233.991 81.0007 233.842 79.8255C233.728 78.9353 233.613 78.0151 233.906 77.3362C234.376 76.2495 235.127 75.3593 235.788 74.5739ZM232.362 76.6681C231.886 77.7697 232.039 78.9745 232.174 80.0374C232.276 80.8417 232.381 81.6735 232.107 81.9848C231.918 82.1986 231.432 82.3162 230.737 82.3162C230.042 82.3162 229.555 82.1986 229.367 81.9848C229.093 81.6735 229.221 80.8417 229.323 80.0374C229.458 78.9745 229.579 77.7697 229.158 76.6681V76.6685C228.526 75.3543 227.733 74.3634 226.997 73.4892C226.305 72.6669 225.696 71.9563 225.696 71.3688C225.696 68.5826 227.956 66.3161 230.742 66.3161C233.529 66.3161 235.792 68.5826 235.792 71.3688C235.792 71.9564 235.193 72.6669 234.5 73.4892C233.765 74.3634 232.929 75.3543 232.362 76.6681Z" fill="black"/>
<path d="M270.314 74.5739C271.181 73.5439 272 72.5706 272 71.3687C272 67.6541 268.978 64.6318 265.263 64.6318C261.548 64.6318 258.526 67.6541 258.526 71.3687C258.526 72.5706 259.299 73.5439 260.166 74.5739C260.827 75.3593 261.579 76.2495 262 77.3363V77.3367C262.421 78.0152 262.223 78.9354 262.109 79.8256C261.96 81.0008 261.83 82.2162 262.607 83.0982C263.141 83.7052 264.015 84.0004 265.251 84.0004C266.488 84.0004 267.356 83.7052 267.89 83.0982C268.668 82.2162 268.517 81.0008 268.368 79.8256C268.254 78.9354 268.139 78.0152 268.433 77.3363C268.902 76.2495 269.653 75.3593 270.314 74.5739ZM266.888 76.6681C266.412 77.7697 266.565 78.9745 266.7 80.0374C266.802 80.8417 266.907 81.6735 266.633 81.9848C266.445 82.1986 265.958 82.3162 265.263 82.3162C264.568 82.3162 264.081 82.1986 263.893 81.9848C263.619 81.6735 263.747 80.8417 263.849 80.0374C263.984 78.9745 264.105 77.7697 263.684 76.6681V76.6685C263.052 75.3543 262.259 74.3634 261.524 73.4892C260.831 72.6669 260.222 71.9563 260.222 71.3688C260.222 68.5826 262.483 66.3161 265.269 66.3161C268.055 66.3161 270.318 68.5826 270.318 71.3688C270.318 71.9564 269.719 72.6669 269.027 73.4892C268.292 74.3634 267.455 75.3543 266.888 76.6681Z" fill="black"/>
<path d="M253.471 56.8894C254.338 55.8593 255.158 54.8861 255.158 53.6841C255.158 49.9695 252.136 46.9473 248.421 46.9473C244.706 46.9473 241.684 49.9695 241.684 53.6841C241.684 54.886 242.457 55.8593 243.324 56.8894C243.985 57.6747 244.737 58.565 245.158 59.6517V59.6521C245.579 60.3305 245.381 61.2508 245.267 62.141C245.118 63.3161 244.988 64.5316 245.765 65.4136C246.299 66.0205 247.173 66.3157 248.41 66.3157C249.647 66.3157 250.514 66.0205 251.049 65.4136C251.826 64.5316 251.675 63.3161 251.526 62.141C251.413 61.2507 251.297 60.3305 251.591 59.6516C252.06 58.565 252.81 57.6747 253.471 56.8894ZM250.046 58.9835C249.57 60.0851 249.723 61.2899 249.858 62.3528C249.96 63.1571 250.065 63.989 249.791 64.3002C249.603 64.514 249.116 64.6316 248.421 64.6316C247.726 64.6316 247.239 64.514 247.051 64.3002C246.777 63.989 246.905 63.1571 247.007 62.3528C247.142 61.2899 247.263 60.0851 246.842 58.9835V58.9839C246.21 57.6697 245.417 56.6788 244.682 55.8047C243.989 54.9823 243.38 54.2718 243.38 53.6842C243.38 50.8981 245.635 48.6316 248.421 48.6316C251.207 48.6316 253.474 50.898 253.474 53.6842C253.474 54.2719 252.876 54.9823 252.183 55.8047C251.448 56.6789 250.613 57.6698 250.046 58.9835Z" fill="black"/>
<path d="M243.016 59.7352C242.638 59.4664 242.112 59.5531 241.841 59.9314L237.631 65.8261C237.36 66.2044 237.448 66.7303 237.827 67.0009C237.975 67.1065 238.146 67.1575 238.315 67.1575C238.578 67.1575 238.837 67.035 239.001 66.8047L243.212 60.91C243.482 60.5316 243.394 60.0058 243.016 59.7352Z" fill="black"/>
<path d="M259.211 65.8263L255.001 59.9316C254.73 59.5533 254.205 59.4661 253.827 59.7354C253.448 60.006 253.36 60.5319 253.631 60.9102L257.841 66.8049C258.006 67.0352 258.264 67.1577 258.527 67.1577C258.697 67.1577 258.868 67.1067 259.016 67.0011C259.394 66.7305 259.482 66.2046 259.211 65.8263Z" fill="black"/>
<path d="M259.263 79.0527H236.526V80.737H259.263V79.0527Z" fill="black"/>
</g>
<path d="M58.3711 49.5234C58.3711 48.8594 58.1367 48.3516 57.668 48C57.1992 47.6406 56.3555 47.2656 55.1367 46.875C53.918 46.4766 52.9531 46.0859 52.2422 45.7031C50.3047 44.6562 49.3359 43.2461 49.3359 41.4727C49.3359 40.5508 49.5938 39.7305 50.1094 39.0117C50.6328 38.2852 51.3789 37.7188 52.3477 37.3125C53.3242 36.9062 54.418 36.7031 55.6289 36.7031C56.8477 36.7031 57.9336 36.9258 58.8867 37.3711C59.8398 37.8086 60.5781 38.4297 61.1016 39.2344C61.6328 40.0391 61.8984 40.9531 61.8984 41.9766H58.3828C58.3828 41.1953 58.1367 40.5898 57.6445 40.1602C57.1523 39.7227 56.4609 39.5039 55.5703 39.5039C54.7109 39.5039 54.043 39.6875 53.5664 40.0547C53.0898 40.4141 52.8516 40.8906 52.8516 41.4844C52.8516 42.0391 53.1289 42.5039 53.6836 42.8789C54.2461 43.2539 55.0703 43.6055 56.1562 43.9336C58.1562 44.5352 59.6133 45.2812 60.5273 46.1719C61.4414 47.0625 61.8984 48.1719 61.8984 49.5C61.8984 50.9766 61.3398 52.1367 60.2227 52.9805C59.1055 53.8164 57.6016 54.2344 55.7109 54.2344C54.3984 54.2344 53.2031 53.9961 52.125 53.5195C51.0469 53.0352 50.2227 52.375 49.6523 51.5391C49.0898 50.7031 48.8086 49.7344 48.8086 48.6328H52.3359C52.3359 50.5156 53.4609 51.457 55.7109 51.457C56.5469 51.457 57.1992 51.2891 57.668 50.9531C58.1367 50.6094 58.3711 50.1328 58.3711 49.5234ZM63.5391 47.543C63.5391 46.2852 63.7812 45.1641 64.2656 44.1797C64.75 43.1953 65.4453 42.4336 66.3516 41.8945C67.2656 41.3555 68.3242 41.0859 69.5273 41.0859C71.2383 41.0859 72.6328 41.6094 73.7109 42.6562C74.7969 43.7031 75.4023 45.125 75.5273 46.9219L75.5508 47.7891C75.5508 49.7344 75.0078 51.2969 73.9219 52.4766C72.8359 53.6484 71.3789 54.2344 69.5508 54.2344C67.7227 54.2344 66.2617 53.6484 65.168 52.4766C64.082 51.3047 63.5391 49.7109 63.5391 47.6953V47.543ZM66.9258 47.7891C66.9258 48.9922 67.1523 49.9141 67.6055 50.5547C68.0586 51.1875 68.707 51.5039 69.5508 51.5039C70.3711 51.5039 71.0117 51.1914 71.4727 50.5664C71.9336 49.9336 72.1641 48.9258 72.1641 47.543C72.1641 46.3633 71.9336 45.4492 71.4727 44.8008C71.0117 44.1523 70.3633 43.8281 69.5273 43.8281C68.6992 43.8281 68.0586 44.1523 67.6055 44.8008C67.1523 45.4414 66.9258 46.4375 66.9258 47.7891ZM82.9102 51.5039C83.5352 51.5039 84.043 51.332 84.4336 50.9883C84.8242 50.6445 85.0273 50.1875 85.043 49.6172H88.2188C88.2109 50.4766 87.9766 51.2656 87.5156 51.9844C87.0547 52.6953 86.4219 53.25 85.6172 53.6484C84.8203 54.0391 83.9375 54.2344 82.9688 54.2344C81.1562 54.2344 79.7266 53.6602 78.6797 52.5117C77.6328 51.3555 77.1094 49.7617 77.1094 47.7305V47.5078C77.1094 45.5547 77.6289 43.9961 78.668 42.832C79.707 41.668 81.1328 41.0859 82.9453 41.0859C84.5312 41.0859 85.8008 41.5391 86.7539 42.4453C87.7148 43.3438 88.2031 44.543 88.2188 46.043H85.043C85.0273 45.3867 84.8242 44.8555 84.4336 44.4492C84.043 44.0352 83.5273 43.8281 82.8867 43.8281C82.0977 43.8281 81.5 44.1172 81.0938 44.6953C80.6953 45.2656 80.4961 46.1953 80.4961 47.4844V47.8359C80.4961 49.1406 80.6953 50.0781 81.0938 50.6484C81.4922 51.2188 82.0977 51.5039 82.9102 51.5039ZM93.7266 54H90.3281V41.3203H93.7266V54ZM90.1289 38.0391C90.1289 37.5312 90.2969 37.1133 90.6328 36.7852C90.9766 36.457 91.4414 36.293 92.0273 36.293C92.6055 36.293 93.0664 36.457 93.4102 36.7852C93.7539 37.1133 93.9258 37.5312 93.9258 38.0391C93.9258 38.5547 93.75 38.9766 93.3984 39.3047C93.0547 39.6328 92.5977 39.7969 92.0273 39.7969C91.457 39.7969 90.9961 39.6328 90.6445 39.3047C90.3008 38.9766 90.1289 38.5547 90.1289 38.0391ZM103.875 54C103.719 53.6953 103.605 53.3164 103.535 52.8633C102.715 53.7773 101.648 54.2344 100.336 54.2344C99.0938 54.2344 98.0625 53.875 97.2422 53.1562C96.4297 52.4375 96.0234 51.5312 96.0234 50.4375C96.0234 49.0938 96.5195 48.0625 97.5117 47.3438C98.5117 46.625 99.9531 46.2617 101.836 46.2539H103.395V45.5273C103.395 44.9414 103.242 44.4727 102.938 44.1211C102.641 43.7695 102.168 43.5938 101.52 43.5938C100.949 43.5938 100.5 43.7305 100.172 44.0039C99.8516 44.2773 99.6914 44.6523 99.6914 45.1289H96.3047C96.3047 44.3945 96.5312 43.7148 96.9844 43.0898C97.4375 42.4648 98.0781 41.9766 98.9062 41.625C99.7344 41.2656 100.664 41.0859 101.695 41.0859C103.258 41.0859 104.496 41.4805 105.41 42.2695C106.332 43.0508 106.793 44.1523 106.793 45.5742V51.0703C106.801 52.2734 106.969 53.1836 107.297 53.8008V54H103.875ZM101.074 51.6445C101.574 51.6445 102.035 51.5352 102.457 51.3164C102.879 51.0898 103.191 50.7891 103.395 50.4141V48.2344H102.129C100.434 48.2344 99.5312 48.8203 99.4219 49.9922L99.4102 50.1914C99.4102 50.6133 99.5586 50.9609 99.8555 51.2344C100.152 51.5078 100.559 51.6445 101.074 51.6445ZM112.969 54H109.57V36H112.969V54ZM58.3711 77.5234C58.3711 76.8594 58.1367 76.3516 57.668 76C57.1992 75.6406 56.3555 75.2656 55.1367 74.875C53.918 74.4766 52.9531 74.0859 52.2422 73.7031C50.3047 72.6562 49.3359 71.2461 49.3359 69.4727C49.3359 68.5508 49.5938 67.7305 50.1094 67.0117C50.6328 66.2852 51.3789 65.7188 52.3477 65.3125C53.3242 64.9062 54.418 64.7031 55.6289 64.7031C56.8477 64.7031 57.9336 64.9258 58.8867 65.3711C59.8398 65.8086 60.5781 66.4297 61.1016 67.2344C61.6328 68.0391 61.8984 68.9531 61.8984 69.9766H58.3828C58.3828 69.1953 58.1367 68.5898 57.6445 68.1602C57.1523 67.7227 56.4609 67.5039 55.5703 67.5039C54.7109 67.5039 54.043 67.6875 53.5664 68.0547C53.0898 68.4141 52.8516 68.8906 52.8516 69.4844C52.8516 70.0391 53.1289 70.5039 53.6836 70.8789C54.2461 71.2539 55.0703 71.6055 56.1562 71.9336C58.1562 72.5352 59.6133 73.2812 60.5273 74.1719C61.4414 75.0625 61.8984 76.1719 61.8984 77.5C61.8984 78.9766 61.3398 80.1367 60.2227 80.9805C59.1055 81.8164 57.6016 82.2344 55.7109 82.2344C54.3984 82.2344 53.2031 81.9961 52.125 81.5195C51.0469 81.0352 50.2227 80.375 49.6523 79.5391C49.0898 78.7031 48.8086 77.7344 48.8086 76.6328H52.3359C52.3359 78.5156 53.4609 79.457 55.7109 79.457C56.5469 79.457 57.1992 79.2891 57.668 78.9531C58.1367 78.6094 58.3711 78.1328 58.3711 77.5234ZM69.3398 79.5039C69.9648 79.5039 70.4727 79.332 70.8633 78.9883C71.2539 78.6445 71.457 78.1875 71.4727 77.6172H74.6484C74.6406 78.4766 74.4062 79.2656 73.9453 79.9844C73.4844 80.6953 72.8516 81.25 72.0469 81.6484C71.25 82.0391 70.3672 82.2344 69.3984 82.2344C67.5859 82.2344 66.1562 81.6602 65.1094 80.5117C64.0625 79.3555 63.5391 77.7617 63.5391 75.7305V75.5078C63.5391 73.5547 64.0586 71.9961 65.0977 70.832C66.1367 69.668 67.5625 69.0859 69.375 69.0859C70.9609 69.0859 72.2305 69.5391 73.1836 70.4453C74.1445 71.3438 74.6328 72.543 74.6484 74.043H71.4727C71.457 73.3867 71.2539 72.8555 70.8633 72.4492C70.4727 72.0352 69.957 71.8281 69.3164 71.8281C68.5273 71.8281 67.9297 72.1172 67.5234 72.6953C67.125 73.2656 66.9258 74.1953 66.9258 75.4844V75.8359C66.9258 77.1406 67.125 78.0781 67.5234 78.6484C67.9219 79.2188 68.5273 79.5039 69.3398 79.5039ZM80.1562 82H76.7578V69.3203H80.1562V82ZM76.5586 66.0391C76.5586 65.5312 76.7266 65.1133 77.0625 64.7852C77.4062 64.457 77.8711 64.293 78.457 64.293C79.0352 64.293 79.4961 64.457 79.8398 64.7852C80.1836 65.1133 80.3555 65.5312 80.3555 66.0391C80.3555 66.5547 80.1797 66.9766 79.8281 67.3047C79.4844 67.6328 79.0273 67.7969 78.457 67.7969C77.8867 67.7969 77.4258 67.6328 77.0742 67.3047C76.7305 66.9766 76.5586 66.5547 76.5586 66.0391ZM88.793 82.2344C86.9336 82.2344 85.418 81.6641 84.2461 80.5234C83.082 79.3828 82.5 77.8633 82.5 75.9648V75.6367C82.5 74.3633 82.7461 73.2266 83.2383 72.2266C83.7305 71.2188 84.4258 70.4453 85.3242 69.9062C86.2305 69.3594 87.2617 69.0859 88.418 69.0859C90.1523 69.0859 91.5156 69.6328 92.5078 70.7266C93.5078 71.8203 94.0078 73.3711 94.0078 75.3789V76.7617H85.9336C86.043 77.5898 86.3711 78.2539 86.918 78.7539C87.4727 79.2539 88.1719 79.5039 89.0156 79.5039C90.3203 79.5039 91.3398 79.0312 92.0742 78.0859L93.7383 79.9492C93.2305 80.668 92.543 81.2305 91.6758 81.6367C90.8086 82.0352 89.8477 82.2344 88.793 82.2344ZM88.4062 71.8281C87.7344 71.8281 87.1875 72.0547 86.7656 72.5078C86.3516 72.9609 86.0859 73.6094 85.9688 74.4531H90.6797V74.1836C90.6641 73.4336 90.4609 72.8555 90.0703 72.4492C89.6797 72.0352 89.125 71.8281 88.4062 71.8281ZM99.0586 69.3203L99.1641 70.7852C100.07 69.6523 101.285 69.0859 102.809 69.0859C104.152 69.0859 105.152 69.4805 105.809 70.2695C106.465 71.0586 106.801 72.2383 106.816 73.8086V82H103.43V73.8906C103.43 73.1719 103.273 72.6523 102.961 72.332C102.648 72.0039 102.129 71.8398 101.402 71.8398C100.449 71.8398 99.7344 72.2461 99.2578 73.0586V82H95.8711V69.3203H99.0586ZM114.668 79.5039C115.293 79.5039 115.801 79.332 116.191 78.9883C116.582 78.6445 116.785 78.1875 116.801 77.6172H119.977C119.969 78.4766 119.734 79.2656 119.273 79.9844C118.812 80.6953 118.18 81.25 117.375 81.6484C116.578 82.0391 115.695 82.2344 114.727 82.2344C112.914 82.2344 111.484 81.6602 110.438 80.5117C109.391 79.3555 108.867 77.7617 108.867 75.7305V75.5078C108.867 73.5547 109.387 71.9961 110.426 70.832C111.465 69.668 112.891 69.0859 114.703 69.0859C116.289 69.0859 117.559 69.5391 118.512 70.4453C119.473 71.3438 119.961 72.543 119.977 74.043H116.801C116.785 73.3867 116.582 72.8555 116.191 72.4492C115.801 72.0352 115.285 71.8281 114.645 71.8281C113.855 71.8281 113.258 72.1172 112.852 72.6953C112.453 73.2656 112.254 74.1953 112.254 75.4844V75.8359C112.254 77.1406 112.453 78.0781 112.852 78.6484C113.25 79.2188 113.855 79.5039 114.668 79.5039ZM127.746 82.2344C125.887 82.2344 124.371 81.6641 123.199 80.5234C122.035 79.3828 121.453 77.8633 121.453 75.9648V75.6367C121.453 74.3633 121.699 73.2266 122.191 72.2266C122.684 71.2188 123.379 70.4453 124.277 69.9062C125.184 69.3594 126.215 69.0859 127.371 69.0859C129.105 69.0859 130.469 69.6328 131.461 70.7266C132.461 71.8203 132.961 73.3711 132.961 75.3789V76.7617H124.887C124.996 77.5898 125.324 78.2539 125.871 78.7539C126.426 79.2539 127.125 79.5039 127.969 79.5039C129.273 79.5039 130.293 79.0312 131.027 78.0859L132.691 79.9492C132.184 80.668 131.496 81.2305 130.629 81.6367C129.762 82.0352 128.801 82.2344 127.746 82.2344ZM127.359 71.8281C126.688 71.8281 126.141 72.0547 125.719 72.5078C125.305 72.9609 125.039 73.6094 124.922 74.4531H129.633V74.1836C129.617 73.4336 129.414 72.8555 129.023 72.4492C128.633 72.0352 128.078 71.8281 127.359 71.8281Z" fill="#171717"/>
<ellipse cx="325" cy="120.5" rx="60" ry="57.5" fill="#F73378" fill-opacity="0.7"/>
<ellipse cx="-4" cy="-3.5" rx="60" ry="57.5" fill="#1769AA"/>
</g>
<defs>
<clipPath id="clip0">
<rect width="320" height="120" rx="10" fill="white"/>
</clipPath>
<clipPath id="clip1">
<rect width="48" height="48" fill="white" transform="translate(224 36)"/>
</clipPath>
</defs>
</svg>
